<svg xmlns="http://www.w3.org/2000/svg" width="143.956" height="135.152" viewBox="0 0 143.956 135.152">
  <g id="australia" transform="translate(-0.252 -0.26)">
    <path id="AU-NT" d="M181.658,15.8v-.117l.2-.257-.489-.329.111-.257.137-.068.5.016.033-.114-.036-.309-.1-.192.091-.134.316.016.352.228.463.023.326.235.2.029,1.55-.1.463.147.57-.391.485.01.2.378-.121.261.192-.2.026-.085-.072-.42.068-.127.472-.169.371.137.235-.02-.137-.016-.251-.186-.039-.166.026-1.032.2-.313-.534-.4-.179-.254-.147-.091-.267-.049-.5.085-.436.235-.068-.007-.342-.342-.068-.235-.371-.2-.332.029-.023-.039.388-.463.391-.179.375.368.267.632.137.013.107-.2-.153-.476-.163-.293.124-.029.335.114.228-.121.576.482.036.156.56.717.192.042.163-.127.362-.541.153.013.277.3.531.961.13.1.241.072.2-.134h.176l.179.261.5.212.241.007.173-.055.342-.186.13-.176.384.065.039.111-.244.14-.055.085.016.088.111.1.254.107.2-.091.1-.137.081-.013.479.365-.042.068.049.29.068.055.576-.085.182.075.335.029.293-.036.261-.2.348-.02.352.489.446.231.306.254.384.036.137.062-.02-.068.143-.371.218-.218.182-.078.205.091.524-.062.27-.218-.081-.046-.2.121-.036-.088.075-.27.326-.088.241.007.449-.358-.013-.251.13,0,.121.14-.107.173-.6.511.15.176-.407.417-.016.114.068.169.166.156.179-.078L199,14.3l.29-.238.492-.143-.3.378.121.182.261-.121.062.107-.283.41.1.241.1.1.147-.094.267-.029.049.085.244-.023.189-.147.248-.629-.094-.124-.335.042-.215-.091-.016-.088.368-.365.6-.4.394-.072-.081.27.221.622.251.365.16,0,.137-.1-.01-.078-.231-.085.02-.068.287-.072.358.182.362.489-.616.43-.208.241-.358.576-.081.436-.446-.166-.036.241.218.4,0,.349-.059.342-.248.371-.033-.114-.287.1.013-.642-.055-.055-.111.026-.14.378-.3.264-.143.01-.049-.14-.173-.068-.368.143-.234.192-.127.218.01.1.143.111-.094.212-.156.13-.065.407.153.453.137.075.2-.049.153-.173-.02.27-.111.378-.225.345-.1.655-.1.189-.41.277-.466.6-.287.5-.007.264-.443.3-.143,0,.218.632.15.225.235.2.453.163.642.41.329.3.948.492.1.088.085.446.2.228.879.42.362.3.329.358.935.039.375.2.821.583.42.179.2-.007.365.121.322.16.43.684.5.427h0V65.7h0l-23.926,0h0l-4.713,0h0l-3.163.023h0l-.02-33.092h0V25.794h0V23.872h0l.316.1.339.293-.039.664.059.072.231-.287-.134-.883.039-.081.365.1.456.231.73.814.029.176.2-.075-.241-.316-.13-.27-.046-.27.078-.153.039-.244.544.094.225-.075.283-.274-.632.2-.319-.205-.254-.332-.059-.169.13-.065.28-.029.231-.163.013-.078-.4.134-.423-.078-.3-.173-.342-.326.042-.29.212-.4.218-.29.85-.534.192-.905-.02-.166.166-.655.251-.261.033.228.124.072.342-.062.433-.293.355-.375-.036-.134-.221-.3-.121-.1-.121-.026-.029-.078.033-.638.059-.16.147-.065.049.091.1.049.134-.029.228-.163.091-.2-.033-.479.036-.121.547-.244.326.371.313-.023-.3-.088-.1-.381.094-.231.026-.287-.107-.081.173-.072.5.16Zm.221-2.521-.345-.287-.648-.267-.651-.511-.264-.694-.189-.7.026-.264.075-.059.492.43.147.238.466.147.5-.117.192-.179.371.16.414-.319.107-.01.072.244.182.261.016-.091-.12-.3.042-.179.235-.186.518.208.391.515.029.27-.9.948-.114.016-.436.28Zm21.037,8.081.055-.091.153-.01-.091.456-.186.072-.489-.13-.42.062-.9-.225.124-.622-.026-.267.081-.3.1-.173.479-.091.114-.088-.1-.228.3-.248.153.01-.026.166-.137.094.13.378.335.059.117-.124-.036-.124.065-.088.117-.033.1.075.026.134-.349.358-.186.121-.218.485.007.335.1.088.472.072.13-.121Zm-22.685-8.442-.586-.225-.818.208-.2-.039-.055-.088-.026-.094.2-.355.163.1.134.007.13-.127-.01-.5-.059-.153.29-.5.313-.065.521,1.3.251.065.264.238-.081.179-.43.052Zm21.252-1.371.013-.166.479-.694.3-.612.16-.085-.173.664-.576.808-.078.072Zm-13.816-.4-.1-.111-.124-.342-.1-.6.27-.1.169.557-.007.352Zm15.764,16.217-.2-.15-.221-.329.065-.189.2-.2.16.2.134.433-.091.231ZM200.416,20.2l.01-.13-.114-.2-.091.062.055.173h-.15l-.055-.068.033-.3.309-.244.15.026.156.212-.049.231-.117.189Zm-.065-7.817v-.166l.322-.257.267-.013.469-.365-.033.179-.355.27-.671.352Zm1.208,14.305-.091-.046.072-.306.2-.137.1.046-.062.4-.221.042Z" transform="translate(-117.799 -6.561)" fill="#6cddb4"/>
    <path id="AU-WA" d="M4.965,85.82l.062-.121,0-.479-.791-.837-.42-.788-.384-.974-.375-.228-.319-.905-.029-.173.039-.352L2.532,80.6l-.446-.521-.127-.371-.02-.765.143-.371.078-.476.3-.977.244-.489.5-.394.088-.329.049-.44-.078-.508.205-.625-.039-.371-.192-.531-.29-.41L2.9,72.713l.508-1.029.472-1.358.342-.508.208-.117.261-.046.046.091-.176.332-.173,1,.228.482-.111.7.153.156.772-.326.1-.407.215-.55.583-1.013.091-.313,1.032-.573.388-.029.681-.339.73-.28.593-.7.215-.166.446-.192.42-.632.831-.388.091-.241.225-.124.215-.026.586-.208.463-.287.358-.3.287.062.153.153.156.042.674-.362.349.121.114.13.248.111.264.049.225,0,.987-.2.583-.254.775-.746.388-.231.049.094.15,0,1.1-.182.4.023.508-.169.528-.632.1-.283.355-.27.384-.036.866.215.521.2.72-.371,1.606-.235.345-.114,1.915-.8.528-.274.883-.736.749-1.013.534-1.15.489-.658-.042-.3.127-.28.085-.081.231.055.176-.094.261-.208.189-.277.218-.107.739-.583.107-.261-.02-.2-.1-.1-.28-.078-.16-.238-.039-.7-.208-.541.01-.72.111-.44.29-.5.433-.41.241-.153.449,0-.179-.4.15-.2.1-.039.078.075h.085l.4-.137.036-.1-.091-.134.085-.355.1-.114.186-.039.186-.205.02-.2.075-.121.251-.091.241.241-.075.094-.176-.02-.117.407.225.306.27.169.072.28.677,1.267.87,1.391.078.3.065-.322-.121-.235.013-.29.2-.593-.16-.489.065-.28.225-.007.449.544.261.235.127.055.088-.049-.137-.065-.163-.2-.127-.508.335-.384-.117-.062-.27.081-.055-.039-.173-.368-.388-.42.02-.4-.4.007-.27-.244.241-.01.521.117.241-.365.029-.189-.036-.143-.394-.078-.127-.114-.01-.322.049-.1.55-.121.283.221L38.712,49l-.182.049.378.4.186.039.007-.143.254-.345.43.062.189.085.094.062.127.3.1.068.365.02.182-.208.322.156.365.036.531-.075.378.166.2-.085-.274-.026-.417-.2-.29-.068-.186-.013-.29.085h-.218L40.9,49.3l-.088-.394L41,48.468l.143-.033.169.257.264-.182-.026-.335.1-.381.4-.4-.2-.081-.192.055-.287.489-.166,0-.309-.267-.1-.717.3-.694.111-.049.329.189.264-.137.062-.091-.039-.7.15-.036.733.375.287.277.664.322L43.294,46l-.02-.081.169-.309-.075-.078-.3,0-.352.13-.039-.208.13-.182.137-.065.1.065.14-.241L43.073,45l-.463.306-.1,0-.1-.277.114-.147.153-.072.208.062.075-.023.186-.13-.052-.124.212-.15.244.55.062.039.036-.156-.046-.313.417.244.01.13.14.068.329-.016.072-.068-.062-.052-.107.01-.094-.085.1-.1-.384-.274-.349-.173.117-.137.094-.033-.378-.56.381-.544.329-.274.186.078.71.016.036-.443-.068-.427.046-.244.091-.068.391.186-.306,1.3.065-.068.218-.752.427.218-.065.391.068.127.208.13.313-.349.166-.117.1-.622.27-.55.013-.228-.231-.593-.225-.143.176-.039.283.042.244.124-.029.274-.182.078.121.4.15.042.189.192.091-.143-.065-.192.14-.326.345-.274.251-.036-.166.407.4.518.114.033.365-.384.3-.55-.153-.638.4-.16.345-.081L50.17,40l.2.261-.062.137.251.309.088-.14,0-.117.309-.013.648.208.339.479.485.326,1.059,1.472.153-.075.6.515.065.355-.169.244-.251.847.036.384-.023.694-.186.371.169-.1.1-.137.124-.8.176.072.267.264.1.345.016-.352-.238-.414-.114-.456.4-.554.072.013.094.466.335.01.036-.166-.14-.254-.111-.479.524-.15,1.642.41h0v1.922h0v6.837h0L57.2,85.82h0l-.042,22.871h0l-.733.319-.844.492-1.313.6-.6.241-.971.189-1.423.55-.743.13-1.547.072-1.016-.1-.778-.225-.391.192-.342-.075-.586.319-1.029.847-.251.111-.5.107-1.085.6-.41.368-.469.283-1.215.2-.427.169-.326.267-.3.378-.368,1.068-.166.7-.339.238-.319.335-.121.241,0,.114-.156.173-.531.362-.609-.046-.091.036-.212.287-.163.124-.241.078-.238-.56L36,117.748l-.612.208-.407-.059-.482.02-.065.065-.5.052-.28-.055-.2.078-.127.147-.039.215-.469.049-.137-.046.075-.16-.1-.368-.205-.264-.072-.026-.274.049-.2.186-.287.081-.912-.329-.218-.016-.443-.01-1.006.176h-.668l-.251.134-.889.124-.436.241-.58-.147-.876-.046-.677.208-.261.287-.433.231-.186.212-.293.515-.049.261-.5.492-.414.244-.459-.163-.593-.055-.609.414-.072.107.124.137-.124.14-.287.176-.57.186-.208.215-.107.283-.375.28-.707.378-.863.156-.013.088.085.091.489.107-.218.124-.267-.049-.264-.208-.2-.075-.221.013-.111.078-.081.3L16.6,123l-.71-.3-1.352-.007-.186.173-.081,0-.524-.169-.433.068-.5-.143-.86-.573-.86-.2-.212-.5-.352-.407-.586-.6-.537-.358-.642-.335-.257-.029-.257.062-.163.212-.4-.427,0-.368-.186-1.316-.013-.736.153-.71.15.042.218.326.42.179.335-.029.287-.1.117-.068,1-1.44-.153-1.186-.264-1.3.081-.283.27-.335-.013.134-.2.225-.007.169.143.407.1.147.065-.046-.007-.228.163-.6-.1-1.049.081-.537-.062-.4.02-.837-.134-.733-.085-.231L9.2,106.99l-.244-.73-.205-.476-.5-.879-.427-1.091.026-.111-.111-.827-.235-.808-.072-.062.016-1.58.127-.739L7.4,99.072l-.091-.147-.055-.378-.186-.44L6.3,97.2l-.1-.3-.026-.658-.287-.58L5.2,94.636l-.267-.163-.274-.391-.212-.954.046-.3.117-.277-.068-.414-.173-.6-.482-1L3.4,89.624l-.756-1.091L1.568,87.386l-.2-.629.163-.326-.023-.362.013-.094.068-.049.059.762.107.221.111-.625.524.648.072.212.042.668.081.241.261.332.111.023.01-.1.228-.156.15.036L3.6,87.81l.02-.671L3.366,86.8l-.485-.319-.358-.371-.205-.847-.358-.58.062-.322.215-.342.1.075.329.593.375.322.13.368-.085.463-.1.107.01.332.1.3.179.016.121-.13.283-.547.186.918.1.251.391.524.443-.349L4.9,86.95,4.789,86.8l-.068-.277.121-.759.124.059Zm-3.658.563L1.2,86.3.679,85.5l-.264-.531L.252,84.36l.023-.342.14-.2.176.042-.072.173.013.107.417,1.192.358.651.072.257ZM41.32,46.074l-.029-.1L41.1,45.8l.029-.163.088-.14.231-.094.306.511ZM8.955,66.189l-.121-.1-.088.085-.026-.029,0-.2.362-.489.117-.072.042.023.049.257-.016.114-.205.319ZM43.5,43.175l-.186-.1.023-.277.081-.208.166-.173.163.182-.081.4-.127.062-.039.117Z" transform="translate(0 -26.675)" fill="#6cddb4"/>
    <path id="AU-ACT" d="M390.516,299.483l-.41-.208-.469-.7-.094-.257.007-.6.169-.834.928-.684.414.235.186.218.326.12.218.14-.16.143-.329-.046-.264.127-.169.235-.2.811.078.9-.026.127Z" transform="translate(-262.496 -199.55)" fill="#6cddb4"/>
    <path id="AU-NSW" d="M336.952,246.4l-6.27-3.159-.319-.026.287-.5.036-.316-.326-.664-.225-.287-.182-1.44-.384-.244-.593-.254-.3.117-.5-.094-.329.055-.329.41-.319.029-.593.208-.476-.033-.788-.248-.316-.248-.365-.055-.221.029-.124.13-.371.16-.733-.065-1.01-.192-.248-.1-.417-.4-.257-.2-.088-.01-.267.059-.309.169-.309-.029-.121-.1h-.433l-.443.114-.065.078-.124.449.055.443-.625.176-.137-.036-.436-.254-.743-.87-.182-.417-.081-.085-.2-.065-.358-.319-.274-.378-.606-.322-.544-.414-.251-.091-.147.033-.218-.163-.059-.091.081-.248-.137-.212-.287-.072-.264-.163-.163-.358-.094-.537.085-.427,0-.27-.046-.068-.752-.41-.528-.036-.417-.169-.049-.117-.221-.147-.2.068-.062.088-.114.5-.16.2-.3-.059-.12-.14.01-.085-.189-.5-.306-.283-.016-.612-.492-.827-.283-.2-.407-.186-.554.114-.524-.137-.313.12-.2.274-.173.091-.062-.085-.394-.241-.58-.27-.609-.046-.107-.029-.166-.163h0l.016-20.747h0l.42,0h0l7.1,0H333.33l.27-.134.414-.518,1.13-.961.391-.107.091.016.055.117.309.091,1.088-.094.508-.2.479-.059.1.023.27.28.244.166.59.016.534-.111.892.407.9.778.042.612.143.319.078.036.173-.042.169-.179.319-.651.609-.27.13.251.218.1.677-.326.114-.655-.319-.723.342-.27.4-.2.7-.231.143-.1.072-.182.2-.169.156.023.231.238.58.127.661-.068.583.039.27-.358.472-.088.388-.15.264-.215h0l.254.231.049.264-.114.87.065.456.163.221-.065.808-.557.73-.391,1.146.1.283-.394,2.244-.173.658-.658,1.85-.046,1.091.055.2.124.016.062.251-.362,1.212-.068.479-.371,1.228-.313.638-.717.905-.163.423.1.55-.042.583-.616.521-.264.306-.544.339-.029.179.088.189-.677.238-.5.257-.5.759-.336.831-.078.065-.179.013-.166.134-.036.192.15.134-.114.453-.4.541-.153,1.14-.085.306-.127.1-.205-.023-.277.111.2.052.143.134-.287.466-.319.238-.316.466-.332.967.143.176-.176.8-.228.143-.072.248.124.362.248.257-.055.287-.094.081-.117-.127.042-.088-.049-.2-.094-.01-.225.14-.026.143.091.221-.2.221-.378.208-.192.362-.02.182-.261.756-.179.29-.684,1.5-.088.746-.007.945-.205.267L337.1,242.5l-.2.733-.225.567.016.642.352.407.046.306,0,.147-.1-.033-.15.111.006.515.117.5Zm-3.1-7.27.026-.13-.078-.9.2-.808.169-.238.267-.127.329.046.156-.14-.218-.14-.326-.117-.186-.221-.414-.235-.928.684-.169.834-.007.6.094.257.472.7.085.072.355.12Z" transform="translate(-205.626 -139.471)" fill="#6cddb4"/>
    <path id="AU-SA" d="M200.784,214.415l-.352.567-.287.127-.3.518-.365.228-.218.433-.251.759.088.042.156-.02.472-.332.049.225-.055.844-.169.072-.094-.179-.3-.329-.212-.13-.221.033-.156.368-.127,0-.134-.257-.466-.609-.524-.541-.277-.221-.114-.036-.365.127.14-.388.2-.29.016.267.462.5.186.127.352-.114-.358-.143-.046-.134-.02-.111.059-.13-.156-.879-.27-.72-.042-.482-.238-.368-.567-.638-.681-.554.1-.407-.036-.293-.176-.5-.358-.739-.4-.156-.655.1-.28.16-.215-.241,0-.107-.261-.694-.43-.977.283.02.14.13.049.212.241-.329.072-.215-.072-.371-.251-.355-.221-.192-.1-.016-.56.176-.228.218-.134-.026.007-.339.1-.231.179.072.059-.1-.44-.612-.355-.208-.221-.2.039-.153-.241-.075-.088.072-.052.212-.29.182-1.127-.078-.107-.026-.248-.267-.326-.117-.5-.472-.169-.091-.71-.085-.339.068-.264.244-.306.107-.221.016-.244-.062-.6-.6-.912-.661-1.43-.739-.765-.287-.117.013-.362.293-.6.231-.179.023-1.876-.14-.4.013-.752.059-.345.088-2.143.182-.814.134h0l.02-22.858h0l3.163-.023h0l4.713,0h0l23.926,0h10.608l.01,11.9h0l-.016,20.747h0l-.091-.121-.013,17.718h0l-.414-.042-.28.085-.257-.01-.6-.319-.616-.619-.417-.844-.414-.629-.254-.179-.2.01-.635-.853-.221-.443.111-.228-.01-.179-.166-.414.065-.407.251-.208.137-.352,0-.59-.13-.466-.619-1.508-.977-1.3-.645-.694-.378-.306.173.055.964.844.638.876.27.557-.039-.3-.163-.459-.134-.2-.42-.485-1.231-1.179-.007-.384.218-.088.267.231-.033.544.055.075.332-.036.091-.378.042-.577-.059-.414-.508-.251-.274.27-.2.059-.208-.01-.179.078-.072.176.036.114.2.065.068.085-.16.205-.954-.081-.251.1-.212.257-.192.134-1.277.068-.29-.218.212-.375.469-.235.541-.583.1-.57-.042-.15.036-.274.173-.378-.117-.7.081-.384-.029-.189-.215-.371-.567-.694-.2-.7-.449-.765-.085.02-.215.5.094.189-.052.179-.335.345-.124.427-.049.795-.446,1.453,0,.358-.261.212-.5-.228-.257-.065-.137.026-.664.251-.15.244-.085.055-.492-.075-.274.241-.2.075-.114-.055-.1-.169.13-.212.241-.238.085-.205.059-.606.166-.244.3.117.3-.081.313-.02.062.1.3.137.176-.094.072-.179.156-1.023-.062-.8.042-.791-.147-.537.052-.072h.173l.1-.2.179-.593.029-.306.619-.791.4-.391.15-.042.059-.153-.114-.5-.358-.687.107-.319.2-.143.189-.075.228-.007.1-.078-.026-.215-.107-.205-.192-.081-.205-.932-.186-.414-.1-.5-.189-.143-.029.681.081.046.081.143.023.446-.117.606-.186.01-.449.143-.378.41-.365.726-.02.349-.065.2-.534,1-.241.2-.43.016-.251-.153-.231.345.065.046-.137.143-1,.531-.59.463-.2.208-.02.137-.176.332Zm5.677,6.573.537.147.173.235,0,.228-.257.231-.42-.205-.567-.042-.5.235-.065.091.046.3-.1.1-.463.228-.345-.352-.466-.088-.13.042-.039.16-.1.059-.42-.039-.466.072-.664.02-.114-.189-.5-.417-.016-.153.166-.489,1.3-.384.277,0,.332-.078.7-.309.739.062.208.2,0,.352.049.065.339.046.349.2.208.016.218-.335Z" transform="translate(-117.799 -121.885)" fill="#6cddb4"/>
    <path id="AU-VIC" d="M335.3,297.163l-.43.212-.521.052-1.71.01-.593.085-.583-.023-.655.046-1.221.362-.723.358-.772.586-.6.557-.563.56-.86,1-.339.3-.791.1-.775.2-.277-.088-.322.02-.147.062-.124.186.394.72.407-.287.075-.274.127.059.052,1.225-.208.264-.111.055-.166-.078-.1-.147-.257-.674-.371-.466-.274-.117-.173.055-.049.14-.349-.029-.287-.58.085-.137-.111-.208-.313-.049-.244.163-.179.029-.147-.085-.531-.537.059-.42.313-.13.124-.218-.248-.567-.147-.094L320,299.4l-.15.5-.645.664-.313.062-.143-.023-.5-.577h.42l.371-.166.518-.912-.114-.42-.436-.674-.205-.1-.329.15-.472.453-.58.433-.5.052-.062.062.02.163.489.085.274-.094.163-.121.244.068.052.13-.039.2-.182.28-.088.065-.3-.072-.544.117-.114.068-1.065.72-.775.954-.391.107-.13.091-.078.2-.459.339-.134-.036-.218-.257-.2-.117-.733-.234-.166-.169-.3-.186-.27-.036-.6-.241-.948-.733-.55-.218-.391.094-.065.075-.319-.007-.345-.2-.345-.287-.508-.111-.248,0-.254.072-.208.176v.14l.107.212-.28.078-.414-.2-.306-.371-.616-.577-.316-.208-.479-.222h0l.013-17.718.091.121h0l.166.163.107.029.609.046.58.27.394.241.062.085.173-.091.2-.274.313-.121.524.137.554-.114.407.186.283.2.492.827.016.612.306.283.189.5-.01.085.121.14.3.059.16-.2.114-.5.062-.088.2-.068.222.147.049.117.417.169.528.036.752.41.046.068,0,.27-.085.427.094.537.163.358.264.163.287.072.137.212-.081.248.059.091.218.163.147-.033.251.091.544.414.606.322.274.378.358.319.2.065.081.085.182.417.743.87.436.254.137.036.625-.176-.055-.443.124-.449.065-.078.443-.114h.433l.121.1.309.029.309-.169.267-.059.088.01.257.2.417.4.248.1,1.01.192.733.065.371-.16.124-.13.221-.029.365.055.316.248.788.247.476.033.593-.208.319-.029.329-.41.329-.055.5.094.3-.117.593.254.384.244.182,1.44.225.287.326.664-.036.316-.287.5.319.026,6.27,3.159h0l-.277.176-.4.036-.4.606-.319.163Zm-14.93,3.11-.254-.1-.046-.205.088-.29.567.117.143.169-.039.065-.228,0-.231.238Zm-.007.625-.121-.147-.173-.075-.547.046.01-.049.248-.241.329-.065.094.062.189.453Z" transform="translate(-205.383 -189.247)" fill="#6cddb4"/>
    <path id="AU-QLD" d="M315.01,45.908v.059l.218.208-.182-.629-.231-.476,0-.179.137-.362.14-.182.156-.042.124.052.27.417.16.453.43.176.56.384.4.182-.205-.485,0-.287.1-.2.257.046.251.375-.1.241.026.186.479.681-.225,1.521.2.41-.042.547.235.476.287.156.264.039.1.231.241.182.169.489.251.137h.117l.166.117.375.463.241.072.189.15-.055.088.023.107.1.039.173-.169.007-.208.085-.081.156.046.368.423.515.459.27.8.43.7.515.394.5.2.176.2.1.251.036.466.58.961.485.147.349.023.137.573-.042.345-.143.147.02.456.078.218.117.111.107.029.189.463.508.231.013.094-.169.368-.231.945.065.254.088,1.163.1.238.049,1.391-.218.068-.215.3.107.541.388.3.287.358.221.759.3.42.1.283-.078.531.176.443.163.228h0l-.264.215-.388.15-.472.088-.27.358-.583-.039-.661.068-.58-.127-.231-.238-.156-.023-.2.169-.072.182-.143.1-.7.231-.4.2-.342.27.319.723-.114.655-.677.326-.218-.1-.13-.251-.609.27-.319.651-.169.179-.173.042-.078-.036-.143-.319-.042-.612-.9-.778-.892-.407-.534.111-.59-.016-.244-.166-.27-.28-.1-.023-.479.059-.508.2-1.088.094-.309-.091-.055-.117-.091-.016-.391.107-1.13.961-.414.518-.27.134H290.8l-7.1,0h0l-.423.01h0l-.007-11.9H272.662V23.457h0l.687.56.339.13.694.166.541-.033.169.124.55.231.593.085.462.642.075.476.179.345.169.166.27.094.355.042.349.231.287.29.7.2.241.143.342.306.14.059.4.023.935-.169.485-.179.3-.163.489-.378.267-.094.186-.339.2-.769.052-.55.84-1.091.326-.736.1-.534.394-1.036-.091-.616.212-1.348.616-1.41.111-.446-.349-.958-.16-1.026.052-.3.2-.518.026-.4-.078-.283-.355-.423-.029-.436.257-1.068.518-1.006-.039-.16-.163-.182-.16-.625.029-.1.046-.081.362-.228.137-.166.173-.479.212.065.114.2,0,.29.15.228.029-.153-.2-.58-.156-.114-.43-.645.1-.085-.068-.052-.231-.016-.029.212.111.15-.205.065-.124-.055.007-.081.332-.72.309-.427-.055-.124.16-.456.153-.228.153-.068.088.43.378-.075.029-.088-.287-.28-.013-.147.078-.417.544-1.563.127-.8-.072-.629.033-.088.13-.094.56-.1.2-.264.16-.4.264-.01.332.156-.111.169-.235.215-.026.329.225-.287.127.01.479.407.153.335.274,1.114-.091.43.1.733-.026.42.384.339.244.02.231-.1.1.039.238.261-.342.55-.072.3-.016.394.182.052.111-.029.313.153.1.107.013.378.156.163.134.013.241.182-.2.453-.046.381.153.078.349-.039.036.072-.055.791.081.743.026.13.14.134.091.2-.029.339-.2.834.251.651.3.316.046.586.137.485.16.342.12.13.254.137.44,0,.5-.391,1-.456.147-.329.14.033.221.332-.042.345.169.459.221.264.534.205.241.016.221.492.873.394.388.3-.023.215-.267.472.013.215.14.231.046.27-.143.42.2.394.192.655v.661l.179.179.186.433-.059.749-.134.186-.023.378.033.107.186.117,1.208,1.508.117-.1.329-.055.085.1-.274.518.016.114.251.43.277.648.189.694.065.511-.065.352.052.378-.023.244-.326.69.026.355.717.938.43.163-.026.414-.16.371-.046.394.033.124.205.274.309.241.088.169.414.27.316.15.388.01.433.433.241.01.42.137.238.225.4.085.632-.049.052-.111-.16-.277.2.231.342.616.14.717.085.173.179.192.192.046.163-.039-.055-.3.026-.13.215,0,.1.111.042.414.169.16.212.091.443-.02.436.127.28.339-.114.046.029.1.208.257.28.228.186-.081.013-.221-.111-.1.049-.13.244.091.534.479.339.062.121.166.225.632.134.036.107.3-.2-.049-.169-.173-.143-.068-.173.072-.261.322.218.586.427.446.254.176.378.134.469.365.192.244-.036.28.124.469.176.15.137.449.2.355.2.192-.046.72.322,1.153.244.593.225.322.153.124.01.388-.107.163.238-.121.189-.156.088-.147.554.687Zm10.976,12.435-.153-.033-.143-.192-.192-.7.189-.463.238-.394,0-.335-.049-.085.147-.306.368-.3.163-.319.029-.173-.036-.134-.212-.345-.068-.039.134-.248.3-.2.029.795.081.179.169.111.036.137-.863,2.032-.156.511.052.316-.062.179ZM276.72,24.212,276.684,24l.094-.375.2-.28.3-.225.612-.075.192-.1.681.111.02.215-.153.072-.231.049-.153-.124-.326.13.052.114-.218.362-.394.15-.511.094-.127.1Zm42.71,26.346-.192-.179-.137-.3-.238-.215-.137-.306-.033-.267.156-.036.5.313.068.114.228.436.042.3-.094.114ZM301.972,30.6l-.244-.094-.068-.339-.156-.212-.163-.078-.088-.163.147-.036.5.235.293.423-.1.2-.117.062Zm25.164,35.362-.062-.137.02-.339.137-.775.137-.033.244.042-.234.775-.075.446Zm.065-1.459-.235-.658v-.534l.3-.166.078.059-.182.691.036.609ZM287.452,2.53l-.221-.179-.016-.225.212-.14.147-.029.173.261-.023.134-.169.042-.1.137Zm.342-1.8-.244-.1L287.475.5,287.612.3l.2-.036.117.055.081.143Zm-10.084,24.9-.1-.212.362-.339.182.13.059.27-.417-.01-.085.16Z" transform="translate(-183.684)" fill="#6cddb4"/>
    <path id="AU-TAS" d="M346.9,375.3l-.293.147-.065-.147-.456-.072-.306-.231-.3-.065-.772-.039-.075-.052-.052-.14-.1-.029-.427.13-.254-.085-.375-.59.208-.147.391.059.192.1.267.055.007-.319-.251-.208-.137.248-.941-.121-.078-.055-.388-.791-.466-.743-.075-.075-.221.01-.182-.293-.13-.277-.244-.9-.153-.166-.179-.052-.221-1.427.026-.27.065-.085.094.169.622.476.153.71.293-.821-.186-.13-.147.013-.629-.69-.068-.2.007-.287L341,367.7l-.225-.459-.459-.433-.355-.629-.951-2.335.033-.166-.1-.5-.107-.2-.065-.469.287-.261.007-.541.215-.143.791.094.463.342.56-.091.215.182.72.235,1.179.7,1.133.534.749.068.332-.1.306.173-.016-.163.277-.293.251-.088.186.059.078.309.186.094.3-.007-.1-.15-.247-.055-.072-.068-.016-.225.16-.147.541-.244.459.153.739-.15.215.192.254-.153.355-.616.078-.049.225-.055.085.124.368.166.124-.006.225-.13.114-.192.062-.283.072-.078.15.007.231.107.5.371.186.244.2.44-.225.8.026.241.147.192.013.355-.153.56.023.4.12.349-.176.951.117,1.042.215.349.02.541-.186.264-.127-.107-.016-.114.094-.121.042-.313-.251-.674-.153-.251-.41.814-.267,1.931-.16.163-.052.274.039.5-.254.264-.143.482.049.078.153-.01-.065-.14.1-.078.225.137.091.179.02.335-.134.088-.055.42.189.427-.033.274-.088.007-.251-.221-.254.111-.134.2-.326-.4-.231-.472-.046-.231.2-.349.114-.033.085.078.016.117-.055.114.218.234.3-.023.111-.094-.261-.456-.827-.5-.121.02-.2.147.068.329.111.241-.094.189-.349.114-.081-.2.068-.042-.052-.489-.319-.205.111.28-.078.5-.205.251-.094.352.072.339-.052.316-.121.078-.124-.016-.283-.182-.257-.3-.049-.306-.075-.029-.075.121,0,.326.446.407-.143.358-.186.29-.176.511-.052.352Zm4.286-15.842-.319-.176-.091-.345.02-.1-.4-.759-.5-.449.43-.567.3-.13.7.935.13.094.27.072.029.134.166.909-.013.124-.1.091-.446.081Zm-14.875-.635-.124-.091-.046-.238.065-.049v-.319l-.2-.264.01-.251.062-.739.277-.205.042-.121-.036-.264.15-.042.316.192.147.212.049.746.085.479-.033.251-.107.241Zm15.618,1.694-.01-.225-.062-.091-.821.1-.316-.137.006-.179.235-.192.241-.013.248.075.5-.251.482.573-.006.049-.244.094Zm-3.664,14.276-.225-.1-.225.049-.186-.388.625-.772.228.6-.156.567Zm.208-1.215-.244-.511.228-.4.14.215.127.59-.01.055Zm2.309-2.456.016-.638.205-.156.182.016.16.313-.016.049-.248,0Zm-11.051-9.556-.062-.046-.016-.225.212-.251.319.365Z" transform="translate(-226.394 -240.035)" fill="#6cddb4"/>
  </g>
</svg>
