<svg xmlns="http://www.w3.org/2000/svg" width="47" height="66.378" viewBox="0 0 47 66.378">
  <g id="Group_15895" data-name="Group 15895" transform="translate(-189.5 -1169.877)">
    <g id="Group_15894" data-name="Group 15894" transform="translate(-868 -1038.5)">
      <g id="Group_15888" data-name="Group 15888" transform="translate(-1166 2933.745) rotate(-90)">
        <rect id="Rectangle_3741" data-name="Rectangle 3741" width="53.51" height="44" rx="2" transform="translate(660.49 2225)" fill="#fff" stroke="#6cddb4" stroke-linecap="round" stroke-width="3"/>
        <line id="Line_46" data-name="Line 46" y2="13" transform="translate(683.245 2243.5)" fill="none" stroke="#6cddb4" stroke-linecap="round" stroke-width="3"/>
        <line id="Line_48" data-name="Line 48" y2="2" transform="translate(683.245 2235.5)" fill="none" stroke="#6cddb4" stroke-linecap="round" stroke-width="3"/>
        <line id="Line_49" data-name="Line 49" y2="2" transform="translate(673.245 2235.5)" fill="none" stroke="#6cddb4" stroke-linecap="round" stroke-width="3"/>
        <line id="Line_47" data-name="Line 47" y2="13.283" transform="translate(673.245 2243.5)" fill="none" stroke="#6cddb4" stroke-linecap="round" stroke-width="3"/>
      </g>
    </g>
    <path id="Icon_ionic-md-settings" data-name="Icon ionic-md-settings" d="M31.96,21.246a10.16,10.16,0,0,0,.083-1.625c0-.569-.083-1.056-.083-1.625l3.489-2.681a.746.746,0,0,0,.166-1.056L32.292,8.655a.809.809,0,0,0-1-.325L27.14,9.955A12.093,12.093,0,0,0,24.316,8.33l-.582-4.305a.89.89,0,0,0-.831-.65H16.257a.89.89,0,0,0-.831.65L14.761,8.33a14.07,14.07,0,0,0-2.825,1.625L7.782,8.33a.778.778,0,0,0-1,.325L3.461,14.261a.981.981,0,0,0,.166,1.056L7.2,18c0,.569-.083,1.056-.083,1.625s.083,1.056.083,1.625L3.711,23.927a.746.746,0,0,0-.166,1.056l3.323,5.605a.809.809,0,0,0,1,.325l4.154-1.625a12.091,12.091,0,0,0,2.824,1.625l.665,4.305a.805.805,0,0,0,.831.65h6.647a.89.89,0,0,0,.831-.65l.665-4.305a14.061,14.061,0,0,0,2.824-1.625l4.154,1.625a.778.778,0,0,0,1-.325l3.323-5.605a.98.98,0,0,0-.166-1.056ZM19.58,25.308a5.688,5.688,0,1,1,0-11.373,5.688,5.688,0,1,1,0,11.373Z" transform="translate(194 1168.002)" fill="#fff" stroke="#6cddb4" stroke-width="3"/>
  </g>
</svg>
