<svg xmlns="http://www.w3.org/2000/svg" width="162.932" height="132.382" viewBox="0 0 162.932 132.382">
  <g id="belgium" transform="translate(-0.284 -0.252)">
    <path id="BE-VAN" d="M350.275,3.573l-.65.31.03,1.147-.958-.418.156-.722.405.431.358-.527-.343-.23,1,.009ZM343.245.252l2.4,1.3.191,1.52-.9.811.308,1.645.687-.054-.473.384-2.577-1.012-.067,1.14,3.926.364.9-.553,1.353,1.6,3.52-3.434.139-1.58.928-1.162.7.919,1.392.087,1.106,2.645-1.374,2.6,2.538,3.072.115,2.209,1.186.358,1.574-.733,1.7,1.123-.62,2.482.486.438h0l-.884.988-.089,1.754,1.957,2.456.059,2.213-1.173,1.173-1.192-.449-.518,1.153-1.121.141h0l-.343.061h0l-1.2.074L356.412,28.1l-3.507.737-.1,1.177-1.218,1.526h0l-.655-.728-1.311.581h-.2l-1.37,1.01-3.386.709-1.1-1.858-1.3.956-1.168-.106-1.517,1.825L340,32.876l-.973-.689-3.315.956-.254,1.171-.683.141-1.379-.9-.852.789-1.682-1.056-.442,1.142-1.129-.943-2.432.674-.241-1.01-.692-.228.308-1.1-1.543.943.139-.7-2.792-1.084-1.726.382h0L320,30.943l-.843.7-.928-.494.325-1.177-.494-.221-.494-2.671,1.548-1.387,1.539.483,2.775-.763.726-1.964-.03-1.9-.531-.262.308-.98-.919-.282-.6-3.2,1.353-2.01-1.758-1.21-.434-2.651-1.361-.78h0l-.884-1.422,5.005-.215.325,1.266,1.717.221,2.033-.6-2-3.8.531-1.377-.78-.377,4-2.114,2.744-.277.392.613-.726,1.587.228,1.754,1.682-.626,2.708.655,1.227-.249L338.3,4l1.093-.5L341.9.289l1.344-.037Z" transform="translate(-248.502 0)" fill="#6cddb4"/>
    <path id="BE-WBR" d="M301.589,221.359l2.315-1.582,1.032,1.576,1.194-.134,1.673,1.3.629-.7H310.3l.336-1.368.882.232-.442-.776.438-.412.7,1.155.906.02h0v-.83h0l5.086-1.773-.037.869,1.379.978.028-.752,2.066-.531.878-1.123.362,1.515,1.279-.1.893-.865-.759-1.11.219-1.782,2.118.652.787-.427.169.453.4-.871,1.489-.306,1.324.551.9,1.437.956.061.009.85,2.662-.377h.321l0,1.262.787.44,2.4-1.788,1.582,1.316h0l-.147,1.164-.991.564,1.006,1.4-.661.553.043,2-.793,1.52h0l-1.359-.319-1.006,1.327-1.212-.106.063.457-4.78,1.385.163.741-.9-.748-1.121.841-.405-1.437-.869.158-.366.928-1.7-.815-.371.921.581,1.741-1.032.412-1.843-.6-1.084.509.121,1.318h0L319,233.356l-.464-.941-1.08.18-.379.607.13-2.018-.835.273-1.6-.7-2.278.178-1.09,1.225.13-1.6-1.361.013-1.244-1.773-1.106-.015.258-1.424-2.235-.509.184-1.513-.991-1.014-1.628,1.977-1.554-.026-.637-1.359.117-3.273.8-.212Z" transform="translate(-235.696 -167.939)" fill="#6cddb4"/>
    <path id="BE-BRU" d="M338.885,182.957l.169.126h0l.3,1.127-.62.746L340.307,186l.635,1.951-1.027.659.165.473h0l.67.074h0l.8.865-.6.052h0l-.548.234h0l-3.3,1.535-2.142-.718-1.177-2.46-.982.293-1.429-.72h0l-.106.106h0l-.026-.08h0l.427-.553h0l.121-.6,1.084-.054-.108-2.044.707-1.047h0l.726-.672h0l.232-.134h0l.6-.427h0l.271-.059h0l1.567.286h0l.9-1h0l.546.4h0l.431.293h0Z" transform="translate(-259.216 -142.32)" fill="#6cddb4"/>
    <path id="BE-WHT" d="M84.046,216.367l1.442.672,1.877-.447.139,2.053,2.885.1.62.657h0l.232.074h0l2-3.416,1.387-.646.173.965,1.877-.9-.206.665.9,1.563,1.509-.154,1.19.572,1.726-.637.683,1.242h0l-.249,1.5.923,1.262,1.793.139h.282l3.765-.837.371.479,1.093-1.368h0v.154h0l.6.373h0l.54.074-.8.212-.117,3.271.637,1.359,1.556.026L114.5,223.4l.991,1.015-.186,1.511,2.235.509-.258,1.424,1.106.013,1.244,1.775L121,229.63l-.13,1.6L121.958,230l2.276-.178,1.6.7.835-.271-.13,2.018.379-.609,1.08-.178.464.939,2.766-1.025h0l-.817,2.541h0v.219h0l.165.694,1.307-.674-.338.4.57,1.322-1.181,2.127,1.931,1.11-.579,1.433-.789.264.861.858-.687.323L131.3,243.5l.579,2.029-3.158.7-.629-.843-.889.013-.991,1.535-2.356-.395-.206.995-1.186.3-.46,1.08-1.266-.119-1.749,1.42,2.426,1.888.915-1.032.41.236h.414l.6.434h0l-.035.223h0l-.085,1.077h-.147l.1,1.866-1.429,1.025,1.624,2.985-.624.952.2,3.787.793.275.2,3.122,1.268,2.649-.5,1.051h0l-3.453-.746-1.762-1.051-4.812.856-.121-.921-2.1-.561.848-1.413-1.1-1.21,1.012-1.879,1.4-.078,1.561-1.3-1.392-2.367.117-1.81-1.968-.032.05.46-1.11-.473,1.121-1.942-.182-3.271.932-.217,2.038-2.406-.535-1.27-1.29-.217-.657-.908-.527.934.733,1.1-1.249.02-.874-2.994-.878-.685-.835.2L107.9,243.4l-1.585,1.075-.566-.356-.219.449-.035-.475-2.766,1.416-2.189-1.654-1.012-.033-.5.587-.282-.7-2.538.2-.581.52-.178,1.977-.874-.481.371.915-.41.106L93.085,245l-.646-2.3.7-2.2-.633-3.525-2.2-2.6-1.067.364-.616-.655-2.872.874-.193-.754.962-1.647-1.86-.635L83.51,233.69l-.434-.258L80.5,234.7l-.616-.845-2.948-1.348-.531-.945,0-3.742-1.674-4.156,1.1-1.22-.522-.85.33-.824-2.855-1.481.262-.718-.91-1.429h0l1.788-.679,1.788.952,1.843-.232.789,2.246,1.489.8,1.957-2.445,1.173-.173h0v-.26h0l1.077-.984Zm-25.178,4.019.295-.386-1.218-1.5.442-.366-.4-.644,1.125-.652.371.366.013-.479.731.579,1.116-.273-.026-.505,1.691-.6-1-1.318,2.686-1.125.607.505-.262,1.337.882.186-.442.466h0l-1.78,1.476-1.574.444.267.878-1.526,2.536Z" transform="translate(-45.161 -167.007)" fill="#6cddb4"/>
    <path id="BE-WLG" d="M504.062,213.078l.338,1.955-.776,1.611h0l1.338.711h0l.206.026h0l.579-.538.535.4h0l.058.186h1.615l1.522,2.185,1.673-.206.915.479,1.181-1.689-.772-1.39h0l1.047.3,1.875-.783.815.618,1.674-.113.911.731-.085,1.7.258-.633,3,.4,2.8,4.719-.6.551.629.711-.286.39.869-.438,2.994.431-1.071,2.478-.767-.072-2.075,2.159.1,1.012.746.343-.319.683.817.377.763,1.693,1.86-.655,3.386,1.09-.429,1.752,1.322.52.186,1.216-1.485,3.716,2.783,2.952-.126.843-1.771.533-.052.678-1.218-1.231-1.058.249-1.147,3.4-2.729.65-.767,1.283-.867.152-.4.945,1.012,2.5-1.886.479-.548,1.424.882.767-.607.809-1.132-.395.531-.852-.5-1.142-1.355-.323-.063.986-.8.2-1.257-.7-.278-1.279h0l.4-1.485-.884.02-.126-7.149-1.132-.423-.169-.624-4.921-1.127-.479,1.324.759.863-1.012,2.185h.223l1.29.1-1.656,1.229-1.288-.23-.156.65-.349-.683-1.361-.2-1.819.421,1.051-2.6-.984-.02-.915-1.838.759-1.858-2.1.078.189-.791-1.838-.178-1.682-1.819-2.378.434-1.038-2.144-1.851,1.162-2-1.465L492,239.581h.665l.325.752-1.53,1.47h0l-1.762-.594-2.285,1.53-.683-.85.243-1.043-2.2-.646-.566-.865.587-1.433-1.6-2.714-1.476.687-.531-.945.431-.345-1.151-.2-.2-.813.531-.609-1.049.555-.923-.687-.089-1.051-2.4-.171.735-.516-.236-1.318-.865-1.84-2.035-1.975.219-1.6h0l.793-1.52-.043-2,.661-.553-1.006-1.4.991-.564.147-1.164h0l1.116.685-.1,1.049,1.075,1.136,1.311-.132h0l2.736.882.646-.583-.54-.685.282-.624,2.345.431.353-.624.843.772.75-.871,1.186.8,1.877-1.96,1.6-.126,1.3,1.925,1.236-.065.59-1.229.655.976,1.981-1.207.106-1.119h0l.238.121h0l3.26-1.218,1.834-2.022,1.355.093.1-.505h0Z" transform="translate(-370.975 -166.686)" fill="#6cddb4"/>
    <path id="BE-VLI" d="M508.315,97.954l1.054.817L510.9,98.2l.21.672,1.494-.984.29.923h0l.772,1.39-1.181,1.687-.915-.479-1.674.206-1.522-2.185h-1.615l-.059-.186h0l-.535-.4-.579.538h0l-.206-.026h0l-1.338-.711h0l2.4-.16,1.21-1.463ZM497.823,63.933l.937.88.169,2.851,3.815,1.617.273.852,4.5.093.494,2.146,1.973-1.08,1.277,1.6-1.91,1.775L510.3,76l-1.522.436.182,2.014-1.1-.08-.661,1.908.763.715-.418,1.7-1.91,2.372.325.494.954-.321.267.648-1.455,2.723-.978-.074-.893,1.953-1.418.633.186,2.937,1.637,1.019h0l-.1.505-1.353-.093-1.834,2.023-3.26,1.216h0l-.241-.119h0l-.106,1.116-1.981,1.21-.655-.978-.59,1.229-1.236.067-1.3-1.927-1.6.126-1.877,1.96-1.186-.8-.75.869-.843-.77-.353.624-2.35-.427-.282.624.54.685-.646.585-2.738-.882h0l.813-1.76-.763-.392.262-1.043h0l.351-.453h0l-.282-1.489,1.8-1.5h0l-.3-.013h0l-.646-.353.258-2.237.772-2.033.936.126.392-1.773-.8-.661-1.324.033-.13-.553h0l-.861.327h0l-.874.494-.574-.828-.544.314-.928-1.721,1.426-1.162.139-1.717,1.923-.761-.379-1.572.464-.234.089.574,1.192-.581-1.7-1.713-1.6.2.139,1.546-1.062.6-.594-.661-.865.308-.561-1.3-1.21.308h0l1.218-1.526.1-1.177L479.3,76.8l1.472-2.129,1.2-.074h0l.342-.061h0l1.121-.141.518-1.153,1.192.449,1.173-1.173-.059-2.213L484.3,67.848l.089-1.754.884-.988h0l4.14-.108.418-.819,3.015.806,2.892-2.562,1.286.336Z" transform="translate(-371.398 -48.693)" fill="#6cddb4"/>
    <path id="BE-WLX" d="M489.837,333.527l1.53-1.47-.325-.752h-.665l.594-1.123,2,1.465,1.851-1.162,1.038,2.144,2.378-.434,1.682,1.819,1.838.178-.189.791,2.1-.078-.759,1.858.915,1.838.984.019-1.051,2.6,1.819-.421,1.361.2.349.683.156-.65,1.288.23,1.656-1.229-1.29-.1h-.223l1.012-2.185-.759-.863.479-1.324,4.921,1.127.169.624,1.132.423.126,7.149.884-.02-.4,1.485h0l-2.447.676-.238,2.71-2.688,1.285-.4,2.235-1.4,1.231.639.806-.412,1.173-1.717,1.067.735,2.079-1.275,1.151-1.3.165-.548,2.907-1.155,1.123,2.055,1.331-.4.757-.819-.332.223,1.01-.572.23.477.4-.748.724.583,2.946,1.429-.28,1.758,3.13-.167,1.608,1.615-.208.867,1.086-.867,2.111,1.914.826-.191,1.728-.8.137-.52,1.745-1.1.811.165.566.763-.039,0,.887-1.24,1.348-1.034.5-2.4-1.077-.564,1.478-4.058-.811-1.437,1.478-.182,1.379-.817-1-1.494-.473-.635.854-2.367.512-.535.713-.943-1.333.715-.59-.054-.785-.995-.837.548-.978-.713-.176-.379-1.66-3.395-2.265-.429.9-1.047.375-.325-1.188,1.064-1.591-2.341-2.5-.392-.273-1,.741-1.58-.676-1.654.156-.173-1.455-1.47.15-1.4-3.215-1.266.078-2.365-1.348-.535-1.16-1.127-.1h0l.811-1.452.063-1.9L475.614,366l-.6-.626,1.229-1.249,2.01-.692-.919-.915.165-1.528-1.758-1.569-2.155.262.076-1.086-1.593-2.081.648.1.36-1.119.6.425,1.3-1.008.189-1.481.57-.033-.329-.728.579-2.3.434,1.953,5.259-.23,2.9-1.1h0v-.262h0l-1.129-1.069,1.771-.971-.143-.715-1.543-1.845.282-.375-.733-.178.522-.618-1.632-.709,2.109-.709-.271-.73,1.2-.6.637.453.763-.388,3.44-2.762-.232-1.825-1-.124-.687.809-.249-.6,2.181-1.4-.561-1.008.835-1.062Z" transform="translate(-369.353 -258.41)" fill="#6cddb4"/>
    <path id="BE-WNA" d="M351.775,270.732l-.121-1.318,1.084-.509,1.843.6,1.032-.412-.581-1.741.371-.921,1.7.815.366-.928.869-.158.405,1.437,1.121-.841.9.748-.163-.741,4.78-1.385-.063-.457,1.212.106,1.006-1.327,1.359.319h0l-.219,1.6,2.036,1.975.865,1.84.236,1.318-.735.516,2.4.171.089,1.051.923.687,1.049-.555-.531.609.2.813,1.151.2-.431.345.531.945,1.476-.687,1.6,2.714-.587,1.433.566.865,2.2.646-.243,1.043.683.85,2.285-1.53,1.762.594h0l.295.778-.835,1.062.561,1.008-2.181,1.4.249.6.687-.809,1,.124.232,1.825-3.44,2.762L382,290.6l-.637-.453-1.2.6.271.731-2.109.709,1.632.709-.522.618.733.178-.282.375,1.543,1.845.143.715-1.771.971,1.129,1.069h0v.262h0l-2.9,1.1-5.259.23-.434-1.953-.579,2.3.329.728-.57.033-.189,1.481-1.3,1.008-.6-.425-.36,1.119-.648-.1,1.593,2.081-.076,1.086,2.155-.262,1.758,1.569-.165,1.528.919.915-2.009.691-1.229,1.249.6.626-2.877,1.964-.063,1.9-.811,1.452h0l-1.678.939-3.271-.39.982-1.728L363.085,315l.574-.02,1.16-2.773-1.726-2.528-2.378-.648-.059-.694.139-.9,1.066-.772.063-2.055.906-.811-.889-1.762.759-.143.548-2.254.882.891-.182-2.079,1.205-1.114-.822-1.064-1.739-.085-.371-.932-2.69,2.088L359,298.982l-2.391,1.745-.572,1.212.822,1.008-.652,1.656.366,1.964-3.989.574-2.391,1.145-.7,1.216-3.835.581h0l.5-1.051-1.27-2.649-.2-3.122-.793-.275-.2-3.787.624-.949-1.624-2.987,1.429-1.023-.1-1.866h.147l.085-1.077h0l.033-.223h0l-.6-.436h-.414l-.408-.236-.915,1.032-2.426-1.886,1.749-1.422,1.266.119.46-1.08,1.184-.295.208-.995,2.356.395.991-1.535.891-.013.629.843,3.158-.7-.579-2.029.371-1.483.687-.325-.858-.856.787-.264.579-1.433-1.931-1.108,1.181-2.127-.57-1.322.338-.4-1.307.674-.165-.694h0v-.219h0Z" transform="translate(-265.709 -206.341)" fill="#6cddb4"/>
    <path id="BE-VOV" d="M191.664,45.992l1.361.78.436,2.651,1.758,1.212-1.355,2.009.6,3.2.919.282-.308.98.531.262.028,1.9-.724,1.964-2.775.765-1.539-.483L189.054,62.9l.494,2.671.492.221-.325,1.177.928.494.843-.694.316.421h0l-.156,1.244-.611.26.46.876-1.459,1.216h0l-.455.013h0l-1.134-.414-.663,1.409.561,1.91h0l.215.494h0l-1,.954-1.858-.982.206,1.569-1,.62.59.694-.241.878-1.812,2.519,1.168.254-.284,3-1.964,1.329-.718-.544-.527.824-1.556-.685-.724,1.158.843,1.76-1.223.206h0l-.373-.02h0l-.767-.186h0L176.63,86.3l-1.723.637-1.19-.57-1.509.152-.9-1.563.208-.663-1.877.9-.173-.965-1.387.646-2,3.416h0l-.232-.074h0l-.62-.659-2.883-.1L162.2,85.41l-1.877.447-1.442-.672h0l2.614-2.549L160.57,81.4l.527-.746-2.5-2.157,1.095-1.994-.8-.678-1.14.665-.7-.466.748-.887-.325-.809,1.088-.006-.531-.72.9-.147-1.964-.928,1.268-.6-.733-1.017,1.08-1.663-1.1-2.207h.254l.6-.555-.455-.442-4.39-3.011,1.808-1.205,1.535-2.918-1.062-1.73-1.075-.369,1.017-.746-.741-1.652,1.3-.637-.683-2.521h0l1.983,2.01,4.162-.08-.49-2.768.936.208,1.041-.726.835.531.382-1.285,4.4,2.025,3.462.848.763.525-.189,2.734,2.833.221,1.223-.8-.02,1.524,1.719-1.322.329.525.956-.275,2.389-1.942,1.947.082,4.5-3.375Z" transform="translate(-119.998 -35.825)" fill="#6cddb4"/>
    <path id="BE-VBR" d="M308.227,140.95l1.21-.308.561,1.3.865-.308.594.661,1.062-.6-.139-1.546,1.6-.2,1.7,1.713-1.192.581-.089-.574-.464.234.379,1.572-1.923.761-.139,1.717-1.426,1.162.928,1.721.544-.314.574.828.874-.494h0l.861-.327h0l.13.553,1.324-.033.8.661-.392,1.773-.936-.126-.772,2.033-.258,2.237.646.353h0l.3.013h0l-1.8,1.5.282,1.489h0l-.351.453h0l-.262,1.043.763.392-.813,1.76h0l-1.311.132-1.075-1.136.106-1.049-1.119-.685h0l-1.58-1.316-2.4,1.788-.789-.438,0-1.264h-.321l-2.66.379-.009-.852-.958-.061-.9-1.437-1.325-.553-1.489.306-.4.871-.169-.453-.789.425-2.116-.652-.219,1.782.759,1.11-.893.865-1.277.1-.362-1.515L291.1,160.1l-2.066.531-.03.75-1.379-.978.039-.871-5.086,1.775h0v.83h0l-.906-.02-.7-1.155-.438.412.442.778-.882-.232-.338,1.368h-1.869l-.629.7-1.674-1.3-1.194.132-1.034-1.574-2.315,1.58h0l-.6-.373h0V162.3h0l-1.093,1.368-.371-.479-3.765.837h-.282l-1.793-.139-.923-1.262.249-1.5h0l.767.186h0l.371.02h0l1.223-.206-.843-1.76.726-1.158,1.556.685.527-.824.718.546,1.964-1.331.282-3-1.168-.254L270.4,151.5l.241-.88-.59-.694,1-.62-.206-1.567,1.86.98,1-.954h0l-.215-.494h0l-.561-1.91.661-1.409,1.134.414h0l.455-.013h0l1.459-1.216-.46-.876.611-.26.156-1.244h0l1.725-.382,2.792,1.084-.139.7,1.543-.943-.308,1.1.691.228.241,1.01,2.432-.674,1.129.943.442-1.142,1.682,1.056.852-.789,1.379.9.683-.141.254-1.171,3.314-.956.973.689-.418,1.056,1.517-1.825,1.168.106,1.3-.956,1.1,1.858,3.386-.709,1.37-1.01h.2l1.311-.581.661.739Zm-26.986,8.816h0l-.271.061h0l-.6.427h0l-.232.134h0l-.726.674h0l-.709,1.047.111,2.044-1.084.054-.121.6h0l-.425.553h0l.026.08h0l.106-.106h0l1.429.72.982-.293,1.177,2.463,2.142.718,3.3-1.537h0l.548-.232h0l.6-.054-.8-.865h0l-.67-.074h0l-.165-.473,1.03-.659-.637-1.951-1.574-1.047.62-.746-.3-1.127h0l-.3-.427h0l-.429-.293h0l-.548-.4h0l-.9,1Z" transform="translate(-205.15 -109.409)" fill="#6cddb4"/>
    <path id="BE-VWV" d="M35.055,41.332l.672,2.3-1.062,1.285.72.876-.375.262.59,1.559h0l.683,2.521-1.3.637.741,1.652-1.017.746,1.075.369,1.062,1.73L35.3,58.182,33.5,59.387l4.39,3.011.455.442-.6.555h-.254l1.1,2.207-1.08,1.663.733,1.017-1.268.6,1.964.928-.9.147.531.72-1.088.007.325.809-.748.887.7.466,1.14-.665.8.678-1.095,1.994,2.5,2.157-.527.746.928,1.231-2.614,2.549h0l-1.084.971h0v.258h0l-1.173.173-1.957,2.445-1.487-.8-.789-2.246-1.843.232-1.788-.949-1.788.676h0l-1.147-2.252-1.036.238-.587-.5-1.2,1.444-.986-.527-1.1.733-.6-.286h0l.442-.466-.88-.186.26-1.337-.607-.505-2.686,1.125,1,1.316-1.691.6.026.507-1.119.271-.728-.579-.013.479-.371-.364-1.127.65.4.646-.442.364L14,85.17l-.295.384h0l-.663-1.03-1.223.466-1.188-.724-.388-1.628L7.886,79.866l-.05-1.173-1.9-.219-.388-.559-1.4.639-.817-2.378-.689-.1.533-1.032-.141-2.2-.1-1.019L2.246,71.4,4,69.556,2.957,66.69,1.55,65.868.284,60.076l9.293-5.2,13.106-9.109,4.537-1.957-.594-1.42.7-.783-.5.553.659.822.6-.384-.737.93.425-.351.067.735.29-.828.414.275-.282-.457.707.182-.3-1.023-.323.208.505-.473-.995-.243,1.045.258.212,1.3Z" transform="translate(0 -32.175)" fill="#6cddb4"/>
  </g>
</svg>
