<svg xmlns="http://www.w3.org/2000/svg" xmlns:xlink="http://www.w3.org/1999/xlink" width="67.986" height="59.844" viewBox="0 0 67.986 59.844">
  <defs>
    <clipPath id="clip-path">
      <rect id="Rectangle_3811" data-name="Rectangle 3811" width="67.986" height="59.844" fill="none" stroke="#6cddb4" stroke-linecap="round" stroke-linejoin="round" stroke-width="3"/>
    </clipPath>
  </defs>
  <g id="Group_17386" data-name="Group 17386" transform="translate(0 0)">
    <g id="Group_17385" data-name="Group 17385" transform="translate(0 0)" clip-path="url(#clip-path)">
      <path id="Path_27246" data-name="Path 27246" d="M62.463,23.6c.353,0,.6,0,.846,0,.2,0,.286-.1.242-.288a5.459,5.459,0,0,1,.173-1.8c.013-.135.1-.221.245-.172a8.461,8.461,0,0,0,2.716.156c.012,0,.024,0,.035,0,.731.021.781-.2.616.784a5.662,5.662,0,0,1-.363,1.171,16.021,16.021,0,0,0-.853,3.792.364.364,0,0,1-.01.07c-.227.671-.526,1.314-.757,1.985-.144.422-.613.66-.923.994-.18.193-.42.326-.589.542a.559.559,0,0,1-.4.208,1.365,1.365,0,0,0-.948.581,11.654,11.654,0,0,0-2.277,3.013,19.193,19.193,0,0,1-1.047,1.973c-.588,1.022-1.114,2.085-1.72,3.1A9.8,9.8,0,0,1,55.23,42.58a10.872,10.872,0,0,1-1.821,1.452.7.7,0,0,0-.216.225,22.629,22.629,0,0,1-3.027,3.449c-.4.355-.672.862-1.158,1.106-.7.352-1.081,1.032-1.674,1.48-1.027.771-2.046,1.554-3.094,2.3a9.267,9.267,0,0,1-1.86.968,2.374,2.374,0,0,0-.442.214,2.012,2.012,0,0,1-1.785.177,2.462,2.462,0,0,0-1.91.142.624.624,0,0,0-.244.992c.14.2.094.293-.133.33a2.392,2.392,0,0,1-1.105-.114c-.134-.041-.26-.107-.393-.153a1.12,1.12,0,0,0-1.655.729c-.109.285-.251.278-.5.269a13.92,13.92,0,0,1-2.32-.6,9.352,9.352,0,0,0-2.565-.35c-.275.02-.61,0-.663.418-.017.142-.178.154-.289.131a10.551,10.551,0,0,1-2.17-.344,1.059,1.059,0,0,0-1.246.052c-.141.127-.354.081-.545.057a.678.678,0,0,0-.853.5.313.313,0,0,1-.32.223.535.535,0,0,0-.565.459.747.747,0,0,1-.966.419,1.362,1.362,0,0,0-1.256.131.7.7,0,0,1-.613-.011,7.816,7.816,0,0,0-.913-.257c-.257-.049-.5-.021-.515.343-.005.2-.129.212-.294.171a1.814,1.814,0,0,0-.864-.074.971.971,0,0,0-.6.337,3.67,3.67,0,0,1-.951.771c-.257.167-.523.3-.641.615-.062.169-.218.175-.348.068a1.213,1.213,0,0,0-1.119-.24.583.583,0,0,1-.526-.229,1.471,1.471,0,0,0-.876-.54c-.167-.015-.116-.123-.073-.233.183-.474.009-.719-.487-.691-.121.006-.273.016-.325-.086-.2-.392-.516-.29-.824-.216-.5.121-.5.126-.451-.4.005-.059.013-.117.014-.175.01-.252.213-.588-.122-.722a1.319,1.319,0,0,0-1.188.041.3.3,0,0,0-.128.335c.03.2.036.4.048.594.005.082.005.172-.106.189-.081.013-.126-.047-.164-.108a2.278,2.278,0,0,1-.307-1.617.57.57,0,0,1,.376-.433.254.254,0,0,0,.155-.343,10.731,10.731,0,0,0-.439-1.1C7.95,52.68,7.5,52.3,7.238,51.8a1.429,1.429,0,0,0-.5-.69c-.155-.089-.224-.246-.026-.395a.163.163,0,0,0,.068-.214c-.061-.113-.16-.067-.248-.04-.157.05-.3.034-.323-.151a2.088,2.088,0,0,1,.108-1.24c.1-.213.214-.243.4-.085.373.312.378.291.746-.036a1.98,1.98,0,0,0,.6-1.64,12.376,12.376,0,0,0-.4-2.658,2.839,2.839,0,0,0-.611-1.211,16.1,16.1,0,0,1-1.915-3.02,22.914,22.914,0,0,1-2.124-5.063,20.985,20.985,0,0,0-1.169-3.413,3.739,3.739,0,0,0-.689-1.011A.805.805,0,0,1,.9,30.41a.98.98,0,0,0-.288-.55c-.175-.242-.152-.445.127-.569.252-.112.443-.325.749-.365.25-.032.286-.315.241-.514a.744.744,0,0,1,.2-.671.755.755,0,0,0,.188-.292c.051-.292.225-.39.5-.45.47-.1.721.025.821.523.042.214.125.325.343.292a.316.316,0,0,1,.394.254c.068.225.279.449.024.673a.3.3,0,0,0-.025.5.645.645,0,0,1,.194.509c-.02.221.074.31.293.232s.388-.091.487.169c.058.153.206.14.333.126a1.955,1.955,0,0,1,1.446.424,1.184,1.184,0,0,0,.828.175c.613-.022,1.2-.151,1.807-.229a1.558,1.558,0,0,1,1.288.327.574.574,0,0,0,.767.046c.2-.125.282-.235.2-.479-.1-.309,0-.455.331-.449a.639.639,0,0,0,.71-.523.6.6,0,0,1,.51-.429,4.431,4.431,0,0,0,1.09-.376.471.471,0,0,0,.311-.529q-.014-7.8-.007-15.6c0-.12-.065-.289.085-.347.124-.047.185.117.279.178.265.171.538.331.8.507a1.937,1.937,0,0,1,.752.944,4.663,4.663,0,0,0,.631,1.171,1.159,1.159,0,0,1,.206.554,2.437,2.437,0,0,0,.389,1.078c.336.487.168,1.078.37,1.59.026.066-.036.181-.082.259a8.328,8.328,0,0,1-.47.741,1.034,1.034,0,0,0-.289,1.055.71.71,0,0,1-.033.379.846.846,0,0,0,.165.694c.112.168.24.21.41.082a.864.864,0,0,1,.984-.081,1.164,1.164,0,0,0,.79.076,4.547,4.547,0,0,1,1.675,0c.424.058.609-.089.641-.522a.307.307,0,0,1,.367-.323,1.218,1.218,0,0,0,1.291-.966.783.783,0,0,1,.484-.522,1.073,1.073,0,0,0,.412-.322.634.634,0,0,1,.272-.215c.685-.2.856-.785,1.051-1.361.114-.339.07-.724.313-1.027a.546.546,0,0,0,.087-.264c.145-1.2.776-1.491,1.7-1.586a1.689,1.689,0,0,1,1.29.339c.4.323.838.6,1.215.953a1.087,1.087,0,0,0,1.092.317.55.55,0,0,1,.595.208.725.725,0,0,0,.761.32.624.624,0,0,1,.4.107,1.6,1.6,0,0,0,1.755-.053.651.651,0,0,1,.543-.059,2.165,2.165,0,0,0,1.078-.048,1.375,1.375,0,0,0,1.018-.98c.224-.815.579-1.581.851-2.378a1.541,1.541,0,0,0,.124-.823c-.035-.175.066-.269.245-.319a6.372,6.372,0,0,1,1.9-.483c.167,0,.239-.129.3-.26a2.664,2.664,0,0,1,1.272-1.2.583.583,0,0,0,.34-.45c.114-.633.243-1.263.369-1.895a.6.6,0,0,1,.152-.35,7.894,7.894,0,0,1,1.332-1.134,2.044,2.044,0,0,1,.6-.192.516.516,0,0,0,.444-.392.452.452,0,0,1,.485-.376.356.356,0,0,0,.368-.214.4.4,0,0,1,.127-.165A6.389,6.389,0,0,0,48.087,3.2a1.548,1.548,0,0,1,1.367-.763,4.172,4.172,0,0,0,1.752-.578c.126-.053.136-.186.149-.3a.736.736,0,0,1,.7-.7C52.8.726,53.54.642,54.278.516A2.324,2.324,0,0,1,55.7.955c.411.22.882.238,1.281.465a.224.224,0,0,0,.17.012,7.5,7.5,0,0,1,1.108-.137,4.869,4.869,0,0,1,2.051.093.724.724,0,0,1,.653.581c.236.845.515,1.68.8,2.508a3.778,3.778,0,0,1,.125,1.494.811.811,0,0,0,.265.723,1.523,1.523,0,0,1,.392.773,1.367,1.367,0,0,0,.536.875.435.435,0,0,1,.148.446,2.207,2.207,0,0,0,.3,1.243,2.164,2.164,0,0,1,.23,1.255,13.216,13.216,0,0,0,0,1.685,12.635,12.635,0,0,1-.01,1.789,2.892,2.892,0,0,0,.021.979.689.689,0,0,1-.112.568,1,1,0,0,0-.158.9c.044.138.077.319-.083.416a.425.425,0,0,1-.465-.053c-.395-.252-.784-.514-1.178-.768-.469-.3-.635-.27-1.06.076a2.085,2.085,0,0,0-.711,1.011,4.157,4.157,0,0,1-.853,1.364,1.156,1.156,0,0,0-.287.872,6.677,6.677,0,0,1,.005.7c-.009.243.019.414.316.49a.574.574,0,0,1,.377.584,1.513,1.513,0,0,0,1.007,1.275A3.126,3.126,0,0,0,62.463,23.6ZM49.841,36.619c.139-.017.278-.031.416-.052a5.057,5.057,0,0,0,1.712-.863c.153-.089.092-.211.055-.338a.817.817,0,0,1,.4-1.01.4.4,0,0,0,.239-.423.4.4,0,0,1,.267-.444.446.446,0,0,0,.287-.287,1.985,1.985,0,0,0-.582-1.364A11.136,11.136,0,0,1,50.2,29.663c-.07-.077-.14-.157-.23-.117-.367.165-.87-.02-1.121.448-.056.106-.205.113-.322.1a.607.607,0,0,0-.641.327,1.142,1.142,0,0,1-.679.5c-.363.108-.807.134-.994.6a16.023,16.023,0,0,1-1.165,1.831,1.46,1.46,0,0,1-.936.741c-.123.03-.236.1-.357.144-.218.077-.275.194-.121.388a2.4,2.4,0,0,1,.367.755,4.207,4.207,0,0,0,.713,1.161c.136.181.257.312.183.551a.306.306,0,0,0,.2.395,1.265,1.265,0,0,1,.581.5,1.911,1.911,0,0,0,1.46,1.01c.558.08.763,0,.875-.577a.68.68,0,0,1,.181-.442.34.34,0,0,0,.124-.459c-.061-.12.017-.193.119-.252a1.151,1.151,0,0,0,.342-.238A1.159,1.159,0,0,1,49.841,36.619Z" transform="translate(0.035 0.035)" fill="none" stroke="#6cddb4" stroke-linecap="round" stroke-linejoin="round" stroke-miterlimit="10" stroke-width="3"/>
    </g>
  </g>
</svg>
