<svg xmlns="http://www.w3.org/2000/svg" width="157.723" height="101.989" viewBox="0 0 157.723 101.989">
  <g id="bulgaria" transform="translate(-0.268 -0.487)">
    <path id="BG-01" d="M65.79,275.062l.683-.253.814.193.67-.523.332-.572.369-2.028.3-.389.616-.023.34.232.737-.209.495.987.871.394.394.021.258-.209-.343-.619.137-.343h.7l-.258.621.07.662.57.343-.075.933.436,1.3-.09.7.608.474-.015.16-1,.441-.827.85-.09.332.637,4.433.606.68,1.551.546,2.662,1.716,1.935,1.961,1.5,1.178h0l.273.585-.817,1.147.09.845-.634,1.562.034.74h0l-.044,1.294.312.655-.6.474-.6-.044-.211-.446-1.124.984-.737-.4-.317-.75-.446-.271-.168.75-.381.263-.314-.113-.562.142-.157.314-1.276.113-.283.719-.582.644-.165-.2-.747-.18-.894.116-.508-.2-.634.508-.108.536-.724.111-.469-.062-.461-.428-.753.106-.567-.582-1.036.2-1.209-.247-.42.232-.43-.08-1.554,1.232-.513-1.173-.979-.018-.642.6-.637.242-.147.271.111.626-.611.814-1.709.381-1.363-.034-1.428-.68-.531.175-1.691-.322-.1-.082.307-.35.433-.106-.088-.884.134-.443-.366-.794.673-.959L52.665,296l.07-.366-.16-.075-.064-.6.263-.314.026-.407-.291-.655.291-.273.07-.6-.188-.588-.33-.278.054-1.039-.162-.492.268-.456.647-.046-.072-.276.289-.562,1.021-1.291-.049-.629L53.8,285.8l-1.144-.24.023-.466-.613-.987-.108-1.013-.521-.977-.343-.028-.191-1.312-.505-.68.08-1.35-.044-.686-.242-.242.064-.371h0l1.01-.487.539-2.477.485-.353.25.281.389,1.263.966-.044.58.758,2.441-.613,1.245-1.139.314-.072,3.167,1.059.866.07.783.564,1.722-.466Z" transform="translate(-37.055 -201.143)" fill="#6cddb4"/>
    <path id="BG-02" d="M423.743,170.785l1.541-.858,2.551.247.786.307,1.621,1.4,1.307.853,1.435-.178.606.412,1.137-.771,2.569.4,1.206-.07.585.2-.168.454.1.224,1.273.747,1.057.263,1.121-.4.917.054h0l.454,2.229-.291.737.312,1.209-.085.513-4.3-.26-.309.448-.1.688.338.443.43.1-.541.041-.219.43-.472-.2-.384.495-.734-.077-.353.533-.015,1.531.423.8-.178.052-.673-.4-.42.229-.42-.193-.613.454-.536-.283-.492.124-.7.948-.183,1.477-.229-.191-.085.1-.155-.072-.157.188-.044-.147-.2.253-.021.606.43.433.008.255-.178.152.247.412.24-.255-.219-.3.255-.678.92,1.111.381-.3.224-.647.559.345.448.034-.062-.258.219-.33.606.629.412-.093.044-.4.245.379.358-.082-.09.389.152.113-.211.433.374.4.387.077.389-.32.082-.227.116-.054-.062.222.183.021.039.338.616-.026-.116.363-.412.082.026.443.363.211-.332.224.039.3.647,1.149.436.062.082-.235.688-.064-.1.417-.229.1.541.461-.611.235.075.18-.438.268-.005.345.268.4-.32.093,0,.49.57.2.224.245-.155.021-.005.3.99.631.3.464.253.021.1.43.394.242-.147.258.229.028.129.245.173-.088.067.394.479.222.394.539.08.531.33.283.484-.046.433.711.126.7.01-.224.562.247-.126.258.665.856-.09.175.562.83.082.487-.655.188-.783-.379-.43.436-.1-.175-.366.155-.183-.247-.1.26-.18-.178-.273.338-.284-.3-.023-.366-.541-.088-.459-.369.054.343-.155.144-.116-.379-.162.415-.348-.258-.3.4,0,.327.178.09-.137.348.314.046.062.487-.521-.206,0,.4-.3-.361-.237.173-.075-.216-.307.044.178-.379-.222-.054-.116.219-.139-.283-.588-.013.142-.139-.278-.253-.116.206-.866-.149.121.235-.451-.015-.335.533-.067-.206-.258.188-.088-.2-.338.219-.1-.149-.1.139-.3-.121.188.283-.369.338-.173.046-.064-.283-.407.546-.028-.183-.34-.018-.188.456.235.131-.34.152.245.307-.291.062-.523-.407-.781-1.443-.2.219-.822-.209-.09-.314-.459.008-.418-.783-.384.013-.168-.35-.438-.131-.662-1.719-.8-.106-.253-.711-.219.054-.149-.263-.3-.023-.17-.343-.428.013-.139-.224-.518.137-.24-.191-.456.224-.155.464-.433.183.077.66-.384-.108-.121-.245-.32.17-.381-.235-.546.165-.58-.647-1.033-.235-.768.345h0l-.572-.768-1.319-.773-.7-.936-.088-.546.719-.848-.041-.415-.6-1.186.008-.425.4-.876-.644-.482-.466-1.013-.912-.781-.25-1.093.33-.392,1.856-.317.474-.588.018-.639-.216-.219-1.09.3-.51-.227-.345-1-.655-.786-.412-1.134-.861-1.085-.995-2.3-.951-.874-1.167-1.536h0l.1-.933-.75-1.423-.353-.332-1.026-.116-.7-.863-.008-.763.291-.765-.51-1.817.113-.665-.8-.013h0l.433-.214,1.178.152.165.186-.271.479.237.35,1.959-.018,1.629-1.152,1.276.064.794-.157,1.008.423,1.43-.281.317.082.464.745.518.147,1.866-1,1.263-.173Z" transform="translate(-303.749 -125.772)" fill="#6cddb4"/>
    <path id="BG-03" d="M469.289,85.427l.729.469.734.961.214,1.466.211.227.618-.015,1.495-1.216.536-.07.474.425L474.31,89l1.332.67,1.366-.064.526,1.044.57.459,2.062,2.577.327-.121,1.152-1.343,1.062.054.381.155.814.884.691,1.307.58.485h0l-.464,1.588-.8,1.479-1.575.314-.459.3-.064.515-.057-.271-.366.031.294.108-.211.216.165.407.747.052.049.144-.853,3.647-.6.809,0,1.294.41,2.446-.242.464.155,2.085-.33.1-.162.521h0l-.917-.054-1.121.4-1.057-.263-1.273-.747-.1-.224.167-.451-.585-.2-1.206.07-2.569-.4-1.139.771-.6-.41-1.436.178-1.307-.856-1.624-1.4-.786-.3-2.551-.247-1.541.858h0l.072-1.008-.436-.242-.155-.691-.753-.286.046-.219.314-.142.376-.513h.894l.673-.361,1.923-.384-.4-1.332h0v-.923h0l-.637-.7.258-.982,2.314-1.366-.477-1.049-.052-1.005-.283-.629-.1-.925.116-.307.709.227.495-.443-.093-1.234-.235-.7L465.8,92l1.312-1.99L467,89.551l-.485-.106.495-.917v-.379l-.683-.3,0-.912.183-.2.706-.059,1.567-.521.32-.222Z" transform="translate(-341.175 -63.05)" fill="#6cddb4"/>
    <path id="BG-04" d="M275.951,75.584l1.559-.343h0l.6.495.374-.013.278-.294.09.616-.443.59-.052.4L279.3,79.4l.49.32.162.505.446.142.232.294.023.613-.4,1,2.536,1.387.773-.621L283.94,83l1.026.941.866.407L287,84.287l1.479.582,1.183-.479.484,1.149,1.283.289h0l1.711,1.639-.245.747.6.49.064.356.6.611.108.345-.013.443-.8.559-.165.912-.33.673-.1,1.727.209.884.168.374.936.794-.116.376-.706.369-.137.5,2.874,1.008h0l-.68,1.036-2.951,1.567-.129.265.291.531-.082.647-1.758,1.4-.379.021-1.067-.4-1.5.371-1.353-.25h0l-.7.072-1.008-.183-1.624.6-.8.523h0l-.755-.6-.149-.871-.423-.727.322-.456.678-.461.088-.528-.523-.258-.018-.936-1.09-.139-.515-.552.023-1.219,1.036-.992.041-.361-.206-.369-1.023-.271-.678-.572-.554.111-1.059-.459-.848.183-.631-.544-1.809.09-.2-.523.348-1.09-.265-.327-.7.008-1.291.59-1.606-.415-.776-1.013-.8-.544-.134-1.005h0l.552.077.33-.232.028-.99.727-1.08.062-.892h0l1.853-1.886.271-.907-.2-.544-1-.2.059-.572.35-.745-.134-.392-1.783.193L269.7,82.3l-.088-.415.283-.469,1.41-.472.281-.3.343-2.152-.626-1.039.356-.7.08-.948-.3-1.039.3-.5,1.183-.737h0l2.08,1.773Z" transform="translate(-199.355 -54.216)" fill="#6cddb4"/>
    <path id="BG-05" d="M8.389.624l.4.3,1.281.2L11.628,2.6l1.51.771,1.34,1.036,2.652.474.379.335.108.99-.871,1.469-2,.335-.644.263-.606.564L12.476,12.2l.389,1.2.533.495,1.724.459.582.356,2.149.526h0l-.211.446-.255.121-2.067.268-.052.536.147.2,2.183.838.209.276.08.616-.245.3-1.17.211-1.879.966-.472.652-.58,2.1-.912.915-.778,1.827-.9.441-.211.289-.119,1.593-.533,1.046-.4.312h0L8.4,29.115l-.235-.24-.258-.889-1.528-.309-.567-.923-.624-.01-.425-.265-1.18-3.219.121-1.3-.356-.732.294-.6-.322-.593L2.634,19.8l-.673-.546-.42-.634L1.418,17.8l-.211-.314.162-1.013-.557-.549L.268,14.639.99,12.61l.2-1.363-.144-.613.49-.459.008-1.508.183-.338L1.59,7.917,2.35,7.7l.113-.235,2.142-.119.369-.479L4.719,6.26l.714-.211.438.116L6,5.863l.925-.031L7,5.5l-.211-.188.121-.657L6.665,4.3,6.9,2.853l.214.075,0-.4-.374-.268.168-.309.152.1.229-.139-.2-.3.314-.059-.1-.155.247-.312L7.523.742l.232.137.281-.34.126.278.1-.33Z" fill="#6cddb4"/>
    <path id="BG-06" d="M110.525,58.608l1.216.072,2.144.853.786.621,2.136.657,3.291-.546,1.018.01h0l-.544,2.456-.428-.273-.1.521-.466-.66-.448.028-1.469,1.868-.832-.335-.353.206.418,1.4.039,1.928,1.791.758-.317.567-.1,1.2-.369.08-.43-.16-1.866.415-.224.193.059.33-.3.825-2.825.25-.608.448-.469,3.93.338.49.2.028,1.041-.325.515.616h0l.247,3.25-1.4,0,.026,1.716h0l.026.755-.278.278-1.237-.629-2.469-.067-.657-.487-.984.209-1.425.9h-.34l-.959-.619-2.52,2.222-.683-.446-1.521-2.319-.219-1.32.972-1.366-.046-.338-.619-.227-1.606-.144h0l-.273-.593-.008-.763.361-.443.954.013.155-.345-.093-.549-.856-.575L96.157,74.8l-.608-.461-.021-.369L96.9,72.589l.984-1.907-.152-1.758,1-1.616.477-.229.732.291,1.412.155.693-1.077h1.191l-.17-.853-1.049-.871-.186-.366.168-.528.8-.835.67-1.6.082-2.044-.387-1.234.126-1.149h0l1.312-.353,1.023-.031.567.193.33.49,1.175.366.933.528Z" transform="translate(-70.71 -41.642)" fill="#6cddb4"/>
    <path id="BG-07" d="M252.909,137.554l.134,1.005.8.544.776,1.013,1.606.415,1.291-.59.7-.008.265.327-.348,1.09.2.523,1.809-.09.631.544.848-.183,1.059.459.554-.111.678.572,1.023.271.206.369-.041.361-1.036.992-.023,1.219.515.552,1.09.139.018.936.523.258-.088.528-.678.461-.322.456.423.727.149.871.755.6h0l-.049.428-.6.247-.832-.722-.75.57-.472.046-.915-.206-.742-.753-.809-.062.111.933-.3.265-3.072-.85-.954.144-1.608-.972-.732.564-.907.07-1.088.647-1.853-.235h0l.134-1.054-.729-1.438-1.165-1.562-.972-.263-.3-.353-.441-1.5V144.74l.3-.979.454-.649,1.152-.407-.013-.869-.258-.626.018-1.01.265-.593.716-.492-.072-2.307,1.466.531Z" transform="translate(-183.425 -101.188)" fill="#6cddb4"/>
    <path id="BG-08" d="M493.009,30.464l1.1,4.041,2.974,1.546,3.144,1.407,2.791.211,2.505.652,3.353-.18-.139.521.124.655-.363.58.129,1.165.258.549-.26,1.314,1.028,2.067-.3.992-1.07,2.2-1.059,1.206-.407.129-.675.948-.106.758-.472-.734-.856-.232-.693-.562-1.3-.407-1.5.1-.683.361-1.26.186-1.082-.278-1.647,1.1-.889,2.268h0l-.58-.485-.691-1.307-.814-.884-.381-.155-1.062-.054-1.152,1.343-.327.121-2.062-2.577-.57-.459L487.5,47.53l-1.366.064-1.332-.67L484.79,45.6l-.474-.425-.536.07-1.495,1.216-.619.015-.211-.227-.214-1.466-.734-.961-.729-.469h0l-.667-1.224-.286.015-1.505,1.028-.387-.149-1.1-1.528-1.165-.162-.642-.763h0l.4-.059.1-.219.01-.356-.34-.688.054-.533,1.794-2.049,1.469-.309L480.01,34l.307-.062.523.6.513-.1.784-.941.5-1.265.634.68.786.1,0-.716.961-1.379.554-.438,1.24-.428h0l.165.41.624.188,2.745-.446,1.832-1.454.683.845Z" transform="translate(-351.664 -20.977)" fill="#6cddb4"/>
    <path id="BG-09" d="M265.186,304.807l-.34,1.142.8,3.17.492-.559.366-.139.24-.546.325-.082.606,1.454,1.015.389.887.686,2.185.673,1.214-.521.312.07.57.716.232,1.526.533,1.067-.1.719-.255.446.263.665.616-.394.964.428.706-.472.206-.588.505-.222,1.505.2.425,1.376-.624.322-.456.521-.5,1.66.031.59.549.242.433.668.356.17-.214.853.046.881,2.18,2.077.263.456.121,1.085h0l-.727.41-.608.1-.356-.281.049-.5-.451.021-.755-.642-.178.33-.683.139-.283.384-.43-.108-.394.3-.647-.072-.33.876-.588-.505-.657-.247-1.131.33-1.317-.441-.428.307-.34,1.028-.711-.3-.686-.049-1.111.436-.1.322-.314-.044-.794.314-.415-.106-.8.616-.93-.139-.325.353-.523-.317-.809-.09-.278-1.1-.4-.389-.559-.211-.085-.358-.268-.131h0l.082-.59-.523-.273-.059-.956-.245-.526.966-1.242-.111-.255-.495.07-.173-.149.338-1.188-.18-.634-.242-.345-.719-.322-1.428.686-1.3-.484-.067-.889-.41-1.209-.044-.5.258-.332,1.845-.675.541-.631-.07-1.577.332-1.229-.554-1.515-.191-.8.1-.307h0l.567-.276.464-.678.459-.247.438-1.157.933-1.312Z" transform="translate(-191.063 -225.891)" fill="#6cddb4"/>
    <path id="BG-10" d="M3.573,207.057l.456.211.577.652.951.2.58.312.348,1.368.582,1.077,1.443.765.108,1.629L9.7,214.979l.32,1.178.263.165,1.206.1.544.814h.734l.111.7.242.1.528-.536.338.082.423.554h.312l.325-.943.858-.294.265-.536.3-.18.508.116.265.487.974.5.8-.137.588-.966.206-.041.273,1.126.881.369.588.472.8.113.768-.582h0l.683.294.892-.052.6.178.593,1.825,1.688,1.368v.351l-1.263.469-.639,1.528.067.211.418.2,1.7-.559.441,1.451,1.832.786-.054.619-.492.178-.508.776h0l-.781.729-1.722.466-.783-.564-.866-.07-3.167-1.059-.314.072L20.2,227.966l-2.441.613-.58-.758-.966.044-.389-1.263-.25-.281-.485.353-.539,2.477-1.01.487h0l-.093-.237-.327-.124-.688.113L11.8,228.6l-.582.255-1.064-.278-.505-.709-1,.08L7.436,226.93l-.686-.124-.276-.387-.552-.237-.495-.585-.42-.155-.456-.454-.265-1.4-.8-.278-.536-1.4-.394-.492H2.318l-.562-.789-.046-.348-.546-.611-.436-.16.108-.289.84-.131.16-.2.495.005.206.265.49-.34.237-.394-.075-.541.526-.639-.046-.469,1.039-.175.067-.518.3-.309.224-1.358.374-.58-.309-.961-.621-.634-.6-.312-.7-.861-.794-.188.039-.724.662-1.745-.273-.265.51-.74Z" transform="translate(-0.341 -153.333)" fill="#6cddb4"/>
    <path id="BG-11" d="M161.43,120.268l.387-.191,1.417-.149.822-.642.853-.237,1.639.428,1.572-.16,1.051-.5.464.031.868-.928.294.554.727.16.876.848,4.5.577.191-.394-.046-1.155.142-.283.814.894.624-1.137,1.165-.938,1.021-.436,1.18.062.675.474,1.2.428.732-.433h.57l.948-.925.642-1.42.389.131.508,1.613.289.376,1.381.631.624.552h0l-.062.892-.727,1.08-.028.99-.33.232-.552-.077h0l-1.5-.216-1.466-.531.072,2.307-.716.492-.265.593-.018,1.01.258.626.013.868-1.152.407-.454.649-.3.979v1.008l.441,1.5.3.353.972.263,1.165,1.562.729,1.438-.134,1.054h0l-2.5,1.1-.564-.015L182.1,136.2l-2.366.392-.683-.2-.6-1.126-1.088-.856-3.291-.389-.954,1.175-2.392.044h0l-2.549-.734-1.392.111-1.8-.33-.054-.348.84-.559.013-.459.242-.4-.673-.505-.1-1.222-.807-.57.175-.35.631-.464-1.763-.943-.222-1.618-1.26-.629-.149-.912-1.57-.08h0l-.026-1.716,1.4,0Z" transform="translate(-118.773 -84.85)" fill="#6cddb4"/>
    <path id="BG-12" d="M54.39,50.287l1.131.436,1.072.139.778.817.948.49,1.015.229.358-.1h0l-.126,1.149.387,1.234-.082,2.044-.67,1.6-.8.835-.168.528.186.366,1.049.871.17.853H58.446l-.693,1.077-1.412-.155-.732-.291-.477.229-1,1.616.152,1.758L53.3,67.913,51.934,69.3l.021.369.608.461,1.758.366.856.575.093.549-.155.345-.954-.013-.361.443.008.763.273.593h0l-1.649-.1-.575.443-.557.781-1.067.026-1.082.338-2.871-.018-.593-.356L44.9,73.719l-1.015-.564-.644-.845-.482-.031-.691.374h0L41.012,71.9l-.688-1.075-.034-.33-.5-.3-.09-.747-.466-1.152-.773-.438-.631-.711-.093-.464-.941-.528h0l.4-.312.533-1.046.119-1.593.211-.289.9-.441.778-1.827.912-.915.58-2.1.472-.652,1.879-.966,1.17-.211L45,55.5l-.08-.616-.209-.276-2.183-.838-.147-.2.052-.536,2.067-.268.255-.121.211-.446h0l2.265-.407,1.915-.959,1.327-.4Z" transform="translate(-27.115 -36.966)" fill="#6cddb4"/>
    <path id="BG-13" d="M137.421,226.035l.869-.876,1.131-.665,1.325-1.755.562.706.822-.441.072-.312-.451-.892.515-1.6.327-.229,1.028-.116.487-.428.951-1.995-.046-.6-.33-.229-1.3.562-.536.015-.379-.283-.966-1.531-.353-1.935.147-.412,1.492-.33,1.085.711.562.049,1.557-1.685.722.142.5-.119.283-1.268,1.1-.1,1.178-.51.74.417.84.206.5,1.917.317.58.742-.438.657.613h0l.041.686-.2.515-.832.876-.142.686.977,2.4.1.979,1.17,1.271.049,1.033-.482.394.4,1.206.039,1.6.1.446,1.134,1.472.124.456-.191.32-.68-.052-.626.317-.054,1.309-.34.933.247,1.33-.085,1.214-.655,2.041h0l-.075,1.108-.265.675-.3.4-1.216.523-.616.827-.178,1.082.235,1.111-.41.1-.348.49-.75.412-1.513-.379-2.283.312-.312,2.062h0l-1.5-1.178-1.935-1.961-2.662-1.716-1.551-.546-.606-.68-.637-4.433.09-.332.827-.85,1-.441.015-.16-.608-.474.09-.7-.436-1.3.075-.933-.57-.343-.07-.662Z" transform="translate(-101.307 -155.456)" fill="#6cddb4"/>
    <path id="BG-14" d="M13.12,178.441l.441.526.433-.16.43.219.155.314.415-.577.219.155.2-.25.68.054.33-.325h0l.291.286.168.866,1.033-.072.371.361.448.982,1.229.193.745.68,1.1.2.51.809,1.376.593.348.549h0l.289.58.83.454.51.876.6.211.433.418.3,1.66-.245.567,1.165.2.977,1.464.667-.139.064.423h0l-.5.67-.495,1.7.062,2.106.232,1.332h0l-.768.582-.8-.113-.588-.472-.881-.369-.273-1.126-.206.041-.588.966-.8.137-.974-.5-.265-.487-.508-.116-.3.18-.265.536-.858.294-.325.943h-.312l-.423-.554-.338-.082-.528.536-.242-.1-.111-.7h-.734l-.544-.814-1.206-.1-.263-.165-.32-1.178-1.085-1.711-.108-1.629-1.443-.765-.582-1.077-.348-1.368-.58-.312-.951-.2-.577-.652-.456-.211h0l-.361-.343L9.3,185.3l.451-.969.227-.039.075-.616-.992-1.263-.1-.49-.369-.485-.036-.608.861-.278.789-.634.237-.271.093-.549.353-.219,1.01.559-.008-.446.258-.5Z" transform="translate(-6.146 -132.059)" fill="#6cddb4"/>
    <path id="BG-15" d="M176.3,64.887l.575-.108,1.258-.791,2.01.139.99-.417.263-.281.637-.108L183,63.4l1.448,1.206,1.106.268.487-.046.549-.327,1.057-.121,1.982.7h0l-1.183.737-.3.5.3,1.039-.08.948-.356.7.626,1.039L188.3,72.2l-.281.3-1.41.472-.284.469.088.415.245.121,1.783-.193.134.392-.35.745-.059.572,1,.2.2.544-.271.907-1.853,1.886h0l-.624-.552-1.381-.631-.289-.376-.508-1.613-.389-.131-.642,1.42-.948.925h-.57l-.732.433-1.2-.428-.675-.474-1.18-.062-1.021.436-1.165.938-.624,1.137-.814-.894-.142.284.046,1.155-.191.394-4.5-.577-.876-.848-.727-.16-.294-.554-.868.928-.464-.031-1.051.5-1.572.16-1.639-.428-.853.237-.822.642L159.115,81l-.387.191h0l-.515-.616-1.041.325-.2-.028-.338-.49.469-3.93.608-.448,2.825-.25.3-.825-.059-.33.224-.193,1.866-.415.43.16.369-.08.1-1.2.317-.567-1.791-.758-.039-1.928-.418-1.4.353-.206.832.335,1.469-1.868.448-.028.466.66.1-.521.428.273.544-2.456h0l.835-.5.7-.82,2.655-.936,2.982.716,1.541,1.492Z" transform="translate(-116.071 -45.777)" fill="#6cddb4"/>
    <path id="BG-16" d="M197.931,190.616l2.392-.044.954-1.175,3.291.389,1.088.856.6,1.126.683.2,2.366-.392,1.033.464.564.015,2.5-1.1h0l-.263.606.116,3.031-.82,1.825.456,1.933.771,1.356.887.356h.539l2.152-.92.366.173.232.737-.1.657-1.07,1.08.041.34.711.8-.013.487-.211.093-.848-.348-.183.412,0,3.144.278-.008.74.5.168.394-1.959.7-.6.4-.273,1.283.113.923.585.557,1.24.461,1.307-.415,1.121.015.984-.637.727,1.1,1.08.969h0l-1.026,2.665.168,1.044-.059,1.652-.66.814h0l-2.392,1.417-.933,1.312-.438,1.157-.459.247-.464.678-.567.276h0l-.866-.778-.356-.688-.3-.036-.479.43-.077,1.7-.972,1.126-.809.2-.964-.25-.469.747-.626.25-.492.8-.786-1.7.015-.554.325-.724-.2-.088-.149-.515-.407.345-.343-.631.384-.49.237-1.317-.041-.459-.495-.606-.273-.162-.964.124-1.443-.363-1.917.75-1.021.075-.345-.219-.871-1.363-.693.075-1.1-.487h0l.655-2.041.085-1.214-.247-1.33.34-.933.054-1.309.626-.317.68.052.191-.32-.124-.456-1.134-1.472-.1-.446-.039-1.6-.4-1.206.482-.394-.049-1.033-1.17-1.271-.1-.979-.977-2.4.142-.686.832-.876.2-.515-.041-.686h0l1.484-.26.611-1.572-1.307-1.3-1.575-.642-.438-.469-.093-.8Z" transform="translate(-145.97 -140.224)" fill="#6cddb4"/>
    <path id="BG-17" d="M370.046,38.089l1.66-.062.714.206.606.974L374.76,39l.644.853.2,1.116,1.868.6.892.054.526.32.683-.155.327.572.2.052.915-.943.972,1.188,1.137.353.732,1.374.9.1.353,1.051,1.075,1h0l.253.4-.013.791-.379.57-1.106.546-.322.753-.508.3-.673.01-.8-.428-.242,1.09-1.474,1.253-.113.544.3.088-.111.928-.938.68.018.456-.637.242-.124.245.219.5-.137.407,1.005.577.247.505-.33.6-.765.521h0l-.675.121-.3-.268-.387.255-.513-.425-.353.956-.227.18-.415-.216-1.041.077-1.392-.608-1.242.562-.765-.137.085.536-.317.17-.711,1.209-.046.673-1.067.513-.3-.495.35-.678-.332-.521-.814-.289-.183-.619,1.8-1.245.734-.783-.07-.871.263-.487-.044-.273-1.366-.327-.3-.42-.34-1.216-1.041-.227-.722-.948-.634-.32-.353-.412-.381-.041-.464.209-.585.814-.255-.111-1.611.134-.456-.309h0l-.443-1.147-.469-.639.242-.332-.139-.523,1.1-.407.608-.039,1.113-1.358.956.214,1.8,1.374,2.211-.734,1.42.322,1.521-.188.838-1.283,0-1.758-.4-1.018-.523-.464L371.9,44.1l-.943-.835-.289-.044-.536.441-.2-.327-1.144.188-.642-.093-.639-.348.018-.771.2-.325.742-.417.745-2.273.722-.789Z" transform="translate(-268.639 -27.865)" fill="#6cddb4"/>
    <path id="BG-18" d="M324.9,25.6l.291,1.149,1.067,1.039-.515,1.077h0l-.119.42-.722.789-.745,2.273-.742.418-.2.325-.018.771.639.348.642.093,1.144-.188.2.327.536-.441.289.044.943.835,1.026.188.523.464.4,1.018,0,1.758-.838,1.283-1.521.188-1.42-.322-2.211.734-1.8-1.374-.956-.214-1.113,1.358-.608.039-1.1.407.139.523-.242.332.469.639.443,1.147h0l-1.629.781-.436,2.206-.508.613-.376.83-.585.436L316.526,49l-.113,1.253h0l-1.283-.289-.484-1.149-1.183.479-1.479-.582-1.173.062-.866-.407-1.026-.941-.381.039-.773.621L305.228,46.7l.4-1-.023-.613-.232-.294-.446-.142-.162-.505-.49-.32-.938-2.371.052-.4.443-.59-.09-.616-.278.294-.374.013-.6-.495h0l.984-.492,1.881-.034,2.557-1.551,1.791-.059,1.317-.7.719-1.268.979-.438.709-.693,1.889-2.889,2.618-1.608.624-1.34.665-.747,1.036-.639,1.327,0,2.644-1.423Z" transform="translate(-224.333 -18.639)" fill="#6cddb4"/>
    <path id="BG-19" d="M408.661,10.392l.861-.067,1.9.8.794.046.91-.325.348.631-.18.387.353.8,1.657.6,1.1,1.572,1.82-.353,3.515.34.807-1.245.742.619.745,1.928h0l-1.24.428L422.23,17l-.961,1.379,0,.716-.786-.1-.634-.68-.5,1.265-.783.941-.513.1-.523-.6-.307.062-2.5,2.358-1.469.309L411.455,24.8l-.054.533.34.688-.01.356-.1.219-.4.059h0l-.541-.178-.564.222-.91-.856-.51-.9-.268-.044-1.376.75-.647.08h0l-1.075-1-.353-1.051-.9-.1-.732-1.374-1.137-.353-.972-1.188-.915.943-.2-.052-.327-.572-.683.155-.526-.32-.892-.054-1.868-.6-.2-1.116-.644-.853-1.734.206-.606-.974-.714-.206-1.66.062h0l.515-1.077-1.067-1.039-.291-1.149h0l1.247-.343,1.513.3,2.345-.647,1.608.1,1.492-.387.856-.436.817.116.827-.17,2.363-1.366,1.412-.575,2.106-.059L407.862,10Z" transform="translate(-288.874 -7.059)" fill="#6cddb4"/>
    <path id="BG-20" d="M346.908,162.69l1.283-1.1.508-1.5.59.106.742-.371.2.131-.106.928.183.193.652-.616.585.505.657.24.848-.046,1.7-.492,2.6.4h0l-1.655,1.464-.142.727.309.374h0l.8.015-.113.665.51,1.817-.291.765.008.763.7.863,1.028.116.353.332.747,1.423-.1.936h0l-.5-.387-.162.088-.01.3.495.85-.008,1.028-.745.93-.276-.131-.265-.464-.732,1.175-1.247.126-2.26,1.412-1.41-.232-1.023.843.49.335.088.562-.655.485-.513.786-1.057.137-.376.518-1.742-.482-.34.214.07,1.528-.245.1-.521-.459-.3-.041-.015.477.588.791.487-.237.6-.673.216.425-.162,2.08-.879,1.477-.611,1.848h0l-2.644-1.585-.469.08-.482.562-.008-.518-.461-.209-.474-.546-.923-.314-.3-.343-.724-2.492-.969-1.18.049-.456.57-1.054-.92-2.131.655-1.07.126-.613-.783-1.317-.3-1.83-1.036-2.067-.1-1.776h0l1.353.25,1.5-.371,1.067.4.379-.021,1.758-1.4.082-.647-.291-.531.129-.265,2.951-1.567Z" transform="translate(-250.171 -118.275)" fill="#6cddb4"/>
    <path id="BG-21" d="M176.149,305.867l1.1.487.693-.075.871,1.363.345.219,1.021-.075,1.917-.75,1.443.363.964-.124.273.162.495.606.041.459-.237,1.317-.384.49.343.631.407-.345.15.515.2.088-.325.724-.015.554.786,1.7.492-.8.626-.25.469-.747.964.25.809-.2.972-1.126.077-1.7.479-.43.3.036.356.688.866.778h0l-.1.307.191.8.554,1.515-.332,1.229.07,1.577-.541.631-1.845.675-.258.332.044.5.41,1.209.067.889,1.3.485,1.428-.686.719.322.242.345.18.634-.338,1.188.173.149.495-.07.111.255-.966,1.242.245.526.059.956.523.273-.082.59h0l-.871-.3-.482-.585-.394.2-.559-.235-.6-.791-1.9-.363-.928-.356-.722-.719-.49.072-.309.448-.2.031-1.392-.312.1.466-.165,1.062-.348.273-1.423-1.155-.425-1.149-.881-.1-.276-.2-.621.26.106-.482-.2-.121-1.116.291-.322-.5-.026-.771-.6-.389-.33-.9.067-.469-.407-.789.18-.335-.258-.242-.224.049.005-.268-.186-.124-1.327.546-.289.271-.031.523-.281.211-.289-.24-.613-.028-.253-.332-.521.1-.464.647-.683-.307-.9.5-.17-.505.139-.389-.8-.675.111-.322-.314-.183-.541.343-.273.477-.5-.072-.482.644.059.361-.188.188-.34-.054.041-.178-.322-.224-.057-.26-.629.077-.072-.227-.6-.082-.1-.237-.639.286-.113.356-.283.2h0l-.034-.74.634-1.562-.09-.845.817-1.147-.273-.585h0l.312-2.062,2.283-.312,1.513.379.75-.412.348-.49.41-.1-.235-1.111.178-1.082.616-.827,1.216-.523.3-.4.265-.675Z" transform="translate(-123.783 -226.678)" fill="#6cddb4"/>
    <path id="BG-22" d="M43.791,135.991l.691-.374.482.031.644.845,1.015.564.786,1.147.593.356,2.871.018,1.082-.338,1.067-.026.557-.781.575-.443,1.649.1h0l1.606.144.619.227.046.338-.972,1.366.219,1.32,1.521,2.319.683.446,2.52-2.222.959.619h.34l1.425-.9.984-.209.657.487,2.469.067,1.237.629.278-.278-.026-.755h0l1.57.08.149.912,1.26.629.222,1.618,1.763.943-.631.464-.175.35.807.57.1,1.222.673.505-.242.4-.013.459-.84.559.054.348,1.8.33,1.392-.111,2.549.734h0l-1.013,2.319.093.8.438.469,1.575.642,1.307,1.3-.611,1.572-1.484.26h0l-.657-.613-.742.438-.317-.58-.5-1.917-.84-.206-.74-.417-1.178.51-1.1.1-.283,1.268-.5.119-.722-.142L71.967,158.3l-.562-.049-1.085-.711-1.492.33-.147.412.353,1.935L70,161.752l.379.283.536-.015,1.3-.562.33.229.046.6-.951,1.995-.487.428-1.028.116-.327.229-.515,1.6.451.892-.072.312-.822.441-.562-.706-1.325,1.755-1.131.665-.868.876h-.7l-.137.343.343.619-.258.209-.394-.021-.871-.394-.495-.987-.737.209-.34-.232-.616.023-.3.389-.369,2.028-.332.572-.67.523-.814-.193-.683.253h0l.508-.776.492-.178.054-.619-1.832-.786-.441-1.451-1.7.559-.418-.2-.067-.211.639-1.528,1.263-.469v-.351l-1.688-1.368-.593-1.825-.6-.178-.892.052-.683-.294h0l-.232-1.332-.062-2.106.495-1.7.5-.67h0l.273.281,1.082.265.276.423.649.4,1.121,1.613.3.1.436-.255.116-1.005.466-1.3.7.08.216.137.716,1.644.119.582-.108.889.175.732.479-.183,1.178.443,1.536-.557-.575-1.907-.631-1.018.041-.5-.356-.2-.822-1.317.124-1.577-.219-1.227-.16-.2-.832-.209-.188-.24.165-.629.567-.222.3-1.018.925-.325.322-.32.727-2.752-.325-1.271-.41-.059-.472.459-.58.173-2.026-1.314-2.933.745-.466-.075-.392-.407-.394-1.021-.523-.544-.224.023L51.386,149.4l-.049.649-.433.649-.018.307.392.3-.183.6-.727-.235-.6.343-2.1-.07-.933.139h0l-.348-.549-1.376-.593-.51-.809-1.1-.2-.745-.68-1.229-.193-.448-.982-.371-.361-1.033.072-.168-.866-.291-.286h0l.649-1.268-.242-.551.33-.381.023-.8,1.611-.74.4-.647.825-.433.606-1.6.776-.34.786-.683.366-1.577-.278-.322.508-.874-.768-.448Z" transform="translate(-28.838 -100.304)" fill="#6cddb4"/>
    <path id="BG-23" d="M68.678,182.351l.933-.139,2.1.07.6-.343.727.235.183-.6-.392-.3.018-.307.433-.649.049-.649,1.314-3.258.224-.023.523.544.394,1.021.392.407.466.075,2.933-.745L81.6,179l.58-.173.472-.459.41.059.325,1.271-.727,2.752-.322.32-.925.325-.3,1.018-.567.222-.165.629.188.24.832.209.16.2.219,1.227-.124,1.577.822,1.317.356.2-.041.5.631,1.018L84,193.36l-1.536.557-1.178-.443-.479.183-.175-.732.108-.889-.119-.582-.716-1.644-.216-.137-.7-.08-.466,1.3-.116,1.005-.436.255-.3-.1-1.121-1.613-.649-.4-.276-.423-1.082-.265-.273-.281h0l-.064-.423-.667.139-.977-1.464-1.165-.2.245-.567-.3-1.66-.433-.417-.6-.211-.51-.876-.83-.454Z" transform="translate(-50.78 -130.567)" fill="#6cddb4"/>
    <path id="BG-24" d="M273.646,191.751l.8-.523,1.624-.6,1.008.183.7-.072h0l.1,1.776,1.036,2.067.3,1.83.783,1.317-.126.613-.655,1.07.92,2.131-.57,1.054-.049.456.969,1.18.724,2.492.3.343.923.314.474.546.461.209.008.518.482-.562.469-.08,2.644,1.585h0l.928.577h0l-2.085,2.051-.036.768.477,1.09.433,2.116-.961.245-.57-.129-.838.889-.539-.152-1.077-2.2-1.1-.137-.606-.585-.876-.026-.711-.541-.348.232-.394,1.484-1.036.593-.577.026-.345.309-.513-.028-.43-1.43-.616-.647-.492-1.152-.472.013-.961.876-.281.015-.036-2.265-.32-.634-.307.155-.43.691-1.09.722.046.193.425-.039-.24.466-.423-.018-.693-.528-.335.077-.106.84-.887,1.175-.278.015-1.214-.75-.711-.077h0l-1.08-.969-.727-1.1-.984.637-1.121-.015-1.307.415-1.24-.461-.585-.557-.113-.923.273-1.283.6-.4,1.959-.7-.168-.394-.74-.5-.278.008,0-3.144.183-.412.848.348.211-.093.013-.487-.711-.8-.041-.34,1.07-1.08.1-.657-.232-.737-.366-.173-2.152.92h-.539l-.887-.356-.771-1.356-.456-1.933.82-1.825-.116-3.031.263-.606h0l1.853.235,1.088-.647.907-.07.732-.564,1.608.972.954-.144,3.072.85.3-.265-.111-.933.809.062.742.753.915.206.472-.046.75-.57.832.722.6-.247Z" transform="translate(-190.648 -141.137)" fill="#6cddb4"/>
    <path id="BG-25" d="M355.541,91.174l.456.309,1.611-.134.255.111.585-.814.464-.209.381.041.353.412.634.32.722.948,1.041.227.34,1.216.3.42,1.366.327.044.273-.263.487.07.871-.734.783-1.8,1.245.183.619.814.289.332.521-.35.678.3.495,1.067-.513.046-.673.711-1.209.317-.17-.085-.536.765.137,1.242-.562,1.392.608,1.041-.077.415.216.227-.18.353-.956.513.425.387-.255.3.268.675-.121h0l-.317.41.17,2.026.84.768.126.649-.379.567-1.118,1.013-.111.727-.446.838-.58.224-.446-.155.211,1.008.5,1.067-.008.417-.518.312-.134.624-.714.464-.162.74.173.441-.827.412h0l-2.6-.4-1.7.492-.848.046-.657-.24-.585-.505-.652.616-.183-.193.106-.928-.2-.131-.742.371-.59-.106-.508,1.5-1.283,1.1h0l-2.874-1.008.137-.5.706-.369.116-.376-.936-.794-.168-.374-.209-.884.1-1.727.33-.673.165-.912.8-.559.013-.443-.108-.345-.6-.611-.064-.356-.6-.49.245-.747L353.17,98.38h0l.113-1.253-1.276-1.088.585-.436.376-.83.508-.613.436-2.206Z" transform="translate(-261.09 -66.768)" fill="#6cddb4"/>
    <path id="BG-26" d="M308.986,266.477l.776.554,1.113.242.845.771.724.054.814.348.634-.363.647.515,1-.237.4.711.936-.1-.271,1.93.155,1.616-.629.611-.018.714.35.216.206.644.307.281.059.539,1.005,1.219h0l.546.75-.4.613.33.451-.363.191-.031.4-.35.294-.286.758-3.866.015-.513.191-.923,2.237-.013.479.74.827-.722-.124-.559.222-.577-.093-.807-.361-.57-.606-.291.247-.456-.049-.479-.193-.224-.312-1.229.639-.281.582-.673-.119-.407.253-.206.688.291,1.387.441.173.147.513.572.111.116-.242.35-.072.028.606.392.317-.149,1.673.753.085.2,1.17-.33.42-.044.436-.41.2-.018.227.121.374.425.186.642.941-.786.116-.289.387.142.428-.124.549-.26.459-.3.1-.152.66-.82-.028-.266.332-1.312-.126-.709.237-.229.585-.735.24-.807-.07h0L302.2,296l-.263-.456-2.18-2.077-.046-.881.214-.853-.356-.17-.433-.667-.549-.242-.031-.59.5-1.66.456-.521.624-.322-.425-1.376-1.505-.2-.505.222-.206.588-.706.472-.964-.428-.616.394-.263-.665.255-.446.1-.719-.533-1.067-.232-1.526-.57-.716-.312-.07-1.214.521-2.185-.673-.887-.686-1.015-.389-.606-1.454-.325.082-.24.546-.366.139-.492.559-.8-3.17.34-1.142h0l.66-.814.059-1.652-.168-1.044,1.026-2.665h0l.711.077,1.214.75.278-.015.887-1.175.106-.84.335-.077.693.528.423.018.24-.466-.425.039-.046-.193,1.09-.722.43-.691.307-.155.32.634.036,2.265.281-.015.961-.876.472-.013.492,1.152.616.647.43,1.43.513.028.345-.309.577-.026,1.036-.593.394-1.484.348-.232.711.541.876.026.606.585,1.1.137,1.077,2.2.539.152.838-.889.57.129.961-.245-.433-2.116-.477-1.09.036-.768Z" transform="translate(-211.736 -197.439)" fill="#6cddb4"/>
    <path id="BG-28" d="M385.32,203.344l1.167,1.533.951.876,1,2.3.861,1.085.41,1.134.657.789.345,1,.51.229,1.088-.3.217.219-.016.639-.474.59-1.858.317-.33.389.25,1.093.912.781.466,1.013.644.485-.4.876-.008.423.6,1.186.041.412-.719.848.088.546.7.936,1.32.773.572.768h0l-.369.075.124.678-.5.711-.667.057.072.588-.562.789-.845-.134-.577.469-.9-.093-.513.3-.173.423-.781-.2-.585-.495-.783.734-.126.332-1.01-.338-1.191.082-1.049-.474-.155.49-1.435,1.312h0l-1.005-1.219-.059-.539-.307-.281-.206-.644-.35-.216.018-.714.629-.611-.155-1.616.271-1.93-.936.1-.4-.711-1,.237-.647-.515-.634.363-.814-.348-.724-.054-.845-.771L374,219.881l-.776-.554h0l-.928-.577h0l.611-1.848.879-1.477.162-2.08-.216-.425-.6.673-.487.237-.588-.791.015-.477.3.041.521.459.245-.1-.07-1.528.34-.214,1.742.482.376-.518,1.057-.137.513-.786.655-.485-.088-.562-.49-.335,1.023-.843,1.41.232,2.26-1.412,1.247-.126.732-1.175.265.464.276.131.745-.93.008-1.028-.495-.85.01-.3.162-.088Z" transform="translate(-275.973 -150.29)" fill="#6cddb4"/>
    <path id="BG-27" d="M420.31,68.657l.647-.08,1.376-.75.268.044.51.9.91.856.564-.222.541.178h0l.642.763,1.165.162,1.1,1.528.387.149,1.505-1.028.286-.015.667,1.224h0l-.186.5-.32.222-1.567.521-.706.059-.183.2,0,.912.683.3v.379l-.495.917.484.106.119.456-1.312,1.99-.067.858.235.7.093,1.234-.495.443-.709-.227-.116.307.1.925.283.629.052,1.005.477,1.049-2.314,1.366-.258.982.637.7h0v.923h0l.4,1.332-1.923.384-.673.361h-.894l-.376.513-.314.142-.046.219.753.286.155.691.436.242L422.755,95h0l-1.294.149-1.866,1L419.078,96l-.464-.745-.317-.082-1.43.281-1.005-.423-.8.16-1.276-.067-1.629,1.155L410.2,96.3l-.237-.348.271-.482-.165-.186-1.178-.149-.433.211h0l-.309-.374.142-.727,1.655-1.464h0l.827-.412-.173-.441.162-.74.714-.464.134-.624.518-.312.008-.417-.5-1.067-.211-1.008.446.155.58-.224.446-.838.111-.727,1.118-1.013.379-.567-.126-.649-.84-.768-.17-2.026.317-.41h0l.765-.521.33-.6-.247-.505-1.005-.577.137-.407-.219-.5.124-.245.637-.242-.018-.456.938-.68.111-.928-.3-.088.113-.544,1.474-1.253.242-1.09.8.428.673-.01.508-.3.322-.753,1.106-.546.379-.57.013-.791Z" transform="translate(-302.762 -49.985)" fill="#6cddb4"/>
  </g>
</svg>
