<svg xmlns="http://www.w3.org/2000/svg" width="19.487" height="21.673" viewBox="0 0 19.487 21.673">
  <g id="Calendar_Calendar_Days" data-name="Calendar / Calendar_Days" transform="translate(-3 -1)">
    <path id="Vector" d="M8.372,4.186H7.5a5.433,5.433,0,0,0-2.3.238,2.185,2.185,0,0,0-.955.955A5.433,5.433,0,0,0,4,7.684v.874M8.372,4.186h8.744m-8.744,0V2m8.744,2.186h.875a5.426,5.426,0,0,1,2.3.238,2.187,2.187,0,0,1,.956.955,5.423,5.423,0,0,1,.238,2.3v.878M17.115,4.186V2M4,8.558v9.618a5.429,5.429,0,0,0,.238,2.3,2.186,2.186,0,0,0,.955.956,5.423,5.423,0,0,0,2.3.238h10.5a5.418,5.418,0,0,0,2.3-.238,2.188,2.188,0,0,0,.956-.956,5.418,5.418,0,0,0,.238-2.3V8.558M4,8.558H21.487M17.115,17.3h0v0h0Zm-4.372,0h0v0h0Zm-4.372,0h0v0h0Zm8.746-4.372v0h0v0Zm-4.374,0h0v0h0Zm-4.372,0h0v0h0Z" fill="none" stroke="#48a529" stroke-linecap="round" stroke-linejoin="round" stroke-width="2"/>
  </g>
</svg>
