<svg xmlns="http://www.w3.org/2000/svg" width="72.242" height="73.955" viewBox="0 0 72.242 73.955">
  <g id="Group_15902" data-name="Group 15902" transform="translate(-165 -1368.334)">
    <g id="Ellipse_34" data-name="Ellipse 34" transform="translate(187.732 1435.767) rotate(180)" fill="none" stroke="#6cddb4" stroke-width="3">
      <circle cx="5.183" cy="5.183" r="5.183" stroke="none"/>
      <circle cx="5.183" cy="5.183" r="3.683" fill="none"/>
    </g>
    <g id="Ellipse_37" data-name="Ellipse 37" transform="translate(187.732 1385.221) rotate(180)" fill="none" stroke="#6cddb4" stroke-width="3">
      <circle cx="5.183" cy="5.183" r="5.183" stroke="none"/>
      <circle cx="5.183" cy="5.183" r="3.683" fill="none"/>
    </g>
    <g id="Ellipse_40" data-name="Ellipse 40" transform="translate(175.366 1410.983) rotate(180)" fill="none" stroke="#6cddb4" stroke-width="3">
      <circle cx="5.183" cy="5.183" r="5.183" stroke="none"/>
      <circle cx="5.183" cy="5.183" r="3.683" fill="none"/>
    </g>
    <g id="Ellipse_41" data-name="Ellipse 41" transform="translate(237.242 1410.983) rotate(180)" fill="none" stroke="#6cddb4" stroke-width="3">
      <circle cx="5.183" cy="5.183" r="5.183" stroke="none"/>
      <circle cx="5.183" cy="5.183" r="3.683" fill="none"/>
    </g>
    <g id="Ellipse_36" data-name="Ellipse 36" transform="translate(225.137 1435.767) rotate(180)" fill="none" stroke="#6cddb4" stroke-width="3">
      <circle cx="5.183" cy="5.183" r="5.183" stroke="none"/>
      <circle cx="5.183" cy="5.183" r="3.683" fill="none"/>
    </g>
    <g id="Ellipse_39" data-name="Ellipse 39" transform="translate(225.137 1385.221) rotate(180)" fill="none" stroke="#6cddb4" stroke-width="3">
      <circle cx="5.183" cy="5.183" r="5.183" stroke="none"/>
      <circle cx="5.183" cy="5.183" r="3.683" fill="none"/>
    </g>
    <g id="Ellipse_35" data-name="Ellipse 35" transform="translate(206.304 1442.288) rotate(180)" fill="none" stroke="#6cddb4" stroke-width="3">
      <circle cx="5.183" cy="5.183" r="5.183" stroke="none"/>
      <circle cx="5.183" cy="5.183" r="3.683" fill="none"/>
    </g>
    <g id="Ellipse_38" data-name="Ellipse 38" transform="translate(206.304 1378.7) rotate(180)" fill="none" stroke="#6cddb4" stroke-width="3">
      <circle cx="5.183" cy="5.183" r="5.183" stroke="none"/>
      <circle cx="5.183" cy="5.183" r="3.683" fill="none"/>
    </g>
    <path id="Path_27208" data-name="Path 27208" d="M0,20.155l18.5-11.5V0" transform="translate(200.897 1426.252) rotate(180)" fill="none" stroke="#6cddb4" stroke-linecap="round" stroke-linejoin="round" stroke-width="3"/>
    <path id="Path_27210" data-name="Path 27210" d="M0,20.155l18.5-11.5V0" transform="translate(201.304 1385.221)" fill="none" stroke="#6cddb4" stroke-linecap="round" stroke-linejoin="round" stroke-width="3"/>
    <path id="Path_27209" data-name="Path 27209" d="M18.906,20.155,0,8.652V0" transform="translate(219.803 1426.252) rotate(180)" fill="none" stroke="#6cddb4" stroke-linecap="round" stroke-linejoin="round" stroke-width="3"/>
    <path id="Path_27211" data-name="Path 27211" d="M18.906,20.155,0,8.652V0" transform="translate(182.398 1385.221)" fill="none" stroke="#6cddb4" stroke-linecap="round" stroke-linejoin="round" stroke-width="3"/>
    <line id="Line_50" data-name="Line 50" y2="54.963" transform="translate(201.121 1376.898)" fill="none" stroke="#6cddb4" stroke-width="3"/>
    <line id="Line_51" data-name="Line 51" x2="54.847" transform="translate(174.774 1405.8)" fill="none" stroke="#6cddb4" stroke-width="3"/>
  </g>
</svg>
