<svg xmlns="http://www.w3.org/2000/svg" xmlns:xlink="http://www.w3.org/1999/xlink" width="72.627" height="72.662" viewBox="0 0 72.627 72.662">
  <defs>
    <clipPath id="clip-path">
      <rect id="Rectangle_3740" data-name="Rectangle 3740" width="31.63" height="27.797" transform="translate(0)" fill="none" stroke="#6cddb4" stroke-width="3"/>
    </clipPath>
  </defs>
  <g id="Group_15901" data-name="Group 15901" transform="translate(-744 -1381.699)">
    <g id="Group_15897" data-name="Group 15897" transform="translate(764.062 1413.479)">
      <g id="Ellipse_28" data-name="Ellipse 28" transform="translate(10.467 0)" fill="none" stroke="#6cddb4" stroke-width="3">
        <circle cx="7.414" cy="7.414" r="7.414" stroke="none"/>
        <circle cx="7.414" cy="7.414" r="5.914" fill="none"/>
      </g>
      <g id="Group_15880" data-name="Group 15880" transform="translate(0 13.084)">
        <g id="Group_15877" data-name="Group 15877" transform="translate(0 0)" clip-path="url(#clip-path)">
          <path id="Path_27199" data-name="Path 27199" d="M.5,10.338V8.74A8.241,8.241,0,0,1,8.74.5h0a8.241,8.241,0,0,1,8.24,8.24v1.6" transform="translate(9.441 4.707)" fill="none" stroke="#6cddb4" stroke-miterlimit="10" stroke-width="3"/>
        </g>
      </g>
    </g>
    <g id="Group_15898" data-name="Group 15898" transform="translate(744 1402.14)">
      <g id="Ellipse_28-2" data-name="Ellipse 28" transform="translate(10.467)" fill="none" stroke="#6cddb4" stroke-width="3">
        <circle cx="7.414" cy="7.414" r="7.414" stroke="none"/>
        <circle cx="7.414" cy="7.414" r="5.914" fill="none"/>
      </g>
      <g id="Group_15880-2" data-name="Group 15880" transform="translate(0 13.084)">
        <g id="Group_15877-2" data-name="Group 15877" transform="translate(0 0)" clip-path="url(#clip-path)">
          <path id="Path_27199-2" data-name="Path 27199" d="M.5,10.338V8.74A8.241,8.241,0,0,1,8.74.5h0a8.241,8.241,0,0,1,8.24,8.24v1.6" transform="translate(9.441 4.707)" fill="none" stroke="#6cddb4" stroke-miterlimit="10" stroke-width="3"/>
        </g>
      </g>
    </g>
    <g id="Group_15900" data-name="Group 15900" transform="translate(764.062 1381.699)">
      <g id="Ellipse_28-3" data-name="Ellipse 28" transform="translate(10.467 0)" fill="none" stroke="#6cddb4" stroke-width="3">
        <circle cx="7.414" cy="7.414" r="7.414" stroke="none"/>
        <circle cx="7.414" cy="7.414" r="5.914" fill="none"/>
      </g>
      <g id="Group_15880-3" data-name="Group 15880" transform="translate(0 13.084)">
        <g id="Group_15877-3" data-name="Group 15877" transform="translate(0 0)" clip-path="url(#clip-path)">
          <path id="Path_27199-3" data-name="Path 27199" d="M.5,10.338V8.74A8.241,8.241,0,0,1,8.74.5h0a8.241,8.241,0,0,1,8.24,8.24v1.6" transform="translate(9.441 4.707)" fill="none" stroke="#6cddb4" stroke-miterlimit="10" stroke-width="3"/>
        </g>
      </g>
    </g>
    <g id="Group_15899" data-name="Group 15899" transform="translate(784.997 1402.14)">
      <g id="Ellipse_28-4" data-name="Ellipse 28" transform="translate(10.467)" fill="none" stroke="#6cddb4" stroke-width="3">
        <circle cx="7.414" cy="7.414" r="7.414" stroke="none"/>
        <circle cx="7.414" cy="7.414" r="5.914" fill="none"/>
      </g>
      <g id="Group_15880-4" data-name="Group 15880" transform="translate(0 13.084)">
        <g id="Group_15877-4" data-name="Group 15877" transform="translate(0 0)" clip-path="url(#clip-path)">
          <path id="Path_27199-4" data-name="Path 27199" d="M.5,10.338V8.74A8.241,8.241,0,0,1,8.74.5h0a8.241,8.241,0,0,1,8.24,8.24v1.6" transform="translate(9.441 4.707)" fill="none" stroke="#6cddb4" stroke-miterlimit="10" stroke-width="3"/>
        </g>
      </g>
    </g>
  </g>
</svg>
