<svg xmlns="http://www.w3.org/2000/svg" xmlns:xlink="http://www.w3.org/1999/xlink" width="70.99" height="66.697" viewBox="0 0 70.99 66.697">
  <defs>
    <clipPath id="clip-path">
      <rect id="Rectangle_3747" data-name="Rectangle 3747" width="70.99" height="51.289" fill="none" stroke="#6cddb4" stroke-linecap="round" stroke-linejoin="round" stroke-width="3"/>
    </clipPath>
  </defs>
  <g id="Group_15892" data-name="Group 15892" transform="translate(-754.333 -1178.524)">
    <g id="Group_15891" data-name="Group 15891" transform="translate(757.333 1175.524)">
      <g id="Group_15890" data-name="Group 15890" transform="translate(-3 3)" clip-path="url(#clip-path)">
        <path id="Path_27203" data-name="Path 27203" d="M61.54,28.931A11.7,11.7,0,0,1,49.788,40.682H12.281a11.751,11.751,0,1,1,0-23.5c.421,0,.842.03,1.262.06a.1.1,0,0,1-.03-.06,12.776,12.776,0,0,1-.21-2.4,14.291,14.291,0,0,1,28.581,0,12.775,12.775,0,0,1-.21,2.4h8.115A11.749,11.749,0,0,1,61.54,28.931Z" transform="translate(5.632 4.475)" fill="none" stroke="#6cddb4" stroke-linecap="round" stroke-linejoin="round" stroke-miterlimit="10" stroke-width="3"/>
      </g>
    </g>
    <g id="Ellipse_26" data-name="Ellipse 26" transform="translate(773.692 1245.221) rotate(180)" fill="none" stroke="#6cddb4" stroke-width="3">
      <circle cx="6" cy="6" r="6" stroke="none"/>
      <circle cx="6" cy="6" r="4.5" fill="none"/>
    </g>
    <g id="Ellipse_31" data-name="Ellipse 31" transform="translate(788 1245.221) rotate(180)" fill="none" stroke="#6cddb4" stroke-width="3">
      <circle cx="6" cy="6" r="6" stroke="none"/>
      <circle cx="6" cy="6" r="4.5" fill="none"/>
    </g>
    <g id="Ellipse_32" data-name="Ellipse 32" transform="translate(802.308 1245.221) rotate(180)" fill="none" stroke="#6cddb4" stroke-width="3">
      <circle cx="6" cy="6" r="6" stroke="none"/>
      <circle cx="6" cy="6" r="4.5" fill="none"/>
    </g>
    <g id="Ellipse_33" data-name="Ellipse 33" transform="translate(816.617 1245.221) rotate(180)" fill="none" stroke="#6cddb4" stroke-width="3">
      <circle cx="6" cy="6" r="6" stroke="none"/>
      <circle cx="6" cy="6" r="4.5" fill="none"/>
    </g>
    <path id="Path_27204" data-name="Path 27204" d="M-21.416,28.061,0,4.5V0" transform="translate(767.517 1234.205) rotate(180)" fill="none" stroke="#6cddb4" stroke-linecap="round" stroke-linejoin="round" stroke-width="3"/>
    <path id="Path_27206" data-name="Path 27206" d="M-5.374,28.085,2.2,5.491V0" transform="translate(784.028 1234.205) rotate(180)" fill="none" stroke="#6cddb4" stroke-linecap="round" stroke-linejoin="round" stroke-width="3"/>
    <path id="Path_27207" data-name="Path 27207" d="M6.707,28.6,0,5.4V0" transform="translate(796.134 1234.205) rotate(180)" fill="none" stroke="#6cddb4" stroke-linecap="round" stroke-linejoin="round" stroke-width="3"/>
    <path id="Path_27205" data-name="Path 27205" d="M21.057,28.527,0,5.835V0" transform="translate(810.442 1234.205) rotate(180)" fill="none" stroke="#6cddb4" stroke-linecap="round" stroke-linejoin="round" stroke-width="3"/>
  </g>
</svg>
