<svg xmlns="http://www.w3.org/2000/svg" width="79.544" height="82.378" viewBox="0 0 79.544 82.378">
  <g id="Group_17352" data-name="Group 17352" transform="translate(-448.228 -560.5)">
    <path id="Icon_feather-star" data-name="Icon feather-star" d="M12.136,3,14.96,8.719l6.313.923L16.7,14.092l1.078,6.286-5.646-2.969L6.49,20.378l1.078-6.286L3,9.642l6.313-.923Z" transform="translate(475.863 559)" fill="none" stroke="#6cddb4" stroke-linecap="round" stroke-linejoin="round" stroke-width="3"/>
    <path id="Icon_feather-star-2" data-name="Icon feather-star" d="M12.136,3,14.96,8.719l6.313.923L16.7,14.092l1.078,6.286-5.646-2.969L6.49,20.378l1.078-6.286L3,9.642l6.313-.923Z" transform="translate(455.864 567.689)" fill="none" stroke="#6cddb4" stroke-linecap="round" stroke-linejoin="round" stroke-width="3"/>
    <path id="Icon_feather-star-3" data-name="Icon feather-star" d="M12.136,3,14.96,8.719l6.313.923L16.7,14.092l1.078,6.286-5.646-2.969L6.49,20.378l1.078-6.286L3,9.642l6.313-.923Z" transform="translate(495.863 567.689)" fill="none" stroke="#6cddb4" stroke-linecap="round" stroke-linejoin="round" stroke-width="3"/>
    <path id="Icon_feather-star-4" data-name="Icon feather-star" d="M12.136,3,14.96,8.719l6.313.923L16.7,14.092l1.078,6.286-5.646-2.969L6.49,20.378l1.078-6.286L3,9.642l6.313-.923Z" transform="translate(446.728 589)" fill="none" stroke="#6cddb4" stroke-linecap="round" stroke-linejoin="round" stroke-width="3"/>
    <path id="Icon_feather-star-5" data-name="Icon feather-star" d="M12.136,3,14.96,8.719l6.313.923L16.7,14.092l1.078,6.286-5.646-2.969L6.49,20.378l1.078-6.286L3,9.642l6.313-.923Z" transform="translate(504.999 589)" fill="none" stroke="#6cddb4" stroke-linecap="round" stroke-linejoin="round" stroke-width="3"/>
    <path id="Icon_feather-star-6" data-name="Icon feather-star" d="M12.136,3,14.96,8.719l6.313.923L16.7,14.092l1.078,6.286-5.646-2.969L6.49,20.378l1.078-6.286L3,9.642l6.313-.923Z" transform="translate(454.59 612.311)" fill="none" stroke="#6cddb4" stroke-linecap="round" stroke-linejoin="round" stroke-width="3"/>
    <path id="Icon_feather-star-7" data-name="Icon feather-star" d="M12.136,3,14.96,8.719l6.313.923L16.7,14.092l1.078,6.286-5.646-2.969L6.49,20.378l1.078-6.286L3,9.642l6.313-.923Z" transform="translate(497.136 612.311)" fill="none" stroke="#6cddb4" stroke-linecap="round" stroke-linejoin="round" stroke-width="3"/>
    <path id="Icon_feather-star-8" data-name="Icon feather-star" d="M12.136,3,14.96,8.719l6.313.923L16.7,14.092l1.078,6.286-5.646-2.969L6.49,20.378l1.078-6.286L3,9.642l6.313-.923Z" transform="translate(475.863 621)" fill="none" stroke="#6cddb4" stroke-linecap="round" stroke-linejoin="round" stroke-width="3"/>
  </g>
</svg>
