<svg xmlns="http://www.w3.org/2000/svg" width="155.319" height="152.209" viewBox="0 0 155.319 152.209">
  <g id="france" transform="translate(-0.285 -0.334)">
    <path id="FR-A" d="M483.135,150.559l.9-.446-.25-.659.354-.3-.188-.154.347-1.3.612-.352.829-1.423-.188-.579,1.512-2.674-.208-.477-.683.1-.443-.31.349-.409-.253-.336.349-1.238-.3-.474.48.094-.745-.433,1.084-.052.576-.4.933-1.757-.422-.039-.25-.485.782-1.23-.712-.665.117-.235-1.155-.378-.292.709-.521.287.117-.441-.4-.073-.01-.461.477-.3-.482.057-.021-.255-1.017-.31-.117-.654.375,0,.128-.461.454.083.381-1.8.334-.2.3,1.176,1.819.527-.036.3.38.2,1.366-.412.917.592.451-.4.631-1.587h0l1.032-.05.031.214.636-.368.782.532.73-.4,1.723,1.118,1.509.394-.9,1.011-.644,1.673-1.272.74-.086.576-1.35,1.322-.422.931.065,1.131-.407.4-.388,1.559.133,1.092-.558.412-.289,1.3-.97,1.637-.078,1.4.571,1-.712,1.5-.292,1.606.2.73-.394.584.863,1.488-.089.459-.912.579.341.185-.357.117.146.357-.245.25-.618-.206-.115.237.375.149-.748.62-.626-.146-.923.318-.12-.287-.672-.073.344-.8-.751-.143h0l.115-.347-.618-1.09-.873-.149.438-1.113-.1-.818-1.045-.772-.8-.185Z" transform="translate(-356.993 -95.967)" fill="#6cddb4"/>
    <path id="FR-B" d="M151.29,336.114l.253.336.732-.112.584.435-.253.766.654.659.615-.738.308.334,1.308-.149.727,1.228.331-.258.547.339-.493.769,1.869.652-.4.477.735.357-.641.858-.308.016-.1.759.547.279-.542.764.662.24-.313.344h0l-.055.005h0l.573.5,1.121.125-.367.3.758,1.306h0l-.409.235h0l.044.18h0l.3,1.17-.313.091.3.485-.847.542.044.5-.732.229.19.847-.993.855-.816.208.065.469-.639.688.1.3-.962.55-.365-.107.383.563.005.925.409.271.063.92-1.186.06-.115.248-.227-.586-.261.044-.292,1.069.881.537-.477,1.256-.576.1.347.136.094.558-.347.169-.79-.255.1.487-.448.055-.19.686-.826.56-.766-.839-.4.378-1.027-.013-.2.409-1.384.295-.154.282-.753-.469-.425.1-.381.633-.321-.433-.772.6.222.67-.185.308-.865-.493.3-.373-.467-.454-.644.837-.9-.162-.649.623.576.438-.24.159.164.714-.357.026.344,1.058-.6.448.083.782-.43.175.023.368.349.039.094.493.665-.2.873.214.031.573.295-.07.519,1.129-.513.133-.016.774.719-.511-.031,1.084.36.386-.821.665.313.459-.347.769-.258-.063.057.68-.537-.044-.31.756-.508.216.141.92-.873.216-.295.469.073,1.05-.5.245.154,1h0l-.881.743-.521.052-.688-.469-.5.727-1.368-1.574-.581-.175-.24-1.053-2.049.216-1.851-1.043-.3.237-.232-.4-.7-.295-.365.172-.5-.367.414-.738-.792.352-.1.975-.931-.261-.357-.62.636-.581.352-.91-.07-1.016-1.585-.532-.3.083-.146.571-.347-.034-.172-.816-1.136.156-.089-.506-.534-.3-.018-.347,1.311-.222.727-.665,1.663-3.19,1.619-8.424.433-5.015.683-1.739,2.051.347-.149-.649-.558-.263.386-.005-1.444-1.2-.706,1.254-.154,1.186-.164-.271,1.131-12.874.675-1.243.362-.266.229.576-.417.073.274.018-.146.287,2.839,2.544,1.236,4.15,1.03,1-.795-1.843-.506-3.026h0l1.3.109.089-.4.242.769,1.514.276.25,1.41h0l.013.068h0l.193.586.222-.4.274.052.258.435.368-.073.232.425.735.313.511.073.6-.49.474.352.078-.633.443-.2-.25-.182.295-.579.516-.375.855.321.438-.839.983-.558-.2-1.11.31-.889.443-.149-.159-.347.3.266.542-.672.553,0,.188-.581.6-.427.07-1.251.589-.008.688-1.168Zm-7.635,36.34h0l-.063-.931h0l-.1-.049h0l.042.56-.315.128.261.25.177.042Zm-.414-.034h0l-.076.057h0l-.211.5.2.456.451-.323-.268-.657h0l-.063-.042Z" transform="translate(-92.3 -248.258)" fill="#6cddb4"/>
    <path id="FR-C" d="M287.294,277.065l.193-.79.268,0,.407-.722,1.366-.25.537.211.845-.537-.117-.646-.4-.224.318-.48-.279-.31.378-.2.248.2-.039-.5.837-.446.154-.42.49.446.407-.282.516.143.805-1.058,1.2-.031h0l.289.688,1.533,1.176.751-.639.842.519.349-.451.448-.021.391.983,1.126-.589-.143-.532.534-.023-.089-.589.394.11.146.753,1.063,1.65.06,1,.688.313.362-.2.326.678.876-.076.537.487-.255.991.094,1.09.214.021-.628.091-.513.714h0l-.07.018h0l-.094.013h0l-1.256.542.44,1.189-.169.795.308.362-.175.547.279.842-.469.4-.933.057-.086.613.667.683-.422.245.076.876-.362.347.993,1.022-.039.519.506.923,1.191.824.553,1.267-.232.92-.8.628.164.936.472-.644.407.063.352.675.026-.328.547.206.109-.344.785-.1-.1-.292.365-.136.589.055.422.477.675-.156.354.49-.388.284.425.25-.235.412.394.284.542-.284.592.8-.467.954.107.639-.235.138-.138-.4-.532-.115.271.456h0v.138h0l-.3-.021-.266.456.357.61-.9.263.188.706-.962.151-.74,1.374-1.319.01-.068.589-.3.208-.19-.2.063.326-.422-.235-.279.886-.672.37h0l-.279-.055.078-.37-.362.115-.524-.55-.193-.568-.831.143.073-.425-.469-.375-.394.083-.055.756-1.2.253-.662-1.353-.018-.662-.477-.508-.925.735-.474-.133-.063.73-.477.383-.654-.626-.24.576H296.2l-.05.487-.287-.06-.284.571-.076,1.282-.62,1.082h0l-.487-.54-.271-1.235.276-.193-.18-.3-.349.065-.31-1.293-.938.281.016-.855-.4-.446-1.431,1.454-.047.819-.547.586.112.506-.657.472-.169.581-1.423.154-.279-.454-.341.031-.847.276-.136.49-.365-.315-.128-.865-.315-.016.454-1.395-.871-1.29.128-.714-.448-.842h0l.43-.112h0l.091.023h0l.36-.3-.48-.894.805-.339.07-.839.571-.435-.341-.242-.073-.618,1.793-1.767-.12-1.155,1.428.644.516-.339-.441-.417.328-2.08-.61-.644.268-.691.386-.021.021-1.05-1.465-1.78.738-.633h0l.047-.01h0l.344.047.693-.772.083-.667.511-.237-.107-.977-.558-.8.169-1.076-.9-1.944-.55-.25-.109.2-.365-.756-.248.331-.678-.513.341-.454-.5-.143Z" transform="translate(-210.447 -200.244)" fill="#6cddb4"/>
    <path id="FR-D" d="M340.223,181.256h0l-.4-.878-.365.055-.1.344-.313-.2.365-.508-.214-.326-.659-.029.266-.422-.175-.279-1.006-.289-1.314-.083-.461.365.2.62-2.6.109-.235.586-.521-.083-.2-.675-.341.076.081.417-.381-.292h0l-.136.073h0l-.482.469-.542-.318-.167.331-.435-.279-1.186.214.2-.813-.2-.352-.156.367-.308-.068-.136-.336.354-.18-.537-.469-.336-1.191-.558-.237.094-.54-.368-.136.091.292-.6.261-.4-.808-.558.086.459-.665-.224-.112.2-.586-.451-.248.107-.268-.9-1.071-.4-.159-.414.287-.151-.513h0l-.417-.159-.12.448-.313.042-2.111-.047-.4.386-.607-.169-.347.881.347.9-.464.693-.725.381,0,.328h0l1,.482-.146.279.214-.016.151.706.811.7-.274.167.31.753-.36.42h0l-.065.055h0l-.86.6-.146.626.4.282-.078,1.011-1.879.474-.042.649.331-.055.516.618.295.589-.182.74.433.472-1.254.357h0v-.057h0l-.136.2.894,1.6-.683,1.587,1.233,1.22.529,2.231-.138.9.649.641.018,1.077-.326.761.214.881-.409.9h0l.289.688,1.533,1.176.751-.639.842.519.349-.451.448-.021.391.983,1.126-.589-.143-.532.534-.023-.089-.589.394.109.146.753,1.063,1.65.06,1,.688.313.362-.2.326.678.876-.076.537.487-.255.99.094,1.09.214.021-.628.091-.514.714h0l-.094.959.891.182.18.521,1.228-.461.816.388.318-.321.2.261.31-.154-.049.454.276.034,1.053-.461.357-1.712.573-.021.49.461.7-.412.54.443.206-.553.461-.081.331.43-.336.308.613.4-.18.6.42.349.235-.063,1.744-5.349.1.279.362-.219.787.48,1.189-.31.013-.237.412.211.321.745.85.182h0l.1-.263,1.009-.216.042-.4-.667-.271-.013-.667.5-.3-.091-.451.493-.427-.5-.743-.029-.683-.347-.021.331-.639L344.4,198l1.5-.4-.683-.441-.036-.378-.756.078-.381-.824-.323.172-.1-.782.691-.55-.464-.219.091-.354,1.095-.524.586-.988h0l-.005-.081h0l.532-2.2.339-.232-.5-.211h-.036l.284-.391-.125-.831h0l-.042-.026h0l-.448.031h-.068l.07-.923-.777-.224.446-.2-.221-.063.125-.284.534.021.527-.923-.6-1.194-.5.566-.242-.167h0l-.185.224-.524-.295-.594.524.083-.727-.928-.48.055-.451-.659.542-.691-.349.078-.433-.344.047-.008-.292-.652.391-.1-1.22-.469-.083.829-.657-.417-.944Z" transform="translate(-234.587 -127.389)" fill="#6cddb4"/>
    <path id="FR-E" d="M17.027,167.255l.323.388.657-.016.19.555.845.24-.146.443-1.767-.261-.268-.787Zm.25-23.933.055.581,1.452-.589v.792l.8-.05.083.383-.427.321,1.243.4-.18.568,1.387,1.178-.052.873,1.17.644-.289.508.3-.128.42.73-.094-.73.6.172.787-1.269.876-.373-.162-.368.555-.125.188.383,1.1-.97.378.331-.579.79.25.164.764-.56.354.936-.149.6.3-.991.182.566.31-.683.282.284-.3-.534,1.131-.089.115.639.433.282-.2.177.456.454-.136.792.222-.5.284.1-.521-1.04.425.227-.146-.347-.56-.117.164-.276-.386-.315.451-.8,1.6-.472.083.537-.354.675.977.555,2.226-.5h0l.9,2.369.727.459.73-.13,1.084-1.222,1.989.581h0l-.12,1.525.388,1.395-.6,1.017.242,1.019h0l.044.042h0l.628,3.2-1.5.618-.99,3.029-1.262-.362-.268-.467-.98-.115.063.519-1.613.633-.409.865-2.166.016-1.027.6-.2-.36-1.176.7-.177,1.872-.641.18-.068.508-.232-.365-.649.289-.581-.347-.2.881-.912.076-.235-.331-.373.461h0l-.407-.031-.068-.672.657-.1-.743-.414-3.31.607-1.037-1.069-.56,0-.287-.42-.164.211-.219-.412.052.4-1.118-.034-.05.891.521.719-.558-.07-.339-.9.3-.248-.156-.813L16.6,162.5l-.805-.01-.057-.4-.949.24-.8-1.09-1.642-.2-.527-.464-1.376.229-.511-.7.222-.388-.313.138-.386-.842L9,159.323l.156.464-.722.188-.7-.459-.441.237-.485.97-1.905,0,.1-1.473-.68-1.2-.97-.691-.631.086-.686-.464-1.131-.167.326-.073-.083-.339,3.224-.686,1.207.287.409-.657-.524-1.2-1.6-.568-.381.109-.649,1-.143-1.04.313-.237-.847-.086-.073-.409.633-.042L2.7,152.09l.425-.167-.253.615.222.3.388-.443-.034.5.55-.255.579.354.985-.375.5.287.422-.545-.282.235-.97-.255.373-.253-.313-.149.146-.368-.594.586-.472.026.214-.287-.659.255.628-.92-.255-.2-1.989.933-.8-.276-.287.388-.706.034-.19-.519.31-.341-.362-.5.37-.876-.172-.785.508-.662,1.293-.331.05-.451.456.1.232-.636.467.258,1.058-.263-.383-.282.98-.37.542.206,0,.506,1.09-.3-.295-.112.391-.461.936-.138.441.313.065-.485.493-.352.068.258.334-.255-.018.871.435.185.065-.589.021.4.837.222-.1-.474.255-.409.117.224-.031-.3,1.553.542.388-.159-.159.607.383-.448.446.261-.018-.889.378-.339-.388-.2.19-.623-.216-.18.349.237.545-.782.141.31.117-.282.229.36.336-.086-.138.373.461-.034.845-.626.615.065.425-.547Z" transform="translate(0 -105.712)" fill="#6cddb4"/>
    <path id="FR-F" d="M217.272,138.794l.67.821-.188.331.568.506-.182,1.285.49.235-.54.719.381.229-.109.388.691.831.529-.005-.065.61.845.383-.123.657.279.758.738.427.654-.271-.026.829.537.073.115.618-.328.86.159.354,2.067-.169-.128-.284.321.076.235-.532.461.2-.005.542.579-.224h0l.057-.107h0l.258-.229.339.409.49-.128.211.907,1.011.547.005.949-.373.039-.427.659,1.251-.276,1.582.284.527-.354-.193-.347.287.216.391-.248.222.628.506-.425.766-.112h0l1,.482-.146.279.214-.016.151.706.811.7-.274.167.31.753-.36.42h0l-.065.055h0l-.86.6-.146.626.4.282-.078,1.011-1.879.474-.042.649.331-.055.516.618.295.589-.182.74.433.472-1.254.357h0v-.057h0l-.136.2.894,1.6-.683,1.587,1.233,1.22.529,2.231-.138.9.649.641.018,1.077-.326.761.214.881-.409.9h0l-1.2.031-.805,1.058-.516-.143-.407.281-.49-.446-.154.42-.837.446.039.5-.248-.2-.378.2.279.31-.318.48.4.224.117.646-.845.537-.537-.211-1.366.25-.407.722-.268,0-.193.79h0l-.907-.136-1.17.289-1.186-.519-1.512.271-.607-.482-.383.1.136.388-.336.55-.469-.441-.618.474-.206-.521-.7.451-.206-.534-1.2,1.262-.665-.839-.441.076-.1.368-.92.089-.1-.381-.336.081h0l.2-.263h0l.167-.5-.662-.232-.07-.917-.555-.461-.792.008-.057-.482-1.123-.537-.2-.443.381-1.017-.159-.516-1.056-.98-.2-.954-.993-.845-.138-1.116-.8-.534-.54.023.331.774-1-.026-.725.464-.792-.315-.451.3-.349-.949.232-.125-.1-.837-.375.136-.25-.459-.722.2.235-.516-.2-.375-.214.224-.295-.1.057-.281-.649.094-.284-.712h0l.248-1.866L203,164l-.318-.282.743-1.608.049-.433-.347-.19.43-.918h0l-.013-.136h0l1.639.558.209-.133-.417-.657.2-.383.714.391.159-.412,1.428-.433.248-.339-.25.076-.109-.472.443-.545.811-.242-.1-.261.824-.785-.089-1.1.315-.18.232.378.044-.7.362-.128-.328-.74.255-.7-.487-.12-.039-.54.534-.039.023-.357-.344-.076.3-.07.107-.477.7-.089-1.277-.9h0l.352-.313-.456-.766.2-.456-.55-.172.159-.37,1.559-.818.67-1.1-.433-.589.331-.766-1.6-1.441-.036-.946h0l.521-.289.138-.454,1.217-.162h.224l.581-.54.563.193.068-.7,1.092.514,1.189-.052.433-.326-.112-.873,1.063-.615-.133-.847Z" transform="translate(-148.852 -102.37)" fill="#6cddb4"/>
    <path id="FR-G" d="M355.488,60.636l.657.295-.31.287.047.534-.227-.229-.336.615.229.454-.558,1.163,1.069.993-.446.717.3.787-.25.446,1.556-.117,1.071.623.779,1.16,1.129-.042.662.7-.19.712.368-.328.519.24h0l-1.444,1.243-.3-.459-.772.107-.219-.461-.334-.026-.242.829h0l-.018.1h0l-.318.594.563.709.044.639-.414.279.261.4-.511.18-.313.951.339.266-.063.326-1.077.613.443.464-.571.4.7,1.916-.422.777.469-.232.3.2-.023.5-.43.154.487.164-.25.568-.844.349h0l-.047.047h0l-.232.769.271.422-.506.719,1.293.928-.117,2.067.631-.276.151.594.519.008,1,1.095,1.256.3,1.52,1.4-.818.519.524.193-.164.779.568-.4.49.136.7,1.2.245-.289.456.388-.133.425.5.125.459.586-.532.3-.107,1.149-.461.37.743.141.276.529.592.167.117,1.3.644-.373.409.8h0l-.005.414-.365-.1-.31.568.065.3-.727-.117-.206.633-.547-.013-.162.67.355.519-.2,1-1.017.2-.318-.566-.454.553-1.246-.023-.412,1.118h0l-.185.224-.524-.295-.594.524.083-.727-.928-.48.055-.451-.659.542-.691-.349.078-.433-.344.047-.008-.292-.652.391-.1-1.22-.469-.083.829-.657-.417-.944h-.143l-.4-.878-.365.055-.1.344-.313-.2.365-.508-.214-.326-.659-.029.266-.422-.175-.279-1.006-.289-1.314-.083-.461.365.2.62-2.6.109-.235.586-.521-.083-.2-.675-.341.076.081.417-.381-.292h0l-.136.073h0l-.482.469L347.1,97l-.167.331-.435-.279-1.186.214.2-.813-.2-.352-.156.368-.308-.068-.136-.336.354-.18-.537-.469-.336-1.191-.558-.237.094-.54-.368-.136.091.292-.6.261-.4-.808-.558.086.459-.665-.224-.112.2-.586-.451-.248.107-.268-.9-1.071-.4-.159-.414.287-.151-.513h0l-.341-1.462.589-.175-.339-.61.805-.224-.175-.469.532-.315-.133-.242.628-.193-.425-.266.151-.219-.9.182.185-1.679-.8-.331.529-.521-.433-.3.907-.086-.021-.626h0l.464-.983.459-.042.037-.407.318-.057-.141-.284.949-.886-.292-.477-.709.1.018-.383.555-.279-.4-.7.232-.508.9.136.469-.274.008-.368-.37.07-.172-.5-.18.162-.308-.261.263-.362-.357-1.3,1.436-.709.8.19.047-.586.738-.441.388.487.834.284.016-1.3.331-.12-.295-1.019.412-.295-.321-.339.3-.438-.589-.847.19-.263.8.078.123-.751.636-.349.7-.97-.474-.383.511-1.478.026-.6-.412-.164.156-.756h0l.842-.175,1.475.532,1.64-.826,1.024-.149-.138-1.186.24-.485,1.322-1.233Z" transform="translate(-250.993 -44.405)" fill="#6cddb4"/>
    <path id="FR-H" d="M556.417,513l.315-.7.738-.076.466-.589-1.123-.383-.331.208-.073-.6-.735.284-.026-.255-.5-.018.777-.521-.2-.373.646-.135.128-.3-.354-.182.407-.078-.107-.469.266-.182-.594-.55-.315.365-1.2.206.167-.6-.331-.438.6-.049.128-.636.944-.54-.514-.91-.441.172-.511-.5-.339.1.047-.341-.3.086.388-.328-.352-.047.216-.5-.443-.464,1.676-.427-.373-.521-.6-.047.115-.644-.672.232-.089-.6.7-.164-.036-.435.537.016-.073-.4.341-.388-.336-.141.193-.542.581-.141-.151-.646.211-.222.018.341.3-.149.365.261.143-.714.7-.086.706-.56.9.078.49-.294-.029-.516.725-.516,1.05-.055.832.86.5-.871-.026-.865-.357-.56.334-.48-.2-.5.425-.354-.229-1.03.9-.255.438.367.318,2.643-.508,1.934.938,1.861.281,5.148-.1,1.337-1.486,2.176-.274,4.447-.477.193.136.222-.5-.169-.318.464.1.308.331-.433.553.154-.279.508-.753.412.052.954-.6.313-.151.42.61-.214-.065.211-.417.68-.446.034-.248-.4-.688-.026.295-.626-.547-.094.1-.529-.433.352-.443-.48-.164.232-.683-.219-.477-.506-.362.094.12-.42-.719-.128.185-.276Z" transform="translate(-409.287 -363.751)" fill="#6cddb4"/>
    <path id="FR-I" d="M424.309,197.8l.524-.829.295.149-.349.485.235.037.576-.331.4-.758,1.032-.255h0l.026.018h0l.12.834.6.472h0v.083h0l2-.461.5.3.464.9,1.353-.972.464.678,2.049,1.319h0l.326.633.8.185,1.045.772.1.818L436.432,203l.873.149.618,1.09-.115.347h0l-1.619.143.2.646-.667.331-.662,1.277,1.486-.321.352.169.073.454-.49.146-.149.477-.579.12.133.709-1.233,1.126.19.112-.216.25-1.473,1.061.177.493-1.061.917-1.348.295-.7.73.349.618-.36,1.209.232.586-3.7,3.117.5.493-.91,1.293-.086.73h0l-2.111,2.364-1.561.06-.125-.756-.727-.232-.039-.321-1.126,1.189-.706.065.018-.8-.414,0-.138-.508-.222.584-.459-.933.169-.188-.842-.482.167-.519h0l.1-.263,1.009-.216.042-.4-.667-.271-.013-.667.5-.3-.091-.451.493-.427-.5-.743-.029-.683-.347-.021.331-.639-.691-.709,1.5-.4-.683-.441-.036-.378-.756.078-.381-.824-.323.172-.1-.782.691-.55-.464-.219.091-.355,1.095-.524.586-.988h0l-.005-.081h0l.532-2.2.339-.232-.5-.211h-.036l.284-.391-.125-.831h0l-.042-.026h0l-.448.031h-.068l.07-.923-.777-.224.446-.2-.222-.063.125-.284.534.021.526-.923-.6-1.194-.5.566-.242-.167h0l.412-1.118,1.246.023.454-.553.318.566,1.016-.2.2-1-.354-.519.162-.67.547.013.206-.633.727.117-.065-.3.31-.568.365.1Z" transform="translate(-308.455 -144.882)" fill="#6cddb4"/>
    <path id="FR-J" d="M262.246,120.4l.391.125-.135.485h0l.1,0h0l.2.321.529-.162.863.373,1.285-.216.855-.568.97.772.519-.261.156.464.568-.141.3-.441.474.633.188-.193.7.216-.063.214.279-.123.474.381-.146.188.454.107.219-.407.336.735.534-.472,1.095.782.8-.592.472.435,1.267-.349.2.336.232-.336.623.1.036-.524.74.18.563.923-.253.623.907.654.143.553.435-.162.261.667.417-.334.167.925.678.19.167.373.261-.24h0l.021.626-.907.086.433.3-.529.521.8.331-.185,1.679.9-.182-.151.219.425.266-.628.193.133.242-.532.315.175.469-.805.224.339.61-.589.175.341,1.462h0l-.417-.159-.12.448-.313.042-2.111-.047-.4.386-.607-.169-.347.881.347.9-.464.693-.725.381,0,.328h0l-.766.112-.506.425-.222-.628-.391.248-.287-.216.193.347-.527.354-1.582-.284-1.251.276.427-.659.373-.039-.005-.949-1.011-.547-.211-.907-.49.128-.339-.409-.258.229h0l-.057.107h0l-.579.224.005-.542-.461-.2-.235.532-.321-.076.128.284-2.067.169-.159-.354.328-.86-.115-.618-.537-.073.026-.829-.654.271-.738-.427-.279-.758.123-.657-.845-.383.065-.61-.529.005-.691-.831.109-.388-.381-.229.54-.719-.49-.235.182-1.285-.568-.506.188-.331-.67-.821h0l-.094-.441.287-.188-.527.044.089-.628-.328-.649.435.047.229-.573.117.266h.057l1.043-.266Z" transform="translate(-191.639 -88.773)" fill="#6cddb4"/>
    <path id="FR-K" d="M283.44,384.407l.62-1.079.076-1.282.284-.571.287.06.05-.487h.063l.24-.576.652.626.48-.383.063-.727.474.133.923-.735.477.508.018.665.662,1.35,1.2-.25.052-.756.394-.083.469.375-.07.422.832-.141.19.568.524.55.362-.115-.078.37.279.055h0l.451,2.27.537.357.386,1.491.873,1.009-.308.211.083,1.09.886-.266,1.379,1.079.748-1.105.712-.123.039.845.459.109.164-.831.563-.081,1.559,1.1h0l.255.829.37.018.154.4-.01,1.59.714.237.628,1.15-.331.016,0,.375-1.866,1.444.279.326-.592,1.78.164.6-.951-.323-.592.149-.644,1.092.5.172-.112.344-1.387.8-.216-.289.107.4-.886.43-.115.586h0l-1.032-.383-.172-.347.216-.336-.347-.31-1.46.109-2.68,2.158-.873.253-1.486,1.72.052-.258-.07.24-1.864-.3.1.313-1.739,1.413-1.063,1.718-.409,1.348.182.686-.344,3.146.2,2.4,1.014.352-.12.493.477.693-.957.136-.493-.7-.8.112-.216-.245-.318.378-.847-.036-.662.686-.485-.177-.636.284-.248.268.216.67-1.03-.258-.5.373-.521-.107-.532-.777-1.905-.652-.6.326-.5-.115-.759.894-.746.206-.573-.5-.318-1.032-.579.055-.626-.555-1.022-.117.1-.889.521-.271h0l.894-.091.341-.514.79-.026.263-.649,1.8-.029.141-.263-.993-1.032-.873.263-.983-.36.136-.258-.725-.7.175-.427,1.2-.266-.068-.871-.5-.188.255-.323.529.023-.4-.675.172-.362-.474-.266.235-.258-.12-.652-.4-.3-.274.263-.42-.654,0,.206-.727-.083-.818-.576.172-.5-.383-.719.5-.6-.146-.407.988.005-.13-.761.547-.743.459.691.25-.37h0l.063.005h0l.7.175.526-.4.381.592,1.058-.308.48.485.073-.709.4-.42,1.5.646.383-.289,1.9.07.654-.581.068-.683-.636-.753.326-1.395.805.227.381.456,1.634-.6.175-.521.678-.284.821.24.031-2.119,1.621.313.388-.237-.151-.5.318-.474.855.008.156-.826.9-.743.073-.4-.644-.485-.4.123-.235-.422-.386.151-.341-.375.644-.227.141-.753.409-.169-.109-.469-1.707.154.281-.61-.751-.216-.1-.459-.339.193.36-.688-.375-.831.271-1.131-.845-.975.206-.852-1.113-1.3Zm-11.19,32.524.579.154-.261-.581-.318.427Z" transform="translate(-199.003 -280.249)" fill="#6cddb4"/>
    <path id="FR-L" d="M231.435,292.685l.336-.081.1.381.92-.089.1-.367.44-.076.665.839,1.2-1.262.206.534.7-.451.206.521.618-.474.469.44.336-.55-.136-.388.383-.1.607.482,1.512-.271,1.186.519,1.17-.289.907.136h0l.076.6.5.143-.341.454.678.513.248-.331.365.756.109-.2.55.25.9,1.944-.169,1.076.558.795.107.977-.511.237-.083.667-.693.772-.344-.047h0l-.047.01h0l-.738.633,1.465,1.78-.021,1.05-.386.021-.268.691.61.644-.328,2.08.441.417-.516.339-1.428-.644.12,1.155-1.793,1.767.073.618.341.242-.571.435-.07.839-.805.339.48.894-.36.3h0l-.091-.023h0l-.43.112h0l-.816.026-.409.334-.43-.386-1.147.837-.558-.222-1.126-1.392-1.09-.018-.083-.266-.975.412h0l-.758-1.306.367-.3-1.121-.125-.576-.5h0l.055-.008h0l.315-.344-.665-.24.542-.761-.547-.281.1-.758.308-.016.641-.858-.735-.357.4-.477-1.869-.652.493-.769-.547-.339-.328.258-.73-1.228-1.308.149-.308-.334-.613.738-.657-.659.253-.766-.584-.435-.732.112-.25-.336h0l.915-.805-.034-.649.766.2.474-1.413-.162-.756.758.138.7-.738-.24-.628-.438-.347-.281.216-.474-.5.222-.712-.266-.42.4-.219-.584-1.168.628-.292.558-.894,1.116.13.464-1.288.881.235.3-.657Z" transform="translate(-166.515 -215.32)" fill="#6cddb4"/>
    <path id="FR-M" d="M408.106,96.137l.4.55.188,1.16.907-.534.594.378.334-.712,1.121.188.295-.4.693.341.341.73,1.056.089.167.706.649.057.339-.323.292.224.292-.657,1.209-.347,1.361.9.693-.274,1.384.912-.182.315.662.607-.365.308,1.113,1.11-.1.349.31.151.07.558.3-.039-.13.511.292.381,1.048.182.287-.456-.258-.527,1.084-.167,1.03.532.188,1.267.516-.686.626.584.962-.156.519.248.349-.472.394.005.026-.464.863-.2-.1.313.631-.07.37,1.176,1.118.4.06.318h0l-.631,1.587-.451.4-.917-.592-1.366.412-.381-.2.037-.3-1.819-.527-.3-1.176-.334.2-.381,1.8-.454-.083-.128.461-.375,0,.117.654,1.017.31.021.255.482-.057-.477.3.01.461.4.073-.117.441.521-.287.292-.709,1.155.378-.117.235.712.665-.782,1.23.25.485.422.039-.933,1.757-.576.4-1.084.052.745.433-.48-.094.3.474-.349,1.238.253.336-.349.409.443.31.683-.1.208.477-1.512,2.674.188.579-.829,1.423-.613.352-.347,1.3.188.154-.354.3.25.659-.9.446h0l-2.049-1.319-.464-.678-1.353.972-.464-.9-.5-.3-2,.461h0v-.083h0l-.6-.472-.12-.834h0l-.026-.018h0l-1.032.255-.4.759-.576.331-.235-.036.349-.485-.295-.149-.524.829h0l-.409-.8-.644.373-.117-1.3-.592-.167-.276-.529-.743-.141.461-.37.107-1.149.532-.3-.459-.586-.5-.125.133-.425-.456-.388-.245.289-.7-1.2-.49-.136-.568.4.164-.779-.524-.193.818-.519-1.52-1.4-1.256-.3-1-1.095-.519-.008-.151-.594-.631.276.117-2.067-1.293-.928.506-.719-.271-.422.232-.769h0l.047-.047h0l.845-.349.25-.568-.487-.164.43-.154.023-.5-.3-.2-.469.232.422-.777-.7-1.916.571-.4-.443-.464,1.077-.613.063-.326-.339-.266.313-.951.511-.18-.261-.4.414-.279-.044-.639-.563-.709.318-.594h0l.018-.1h0l.242-.829.334.026.219.461.772-.107.3.459,1.444-1.243h0Z" transform="translate(-297.299 -70.637)" fill="#6cddb4"/>
    <path id="FR-N" d="M188.153,401.294l.063.042h0l.268.657-.451.323-.2-.456.211-.5h0l.076-.057h0Zm.318-.891.063.931h0l-.18-.044h0l-.261-.25.315-.128-.042-.56h0Zm16.552-24.817.975-.412.083.266,1.09.018,1.126,1.395.558.222,1.147-.837.43.386.412-.334.813-.026h0l.448.842-.128.714.871,1.288-.454,1.4.318.013.128.865.362.315.138-.49.847-.276.344-.031.276.454,1.423-.154.169-.579.657-.472-.109-.506.547-.589.044-.816,1.434-1.454.4.446-.016.855.938-.282.31,1.293.349-.068.18.3-.276.193.274,1.236.485.537h0l1.123,1.29-.206.852.845.975-.271,1.131.375.832-.36.688.339-.193.1.459.751.216-.281.61,1.707-.154.109.469-.409.169-.141.753-.644.227.341.375.386-.151.235.422.4-.122.644.485-.073.4-.9.743-.156.826-.855-.008-.318.474.151.5-.388.237-1.621-.313-.031,2.119-.821-.24-.678.284-.175.521-1.634.6-.381-.456-.805-.227-.326,1.395.636.753-.068.683-.654.581-1.9-.07-.383.289-1.5-.646-.4.42-.073.709-.48-.485-1.058.308-.381-.592-.527.4-.7-.175h0l-.063-.005h0l-.25.37-.459-.691-.547.743.13.761-.988-.005.146.407-.5.6.383.719-.172.5.818.576.727.083,0-.206.42.654.274-.263.4.3.12.652-.235.258.474.266-.172.362.4.675-.529-.023-.255.323.5.188.068.871-1.2.266-.175.427.725.7-.136.258.983.36.873-.263.993,1.032-.141.263-1.8.029-.263.649-.79.026-.341.513-.894.091h0l.063-.2-.722-.034.107-.391-1.478-.143-.527-.428-.764.06-.023.547-.435.167-.873-1.7-1.358-.125-.662.282-.975-1.17-1.032.026-.255-.281-.37.242-2.359-1.066-.534.328.12.5-.274.321.235.112-.266.3.388.417-.026.519-.85-.214-1.892.219-.675-.487-.712.743-.375-.62-.9-.31-1.929.764-.592-.107-.128-.37-.472-.123-.519-1.058-.3.162-1.353-.918h0l-.154-1,.5-.245-.073-1.05.295-.469.873-.216-.141-.92.508-.216.31-.756.537.044-.057-.68.258.063.347-.769-.313-.459.821-.665-.36-.386.031-1.084-.719.511.016-.774.513-.133-.519-1.129-.295.07-.031-.573-.873-.214-.665.2-.094-.493-.349-.039-.023-.368.43-.175-.083-.782.6-.448-.344-1.058.357-.026-.164-.714.24-.159-.576-.438.649-.623.9.162.644-.837.467.454-.3.373.865.493.185-.308-.222-.67.772-.6.321.433.381-.633.425-.1.753.469.154-.281,1.384-.295.2-.409,1.027.013.4-.378.766.839.826-.56.19-.686.448-.055-.1-.487.79.255.347-.169-.094-.558-.347-.136.576-.1.477-1.256-.881-.537.292-1.069.261-.044.227.586.115-.248,1.186-.06-.063-.92-.409-.271-.005-.925-.383-.563.365.107.962-.55-.1-.3.639-.688-.065-.469.816-.209,1-.858-.19-.847.732-.229-.044-.5.847-.542-.3-.485.313-.091-.3-1.17h0l-.044-.18h0l.394-.235Z" transform="translate(-137.178 -277.136)" fill="#6cddb4"/>
    <path id="FR-O" d="M274.739.918l.138.9.628.946-.451.474.1,1.2.386.636.949.036.772,1.47.566.026.646.524.5-1.019,2.148-.649.433,1.105.751.4-.232.743.566,2.27.915.563.772-.261.3-.454L285.1,10l-.2.615,1.168-.149.563.667-.018,1.467.54,1.09.427-.779,1.11-.016.56.425,1.327-.542.56.813.44.125.224.769.321-.005-.052-.521.5.289.138.326-.761.672.047.839-.287.5.777.01.326,1.071-.758.354-.2,1.149h0l-.6.177-1.155-.407.018-.852-1.024.584-.167-.474-1.7-.542-.55.268-.047.4-.493.076-.758-.5-.573.615-1.376-.313-.37.349-.558.026-.206-.3-.933.352-.847-.693-.865-.107-.469.295L278.62,18l-.61.48-.068-.957-1.2.566.36-1.134-.553-.245-.242-.018-.039.772-1.384-.54.021-.451-.274-.044-.209.485-.2-.456-.362.044-.675.858-.461-.373.128-.74,1.157-.688-.472-.6-.487-.07-.516.474-.284-.547-.057.438-.618-.266-1.306.649-.216-.326-.48.151-.1-.868-1.41-.6-.156-.2.362-.373-.2-.162-.42.331-1.121-.831-1.512.521-.253-.375h0l-.949-.818.349-2.335.524.425-.636-.951-.148-2.666.044-.25.1.409.2-.268.214-1.217-.352-1.152.868-.255.9-1,1.363-.443-.318-.06,2.747-.709.138.177.573-.589-.12.308.334.318.18-.626.089.2,1.606-.55.3.216,1.772-.727.188.584Z" transform="translate(-194.847)" fill="#6cddb4"/>
    <path id="FR-P" d="M118.666,88.844l.516.347.381-.2.3.456,2.234.529-.052.386.136-.368,1.311-.185.151-.48,2.252.013.391,1.488-.282-.1-.19.693.005-.232-.279.052-.125.576,1.546,2.335-.378,1.2.508-.464.422.31.446-.761,1.183-.125,2.273.8,3.91.263,1.243.67.388-.138.224.336,2.4-.73,1.389-1.267,1.045-.441-1.22-.052,1.887-.029h0l.441,1.538-.318.4.3.321-.151.216.576-.227.227.193v.352l-.683.263.8.623-.1.933.519.211-.352.568.206.508-.566.373.871.61-.691,1.7.748.547,1.058.073.323-.3.1.344.282-.1-.057.378.284.005-.292.365,1.6,1.063.172.485-.5.5.451.19.021.422.485-.008h0l.039.946,1.6,1.441-.331.766.433.586-.667,1.1-1.561.818-.159.37.55.169-.2.456.456.766-.352.313h0l-.646.1-.912-1.225-.159.5-1.118-.255-.5-1-.109.188-.944-.378-.107-1.673-.881-.912-1.692.378.136.261-.928.534-.143.5-.639-.321-.542.37,0-1.246-1.04-.094-.292-.873.3-.284-.67-.581-.454-.01.083.456-.326.472-.54-.245-.347.623-.472-.42-1.225.016-.446.584-1.084.472-.13-.67-.274.276-.448-.083.182.383-.5.227-.2-.477-.378.164-.341-.717-.688.044-.506-.336-.524.456-.709-.308h0l-1.989-.581-1.084,1.222-.73.13-.727-.459-.9-2.369h0l.644.235.013-.287.222.242.7-.328.779.172-.628-.438.274-.268-.662.334-1.316-1.5-.047-1.225-.433-.219.8-1.587-.237-.154.055-1.4.573.1-.6-.292-.193.626-.235-.628-.162-2.964.506-.05-.508-.214-.133.409-.871-1.973-1.11-.73-.414-2.179-.43-.5.511-.613-.086-1-.289-.464-.779-.266Z" transform="translate(-87.42 -65.439)" fill="#6cddb4"/>
    <path id="FR-Q" d="M216.3,66.87l.772-.1.039.513,2.81,2.562.24,1.2.56.878-.4-.016-.652,1.144.185.235.49-.235-.586.845.258.349-.222.68h-.047l.566.738-.336.571.3.24.159-.37.334.13-.2.563h0l-.1.068h0l-.524.97.279.029-.2.2.428.454.122,1.236.341.284-.162.472-.336-.435-.527.128-.06.545h0l-.881,2.406-1.043.266h0l-.057,0h0l-.117-.266-.229.576-.435-.047.328.649-.089.626.527-.042-.289.188.1.441h0l-.576.274.133.85-1.063.613.112.873-.433.328-1.189.052-1.095-.513-.065.7-.563-.193-.581.54H212.1l-1.217.159-.138.454-.521.292h0l-.485.008-.021-.422-.451-.19.5-.5-.172-.485-1.6-1.063.292-.365L208,86.956l.057-.378-.282.1-.1-.344-.323.3-1.058-.073-.748-.547.691-1.7-.871-.61.566-.373-.206-.508.352-.568-.519-.211.1-.933-.8-.623.683-.263v-.352l-.227-.193-.576.227.151-.216-.3-.321.318-.4-.441-1.538h0l.107-.295-.255.2-1.7-.524-.516-.662.936-2.257-.315-.42.341.156.56-.873,1.4-.563,2.7-1.835,2.012-.308,2.025-.858.639.185.706-.318.109.3-.07-.328,1.16-.553,1.981-1.6Z" transform="translate(-149.215 -49.122)" fill="#6cddb4"/>
    <path id="FR-R" d="M96.379,187.048l.427.3-.154.534.811.409.078.863-.633-1-.576-.023-.42-.5-.073-.529Zm12.84-23.756.709.308.524-.456.506.336.688-.044.341.717.378-.164.2.477.5-.227-.182-.383.448.083.274-.276.13.67,1.084-.472.446-.584,1.225-.016.472.42.347-.623.54.245.326-.472-.083-.456.454.01.67.581-.3.284.292.873,1.04.094,0,1.246.542-.37.639.321.143-.5.928-.534-.136-.261,1.692-.378.881.912.107,1.673.944.378.109-.188.5,1,1.118.255.159-.5.912,1.225.646-.1h0l1.277.9-.7.089-.1.477-.3.07.344.076-.023.36-.534.039.039.54.485.12-.255.7.328.74-.362.128-.044.7-.232-.378-.313.18.086,1.1-.824.785.1.261-.811.242-.443.545.109.472.25-.076-.245.339-1.431.43-.159.412-.714-.391-.2.383.417.657-.211.136-1.637-.558h0l.013.136h0l-.43.918.347.188-.05.435-.743,1.606.318.284-1.136,1.593-.248,1.866h0l-.386-.175-.287.237-.315,1.168-.542-.224-.467.738-.54-.255.4-.527-.448-.078-.222.224-.662-.182-1.415.229-.12.388-.8.211.235-.446-.381-.031-.667.308.138.5-.6.563-.772-.1-.477.3-.787-.339-.7.563-.472-.073.352.2-.159.255.328.01-.125.172.56.211-.25.571.6.709h.044l.43.289h.076l.284.185-.216.2h0l.01.065h0l-.026.586.688.868-.253.219.461.36-.235.425.464.229-.141.725.253.675-.472.188.425,1.027-.354.9.227.1.159-.349.719.454-1.17,1.066-.545-.133-.261.365-1.142-.553h0l-.047-.068h0l-.2.386-.4-.146-.485.258-.321-.193.341-.758-1.34.331-.229.508-.443.01h0l-.928.026-.044.7-1.186-1,.219.67-.519-.8-1.345,0-.506-.962-1.454-.253-1.78-1.17-.469-1.825-.985-1.376-2.1-1.958-.107-1.063.448-.039-.1-.269.933-.946.052-.639.547-.315-1.308-1.363-1.6-.284.876-.566L97.3,183.3l-.435-.094-.949.594-.824-.722-.607.318-1.225-.506.391-.292.031-.472-.581-.573,1.09-.785.005-.388h0l.373-.461.235.331.912-.076.2-.881.581.347.649-.289.232.365.068-.508.641-.18.177-1.872,1.176-.7.2.36,1.027-.6,2.166-.016.409-.865,1.613-.633-.063-.519.98.115.268.467,1.262.362.99-3.029,1.5-.618-.628-3.2h0l-.044-.042h0l-.242-1.019.6-1.017-.388-1.395.12-1.525Z" transform="translate(-68.626 -119.804)" fill="#6cddb4"/>
    <path id="FR-S" d="M259.277,47.953l.154.123h0l.253.375,1.512-.521,1.121.831.42-.331.2.162-.362.373.156.2,1.41.6.1.868.48-.151.216.326,1.306-.649.618.266.057-.438.284.547.516-.474.487.07.472.6-1.157.688-.128.74.461.373.675-.858.362-.044.2.456.209-.485.274.044-.021.451,1.384.54.039-.772.242.018.553.245-.36,1.134,1.2-.566.068.957.61-.48.55.125L274.3,53l.865.107.847.693.933-.352.206.3.558-.026.37-.349,1.376.313.573-.615.759.5.493-.076.047-.4.55-.268,1.7.542.167.474,1.024-.584-.018.852,1.155.407.6-.177h0l.964.344h0l-.156.753.412.167-.026.6-.511,1.478.474.383-.7.967-.639.349-.12.751-.8-.078-.19.263.589.847-.3.438.318.339-.409.295.295,1.019-.331.12-.016,1.3-.837-.284-.386-.485-.738.441-.047.586-.8-.19-1.434.709.355,1.3-.261.362.3.261.18-.164.175.5.37-.07-.008.368-.472.274-.9-.133-.232.508.4.7-.555.279-.018.383.709-.1.295.474-.949.889.141.282-.318.06-.036.407-.459.042-.461.98h0l-.261.24-.169-.373-.678-.19-.167-.925-.42.331-.261-.667-.435.162-.143-.553-.91-.654.253-.623-.563-.923-.74-.18-.036.524-.623-.1-.232.339-.2-.339-1.264.352-.472-.435-.805.589-1.092-.782-.534.472-.336-.735-.219.407-.453-.107.146-.188L268.3,68.3l-.281.123.065-.214-.7-.216-.188.19-.474-.631-.3.441-.568.141-.156-.464-.519.261-.97-.772-.855.571-1.285.214-.86-.37-.529.162-.2-.321h0l-.1,0h0l.136-.485-.391-.125h0l.06-.545.527-.128.336.435.162-.472-.341-.284-.123-1.236-.427-.454.2-.2-.279-.029.524-.97h0l.1-.068h0l.2-.563-.334-.13-.159.37-.3-.24.336-.571-.566-.738h.047l.222-.68-.258-.349.586-.845-.49.235-.185-.235.652-1.144.4.016-.56-.878-.24-1.2-2.81-2.562-.039-.513-.772.1h0l.8-.743.764-1.658.5-.164.209.5.772.206.315-.229-1.616-1.449.177-1.473.772.039Z" transform="translate(-189.494 -35.178)" fill="#6cddb4"/>
    <path id="FR-T" d="M136.193,265.8l1,.837.839.159.018.855.54,1.071-.482.933-.412-1.259-1.275-1.131Zm-1.118-3.263.4.365-.506.073.209.394.954-.407-.287.258.154.193.649-.117,1.238.719-.626.31-1.65-.923-.777,0-.3-.649Zm4.267-.923.443-.01.229-.508,1.34-.331-.341.759.321.193.485-.258.4.146.2-.386h0l.047.068h0l1.142.553.261-.365.545.133,1.17-1.066-.719-.454-.159.349-.227-.1.354-.9-.425-1.027.472-.188-.253-.675.141-.725-.464-.229.235-.425-.461-.36.253-.219-.688-.868.026-.586h0l-.01-.065h0l.216-.2-.284-.185h-.076l-.43-.289h-.044l-.6-.709.25-.571-.56-.211.125-.172-.328-.01.159-.255-.352-.2.472.073.7-.563.787.339.477-.3.772.1.6-.563-.138-.5.667-.308.381.031-.235.446.8-.211.12-.388,1.415-.229.662.182.222-.224.448.078-.4.526.54.255.467-.738.542.224.315-1.168.287-.237.386.175h0l.284.712.649-.094-.057.281.295.1.214-.224.2.375-.235.516.722-.2.25.459.375-.136.1.837-.229.128.349.946.451-.3.792.315.727-.464,1,.026-.328-.774.54-.021.8.534.138,1.113.993.845.2.954,1.056.98.156.516-.381,1.017.2.443,1.123.534.06.482.79-.005.558.459.07.918.662.235-.167.5h0l-.2.263h0l-.224-.076-.3.657-.878-.232-.464,1.288-1.116-.13-.558.894-.628.292.584,1.168-.4.219.268.42-.222.712.474.5.282-.216.438.347.237.628-.7.738-.759-.141.162.756-.474,1.413-.766-.2.031.652-.915.805h0l-.7,1.181-.589.008-.07,1.251-.6.428-.188.581-.553,0-.542.672-.3-.266.159.347-.443.149-.31.889.2,1.11-.983.558-.438.839-.855-.321-.516.375-.295.579.25.182-.443.2-.078.633-.474-.352-.6.49-.511-.073-.735-.313-.232-.425-.368.073-.258-.435-.274-.052-.222.4-.193-.586h0l-.013-.068h0l-.25-1.41-1.514-.276-.242-.769-.089.4-1.3-.109h0l-.43-1.5-.7-1.022-1.626-1.05-.579-.959-1.971-1.142-.295.063.125.315-.159-.313-.016-1.444,1.121-.261-.49-.779.688-.089.433-.756-.274-.581.237-.065-.057-.461-.391-.37.732.005-.529-1.434-.451-.18.154-.318-.487-.169.255-.3-.615.185L138.02,264l.4-.748.975-.753-.25-.662.193-.227Z" transform="translate(-99.25 -183.173)" fill="#6cddb4"/>
    <path id="FR-U" d="M383.186,381.325l.107.12h0l.758.461h0l.008.089h0l-.516.242-.394,1.022-1.056-.177-.169-.68.394-.712h0l.094-.167h0l.083-.044h0l.18-.042h0l.334-.268h0l.044.115h0l.112.013h0Zm3.8,18.037.367-.618-.321-.373.3-.2-.7-.98-.873.485-1.931.057-.865-1.488-.54-.1-.284.4.13-.365-.261.154-.224-.529.18.657-.534-.284.357.417-.6.235.5-.034-.175.177.464.3.417-.362-.871.785-2.752-.482-.261-.3.352-.615-.62-.446-3.279-.12h0l.115-.586.886-.43-.107-.4.216.289,1.387-.8.112-.344-.5-.172.644-1.092.592-.149.951.323-.164-.6.592-1.78-.279-.326,1.866-1.444,0-.375.331-.016-.628-1.149-.714-.237.01-1.59-.154-.4-.37-.018-.255-.829h0l.013-.9,1.494.253.328,1.293,2.607-1.207.527.454.459-.482h0l.172-.081h0l-.159,1.251.839.313.211-.3.529.365.618-.109.321.211-.021.678.568.052.211.487.936-.2.652-.884.409.354-.091.261.511.063.044-.258-.427-.12.467-.37,0-1.066h-.427l-.115-.508-.31-.083.229-.412-.881.049-.287-.31-.3.2-.68-.56-.123-.758.626.089.227-.268-.362-.159-.07-.777,1.689.42.156-.433.383-.034-.725-.628.55-1.027-.052-.6.931.193.219-.349.435.13.443-.56-.341-.242.3-.805.6.2.74-.214.315-.321-.334-.354.738-.469.42.3.839-.735,1.228.188.477-.334.7.289.026-1.288-.383-.222.013-.686-1.293-.266.446-1.6.524.19.425-.232.341.811.933.279.386-.047-.068-.579.326-.25.339.146.394-.368.571.227h0l.459,1.381.766.086.073,1.66,1.217.839.506.1.274-.276.938.589-.245.521.824,1.606-1.233.091.057.873-1.215,1.363.245.73.761.761-.6.125-.057.891,1.16,1.241.13.667,1.952.519.993.91.688-.081.156.464.727.047.065-.274,2.033-.289.2-.409.511.031-.19.654.521.709-.1.626-.461.206-.115.816-.923.485-.094.685-.662.349.375,1.35-1.345.951-.727.1-.063.542-.193-.454-.117.315-.672-.057-.36.573-.563-.036-.381.985.253.519-.261.151-.248-.433-.646.532-.242-.237-.576.133-.279.417.214.253-.706,1.011-1.1.3-.477-.211-.31,1.11-1.533,1.121,1.327.083-.347.352.172.641-.425.193.055.281-.282.141-.644-.461-.7.566-1.212.1-.222.858-.972-.513-.944.091-.4.732.055.568-.649-.031.37-.227-.055-.516-1.116.016-.214-.409-.8.055-.052-.331-.433.328.719.508-.613-.162-.344.477-.336-.047-.383-.279.164-.686-.451-.013.06-.336-.834-.07-.1-.534-.7-.1-.193.394-.74-.805-.4.261Z" transform="translate(-277.011 -273.795)" fill="#6cddb4"/>
    <path id="FR-V" d="M354.748,291.61l-.094.959.891.182.18.521,1.228-.459.816.388.318-.321.2.261.308-.154-.049.451.276.036,1.053-.461.357-1.715.573-.021.49.461.7-.409.54.443.206-.555.461-.081.334.43-.336.308.613.4-.18.6.422.349.232-.065,1.744-5.346.1.276.362-.219.785.482,1.189-.313.013-.237.414.211.318.745.85.182h0l-.167.519.842.482-.172.188.459.933.222-.584.138.508.414,0-.016.8.706-.065,1.126-1.189.039.321.727.232.125.756,1.561-.06,2.114-2.362h0l1.139.769-.732,1.28.242.532-1.561.537-.167.313.326.235-.4.826,1.022-.365.826.188,1.806-1.329.154-.482L380.3,292l-.138-.813-.3-.13.347-.753,2.885-1.517,1.765.036,1.494.43-.534,1.121,1.017,1.163-.657,1.194-.076,1.03,1.1.2-.248,1.186.639-.253,1.11,1.715.07.482-.516.8-.9.485-1,.06-.143,1.723,1.17,1.142.915.182-.248.8.25,1.277.589.159-.057.344.547.039.159.56.787.42-.834,1.2.268,1.1-.706.678-.74-.128-.607.774-.568.021,0,.485-.477.146-.878-.5-1.478.759h0l-.571-.227-.394.367-.339-.146-.326.25.068.579-.386.047-.933-.279-.341-.811-.425.232-.524-.19-.446,1.6,1.293.266-.013.686.383.222-.026,1.288-.7-.289-.477.334-1.228-.188-.839.735-.42-.3-.738.469.334.354-.315.321-.74.214-.6-.2-.3.805.341.242-.443.56-.435-.13-.219.349-.931-.193.052.6-.55,1.027.725.628-.383.034-.156.433-1.689-.42.07.777.362.159-.227.268-.626-.089.123.758.68.56.3-.2.287.31.881-.049-.229.412.31.083.115.508h.427l0,1.066-.467.37.427.12-.044.258-.511-.063.091-.261-.409-.354-.652.884-.936.2-.211-.487-.568-.052.021-.678-.321-.211-.618.109-.529-.365-.211.3-.839-.313.159-1.251h0l-.172.081h0l-.459.482-.526-.454-2.607,1.207-.328-1.293-1.494-.253-.013.9h0l-1.559-1.1-.563.081-.164.831-.459-.109-.039-.845-.712.123-.748,1.105-1.379-1.079-.886.266-.083-1.09.308-.211L355.7,319.3l-.386-1.491-.537-.357-.451-2.27h0l.672-.37.279-.886.422.232-.063-.323.19.2.3-.209.07-.589,1.319-.013.738-1.374.962-.151-.188-.706.9-.263-.357-.61.266-.456.3.021h0v-.138h0l-.271-.456.529.115.138.4.235-.138-.107-.639.467-.951-.592-.8-.521.284-.417-.284.235-.412-.425-.25.388-.284-.354-.49-.675.156-.422-.477-.592-.055-.362.133.1.295-.785.1-.109.344-.545-.2-.026.326-.354-.672-.407-.065-.469.644-.164-.936.8-.626.232-.92-.553-1.269-1.191-.824-.508-.92.039-.519-.993-1.024.362-.347-.076-.876.425-.248-.667-.683.083-.61.936-.057.469-.4-.279-.842.175-.547-.308-.362.169-.795-.44-1.189,1.256-.542h0l.094-.013h0l.083-.008Zm11.114,28.609h0l-.083.044h0l-.094.167h0l-.394.712.169.68,1.056.177.394-1.022.516-.242h0l-.008-.089h0l-.759-.461h0l-.13-.151h0l-.112-.013h0l-.044-.115h0l-.334.268-.177.044Z" transform="translate(-260.383 -212.54)" fill="#6cddb4"/>
  </g>
</svg>
