<svg xmlns="http://www.w3.org/2000/svg" xmlns:xlink="http://www.w3.org/1999/xlink" width="65" height="71.5" viewBox="0 0 65 71.5">
  <defs>
    <clipPath id="clip-path">
      <rect id="Rectangle_3740" data-name="Rectangle 3740" width="23.099" height="20.3" fill="none" stroke="#6cddb4" stroke-width="3"/>
    </clipPath>
  </defs>
  <g id="Group_15887" data-name="Group 15887" transform="translate(-651 -2208.5)">
    <rect id="Rectangle_3741" data-name="Rectangle 3741" width="62" height="44" rx="2" transform="translate(652.5 2225)" fill="none" stroke="#6cddb4" stroke-linecap="round" stroke-width="3"/>
    <g id="Group_15885" data-name="Group 15885" transform="translate(0.5 6)">
      <line id="Line_44" data-name="Line 44" y2="9" transform="translate(682.5 2263.5)" fill="none" stroke="#6cddb4" stroke-linecap="round" stroke-width="3"/>
      <line id="Line_45" data-name="Line 45" x2="16" transform="translate(674.5 2272.5)" fill="none" stroke="#6cddb4" stroke-linecap="round" stroke-width="3"/>
    </g>
    <g id="Group_15886" data-name="Group 15886" transform="translate(405.578 362.367)">
      <rect id="Rectangle_3739" data-name="Rectangle 3739" width="24.207" height="20.385" rx="2" transform="translate(265.637 1863.248)" fill="none" stroke="#6cddb4" stroke-linecap="round" stroke-width="3"/>
      <g id="Ellipse_27" data-name="Ellipse 27" transform="translate(274.555 1868.981)" fill="none" stroke="#6cddb4" stroke-width="3">
        <circle cx="3.185" cy="3.185" r="3.185" stroke="none"/>
        <circle cx="3.185" cy="3.185" r="1.685" fill="none"/>
      </g>
      <line id="Line_43" data-name="Line 43" y1="2.658" transform="translate(277.814 1874.923)" fill="none" stroke="#6cddb4" stroke-linecap="round" stroke-width="3"/>
      <g id="Group_15878" data-name="Group 15878" transform="translate(265 1846.133)">
        <g id="Group_15877" data-name="Group 15877" transform="translate(0 0)" clip-path="url(#clip-path)">
          <path id="Path_27199" data-name="Path 27199" d="M.5,13.541V6.518A6.018,6.018,0,0,1,6.518.5h0a6.018,6.018,0,0,1,6.018,6.018V7.684" transform="translate(6.76 3.303)" fill="none" stroke="#6cddb4" stroke-miterlimit="10" stroke-width="3"/>
        </g>
      </g>
    </g>
    <line id="Line_46" data-name="Line 46" x2="25" transform="translate(670.5 2256.5)" fill="none" stroke="#6cddb4" stroke-linecap="round" stroke-width="3"/>
  </g>
</svg>
