<svg xmlns="http://www.w3.org/2000/svg" width="108.361" height="146.717" viewBox="0 0 108.361 146.717">
  <g id="germany" transform="translate(-0.295 -0.28)">
    <path id="DE-BW" d="M119.35,587.32l.107.387-.265-.107-.376.133.187-.194-.117-.256Zm4.707-33.252,1.076.063.526-.126.132-.232h0l.107.005h0l.295-.38-.165-.345.4-.391.467.2.28-.245.211.252.252-.035.161-.246-.232-.248.252-.322-.026-.387-.383-.352-.057.491-.283-.007-.167-.265.346-.183-.919-.176.321-.1-.089-.443.426-.013.239-.182.237.167.393-.361.385.369.257-.321.27-.033.12.433.391-.033.195.406-.061-.554.128-.146.183.078.785-.237-.046.332h0l-.024.293h0l.037.356-.23.1.18.156-.2.35.333.313h0l.1-.033h0l.17-.08.02-.42.383-.2.2.717h.109l.2-.4.541-.38-.054.178.45.337-.037.919.293.172.2.584-.354.3.07.313-.435.4.563.182.065-.4.4-.363.2.1-.2.361.257-.009.007.161h.048l-.132,1.093.161.161,1.076-.017.132-.333.365-.246-.252-.224.3-.309.311.217-.074.411.445.046-.256.333.256.5-.2.018-.126.271.467.182.332.758-.645.3.191.517-.2-.026-.044.181.083.232.38.111-.119.406.295.367-.269.317-.119-.235-.169.309.278.106-.167.093.241.652-.159,0-.022.213.367.12.152.265.133-.082.23.5.233-.152.343.261.087.348-.359.193-.182.32.22.2.265-.035-.187.285.324.233-.137.406.509-.043.33.294.315-.03.093.424.295.067v.222l.165-.031.126.2.089-.1-.1.311.156-.037.146.387.25.152-.154.087.224.3-.4.2.363.3,0,.537-.3.276.252.226.006.346-.333.222.143.408-.241.089.182.261-.139.17.359.33.2-.126-.106.122.324.367-.135.094.278.274-.354.3-.637.163.183-.206-.044-.309.183-.052-.354-.082-.235.556-.324.233-.3-.639-.369.068-.415-.311.052.3-.2.1-.019.269.8,1-.289.093-.054.248.233.446-.139.382.109.354-.9.2-.091.089.17.015-.006.246-.68.287-.152.313-.452.046-.308-.394-.509.407-.306-.08-.109.382.163.148-.839.9.054.258.28.009-.011.283.793,1.16-.011.848.522,1.808.328.339.1.673h0v.271h0l-.05.1h0l.015.117h0l-.308,1.258-.324.135v.324l.272.269-.015.4-.161.454.115.087-.333.233.057.187.263-.135-.165.378.182-.189-.05.182.417.572-.209-.043-.069.206-.272-.067-.326.3.643.476-.02.715.278.311-.106.422-.222.2-.246-.126-.17.593-.144-.634-.395.015-.046-.2-.326.1-.413.506L132.9,587.9l-.248.176h0l-.009.078h0l-.178.254-.291.039.035.215-.487.395-.561.182-.559-.172-.228.152-.319.376-.139.582h0l-1.588-.291-3.292-1.619-1.139-.395-.832-.107-1.463.658-.517-.583.007-.25.263.035-.019-.17-.628-.172-.117-.428-.454.339-.007.2.471.228-.2.343-.772-.332.109-.395-.278-.209.109-.287.224-.065-.211-.289-.345.152-.119-.5-.35-.269-.117.209.093.261-.274.252-.135-.7-.489-.015-.109-.146-.063.25.17.215-.285-.054-.376.244-.428.015-.409.522.057.308-.565.419.174.261-.18.174.465.343.265-.046.094.313-.028-.185.243.143.385-.054,0-.272.167.052.046-.174.415.081.3-.178.274.435-.146.174-.08-.254-.152.161.1.517-.345.322-.172-.107.094-.276-.587-.283-.139.274-.6.278.128.3.252-.08-.024.2-.654.194-.4-.193-.174.194-.7-.128-.411-.635-.376-.1-.359.183-.252-.28-.472.458-.654.22-.235.424-.256-.119-.569.243-.715-.126-.193.243-.358-.111-.245-.647-.823-.011-.308.53-1.221.437-.3-.068-.387-.435.609-.08-.167-.367.243-.239-.22.158-.311-.065-.322.311-.35-.213-.282-.747-.519-.519-.128-.615.43-.635-.215-.8.383-1.087-.065-.663.3-.319.017-.587.463-.728-.169-.515-.454-.582.087-1.523,1.06-1.786.315-1.419.609-.45-.144-1.191.372-1.05.052-.65.445-.435-.07-1.234.461-1.015.591-.376.882-1.069.093-.628.517-.057.165-.456.435-.054.27-.241.7-1.825.571-.945.413-.159h0l.611-.524h0l.156-.335h0l.174-.717.552-.843.107-1.228.437-.906-.233.013.063-.289,1.154-1.087-.45-.537.561-.754.024-.395-.311.271-.13-.141.385-.361.144-.609-.763-.276.245-.372-.565-1.5.083-.548h0l.3-.106.326.111,1.011,1.254.415-.307.135.059.1-.235-.245-1.25,1.147-.246-.056.272-.074-.252-.135.1.324.352-.2.393.293.489-.037.237.365.313h0l0-.048h0l.765.169.3-.232-.063.339.172.256.174-.167.615-.033.017.328-.276.322-.172.013-.113-.313-.317.278.143.624-.428.424.157.246.2-.2.215.224.519-.472.1-.409.128.115.437-.324-.222-.261.107-.267.161.035-.028-.383.4-.115.471.232.252-.2h0l.048-.089h0l.17-.3.409.074.081.3.23-.132-.632-.873.017-.193.113.257.2.019Z" transform="translate(-85.533 -448.024)" fill="#6cddb4"/>
    <path id="DE-BY" d="M211.173,474.418l.363-.193-.02-.17.445-.515.406.389.1-.176.289.176.046-.167.289-.044.056.256.274.174.006.369.282-.037.546.359.332-.006.082.528.365.5.161-.022-.126.139.372.119-.215.311.126.276.674-.145.248.521h.087l.132-.033,0,.37.241-.083.033.178.208-.287.143.031.2.482.45.078-.091.478.143.276-.152.393.194,0-.109.154.146.259-.159.065.12.283.259.132.348-.128.424.332h.061l.2.135.154-.124.02-.735.446.182.376-.189.252.258.283-.122-.013-.569-.4-.072H220.2l-.031-.226-.382-.03-.341-.413-.307-.1.15-.435-.18-.028.033-.341.454.117.372-.491.226.1.317-.241.356.083.165-.158.178.3.2-.12h0l.089-.035h0l.235-.065.578.822.152-.03-.048-.295.511.1.085.3.485-.145.043-.25.311-.024.032.324.235-.074.235.417-.289.565.15.261.426.091-.076.2.17-.059.057-.369.665.452.061-.374h.048l-.107-.089.209-.232-.094-.569.176.015-.174-.283.272-.161-.313-.737.106-.563-.22-.343-.006-.55.463-.117.046.176.132-.256.239-.026-.009-.328.3-.041-.013-.185,1,.176.117.22-.065.146-.18-.044,0,.917.358.234-.091.22.258-.224.215.033-.044.546.491.089.017.389.448-.194.133-.27.263-.054.367.285.984-.276.07.119.295-.241.289.059-.13-.161.237.08.082-.17.537.313v.243l1.163-.626h0l.354.287-.048.23.178-.082.22.211-.069.7.235-.067.578.528.013-.115.524-.03.107.285h0l.289.213-.074.17.248.4-.5.245-.074.239.419.3.274-.052.113.458.172-.05.1.263.167.009-.094.081.315.476-.254.483.063.606.376.274.2-.056.319.385-.165.332.667.1.124.372.119-.128.354.408.389.028.017.2.341.046.013.326.333-.193.348.256.109.169-.335.426.083.232.821.28.035.365-.622.808.006.333-.274.044-.12.456.093.443-.835.469.02.333.452.71.537.3.4.013.074,1.241.383-.028.346,1.482.374.206.176-.106.091.161-.124.843.274.432.006.341.6.178.578.541.27.865.8.043.4.274-.006-.376.734.113.741.695.261.028.057.715.241.015.087.237.237.07.08.341.308.176-.031.285.713.535.08.639.672.419.634-.085,1.23,1.167.117,1.2,1.086.815.152-.022,0-.472.283-.093.576.068.333.585.241-.207-.076.189.574,1.047.526.046.257-.152.307.91.341.1.257.569-.113.308.409.165-.535,1.006.206.246.3.054-.295.128.126,1.373-.272.324.006.382-.374.358-.132-.178-.144.193.031.378-.195.315-.776-.348-.137-.25-.563-.326-.387.115-.765-.528-.03.256-.358.343-.3-.143-.139.106.22.824-.37.978.15.465-.333.995-.9.861-.932.587-.865-.041-1.9.659-.748.848-1.032.137-.267.609-.569.374-.163.411-.326-.058-.1.3.152.641,1.052,1.01.272.924.465.117.1.3.189-.067.772,1.647-.893,1.352.176.141-.411.711.239.222.513.054.535-.276.75.639-.043.3.256.611-.426.576.1.25-.335.2.182.248-.309.469.185.23-.015.526-.515.491-.106-.265-.239-.111-.069.189-.7-.4-.313-.432-.343-.148-.069-.283-.6-.159-.191-.448.2-.419.315-.122-.773-.676.28-.389-.287.163-.322-.287-.6-.039-.37.219-.521-.043-.343.7-.458-.057-.469.193-.7-.878.011-.343-.854.191-.372-.222-.954.311-.165-.263.272-.68-.146-.172-.445.539-.6.207.435,1.084.033.554-.332.094.035-.232-.461.15-.9-.235-.485.156-.141-.267-.385.2-.735-.007-.682.207-.133.35-.732-.163-1.41.126-.313-.183-.028.245-.358.031-.189.926-.183.182-.784.172-.867-.143-.582.713.278.08.165.4-.995-.08-.55.385-.017.341-.25.181-.526.035.343-.573-.561-.1-.921.376-.143.274-1.641-.031-.083-.289.165-.267-.645-.71.074-.169-.782-.026.043-.341.528-.2-.352-.417-1.289.4-.222-.35-.752-.18-.052-.254-1.084-.167-.309.61-.574-.022-.8-.358.3-.517-.5.015-.093.126.263.4-.252.885.143.322.3.139.082.758-.463.384-.006.513-.467.093-.782,1.23-1.147.6-.38-.107-.3.122.039-.454.415-.283-.178-.267.445-.948-.117-.1-.169.144-.354-.23-.219.426-.55-.109-.232.339-.332-.982.408-.291-.137-.435-.458-.219-.135-.376-.506.08-.161-.258.1-.091-.357-.324.063-.43-.089.2-.5.089-.469-.322-.089.346-.695-.346.141-.539-.308-.283-.465.2-.3.874-1.606-.25h0l.139-.582.319-.376.228-.152.559.174.563-.182.487-.395-.035-.215.291-.039.176-.254h0l.009-.078h0l.248-.178,1.325.461.413-.5.326-.1.046.2.393-.015.146.632.17-.591.248.126.22-.2.107-.422-.28-.313.02-.713-.643-.476.326-.3.27.067.069-.206.211.043-.417-.574.05-.18-.182.189.165-.378-.263.135-.057-.187.333-.233-.117-.087.161-.454.015-.4-.272-.269V520.4l.324-.135.307-1.258h0l-.015-.117h0l.052-.1h0v-.272h0l-.1-.671-.328-.339-.521-1.808.011-.849-.793-1.16.011-.283-.282-.009-.052-.257.839-.9L211,512.1l.109-.382.3.082.509-.409.308.395.452-.046.154-.313.68-.287,0-.246-.17-.015.091-.089.9-.2-.107-.354.137-.384-.233-.446.054-.246.289-.093-.8-1.006.017-.269.2-.1-.052-.3.417.311.369-.069.3.639.324-.233.235-.558.354.083-.182.052.043.308-.183.206.637-.163.354-.3-.278-.276.135-.095-.324-.365.106-.122-.2.128-.359-.332.139-.17-.182-.261.241-.089-.143-.408.333-.222,0-.346-.254-.226.306-.276,0-.535-.363-.3.4-.2-.226-.3.156-.087-.25-.152-.146-.387-.156.037.1-.311-.087.1-.128-.206-.163.031v-.222l-.295-.067-.093-.424-.315.03-.33-.295-.509.043.137-.406-.324-.233.189-.287-.265.037-.22-.2.182-.32.359-.193-.085-.346-.345-.261-.232.152-.23-.5-.133.082-.152-.265-.369-.12.022-.213.161,0-.241-.652.167-.093-.278-.106.169-.309.119.235.267-.317-.295-.367.119-.406-.378-.111-.085-.232.046-.182.195.026-.191-.517.645-.3-.332-.759-.467-.182.126-.269.2-.019-.256-.5.256-.333-.445-.048.074-.411-.313-.215-.3.307.252.224-.365.248-.132.333-1.074.015-.163-.161.132-1.091h-.048l-.009-.161-.257.009.2-.361-.195-.1-.4.363-.065.4-.563-.182.433-.4-.069-.313.354-.3-.2-.584-.293-.172.037-.919-.45-.337.054-.178-.541.38-.2.4h-.107l-.2-.717-.383.2-.02.421-.169.08h0l-.1.033h0l-.333-.313.2-.35-.18-.154.23-.1-.037-.356h0l.026-.295h0l.046-.332-.785.237-.183-.078-.13.146.061.554-.193-.408-.391.033-.12-.434-.27.033-.258.32-.385-.369-.393.361-.237-.167-.241.183-.426.013.091.443-.32.1.919.176-.346.183.167.265.283.007.057-.491.382.35.026.389-.252.322.232.246-.159.248-.254.033-.211-.252-.28.243-.467-.2-.4.391.167.346-.295.38h0l-.107-.006h0l-.132.232-.526.126-1.076-.063h0l-.23-.421-.194-.033,0-.311.415-.4-.143-.947.452-.137-.069-.239.3-.491-.478-.326.32-.426-.082-.252-.441.085-.152-.476.1-.532-.248.27-.139-.137.1-.126-.3.039-.037-.411.2-.011-.324-.791-.056-1.234.089-.259.28-.026-.178-.2-.065-.658-.617-.141.259-.385-.009-.415.252-.359,1.184-.278.413.174-.031.465.465-.645-.061-.206.417-.2.393.194.656.1.219-.135.148.165.341,0,.378.752.374.109.924-.187-.054-.932.152-.078h0l.091-.3h0l-.017-.024h0l-.339-.17h0l.024-.3.18-.113-.241-.5.061-.28.493.311.4-.144.078.2.963-.217.013-.139-.33-.176.2-.38.559-.182.532-.532,0-.584-.161-.265.339-1.284.226.119.25-.119.076.22.589.3.146-.245.132.189.233-.072.676-.376.471-.7.233-.091Z" transform="translate(-161.565 -385.59)" fill="#6cddb4"/>
    <path id="DE-BE" d="M465.36,257.45l.013.007h0l.132-.063-.013.257.422.261-.3.719.128.3.495.089.382.328.02.426.6.141-.093.208.337.022-.543,1.124.145.107.291-.246.689.465-.065-.25.685.476-.23.211h0l-.172-.041h0l.209.1h0l.006.044h0l-.057.007h0l-.067.119h0l.081.211h0l-.117.193h0l-.506.259.158.219-.317.167-.295.53-.132-.137.085-.6-.174-.109-.265.148-.18-.354-.645.076-.013-.206-.661.08-.158-.463-.548.191,0,.658-.367-.035-.028-.2-.189-.006-.319-.424-.272.141h0l-.183-.059h0l-.087-.2-.272.23-.3,0-.039-.3-.239-.024-.685.291-.106.187.15.024-.452.091h0l-.063,0h0l.117-.152-.406-.232h0l-.057-.032h0l-.085,0h0l.074-.2h0l.313-.3-.154-.219.1-.559.58-.6-.283-.2-.306.054.117-.639.22-.052.093-.428-.293-.226.415-.239.622.213-.178-.369.226-.411.508.011-.032-.25.256-.035,0-.367.315.067,0,.554.593.1.409-.474.341.233.25-.278.309-.017-.239-.226.1-.13h0l.169-.1h0l.07.02h0Z" transform="translate(-375.201 -209.432)" fill="#6cddb4"/>
    <path id="DE-BB" d="M344.565,172.179l1.486.22.052-.556.282-.03.23.119.265-.1.1.265.376.122.341-.093.285-.25-.07-.256.2-.285-.187-.871.424-.087.467-.513.48-.094.717.243.035.283.53-.189.5.05.146-.226-.4-.333.752.089.38-.556.669.128.293-.545.245.12.335-.176-.067-.663.506-.33-.156-.424.4.085.028.411.348.052.469-.332.213.428.194-.069.022-.2.5-.111.33.691.613-.083.971.55.007.315.408.191.2.5.947-.285.947.4.663-.195.174.094-.122.306.213.137.848.056-.211.465.369.245.913-.276.363.422.3-.28.3-.03-.1.148.228.028-.03-.154.333-.119.187.17-.439.339.191-.07.193.322.35-.091.4-.563.452-.1.1-.261.228-.033-.013-.4.3,0,.241-.287.4.013.235.535.324.124.172-.787.647-.476.454.148.263-.089.3.693.23-.12h0l-.02-.033h0l.406-.691-.022-.265.209-.007.093.189.259-.067.211-.656.232.119-.074-.656.1-.267.219.028.169-.252-.072-.413.424-.295.467.065.083-.622.952-.787.3-.085.426.237.437-.232.119-.237-.569-.341.217-.887.352.81.643.265-.024.606.467.4-.169.446.187.183.995-.252.535.1.067.326.411.052.419-.6.693.37.333-.03.17-.215.2.126.057.793-.22.576-1.132,1.21-.38.71.724-.093.621.246.587-.1.019-.333.456-.185.187-.495.359.024.754-.408h0l.107,1.034.219.05.089.256-.509,1.036-.324.213-.106.752.23.4-.274,1.226-.23.513-1,.947-1.358.835.193,1.5-.446.9.226.269.9.154.713.813.86.469,1.33,1.732,1.569,1.023.483.71-.4.747.348.83-.634.943-.363.165-.176.739.321,1.276.259.387-.1.352.206.317,1.128.337.3.385-.089.528-.246.237.226.491-.293.53.024.522.91.973-.161.217.031.428-.395.561.085.189-.193.319.182.643-.3.785-1,.882-.23.539.191.426.463.178.269,1.326.813.715.232.534.089,1-.409.476h0l-.393-.3.08.367-.285.478-.758.056-.224-.409-.337-.163-.274.144-.076.256-.987.033-.081.272-.7.02-.545.441-.106.287-.1-.154h0l-.007-.089h0l-.637-.306-.285.087-.38-.222-.9-.074-.1.211.13.167-.411.046-.128.435-.239.1.161.295-.643.02.337.58-.295.185.1.315-.346.258.132.161-.274.028-.067.408-.33-.063.009-.32-.148-.059-.624.315-.843-.089-.18.285-.428-.019-.117.148-.08-.148-.3.161-.876-.278-.1.135-.734.011-.1-.28-.224-.026-.3.295-.074-.23-.165-.009-.041-.374-.672-.191.122-.126-.32-.261-.3.2.082-.226-.332-.361-.278.324.03.206-.647-.217.063.2-.5.278-.007.241-.295-.033.074.293-.619-.213-.252-.758-.056.235-.157-.08.328-.428-.245-.458.028-.317.2-.015.07-.6-.261-.628-.491-.222.207-.471-.461-.508-.415.217-.4-.708h0l1.128-.73.148-.152-.094-.348.389-.107-.389-.543.139-.117-.2-.324.178-.717-.483-.954.359-.085-.159-.361-.222-.041-.456.263-.471-.059-.156-.174.13,0,.074-.378-.856.009.022-.408-.224-.039.024-.239-.456-.078-.359.228-.033-.13-.4-.019-.087-.626-.767.1-.287-.458-.995-.483-.18-.013-.135.35-.356.05-.024.185-.856-.067-.046-.324-.535-.213-.132-.376-.213-.02-.131.332-.182.015-.543-.511-.356-.087-.541-.852-.445-.232-.161-.537-.511-.7.1-.3.232,0,.009-.524.591-.317-.443-.13.144-.1-.315-.233.367-1.237.363-.578-.293-.372.259-.237-.141-.157.089-.4-.315-.154.269-.174-.093-.132.5-.915-.263-.206.256-.165-.7.2-.132-.174.122-.1-.324-.409-.287.4-.387.1-.217-.348.27-.363-.22-.132-.324.176.424-.861-.12-.986.385.124.32-.2h0l.022-.185h0l.072-.826-.2-.156.061-.287-.211-.146.039-.169-.141.037.274-.508-.154-.282.135-.567.346-.033.094-.3-.285-1.1-.389-.126-.076-.2-.815.495-.022-.791-.141.339-1.054-.265-.509.283-1.058-.37-.263-.287-.415-.006-.143-.23.311-.382-.05-.226-.685-.161-.519-.558-.561.228-.2-.6-.6-.069.163-.522-.467.044h0l-.611-.345-.456.094-.656-.591-1.35.452-.776-.839-.083-.452Zm25.892,8.842h0l-.1.13.239.226-.309.017-.25.278-.341-.233-.409.474-.593-.1,0-.556-.315-.067,0,.367-.256.035.031.25-.508-.011-.226.411.178.369-.622-.213-.415.241.293.224-.093.428-.222.052-.117.639.307-.054.282.2-.58.6-.1.559.154.219-.311.3h0l-.074.2h0l.085,0h0l.057.031h0l.406.232-.117.152h0l.063,0h0l.452-.091-.15-.026.106-.187.685-.289.239.024.039.3.294,0,.272-.23.087.2h0l.183.059h0l.272-.141.319.424.187.006.028.2.367.037,0-.658.548-.191.157.463.661-.08.011.2.645-.076.182.354.265-.148.172.109-.085.6.132.137.295-.528.315-.169-.158-.219.506-.259h0l.117-.193h0l-.08-.213h0l.067-.119h0l.057-.007h0l-.006-.044h0l-.209-.1h0l.172.041h0l.23-.211-.685-.476.065.25-.689-.463-.291.246-.144-.106.543-1.126-.337-.022.093-.207-.6-.141-.02-.426-.382-.328-.5-.089-.128-.3.3-.719-.422-.259.011-.258-.132.063h0l.031-.107h0l-.07-.019h0l-.1.132Z" transform="translate(-280.495 -133.025)" fill="#6cddb4"/>
    <path id="DE-HB" d="M167.147,165.761l.133-.019h0l.613.378.289-.163.243.1-.228.4.367.007.15.372.639-.063.263-.2.069.163.27-.065.17.322,1.024-.007.12.135h0l.035.172h0l.224.274h0l.02.061h0l.593-.02.365-.387.456.506-.415.2.178.324.313.048-.322.246.031.489.189.267-.517.432-.028.2-.48,0-.333-.513-.011.363-.509.028-.526-.374-.065-.274-.195.291-.441-.019-.152-.3.061-.419-.526-.289.043-.241-.463-.7-.132-.561-1.282-.6h0l-.05-.063h0l-.287-.469.093-.069h0l.009.024Zm.359-7.49.852.252.269-.23.354.056-.031-.159h.2l-.5.7.128.352.2.037-.076.53.139.276-.211.376-.3.23-.243-.172-.144.128-.315-.674.1-.065h0l.159.022.015-.45.089.087-.22-.233.019-.491-.126-.017-.035.256-.315-.806Z" transform="translate(-135.86 -128.658)" fill="#6cddb4"/>
    <path id="DE-HH" d="M246.6,147.969l.483-1.488.017.293.287.093.035.363.43.15.641-.722.189-.584.854.12.237-.691.785.063.15-.524-.12-.126.156-.193.478.139.561-.5.3.154-.017.139-.12.289-.3.1.03.27-.193.25.487.283.167.309-.093.187.358.094-.363.426.093.528-.567.25.132,1.006.3.207.28-.172.352.761.609.6.4.063-.209.306h0l-.528.265-.293.472h-.759l-1.447-1.33-.052.326-.326.007.122.233-.537.369-.509-.232-.311.278-.1-.041.167-.387-.2-.408-.5.345.006.174-.645-.658-.037-.576-.25.033.03-.178-.265-.187.18-.222-.152-.409.107-.254Z" transform="translate(-200.674 -117.39)" fill="#6cddb4"/>
    <path id="DE-HE" d="M141.73,363.055l.53-.195-.052.4.213.176.409-.254.3.3.663-.222.137.517.615.6-.133.178-.576-.313-.043.269.241.348-.278.057-.207-.239.183.528-.417.311.674.876-.183.452.2.533-.182.246-.6.074-.224.413.209.157-.1.169-.437-.094.354.419.508.38.326-.015-.019.263.467-.126.756.434.4-.213.052-.569-.395.324-.437-.836.478-.13.337-.326.326.048-.035-.424.27-.07.241.176.013.356.3.228-.17-.811.328.172.044-.178.23-.052.339.465-.03.332h0l-.037.395.276.654-.107.235.352.128.039.3.982.111-.1.471.361.2-.107.309.522.209.308-.1.113.252.2-.085.356.369.487.126-.413.648.113.48-.15.241-.389-.754-.546.259.65.43-.346.595.107.293-.156.176.761.456.113.172-.258.139.133.2-.682.282-.322-.33-.2.12-.748-.17-.233.591.252.261.026.343.239.083-.4.135-.057-.111-.144.167-.73-.145.043.35.126-.172.274.019-.191.443.476-.257.456.4-.037.2.139-.015.015.145-.446.313-.013.324.2-.081-.13.341-.248-.048-.106.211-.187-.085h0l-.076-.028h0l-.263.2-.107.4.115.482-.326-.007-.048.282.2.063.019.309-.374.622.17.213-.517.443-.032.554.986.2.093-.22-.222-.285.056-.2.554-.169.632.1.337.9-.393-.017-.143.237.285,1.017-.267.493.037.243h0l-.278.915-.233.091-.471.7-.676.376-.233.072-.132-.189-.146.245-.589-.3-.076-.22-.25.119-.226-.119-.339,1.284.161.265,0,.584-.532.532-.559.182-.2.38.33.176-.013.139-.963.217-.078-.2-.4.144-.493-.311-.061.28.241.5-.18.113-.024.3h0l.339.17h0l.017.024h0l-.091.3h0l-.152.078.054.932-.924.187-.374-.109-.378-.752-.341,0-.148-.165-.219.135-.656-.1-.393-.195-.417.2.061.206-.465.645.031-.465-.413-.174-1.184.278-.252.359.009.415-.259.385.617.141.065.658.178.2-.28.026-.089.259.056,1.234.324.791-.2.011.037.411.3-.039-.1.126.139.137.248-.271-.1.532.152.476.441-.085.081.252-.32.426.478.326-.3.491.069.239-.452.137.143.947-.415.4,0,.311.194.033.23.421h0l-.033.311-.2-.017-.113-.259-.017.193.632.873-.23.133-.082-.3-.409-.074-.17.306h0l-.048.089h0l-.252.2-.47-.232-.4.115.028.382-.159-.033-.107.265.22.261-.435.324-.128-.113-.1.408-.519.472-.215-.224-.2.2-.157-.246.428-.424-.143-.624.319-.278.113.315.172-.013.276-.322-.017-.33-.615.033-.174.167-.172-.256.063-.339-.3.232-.765-.169h0v.05h0l-.365-.315.039-.237-.293-.489.2-.391-.322-.354.135-.1.074.254.056-.272-1.147.246.245,1.25-.1.237-.135-.061-.415.308-1.011-1.254-.326-.111-.3.106h0l-.454-.776-.293-1.195.93-.545.487-.732-.089-.126-.567.009-.517-.991.061-.6L128.67,396l.12-.734-.389-1.074-.917-.93-.715-.145-1.7.576-.839.472-.987.111-.215-.156-.167-.6-.939-.819.348-.476.413-.006-.083-.267.246-.526.376.232.211-.13.333.345-.1-.578.133-.183-.569-.446-.015-.245.319-.222,0-.176.426-.117.048-.178.421-.154.026-.185.285.367.243.035.237-.391h0l-.048-.065h0l-.315-.309.17-.248.437-.026.08.2.311.02.15-.711-.195-.194-.009-.311-.352-.1.054-.287-.2-.491-.163-.015-.033-.193-.324.019.074-.293-.43.017-.259-.213.256-.219.033-.215-.154-.067.417-.285-.383-.632.2-.695.571-.606.324.343.38.1.382-.322.191-.895-.3-.195.163-.419-.358-.508.174-.48h0l.506-.9-.443-.839.046-.191h0l.074-.024h0l1.495-1.677.291-.02.176.387h.621l.867-1.058.328-.022-.119-.415.1-.463.233-.061-.039-.135.737-.806-.215-.456-.165.057.258-.428-.289-.309.3-.32.356-.111,1.167.157.324-.248.426-.037-.228-.252h-.044l-.013-.263.734-.747-.128-.408.235-.191-.309-.187-.161-.608.1-.211-.17-.213-.354-.044-1.137.545-.454-.569.743-1.106.2-.145.206.082.054-.293.267-.087-.056-.213.206-.109.439.08.845-.346.4.039.211.209.43-.287.554.067.107-.722-.326-.059,0-.337-.332-.63,1.5-.685.245.291.445-.013.17.152-.152.561.2.395.482-.107.27.133.285-.424.385.124.1-.582.465-.165.219-.291.3.007.094-.734.665-.732-.409-.445,1-.289Z" transform="translate(-99.098 -295.413)" fill="#6cddb4"/>
    <path id="DE-MV" d="M339.728,52.088l.359.854.411.5,1.7.961,2.475,2.482-.495.3.345.252-.017.669-2.069-.139-.55.511-.6.094-.2-.152.235.05.126-.2-.3-.311-.2.622-.387.059-.621-.206.122-.428.721-.137.472-.606-.183-.817-.3-.311.145-.474.652,0-.069,1.091.1-.454.2-.093.467-.011-.143.226.352.176.083-.847-.087-.546-.263-.185-.137.206-.132-.65-.293-.421-.715.015-.031.413.306.289-.081.243-.126-.1.074-.274-.265.443-.467.248-.081-.272.313-.493-.274-.191-.676.587-.359-.015-.039-.224.2-.163.3-.843.037-.552-.259-.085-.4-.5-.089-.43.448-.3.278.135Zm-8.01-2.834-.119.117-.094-.206.148-.072Zm4.676-.17-.033.124-.067-.13.287-.337.046.183Zm-9.714-2.273.3.267-.634-.02.172-.282Zm2.869-.283.191.106-.463.07.056-.182Zm1.249-.106-.943.257.322-.232.385-.017.183-.257Zm-6.158-.687-.172.169.552.4,1.237.228,2.932-.061.115.365-.595.265-.611-.139-.252.254-.2-.152-.585.009-.183-.326-.372.009-.289.459-.343-.15.018-.195-.269.374-.456.07.252.246-.078.182-.067-.152-.383,0-.324.189-.063.133.187.191.222-.272.148.13.621-.022.556-.333.006-.38.463-.063.083.167-.319.08.07.28-.195.295.124.015.159-.578.167,0,.061.541.187.031.109-.252.267.233.228-.5.3,1.05.819-.483.185-.667.319-.248.758-.259.259-.248.241.05-.046.785.261.328.363-.017.165.274-.2.448.144.526.319.389-.12.376.345.276.376-.183.161.154-.413.332.506-.263.339.522.865.111.432,1.026.526.043-.361.085-.272.352.7-.333.37.193-.169-.289.278.143-.028.28L335,52.133l-.333.263.02.144.333-.232-.037.189.263.195L335.7,53.7l.385.015-.282-.609.165-.163,1.586-.333.821-.626.2.057.063.135-.243.094.03.169.406.263.195-.076.056.4.569.435-.159.7-.169.094.07.245-.432.372.152.007.044.257.391.389.469.222.265.693.3.019.393.543-.141.248-.441.2-.211.437-.265.024.007.239-.228.1.135.332.413.017.556.778.207-.052.621.659,1.575.647.747-.043.195.133.58-.517.421.256-.011.359-.6.556.676.126.093.189-.126.4.163.107.011.534.387.339-.113,1.46.226.761.322.27.456,2.718.232.474h0l-.754.408-.359-.024-.187.495-.456.185-.019.333-.587.1-.621-.246-.724.093.38-.709,1.132-1.21.221-.576-.057-.793-.2-.126-.17.215-.333.03-.693-.37-.419.6-.411-.052-.067-.326-.535-.1-.995.252-.187-.183.169-.446-.467-.4.024-.606-.643-.265-.352-.81-.217.887.569.341-.119.237-.437.232-.426-.237-.3.085-.952.787-.083.622-.467-.065-.424.295.072.413-.169.252-.219-.028-.1.267.074.656-.232-.119-.211.656-.259.067-.093-.189-.209.007.022.265-.406.691h0l.02.033h0l-.23.12-.3-.693-.263.089-.454-.148-.646.476-.172.787-.324-.124-.235-.535-.4-.013-.241.287-.3,0,.013.4-.228.033-.1.261-.452.1-.4.563-.35.091-.193-.322-.191.07.439-.339-.187-.17-.333.119.03.154-.228-.028.1-.148-.3.03-.3.28-.363-.422-.913.276-.369-.245.211-.465-.848-.056-.213-.137.122-.306-.174-.094-.663.195-.947-.4-.947.285-.2-.5-.408-.191-.007-.315-.971-.55-.613.083-.33-.691-.5.111-.022.2-.195.069-.213-.428-.469.332-.348-.052-.028-.411-.4-.085.156.424-.506.33.067.663-.335.176-.244-.12-.293.545-.669-.128-.38.556-.752-.089.4.333-.146.226-.5-.05-.53.189-.035-.283-.717-.243-.48.094-.467.513-.424.087.187.871-.2.285.07.256-.285.25-.341.093-.376-.122-.1-.265-.265.1-.23-.119-.282.03-.052.556-1.486-.22h0l-.493-.426-.491.143-.113-.411.265-.448-1.265-.658-.728-1.291-.209-.026-.265-1.041-.441-.019L305.6,68.4l-.976.865-.891-.469.037-.215-.274-.08-.474-.539-1.232.126h0l.246-.358.2-1.413.243-.137.461.106.113-.445.643-.094.363-.543.446-.061L304.379,65l.228-.43-.135-.643.193-.033.137.233.711-.133.22-1.152.271-.383-.12-.724-.259-.1.035-.187-.858-.054-.454-.369-.078-.346-.552-.28h0l.05-.339h0l.126-.476-.289-1.173.271-.424.346-.072.183-.354.33-.069.424-.548.376.191-.113.165.1.178.639-.191-.85-.3.122-.674h0l1.6-.991,1.665-.18.333.541.608.087-.2.561.174.408.367.078.556-.554.385.5.441-.026-.024.285.324.174.059.267.278.05-.174-.291.422-.333.033-.787-.135.083-.1-.137-.217.219-.011-.795-.2.267.05.465-.4-.237-.135.137.276.024h-.248l-.15-.3.124-.426.724-.417.509.009-.269.982.265.122.117-.352-.109-.165.23-.408.282-.13-.17-.237.359.119.28-.165.089-.589.476-.267.043-.28-.25-.254-.865,1.1-.05-.509.367-.437.595-.235.839-.91.915-.043,1.058.191,1.936-.661,1.343-.117.717-1.084,1.773-1.176.852-1.651.685-.813.4-1.115Zm7.269-2.442.119.591L331.9,43.4l0,.465-.13-.293.076-.226-.37.335.063.923-.5.771-.1.841-.05-.374.445-1.651.015-.656.282-.274Zm3.368-1.652-.043.471-.422.182-.2.358.183.708.33.421.495.163,2.032-.3.521.426,0,.665L336.96,45.84l-.011.589.458.882.7.07.667.93.441.27-.3.107-.243.474.054.741-.165.139-.3-.308.291.078-.087-.328-.491.17-.172-.2.637-.385.05-.2-.383-.07-.726.274.789-.441.1-.265-.476.076-.341.359-.367-.467-.372.259-.591-.035-.963.8-.417.745.057-.269-.448.189.063.469.085-.35.176.209.289-.222.163.213.081.315-.385.345-1.2-.589.367.106.144-.669-.295.252.124.163-.6.085-.578-.5-.228.169-.072-.534-.634.3.18-.446.348.074-.832-.647.154-.78.81-.1.285.163.474-.333-.282-.078-.076-.272.274-.094-.246.043-.25-.521-.724.146.333-.672-.637.283-.037-.117.569-.9.68.154-.054.406-.426,0-.046.18.193.174.082-.257.545-.074-.246-.089.463-.237-.5-.113.033-.509-.378.156-.341-.1-.3-.774,1.18-.178.522.265-.013.408.195.154.089-.215-.172-.571.678-.554.17.08-.359.565.2.069.233-.295.454.817-.019.522.352.135.1.32.258-.222.359.022.128-.958-.263-.613.215.017.019-.15-.258.067.011.222-.532-.007-.243-.348-.378-.1-.272-.83-.491.424.063.217-1.062.482.474-1.173.011-.582-.676.421.126.606-.908.739.044-.233.622-.546.015-.826.32-.409.515-.343,1.68-.193Z" transform="translate(-245.64 -33.698)" fill="#6cddb4"/>
    <path id="DE-NI" d="M52.485,127.385l-.678.065-.441.23.487.33-.165.233-.165-.261-.269.2-.63-.517.054-.326,1.067-.376ZM53.6,126.38l-.209.107.267.017-.245.12.1.172-.3-.009-.093-.324Zm-.995.017.283.143-.265.072-.043-.465Zm3.016-.758.2.185-2.731.206Zm3.023-.771.141.174-.571.174-.1-.106.057.12-.3.07-.73-.039-.157.154-.311-.172-.17.207-.182-.206.591-.319,1.732-.059Zm9.868-.117.265.133-.387.043-.078.226-.4-.015.226-.335Zm-9.09-.076.38.07.056.283-.924-.165Zm2.091-.469.571.087.048.185-1.389.061-.076.37-.043-.13-.02.154-.428-.022.169-.606Zm5.12-.048.122.328-.2-.13Zm.044-.2-.109.148-.1-.083.126-.25Zm-3.455-.207,1.111.2-.71.233-.715-.1-.152.263-.17-.052.178-.445Zm2.041-.265.884.4-1.113-.261-.126.291-.226-.257Zm5.654-.659-.365.05.278-.313.167.026Zm3.712-1.286-.017.217.285.169-.076.2.213.183-.1-.322.659.667,1.452.254,1.489-.345-.187-.658h0l2.419-.1,1.236.524.595.808.726,1.482.943.884.526,1.528,1.454,1.032.672.165h0l.524.065-.107.254.152.409-.18.222.263.189-.03.176.25-.031.037.576.645.656-.006-.174.5-.345.2.408-.167.387.1.039.313-.276.509.232.535-.37-.122-.233.328-.006.05-.326,1.447,1.33h.76l.293-.472.528-.265h0l.267.17.556.019,1.445.989.939.276.182-.085h0l1.232-.126.474.539.274.08-.037.215.891.469.976-.865.376.276.441.019.265,1.041.209.026.728,1.291,1.265.658-.265.448.113.411.491-.143.493.426h0l.067.459.776.839,1.35-.452.656.591.456-.094.611.345h0l-.461.467-.039.254-.552-.13-.2.88.115.395-.539.13-.613.574-1.08.519-.213.067-.046-.285-.611.185-.213-.343-.767-.141-.676.133.006-.287-1.11.026-.161.074-.05.452-.558.617-.506-.057-.185.195-.157-.2-1.193.267-.13,1.147.433.7.063.658.358-.048.154.43h0v.046h0l.919,1.6.669-.27-.056.385-.376.28-.024.424.837,1.4h0l-.113-.013h0l-.267-.1-.367.143-.132.637.961,1.167-.006.222.132-.033h0l.106.093h0l.469.209-.076.367-.382.224-.624.052.621.728h0l0,.052h0l-.287.245.191.337.287.076.074.487h.106l.209.243-.119.172-.545.157-.187.254.069.395.482.094-.178.743h-.1l-.687.55-.409.044-.044.163.38.167-.07.558-.973-.059-.637.252-1.523-.061-.609.167.087.291-.372.33-.293.037-.063-.154-.38.2.27.572.248-.052.182.371.35.006-.448.369.015.33.408.235.011.341-.2.374-.654.428-.041.178.154.067-.152.472.193.808.441.217.057.426.428.476.007.8.363.5h0l-.3.078.08.174-.517.163.117.248-.169-.009.054.43.315.163-.106.326-.6-.4-.532.443-.493.041-.285-.359-.732-.363h-.07l-.672.089.12.354h0v.111h0l-.445.835-.415.083-.1.387-.624.2-.144.239-.2,0-.17-.289-.278.308.094.124-.154.328-.378.041.146.23-.433.017h-.076l-.361-.08-.139.315-.259-.361-.1.313-.337.007-.109.295-.858.558h0l.03-.332-.339-.465-.23.052-.044.178-.328-.172.17.811-.3-.228-.011-.356-.241-.178-.272.072.035.422-.326-.046-.337.326-.478.128.435.837.4-.324-.054.567-.4.213-.754-.433-.467.126.019-.261-.326.013-.508-.38-.354-.419.437.094.1-.169-.209-.159.224-.413.6-.074.182-.246-.2-.535.182-.452-.672-.876.415-.311-.182-.528.207.239.278-.057-.239-.348.043-.269.574.313.133-.178-.613-.6-.137-.519-.663.224-.3-.3-.409.254-.213-.176.05-.4-.53.195h0l-.9-.065.313-.974-.17-.343.087-.248-.228-.206.841-.971-.222-.393.169-.3-.1-.2.317-.374-.647.106-.515-.178-.437.207.226-.517-.035-.508-.8-.459.035-.226-.156-.063.252-.23-.122-.263-.674-.017-.106.252-.263-.091-.128-.295.239-.3-.176-.137.182-.176-.243-.432-.024-.446.246-.219-.465-.537-.246.054.3-.476-.061-.195-.283-.185-.48.087-.25-.1.017-.159-.685.258.122-.695-.428-.454.237.1.093-.109.1.241.256-.019-.093-.778.2.069.282-.211-.472-.356L78,153.487l.074-.206-.161-.107.239-.117.145-.776.241-.089.1-.278.372.111.467-.621-.033-.313.324-.315.011-.345-.163,0,0-.261-.187-.159.5-.635-.441-.4-.556-.054-.463.832-.415.133.1.348-.522.311-.065.278-.517-.072-.076.215-.37.1-.772-.18-.5.2-.267-.211-.22.074-.031-.463.154-.194-.156-.258-.028-1.182-.154-.3-.207.052-.235-.272-1.115.632-.643-.252-.513.382-.041.6-.45.326-.207-.115-.424.12-.711-.278.011.467.209.169-.063.426.921.367.585.432.311.9-.128.537.106.782-.3.615.308.4.571.182-.559.567-.706.354-.041.495-.4.009-.376-.272-.35.109-.311-.137.019-.18-.748.537-.358.656-.487-.046-.652.341-.75-.22-.606.639-.728-.293-.4-.632,1.032-.617.421.015-.1-.695.041-.157.276-.056-.232-.256-.826,0-.322-.246-.089-.3.3-.421-.015-.71.372-.07-.3-.363,0-.3.708-.137-.511-.5-.139-.574-.552-.317-.534.219-.445-.046-1.111-.543-.291-1-.952-.424-.508.826.452.2-.37.767.132.111-.713.144-1.026.685-.115.356-.487.089-.278.411-.548.152-.22.3-1.667-.046-.389.1-.256.348-.445.028h0l-.424-.613-.019-.315.55-1.2.007-.411-.178-.5-.27-.031-.3-.541-.233-.739-.578.628-1.045-.274,0-.182-1.136-.07-.706-.469.083-.667-.295-.613.411.083.126-.278.489-.006-.559-.495.08-.521-.165-.222.469-.417,1.438-.106.743.311.452-.174.787.269.165-.195.2-3.246.246-.559-.059-.22,1.128-1.81.406-1.258-.189-2.1-.213-.157-.046-.328.282-.7.282-.087-.22-.2.111-.194-.1-.867.226-.365.2-1.143.745-.035-3.475-.421-.207-.554.157-.263L55,129.664l.274-.432-.178-.565.259.478.395,0,.126.2.148-.2-.622-.011-.211-.524.306.367.113-.283.33.415-.048-.248.269-.02.245-.332-.315-.12-.324-.615.695-.695.08-.295-.017.137,1.073-.954,1.376-.335.183.122,1.232-.044.521.243,2.106-.643,0-.322,0,.391,1.213-.215.333-.471-.293.541,1.2-.228,1.354.206-.07.508.272.8.339-.107.3.295.137-.183.087.109-.213.093.187.3.161-.07-.144.1.089.313.548,1.119-.137.248.157-.093-.207.428-.706.267-.4-.091.033.574.417.613.428-.161.2.1.582.873.519.128.259-.154.543-1.021-.035-1.262-.978.02.178-1.219.454-.585.3-.13.365.107.541.75.954.426.465.046.178-.163-.006.195L73,128.6l.067.287h0l-.1.065.315.674.145-.128.243.172.3-.23.211-.376-.139-.276.076-.53-.2-.037-.128-.352.5-.7h-.2l.031.159-.354-.056-.269.23-.852-.252h0l-.445-.986-.015-.78.741-1.858.035-.548.756-1.315.906-.228Zm-.828,14.379.132.561.463.7-.043.241.526.289-.061.419.152.3.441.019.195-.291.065.274.526.374.509-.028.011-.363.333.513.48,0,.028-.2.517-.432-.189-.267-.032-.489.322-.246-.313-.048-.178-.324.415-.2-.456-.506-.365.387-.593.02h0l-.02-.061h0l-.224-.274h0l-.035-.172h0l-.12-.135-1.024.007-.17-.322-.27.065-.069-.163-.263.2-.639.063-.15-.372-.367-.007.228-.4-.243-.1-.289.163-.613-.378h0l-.144-.006h0l-.093.069.287.469h0l.05.063,1.284.6ZM72.44,120.831l.167.233-.356.065.052-.319Zm-.593-.667.135.056-.432.345-.143-.069.232-.376.207.044Z" transform="translate(-41.006 -97.64)" fill="#6cddb4"/>
    <path id="DE-NW" d="M14.439,277.953l.445-.028.256-.348.389-.1,1.667.046.22-.3.548-.152.28-.413.485-.087.117-.358,1.026-.684.713-.146-.133-.111.37-.767-.452-.2.508-.826.95.424.291,1,1.111.543.445.046.534-.219.552.317.139.574.511.5-.708.137,0,.306.3.363-.372.07.015.711-.3.421.091.3.322.245.826,0,.232.256-.276.056-.041.157.1.695-.421-.015-1.032.617.4.634.728.293.606-.639.752.219.652-.341.487.046.358-.656.748-.537-.02.181.311.135.35-.109.378.272.4-.009.039-.495.706-.354.558-.567-.571-.18-.308-.4.3-.615-.106-.782.13-.537-.311-.9-.585-.432-.921-.367.063-.428-.209-.167-.011-.469.711.278.426-.119.207.113.45-.326.039-.6.513-.38.645.25,1.115-.63.235.272.209-.052.154.3.028,1.182.157.258-.154.195.03.463.22-.074.267.211.5-.2.772.18.37-.1.074-.213.517.07.065-.278.522-.311-.1-.346.415-.133.463-.832.556.054.441.4-.5.637.189.157,0,.261.163,0-.011.343-.324.315.035.313-.467.621-.374-.111-.1.278-.241.089-.144.776-.239.117.161.107-.074.206.752.259.472.356-.283.211-.2-.07.093.78-.256.018-.1-.241-.093.111-.237-.1.428.452-.122.695.687-.256-.017.159.25.1.48-.087.283.185.061.194-.3.476.245-.054.465.535-.246.219.024.447.243.432-.18.176.176.137-.241.3.128.295.263.091.107-.254.674.019.12.263-.252.23.156.063-.035.226.8.459.035.508-.228.517.439-.207.515.178.647-.106-.317.374.1.2-.169.3.224.393-.843.971.228.206-.085.25.17.341-.313.974.9.065h0l-.341.32-1,.289.409.445-.665.732-.094.734-.3-.007-.219.291-.465.165-.1.582-.385-.124-.285.424-.27-.133-.482.107-.2-.395.152-.561-.17-.152-.445.013-.245-.291-1.5.685.332.63,0,.337.326.059-.107.722-.554-.067-.43.287-.211-.209-.4-.039-.845.346-.439-.08-.206.109.056.213-.267.087-.054.293-.206-.081-.2.144-.743,1.106.454.569,1.137-.545.354.044.17.213-.1.211.161.608.309.187-.235.191.128.408-.734.747.013.263h.044l.228.252-.426.037-.324.248-1.167-.157-.356.111-.3.32.289.309-.257.428.165-.057.215.456-.737.806.039.135-.233.061-.1.463.119.415-.328.022-.867,1.058h-.621l-.176-.387-.291.02-1.495,1.677h0l-.074.024h0l-.046.191.443.839-.506.9h0l-.55-.393-.217.2-.226-.033-.026-.569-.83-.884.109-.919-.106-.393-.135-.139-.487.152-.391-.558-.645-.141.261-.85-.678-.27-.317.345-.356.109.289.321-.12.639.15.408-.4-.113-.311.445-.5.117.228.224-.1.509-.193.243-.65.052-.093.485-.5-.126-.346.172,0,.152-1.021.352-.7-.157-.2.389.174.3-.211.357.063.215-.285.207-1.447.3-.137-.467-.146.465-.2.2L15.5,308.7l-.08.258-.372-.22-.306.487-.4-.374-.685.769-.289.152-.509-.074.007.491-.574.117.167.183-.1.2.193.074-.048.632-.5.295-.53-.358-.144-.365-.658.348.248.265-.267.335.33.1.141.259-.154.522.382.446-.039.154-.241-.063-.91.513-.382-.634-.363.485-.2-.189.057-.356-.257-.02-.022-.235-1.124.513-.274.4-.369.035.083-.452-.172-.191-.172.163-.207-.489-.309.091.1.417.135-.026.017.443.2.113.007.182-.245.009h0L6.6,313.7l-.68-.656L6.334,312l-.052-.339-.37-.146.12-.491-.948-.306-.521.183-.213-.474-.23-.106.089-.191-.209-.1-.026-.283.58-.6.215.02.3-.695-.837-.12-.245.122.082-.109-.176-.2.167-.154-.735-1.275-.889-.159-.082.17.033-.471-.306-.317.117-.226-.621-.424.128-.246.239.139.239-.241-.07-.574.435-.187.215.174.178-.5-.165-.367.233-.534-.478-.011-.413-.232-.17-.428.235-.5L1.5,301.9l-.159-.167-.661.246.083-.509-.3-.306-.165-.552.569-.345.274.585.263-.013.243-.685.367-.359.391-.165.563-.641.982-.426-.409-.295.5-.246-.2-.154-.774.456-.209-.039-.172-.884.213-.078-.167-.358.606-.591.539-1.091.285-.061.391-.515-.141-.465.139-.259L4.317,294l.207-1.362-.119-.765-.626-.958-.821-.817.3-.956-.993-.341-.07-.639.207-.176-.6-.4-.45-.011.006-.233.4-.28.015-.328-.195-.061.035-.228-.365-.28.146-.091-.157-.12.191-.237.609.02.6-.558.417.3.785.158-.022-.378-.3-.471-.391-.132.159-.182.593.013.508.617.8-.1.226.109.078.348.571.026.113.239.456.172.1-.487-.272-.2.054-.217.472.3.209-.124.233.226.878-.585,1.656-.634.563.352.661-.578.128-.563.339-.106.03-.43-.91-.793L10,281.836l.08-.595.506-.091.285-.832,1.113-.039.609-1.067.513-.1.4-.852.624-.024Z" transform="translate(0 -221.686)" fill="#6cddb4"/>
    <path id="DE-RP" d="M19.4,447.007l.245-.009-.007-.181-.2-.113-.017-.443-.135.026-.1-.417.309-.091.207.489.172-.163.172.191-.083.452.369-.035.274-.4,1.124-.513.022.235.257.02-.057.356.2.189.363-.485.382.634.91-.513.241.063.039-.154-.382-.446.154-.522-.141-.259-.33-.1.267-.335-.248-.265.658-.348.144.365.53.358.5-.295.048-.632-.193-.074.1-.2-.167-.183.574-.117L25.6,442.6l.509.074.289-.152.685-.769.4.374.306-.487.372.22.08-.258.217.031.2-.2.146-.465.137.467,1.447-.3.285-.207-.063-.215.211-.358-.174-.3.2-.389.7.157,1.021-.352,0-.152.346-.172.5.126.093-.485.65-.052.193-.243.1-.509-.228-.224.5-.117.311-.445.4.113-.15-.408.12-.639-.289-.32.356-.109.317-.345.678.27-.261.85.645.141.391.558.487-.152.135.139.106.393-.109.919.83.884.026.569.226.033.217-.2.55.393h0l-.174.48.358.508-.163.419.3.195-.191.895-.382.322-.38-.1-.324-.343-.571.606-.2.695.383.632-.417.285.154.067-.033.215-.256.219.259.213.43-.017-.074.293.324-.019.033.193.163.015.2.491-.054.287.352.1.009.311.195.194-.15.711-.311-.02-.08-.2-.437.026-.17.248.315.309h0l.048.065h0l-.237.391-.243-.035-.285-.367-.026.185-.421.154-.048.178-.426.117,0,.176-.319.222.015.245.569.446-.133.183.1.578-.333-.344-.211.13-.376-.232-.246.526.083.267-.413.006-.348.476.939.819.167.6.215.156.987-.111.839-.472,1.7-.576.715.145.917.93.389,1.074-.12.734.471.395-.061.6.517.991.567-.009.089.126-.487.732-.93.545.293,1.195.454.776h0l-.083.548.565,1.5-.245.372.765.276-.145.61-.385.361.13.141.309-.269-.022.395-.561.752.45.537-1.156,1.087-.063.289.233-.013-.437.906-.107,1.228-.55.843-.174.717h0l-.156.335h0l-.611.524h0l-.082-.187-.3.157-.059-.183-.422.046-.782-.263-.489-.435-.885-.241-.506-.545-.165.291-.37-.124-.261.272-.852-.578-.326.346-.369.052-.035-.232-.139.1-.3-.128.02.159-.274.085-.476-.18-.02-.328-.37-.183-.428.057-.422-.309-.332-.6-.072-.682-.689.078.085-.346-.921.224-.022.235h0l-.78-.854.085-.321-.165-.269.224-.354.189.178.007-.228.222-.161-.091-.169.317.011.265-.285.182-1.369-.4.1-.143-.278-.758-.174-.017-.5-.448-.306-.05-.226.465-.211.22-.315-.306-.182.1-.6.25-.1-.065-.193-.332-.056-.087-.854-.63.339-.017-.187-.317,0-.141-.167-.028-.237-.585.056-.254-.194-.141.113-.335-.541-.382-.189-.506.341.069-.254-.458.167-.137-.161-.132.393-.4-.061-.2.269-.167-.115-.333.448-.291-.143-.748.613-.443.069-.237.326-.067-.219-.267.083-.133-.131-.044.217-.185-.048-.295.237.015.172-.313-.046-.213-.356-.53.246-.537-.306-.239.1-.269-.187-.154.1-.439-.146h0l-.263-.376.283-.1-.054-.293.522-.471.237-.654-.128-.244.9-.826-.119-.23.237.067-.191-.476.207-.246-.141-.511.261-.346-.189.148-.483-.383-.483.217-.387-.2-.422-.534-.465.228-.124-.554-.176.044-.747-.608-.03-.35-.156-.087.057-.482-.2-.093-.082.128-.094-.37-.163.269-.1-.589-.358-.222.163-.182-.165-.1.109-.178-.182-.128-.074-.545-.178,0,.239-.241-.189-.013.078-.328.154-.024-.091-.483.324-.428L16.2,450.1l.1-.271.089-.172.122.107.374-.2-.283-.7.113-.265.243-.043.215-.359.763-.182.143-.193-.078-.3.3-.48.278-.037.32.335.015-.191Z" transform="translate(-12.743 -354.588)" fill="#6cddb4"/>
    <path id="DE-SL" d="M31.831,566.71l.439.146.154-.1.269.187.239-.1.537.306L34,566.9l.213.356.313.046-.015-.172.295-.237.185.048.044-.217.133.132.267-.083.067.219.237-.326.443-.069.748-.613.291.143.333-.448.167.115.2-.269.4.061.132-.393.137.161.458-.167-.069.254.506-.341.382.189.335.541.141-.113.254.195.585-.056.028.237.141.167.317,0,.017.187.63-.339.087.854.332.056.065.193-.25.1-.1.6.306.182-.22.315-.465.211.05.226.448.306.017.5.758.174.143.278.4-.1-.182,1.369-.265.285-.317-.011.091.169-.222.161-.007.228-.189-.178-.224.354.165.269-.085.32.78.854h0l-.006.271-.43-.006-.382.515-.567-.27-.571.265-.161-.272-.317.178-.372-.389-.254.05.1-.235-.176-.059-.2.13.1.307-.4.326-.333-1.019.082-.382-.257.057-.458-.4-.156.126-.4-.37-.385.254-.385-.246-.263.181.283.576-.313.5-.658-.28-.485.08-.319-.415.232-.337-.089-.222-.335.043-.074-.608L35.151,572l.109-.382-.661-.389-.308-.354.039-.256-.287-.211-.035-.163.285.117.148-.293-.209-.054.031-.3-.543-.3.146-.411-1.458-.928-.419.219-.308-.117-.128-1.084Z" transform="translate(-25.469 -460.188)" fill="#6cddb4"/>
    <path id="DE-SN" d="M387.913,371.2l-.093-.185-.524-.082-.156-.339.232-.022.028-.167-.515-.189.2-.769-.452.024,0-.154.159,0,.2-.472-.05-.432-.119-.382-.289-.152.078-.369-.293-.671.582-.159-.019-.795-.261-.237.159-.078-.133-.413.185-.219-.1-.219-.291,0-.1-.556.3-.1.043-.265.343-.182-.183-.622.534-.541-.043-.206.689.043.608-.357-.065-.111,1.036.074.206-.515.206.146.25-.083.057.209.243-.259.382.139.483-.454.17.133.372-.154-.2.3.641-.359.332-.667.945.328.865-.711.22.193.035.341.3-.183.083.363.358-.046.161.217.074-.215.25-.02-.065-.261.115.024h0l.07.02h0l0-.135.385.091.137.506.346-.165h0l.4.708.415-.217.461.509-.206.469.491.222.261.628-.072.6-.2.015-.026.319.245.458-.33.426.157.08.056-.235.252.756.619.215-.072-.293.295.033.007-.241.5-.278-.063-.2.647.217-.03-.206.278-.326.332.361-.082.226.3-.2.319.261-.12.126.671.191.041.374.165.009.074.23.3-.293.224.026.1.28.735-.013.1-.135.876.278.3-.161.08.15.117-.15.43.019.18-.283.843.089.624-.317.148.059-.011.321.33.063.069-.408.274-.03-.132-.159.346-.258-.1-.315.295-.185-.337-.58.645-.022-.161-.295.239-.1.128-.435.411-.044-.128-.167.1-.213.9.074.38.222.285-.087.639.3h0l.007.089h0l.1.154.106-.287.545-.443.7-.02.081-.272.987-.033.076-.256.274-.144.339.163.224.409.756-.056.285-.478-.078-.367.393.3h0l-.222.376.293.678.689.15.678.532.789.128.383.261.256.521-.169.6.109.572.169.106-.05.6.761,1.3-.587,2.106.041.743-.183.093-.033.754-.569,1.452-.163.089.026.383-.165.061-.115.6-.915,1.048.087.258-.332.9-.35.028-.27-.182-.259.128-.17-.358-.215.056-.821-.369.2-.735.185-.148-.03-.487-.789.337-.207-.094.389-1.265-.406-.441-.35.117-.041-.246-.387-.1.035-.456-.107.433-.446-.239-.528.324-.293-.154-.039-.219-.23-.12-.278.12-.424-.308-.174.3h-.167l.146.222-.059.241-.241.113-.009.395.285.2.487-.148.039.213-.3.143.163.109-.074.1,1.019.346-.12.711-.437-.069-.009.17-.537.163-.437-.207-.393.143-.111.508-1.6.635-.137.261-.558.148-.474-.293-.417.224-.2.322-.437-.054-.158.454.133.452-.428.035-.065.282-.932-.152-.433.161-.163-.124-.232.306-.5-.267-.732.4-.522-.085-.378.17.194.526-.348.439.133.265-.337.165-.348.5-.608-.243-.293-.558-.219-.065.056.419-.608.374-.03.509-.378.091-.146-.324-.369,0-.613,1.641-.674-.061-.076-.219-.545.348L396.76,382l-.132,1.136-.478.545-.456.126.063.17-1.512-1.047-.107.526-.178-.332-.706.311-.341.65-.4-.361-1.893.369-.3.482.032.395-.246-.1-.319.246-.122.348-.38.015,0,.535-.333.148-.215.415.085.376-.345.006.05.42-.139.217.182.272-.182.2.159.159-.554-.074-.178-.365.222-.446-.639-.461.069-.233.245.148-.132-.374-.639-.033-.013-.619-.18-.3-.986.076h0l-.107-.285-.524.03-.013.115-.578-.528-.235.067.069-.7-.22-.211-.178.082.048-.23-.354-.287h0l.054-.165-.337-.065-.05-.233.434-.25.206.154-.124-.319.317-.295-.395-.408-.006-.269-.513.111-.213-.378.174-.27.519-.078-.037-.524.721-.454-.054-.22.226-.239.217.176-.2.183.4.395-.217.48.119.319.326-.011.237-.091.043-.38.261-.043.263.207.456-.174-.026-.137-.295.013.161-.854.482.3.111-.469.752.157.019-.267.611-.354.037-.387-.689-.189-.094-.411.228-.213-.087-.176-.471-.017.15-.521.333.091.263-.4-.024-.146-.393.03-.039-.585.335.195.128-.272.126.159-.039-.256.107.2.482-.072.013-.267.306-.3.341.1.154-.176.044.348.248-.067.041-.4.461-.559.319.035-.041-.176.161-.094.2.133.986-.176.211.126.18-.311-.358-.374-.191-1.061-.38.195-.574-.246.169-.128-.024-.339-.287-.046-.091.18-.046-.858-.2-.059h0l-.2.006h0l-.15-.328-.552.163-.193-.182-.376.081-.057-.287-.235-.145Z" transform="translate(-311.846 -293.05)" fill="#6cddb4"/>
    <path id="DE-ST" d="M311.9,219.034l.467-.044-.163.522.6.069.2.6.561-.228.519.558.685.161.05.226-.309.382.143.23.415.006.263.287,1.056.372.511-.283,1.052.265.141-.339.022.789.815-.493.076.2.389.128.285,1.1-.094.3-.346.033-.135.567.156.282-.274.509.143-.037-.039.169.211.146-.061.287.2.156-.072.824h0l-.022.185h0l-.319.2-.385-.124.12.986-.426.861.324-.176.22.131-.27.363.219.348.387-.1.287-.4.324.411-.12.1.132.174.7-.2-.256.165.261.206-.5.913.093.132-.269.174.315.154-.089.4.141.157-.259.239.293.37-.363.58-.367,1.237.315.233-.146.1.443.13-.591.317-.009.526-.232-.006-.1.3.511.7.161.537.446.233.541.852.354.085.545.511.18-.015.132-.332.213.022.133.374.535.213.046.322.856.067.024-.185.356-.05.135-.35.18.015.995.483.287.458.769-.1.087.626.4.02.035.13.359-.228.456.078-.024.239.224.039-.02.406.856-.009-.074.378-.13,0,.156.174.472.059.456-.263.222.039.159.361-.361.085.484.956-.176.717.2.324-.139.117.387.541-.387.109.095.346-.15.152-1.128.73h0l-.346.165-.137-.506-.385-.091,0,.135h0l-.07-.02h0l-.115-.024.065.261-.25.02-.074.215-.161-.217-.358.046-.083-.363-.3.183-.035-.341-.22-.193-.865.711-.945-.328-.332.667-.641.359.2-.3-.372.154-.17-.133-.483.454-.382-.139-.243.259-.057-.209-.25.083-.206-.146-.206.515-1.035-.074.065.111-.608.358-.689-.043.043.206-.533.541.183.622-.343.182-.043.265-.3.1.1.556.291,0,.1.219-.185.219.133.413-.159.078.261.237.018.795-.582.159.293.671-.078.369.289.152.119.382.05.432-.2.472-.159,0,0,.154.452-.024-.2.769.515.189-.028.167-.232.022.156.339.524.081.093.185h0l-.393.974.435-.03.05.361-.535.678-.176.4.117.141-.295.3-.009-.413-.269.022-.089-.295-.215.295-.88-.328-.873.193-.122-.445-.435-.044,0-.535-.311-.2-.35.091-.278-.509-1.091.137-.274-.107-.191.211-.311-.478-.374-.061-.028-.413-.35-.343-.371-.017-.235.267-.124-.263-.411-.128-.339.295-.687.007-.283-.222.063-.272-.18-.341.222-.05.182-.306-.17-.082-.009-.421-.209.006-.1-.326-.615.1-.007-.248-.289-.061.165-.461.2.159.23-.13.5-.895.2-.094-.713-.685.145-.178-.332-.056-.037-.689-.617-.083-.3-.471-.848.259-.011-.176-.313-.143-.359.191-.571,0-.95-.5-.141.176-.68.052.22-.141-.526-.135-.041-.574h0l-.009-.059h0l.126-.311-.559-.719.243-.324-.411-.369-.176.054h0l.006-.113h0l-.063-.343h-.063l.1-.446.417.2.08-.215-.265-.148.087-.143-.422.115-.343-.4-.446.189-.087-.307-.548-.187-.126.145-.63-.006h0l-.361-.5-.007-.8-.428-.476-.057-.426-.441-.217-.193-.808.152-.472-.154-.067.041-.176.654-.428.2-.374-.011-.341-.408-.235-.015-.332.448-.369-.35-.006-.18-.37-.248.052-.27-.572.38-.2.063.152.293-.035.372-.33-.087-.291.609-.167,1.523.061.639-.252.973.059.07-.558-.38-.167.044-.163.409-.044.687-.55h.1l.178-.743-.482-.094-.069-.395.189-.254.543-.157.119-.172-.209-.243h-.107l-.072-.487-.289-.074-.189-.337.287-.245h0l0-.052h0l-.619-.73.624-.052.382-.222.074-.367-.469-.209h0l-.106-.093h0l-.132.033.006-.222-.961-1.167.132-.637.367-.143.267.1h0l.113.013h0l-.837-1.4.024-.424.376-.28.056-.385-.669.27-.919-1.6h0v-.046h0l-.154-.43-.357.048-.063-.658-.433-.7.13-1.147,1.193-.267.156.2.185-.195.508.057.558-.617.052-.452.161-.074,1.11-.024-.006.287.676-.133.767.141.213.343.611-.185.048.285.213-.067,1.08-.519.613-.574.539-.13-.115-.395.2-.88.554.128.039-.254Z" transform="translate(-243.912 -178.194)" fill="#6cddb4"/>
    <path id="DE-SH" d="M159.186,20.357l-.252.182.23.03-.115.295-.213-.308.165-.25Zm-2.6-7.742.241.039-.054.157.248.257-.359.309-.3-.278-.191-.517.233-.283Zm30.69-1.576,1.041.195.7.348.995,2.064-.782-.2-.6.1-.022-.143h.409l-.458-.161-.278.178.235.1-.109.132-.68-.013-.3-.146.083-.461-.176-.309-.267-.089-.495.182.293.3-.465-.278.019-.832.226-.521.371-.485Zm-30.588-.054-.169.793-.217-.973Zm3.836-.385.233.12-.169.083-.385-.178.32-.026Zm-1.313-.107-.072.645-.219.107.182.052-.078.167.156.187-.169-.156-.213.3-.617.067-.33-.421-.011-.415Zm-1.769-.424.235.413-.306.024-.471-.4.541-.035Zm2.143-1.245-.1.241L159.281,9l.061-.174Zm-.865-.372-.189.376-.741.111-.43.337-.215-.165.139-.213,1.126-.269.315-.3-.006.12Zm.676-.55-.145.278-.319-.037.341-.413Zm-3.988.934-.02.167.246.07-.23.1.178.167-.448.083-.824-1.149.828-.954-.254.506.272.8Zm1.682-2.38.724.215-.044.337.191.217-.378.8-.98-.009-1-.439-.044-.363.38-.569,1.156-.187ZM156.063.415l.328.111-.821.026.054.185.317.041.15.382-.685.356-.345.609.206,1.4.663.43,2.051-.195.406-.233V3.274l.526-.015.556.359.569.031.43-.274.565.189.458-.157.578.046,1.2.622,1.139-.02,1.069.461.165.826.276-.039.252.219L166.3,5.4l.448.152.459-.765.317-.089.324.645,0,.446.363-.7.376,0,.2-.308.656-.383.2-.4.285-.011-.267.569.182.37,2.229.7.711.891.27.011.217-.387.132.167,0-.689.606.363.372,1.245.578.659-.037.285-.08-.391-.343.089.132.511.3-.163L174.7,8.4l.232.067-.085,2.16-.741.971-1.117.591-.428,0,.383.532.565-.089.22-.185-.106-.019,2.39-.452.88.595-.354.415.241.923-.346.1-.076.333-.143-.02.17.639-.285.526.383-.406.222.08-.183-.106.1-.574.206-.109-.028-.25.4-.708.63-.083.193-.269.328-.087.867.237.978.691,1.406.526,1.223,1.193,1.017-.157,1.665-1.4,1.036.041-.463.085.543.154.639-.191.1-.278.289-.137-.041.193.109-.109.157.13-.07.309-.584.55.03-.169-.256.007.054.174.122-.046.248,3.008-1.665,1.156-.963,1.111-.591-.087-.13-.343-.217.639-.467.524.393,1,1.008.132.17.256-.03.4.252.048h0l-.122.674.85.3-.639.191-.1-.178.113-.165-.376-.191-.424.548-.33.069-.183.354-.346.072-.27.424.289,1.173-.126.476h0l-.05.339h0l.552.28.078.346.454.369.858.054-.035.187.259.1.12.724-.27.383-.22,1.152-.711.133-.137-.233-.193.033.135.643-.228.43.124.141-.446.061-.363.543-.643.094-.113.445-.461-.106-.243.137-.2,1.413-.246.358h0l-.182.085-.939-.276-1.445-.989-.556-.019-.267-.17h0l.209-.306-.4-.063-.608-.6L177,31.3l-.282.172-.3-.206-.132-1.008.569-.25-.093-.528.363-.424-.359-.094.093-.187-.167-.308-.487-.285.193-.25-.03-.27.3-.1.119-.289.017-.139-.3-.154-.561.5-.478-.139-.156.193.122.126-.152.524-.785-.063-.235.691-.856-.12-.189.584-.641.722-.428-.15-.037-.363-.285-.091L171.8,29.1l-.484,1.489h0l-.672-.165-1.454-1.032-.526-1.528-.943-.884-.726-1.482-.595-.808-1.236-.524-2.419.1h0l-.183-.345-.387-.137-.591-.722-.272-.9-.246-.269.241-.2-.252.15-.322-.558-.333-.019.88-.432.489.1-.093.2.156,0,.006-.152.074.144.295-.074.315-.441-.011-.122-.3-.02.233-.109-.356-.432.143-.046-.161,0-.222-.75-.376-.052-.422.287.044-.209-.072.213-.578-1.05.38-1.215-.02-1.032-.152-.174-.5.207-.458-.22-.415.061-.376.452-.389-.182-.5-.741.1.391-.245-.22.215.365-.339-.459.317-.937.169-.05-.08.215.311.135.157-.282.415-.083-.174.069.183-.367-.187.106-.246-.107-.057.137-.508-.093.148-.391,2.4-.517.593.143.585-.4.463-.611.487-.107.069-.276.35.148.157-.132-.246.076-.315-.148.039-.37-.259-.445-.291.176-.339.848-.165-.052.1.067-.33.189-.621-.013-.454-.2.139-.319-.144-.254.81-.7-.048-.63.144-.576.124-.011-.267-.1.113-.246-.172.237-.609.009-.054-.139.548-.285-.178.044-.274-.758-.819-.55-.089-.617L159.06,7.1l-.046-.135.215-.144-.15-.626-1.045-1.447-.08-.88-1.028.028-1.149.717-.435-.243-.154-.345-.283-.076-.065.315-.406.278-.02,2.245-.209-.206L154.4,3.3,155.556.4l.209-.119.3.135Z" transform="translate(-125.399 0)" fill="#6cddb4"/>
    <path id="DE-TH" d="M265.676,363.779l.63.006.126-.144.548.187.087.308.446-.189.343.4.422-.115-.087.143.265.148-.08.215-.417-.2-.1.446h.063l.063.343h0l-.006.113h0l.176-.054.411.369-.243.324.559.719-.126.311h0l.009.059h0l.041.574.526.135-.22.141.68-.052.141-.176.95.5.571,0,.359-.191.313.143.011.176.848-.259.3.471.617.083.037.689.332.056-.145.178.713.685-.2.095-.5.895-.23.13-.2-.159-.165.461.289.061.007.248.615-.1.1.326.209-.006.009.42.17.082-.182.306-.222.05.18.341-.063.272.283.222.687-.007.339-.295.411.128.124.263.235-.267.37.017.35.343.028.413.374.061.311.478.191-.211.274.107,1.091-.137.278.509.35-.091.311.2,0,.535.435.044.122.445.873-.193.88.328.215-.295.089.295.269-.022.009.413.295-.3-.117-.141.176-.4.535-.678-.05-.361-.435.03.393-.974h0l.637-.246.235.144.057.287.376-.082.193.182.552-.163.15.328h0l.2-.006h0l.2.059.046.858.091-.18.287.046.024.339-.169.128.574.246.38-.195.191,1.061.358.374-.18.311-.211-.126-.986.176-.2-.133L287,377.7l.041.176-.319-.035-.461.559-.041.4-.248.067-.044-.348-.154.176-.341-.1-.306.3-.013.267-.482.072-.107-.2.039.256-.126-.159-.128.272-.335-.194.039.585.393-.03.024.146-.263.4-.333-.091-.15.521.471.017.087.176-.228.213.094.411.689.189-.037.387-.611.354-.019.267-.752-.158-.111.469-.482-.3-.161.854.295-.013.026.137-.456.174-.263-.207-.261.043-.043.38-.237.091-.326.011-.119-.319.217-.48-.4-.395.2-.183-.217-.176-.226.239.054.22-.721.454.037.524-.519.078-.174.27.213.378.513-.111.006.269.395.408-.317.295.124.319-.206-.154-.433.25.05.233.337.065-.054.165h0l-1.163.626v-.243l-.537-.313-.081.171-.237-.08.13.161-.289-.059-.295.241-.07-.118-.984.276-.367-.285-.263.054-.133.27-.448.194-.017-.389-.491-.089.044-.546-.215-.033-.258.224.091-.22-.358-.233,0-.917.18.044.065-.146-.117-.22-1-.176.013.185-.3.041.009.328-.239.026-.132.256-.046-.176-.463.117.006.55.22.343-.106.563.313.737-.272.161.174.283-.176-.015.094.569-.209.232.107.089h-.048l-.061.374-.665-.452-.057.369-.17.059.076-.2-.426-.091-.15-.261.289-.565-.235-.417-.235.074-.032-.324-.311.024-.043.25-.485.144-.085-.3-.511-.1.048.295-.152.03-.578-.823-.235.065h0l-.089.035h0l-.2.12-.178-.3-.165.157-.356-.083-.317.241-.226-.1-.372.491-.454-.117-.033.341.18.028-.15.435.307.1.341.413.382.03.031.226h.065l.4.072.013.569-.283.122-.252-.258-.376.189-.446-.182-.02.735-.154.124-.2-.135h-.061l-.424-.332-.348.128-.259-.132-.12-.283.159-.065-.146-.259.109-.154-.195,0,.152-.393-.143-.276.091-.478-.45-.078-.2-.482-.143-.032-.207.287-.033-.178-.241.083,0-.371-.132.033H263l-.248-.521-.674.144-.126-.276.215-.311-.372-.119.126-.139-.161.022-.365-.5-.082-.528-.332.006-.547-.359-.282.037-.006-.369-.274-.174-.056-.256-.289.044-.046.167-.289-.176-.1.176-.406-.389-.445.515.02.17-.363.193h0l-.037-.243.267-.493-.285-1.017.143-.237.393.017-.337-.9-.632-.1-.554.169-.056.2.222.285-.093.22-.986-.2.031-.554.517-.443-.17-.213.374-.622-.018-.309-.2-.063.048-.282.326.007-.115-.482.107-.4.263-.2h0l.076.028h0l.187.085.106-.211.248.048.13-.341-.2.082.013-.324.446-.313-.015-.144-.139.015.037-.2-.456-.4-.476.258.191-.443-.274-.018-.126.172-.043-.35.73.144.145-.167.057.111.4-.135-.239-.083-.026-.343-.252-.261.233-.591.748.17.2-.12.322.33.682-.282-.133-.2.258-.139-.113-.172-.761-.456.156-.176-.107-.293.346-.595-.65-.43.546-.259.389.754.15-.241-.113-.48.413-.648-.487-.126-.356-.369-.2.085-.113-.252-.307.1-.522-.209.107-.309-.361-.2.1-.471-.982-.111-.039-.3-.352-.128.107-.235-.276-.654.037-.395h0l.858-.556.107-.295.337-.007.1-.313.259.359.141-.315.361.08h.074l.433-.017-.146-.232.378-.041.154-.328-.094-.124.28-.307.17.289.2,0,.146-.239.624-.2.1-.387.415-.083.445-.835h0v-.113h0l-.12-.354.672-.089h.07l.73.363.285.361.495-.043.532-.443.6.4.106-.326-.317-.163-.052-.43.169.009-.117-.25.515-.163-.08-.174Z" transform="translate(-208.291 -296.048)" fill="#6cddb4"/>
  </g>
</svg>
