<svg xmlns="http://www.w3.org/2000/svg" xmlns:xlink="http://www.w3.org/1999/xlink" width="87.261" height="88.367" viewBox="0 0 87.261 88.367">
  <defs>
    <clipPath id="clip-path">
      <rect id="Rectangle_3740" data-name="Rectangle 3740" width="36.261" height="31.867" transform="translate(-10 -5)" fill="none" stroke="#6cddb4" stroke-width="3"/>
    </clipPath>
  </defs>
  <g id="Group_15883" data-name="Group 15883" transform="translate(-637 -1843.133)">
    <g id="Ellipse_28" data-name="Ellipse 28" transform="translate(649 1871.633)" fill="none" stroke="#6cddb4" stroke-width="3">
      <circle cx="8.5" cy="8.5" r="8.5" stroke="none"/>
      <circle cx="8.5" cy="8.5" r="7" fill="none"/>
    </g>
    <g id="Ellipse_30" data-name="Ellipse 30" transform="translate(700 1871.633)" fill="none" stroke="#6cddb4" stroke-width="3">
      <circle cx="8.5" cy="8.5" r="8.5" stroke="none"/>
      <circle cx="8.5" cy="8.5" r="7" fill="none"/>
    </g>
    <g id="Ellipse_29" data-name="Ellipse 29" transform="translate(675 1884.633)" fill="none" stroke="#6cddb4" stroke-width="3">
      <circle cx="8.5" cy="8.5" r="8.5" stroke="none"/>
      <circle cx="8.5" cy="8.5" r="7" fill="none"/>
    </g>
    <g id="Group_15880" data-name="Group 15880" transform="translate(649 1894.139)">
      <g id="Group_15877" data-name="Group 15877" transform="translate(-2 -2.506)" clip-path="url(#clip-path)">
        <path id="Path_27199" data-name="Path 27199" d="M.5,11.778V9.947A9.447,9.447,0,0,1,9.947.5h0A9.447,9.447,0,0,1,19.4,9.947v1.831" transform="translate(0.896 0.469)" fill="none" stroke="#6cddb4" stroke-miterlimit="10" stroke-width="3"/>
      </g>
    </g>
    <g id="Group_15882" data-name="Group 15882" transform="translate(700 1894.139)">
      <g id="Group_15877-2" data-name="Group 15877" transform="translate(-2 -2.506)" clip-path="url(#clip-path)">
        <path id="Path_27199-2" data-name="Path 27199" d="M.5,11.778V9.947A9.447,9.447,0,0,1,9.947.5h0A9.447,9.447,0,0,1,19.4,9.947v1.831" transform="translate(0.896 0.469)" fill="none" stroke="#6cddb4" stroke-miterlimit="10" stroke-width="3"/>
      </g>
    </g>
    <g id="Group_15881" data-name="Group 15881" transform="translate(675 1907.139)">
      <g id="Group_15877-3" data-name="Group 15877" transform="translate(-2 -2.506)" clip-path="url(#clip-path)">
        <path id="Path_27199-3" data-name="Path 27199" d="M.5,11.778V9.947A9.447,9.447,0,0,1,9.947.5h0A9.447,9.447,0,0,1,19.4,9.947v1.831" transform="translate(0.896 0.469)" fill="none" stroke="#6cddb4" stroke-miterlimit="10" stroke-width="3"/>
      </g>
    </g>
    <path id="Icon_feather-shield" data-name="Icon feather-shield" d="M18,33s12-6,12-15V7.5L18,3,6,7.5V18C6,27,18,33,18,33Z" transform="translate(665.5 1841.633)" fill="none" stroke="#6cddb4" stroke-linecap="round" stroke-linejoin="round" stroke-width="3"/>
    <path id="Icon_feather-check" data-name="Icon feather-check" d="M15.254,9,8.892,16.481,6,13.081" transform="translate(672.873 1846.019)" fill="none" stroke="#6cddb4" stroke-linecap="round" stroke-linejoin="round" stroke-width="3"/>
  </g>
</svg>
