<svg xmlns="http://www.w3.org/2000/svg" width="116.357" height="151.15" viewBox="0 0 116.357 151.15">
  <g id="italy" transform="translate(0)">
    <path id="VA" d="M298.839,372.052l-.021-.021-.019.006-.032.008-.031.05-.006.011.012.015.011,0,.05.011.038-.015,0-.012-.008-.015Z" transform="translate(-241.776 -301.079)" fill="#6cddb4"/>
    <path id="SM" d="M296.6,227.8h0l.731.082.074-.256h0l.218-.3-.061-.716-.706.473-.317.006.053.689Z" transform="translate(-240.004 -183.413)" fill="#6cddb4"/>
    <path id="FR-H" d="M107.14,295.651l.4.334-.118.317.176.349.233,1.742-.267.639-.187,1.141.721,1.244.141.527.088,1.464-.113.742.271,1.162-.052,2.09-.052.263-1.344,1.968.017.5-.162.49.09.752-.118.277.137.422-.017.693-.053.258-.277.193.16.286-.179.263-.153.261-.456-.153v.155l-.263.145.065.4.3-.393.487.176-.239.422-.681.372.107.172-.155.231.189.069-.034.212-.177.1.116.08-.542.282.04.328-.1.1.059.069.422-.315-.057.189-.378.615-.4.031-.223-.365-.622-.023.248-.63-.479-.021-.3-.16-.141-.059-.408-.164-.221-.242-.4.044-.288-.353-.143-.1-.326.084.107-.38-.313.038-.338-.155-.048-.137-.078-.334.153-.061.008-.418.139-.168.143.158.315-.244.2.019.092-.315.326-.13-.021-.134-.695-.076-.3-.223-.3.189-.067-.54-.664.256-.023-.229-.449-.015.017-.126.235.044.45-.387.052-.267.13-.195.221,0,.116-.273.046-.235-.1-.424.24-.164-.2-.359-.179.033-.2.027-.242.134L99.5,310.2l-.334.216.151-.54-.3-.4.546-.046.2-.187-.141-.216.055-.172.853-.489-.094-.208-.181.027-.187-.643-.4.155-.126-.275-.336-.176-.307.088.126-.2-.084-.107-.269.078.031-.34.235-.1-.038-.351-.145.01-.143-.29-.111-.137,1.515-.385-.338-.469-.2.042-.141-.174-.208.09-.065-.178.3-.172-.115-.223-.24-.052-.324.277-.008-.37-.143-.1.042-.151.214.135.073-.185.319-.044-.032-.4.487.013.128-.389.115-.319-.305-.128.176-.491.429-.267.12-.275-.044-.179-.116.01.191-.2.017.309.271-.134.042.164.288.073.214-.475-.084-.17.636-.078.116-.275.317,0,.113-.143.9-.019.443-.265.1-.407.153-.3.38-.223.416-.067.3.158.233-.141.1.2.25.034.111.218.153.344.135-.017.45-.786-.023-.783-.324-.508.3-.435-.179-.454.386-.319-.12-.073.1-.206-.181-.653.168-.176.624-.063Z" transform="translate(-79.768 -239.277)" fill="#6cddb4"/>
    <path id="MT" d="M389.686,756.121l.057.1-.254.2.454.042-.118.269.439-.183-.04.149.122-.084.573.328-.055.092.242.145-.155,0-.017.174.227-.118-.195.284.262-.218.42.294-.082.638-.137-.237-.193.176.212.078-.189.141-1.063-.229-.844-.637-.08-.3.124-.013-.076-.177.115-.147-.158-.109.128-.145-.05-.183-.172-.025.1-.183Zm-.307-.3.126.135-.26.061-.015-.172Zm-1.019-.737.744.269.254.322-.731.25-.712-.273-.034-.485Z" transform="translate(-313.911 -611.023)" fill="#6cddb4"/>
    <path id="IT_65" d="M337.235,303.837l.26,1.21.427,1.052,1.2,2.134,1.338,1.471,1.573,1.174.166.445.7.674.063.258,1.061.706.985.349.04.926.655.464h0l-.223.353.174.16-.542.374-.439.542-.157.592-.45.317-.328.712-.909.979-.389-.071.151-.122-.2-.819-.21-.2-.466-.309-.2.252-.109-.042-.187-.418-.237.025-.179-.24-.555.454-.273.424-.424.029-.08.172.239.678.29.17-.08.2-.162-.025-.048-.193-.128.237-.38.01-.12.5-.151-.4-.221.017-.166.458-.254.009-.053.279-.357-.187-.4.1h0l-.475-.624-.374.036-.458-.269-.2.124-.254-.076-.334-.632-.252.139-.2-.225-.34-.093-.2.4-.773.258-.282-.178-.139-.345-.351-.082-.282-.273-.33-.134-.267.26-.191-.693.244-.437-.191-.269-.193.034-.378-.435-.172.071-1.46-.857-.387-.137,0,.237-.454-.122-.269-.429.029-.939.149.069.4-.34.01-.456.33-.025,1.252.674.237-.147.323.118.2-.426.286-.055-.1-.135.349-.063L331.6,313l-.057-.311-.464-.16-.492-.485-.124-.626-.714-.473.4-.445-.761-.714.607-.462-.019-.454-.191-.355.2-.111.145-.527.525.2.116-.139h.258l.111.187.286-.147.431.059.258-.223.145-.655-.38-.12-.219-.261.1-.321h0l.317.092.359-.254.109.088.115-.452.452-.074.057-.475.256-.284.046-.275.4.216.452-.212.128.179.258-.032.384-.179.088-.422.13-.073.531-.034.4-.269.952-.2h0Z" transform="translate(-265.864 -245.863)" fill="#6cddb4"/>
    <path id="IT-77" d="M448.788,425.674l-.063-.235.256-.235.372-.073.888.149.479-.172.277.2.322-.174-.031-.181.319-.082-.034-.145.156.055.271-.162.439.315.332.057.046.2.241.057.116.449.118-.08.351.286-.122.2.057.3-.342.391-.288-.052.116.216,1.067.454.3.288.408-.374.382.124.561,1.233,1.252,1.155.149.332.292.08.664-.771.389.472-.011-.361.185-.05.162.254.021-.332.323.139.193-.122.032.189.223.134.1-.141.557.424-.2.1.233.269-.172.691.176.391-.12.088-.082.552.183.193-.084.155.221.168-.183.4.164.179.324-.082.338.2.071.309.332.281.149.355h0l-.752,1.076L460,437.378l-.437.319h0l-.519-.181-.6.185-.588-.195-.365.071-.126-.212-.12.281.042.542-.2.424.05.382-.582,1.038.212.218-.084.252-.408-.456-.382-.034-.559.126,0,.334-.531-.242-.2.206-.916.05-.3-.332.071-.118-.162-.305.237-.426-.221-.061-.284.162-.132-.183-.353-.057-.273.235-.118-.166-.178.094-.172-.179-.321.034-.448.483-.181.5h0l-.342-.677-.4-.366-.027-.282-.321-.187h0l.323-.193-.242-.263.231-.065.3-.4-.061-.555.309-.315-.027-.191.662-.282-.1-.235.178-.158-.008-.271-.116-.219-.559-.162-.027-.252-.313-.288-.01-.489-.4-.145-.305-.408-.393-.2-.092-.33-.414-.326.137-.206-.258-.613.134-.156-.83-.5.139-.385.315-.193.012-.155-1.132-.735.032-.926-.156-.013.042-.225-.393-.242.4-.029.023-.409-.195-.1.082-.126.914.206.122-.067-.044-.221.565-.246.431-1.12Z" transform="translate(-361.545 -343.633)" fill="#6cddb4"/>
    <path id="IT-78" d="M463.229,494.177l.181-.5.449-.481.321-.034.172.177.177-.093.118.166.273-.235.355.057.132.183.284-.162.221.059-.237.426.162.305-.071.118.3.332.916-.05.2-.206.531.24,0-.334.559-.124.382.034.408.454.084-.252-.21-.218.582-1.038-.052-.384.2-.422-.04-.542.12-.279.126.21.365-.071.59.195.6-.185.519.181h0l-.365.466-.065.5.26,1.105-.878,1.113-.477.884.008.557.384.443-.1.66.969.575,1.534.023.9,1.017.9.548.662.17.149.393.408.393.748.258-.45,1.122-.048.7.414.607-.374,1.25.275.359-.059.181.137.218.584.277-.412.374.048.534-.729.763L476.3,507l-.269-.1-.4.145-.408-.414-.9.141-1.092.407-1.67,1.034-.7,1.25.22.389.25,2.607-.088.538-1.078,1.122-1.382.584-1.527,1.931-.193,1.294-.485.922-.323.4-.637.1-.769-.18-1.563.147-.809-.46-.414-.777.2-.29-.242-.647.24-.554-.214-.641.01-.519.783-.321.361-.011.492-.279.239-.414.088-.607.22-.2.153-.523.281-.256.139-.37.143-.929-1.015-.908.092-.347.345-.328.805-.267.332-.349.47-.057.653.195.33-.1.462-.363.378-1.237-.055-.977-.59-.286-.576-1.065-.309-1.388-.149-2-.525-1.731-.7-1.088-.5-.361-.4-1.4-.174-.143-.267-1.678-.183-.323.219-.37-.372-.783Z" transform="translate(-373.909 -397.651)" fill="#6cddb4"/>
    <path id="IT-72" d="M370.788,411.671l.384.046-.132.176-.559.078.025-.311Zm-3.494-2.571.842.229.1.147-.132.4-.538.006-.059.115-.378-.2-.008-.357Zm1.069-9.1.29.147-.053.29.393.468.41-.092.248.164-.052-.462-.261-.319.42-.769.437.365.074-.263.658.011.04.162.338,0,.051.195.387.208,1.529.447.073.3.227.174.637-.1.233.336.418-.372.2-.011-.008-.179.376-.046.179.141.359-.111.328-.551.765.324.3-.3.506-.042.569-.4h0l.345.542.546.153.036.153-.156.149.1.229-.2.034-.16.223.118.5.567.2.04.414.653-.027.2.282.309-.061.24.273-.307.195.162.454-.385.229-.155.38.3.147.139.361.384.275.21-.172.54.227.324-.246.4.344.3-.027.687.344h0l.261.758-.431,1.12-.565.246.044.221-.122.067-.914-.208-.084.128.195.1-.023.41-.4.029.393.242-.042.223.158.013-.032.926,1.132.735-.012.155-.317.191-.139.386.83.5-.132.157.258.613-.137.206.412.326.094.33.393.2.305.408.4.145.009.489.315.288.027.252.559.162.116.219.008.273-.178.158.1.235-.662.281.027.191-.307.315.061.555-.3.4-.229.065.242.261-.324.193h0l-.164-.374-.531-.073-.683.18-.809.929-.647-.109-.387-.378-.422.105-.036-.12.164-.124-.132-.426-.632-.607-.283-.042-.479-.578-.893.012-.506-.63-.7-.218-.118-.2.378-.286.019-.765.5-.286,0-.561-1.155-2.4-1.017-1.069-.521.08-.26.406-.637-.185-.517.458-.449.078-.464-.254-1.538.739.149-.782.6-.12.082-.281.683-.469-.206-.6-.592-.187-.676-.742-.527-.351-.506.212-.351.454-.28-.042.149-.073-.136-.195-.639-.183-.21.149.162.513-.429-.145,0-.863-.214-.75-.506-.807-.011-.029-.46-.5-.267-.922-.679-1.111-.609-.613h0l.1-.252.573-.111.1-.147-.124-.046.019-.2.594-.212-.2-.853.156-.286-.252-.424.41-.071.582-.529Z" transform="translate(-296.426 -323.249)" fill="#6cddb4"/>
    <path id="IT-45" d="M167.061,160.423l-.223.59.044.788-.481.189-.1.4-.557-.069.036-.2-.153-.059-.132-.479-.519.216v-.408l-.433-.252h0l.216-.3-.061-.716-.706.473-.317.008.053.687h0l.231.424-.309,0-.065-.157-.38.151-.193.662-.5.4-.038.414h0l-.008-.006h0l-.313.17-.387-.071-.158.376-.3-.441-.275.153-.269-.031h0l-.328.172-.212-.242h0l-.176.048-.279-.172-.2.08h0l-.311-.2-.04-.185h0l-.258-.034-.1-.246-.889-.04-.382-.46-.683-.382.052-.584-.347-.233.063-.311-.414-.4.048-.219.128.017-.038-.208.321-.122.082-.38.387-.418.065-.513-1.044.21-.506-.069.277-.4-.036-.2-.5-.1-.2.191-.229-.05-.33-.376-.265-.073-.065-.408-.254-.229-.469.456-.475.05-.038.2-.435.4-.761.027-.021.179.559.324.048.206-.485.031-.59-.17-.637.277-.527-.061-.3-.219.118-.2-.076-.174-.928,1.042-.126-.057.061-.181-.13-.174-.435-.1-.949-.769-1.063-.025-.191.235.013.258-.319.08-.653-.582-.046-.3-.332-.305.01-.263-.233-.128-.319.055-.563-.58-.305-.006-.418-.235-.454.227-1.074-1.136-.466.1-.817-.561-.216-.24.1-.5-.2-.04-.1-.237-.464-.166-1.021.113-.651,1.025-.687.4h0l-.271-.634-.515-.38-.2.124-.269-.166-.067.183-.531.052-.179.216-.05-.223-.315.074.294-.861.252-.04.092-.653-.164-.4-.616-.212-.151-.33-.466.342-.6-.487-.084.2-.4-.067.065-.16-.113-.12-.431.084h0l-.006-.97.094.036h0l.334-.021-.061-.386.25.479.616-.162-.136-.265.17-.2-.029-.233-.332-.178-.057-.21.735-.741-.2-.62-.185-.157-.139.076-.334-.307.239-.313-.115-.195.317-.08.261-.773.313-.334-.023-.416.391-.351-.021-.128.235.034.061-.155.542-.137.3.355.216-.2-.12-.521.139-.023.305.408.244-.1.124-.365.176.239-.029.477.8.342.309-.271.1-.193-.143-.208.166-.052.158.294.353.181.071.355.177-.613.191.006.193.282.168-.074.038-.221-.216-.3.343-.279.139.116-.073.418.55-.422.17.017.359.468-.084.284.29.235.013.233.284-.067.153.332.636-.3.1.178.424-.011.573.452.305.008.54.433.468-.256.281.557.872.426.752-.032.277-.16.546-.786.086.309.344-.4.185.6.842.137.143.151.168-.031.015.143.256-.032-.038.111.279-.172.258.042.044-.219.443-.227.6.05.177-.151.506.122.233.3.1-.124.742-.059.069-.126.282.2.319-.3,1.189.176h0l.031.284,1.088-.071.4.269.082.309.136.048.237-.023.386-.363.609-.17.141-.424.557-.26,1.2.015.422-.149,1.279.2.437.588.282-.185.155.2.41.032.279-.246.206,0,.158.206-.12.237.063.552.122.181.38.1.115.416h0l-.124.032-.227-.351-.227-.069-.33.435.24-.1-.317.834-.113.95.092.632.374.731-.021,1.687.338.908.04.647.391,1.365.336.674,1.281,1.492.481.323,1.139,1.227.533.195Zm-5.615,2.159-.052.216.261.3.416-.214-.057-.21h0l-.04-.09Z" transform="translate(-107.134 -116.926)" fill="#6cddb4"/>
    <path id="IT-36" d="M296.921,33.755l.368.122v.273l.134.071.784-.057,1.174.227.37-.1.8.195.7.527.324-.136.487.136.225-.244.254.029.021-.174.351.1-.019.153.183.059.744-.134.147.275.422-.063.114.195.458-.055.95.3-.286,1.164-.363-.124-.557.141-.261.544-.931.527-.3.013,0,.51-.641.4.471.872-.111.326.349-.034-.013-.176.345.011.189.136.273-.046.3.2.122.282.611-.1.271.155-.2.615-.681.658-.72.456.057.433-.3.307.582.544.313-.044.254-.284.492.065-.053.664-.6,1.157.2.622.254.17.454-.073.76.643.481.128.687,1.2.532.387-.786.7-.412.027-.471-.248-.286.071-.017-.177.149-.08.517.162.231-.183-.273.01-.088-.3-.193.042-.113-.126.235-.179-.137-.393-1.174-1.258-.477-.139-.216.071-.107-.153-.261.282-.036.317.336.271-.641.309-.153-.052-.4.393-.462.044-.979-.527-.351-.057h-.059l-.017-.013-.807.214-.55.844h0l-.2-.115.023-.116-.187.023.032-.252-.193-.153.071-.153-.151-.038-.109-.51-.185.136.067-.223-.124-.248.094-.05-.388-.368.208-.122-.157-.065.034-.157-.074-.071.008-.059-.111-.3-.113.046.086.271-.3.1-.094-.208-.29.179L297.6,45.1l.076-.21-.122-.013-.414.208-.1.2-.12-.139.082-.191-.216-.16-.378.4-.128-.128-.741.685-.009-.309-.214-.1-.023-.17-.237-.126-.13.307-.382-.2.042-.229-.265-.24-.24-.865-.282,0-.2-.288-.273-.008,0-.662-.135-.5-.176-.153.338-.536.553-.374.086-.683-.462-.372-.057-.407-.349.019-.05-.3-.4,0-.4-.544.344-.359-.008-.38.2-.16.365.052.063-.386.349-.178-.034-.115.115.052-.061-.263.382-.336.053-.334.282-.389.078.082.3-.239.353.151.2-.151.347.149-.074-.332-.235-.153.023-.179.66-.416.487-.011-.168-.221.134-.433-.185-.317.036-.344h0l.315-.174Z" transform="translate(-236.549 -27.264)" fill="#6cddb4"/>
    <path id="IT-62" d="M262.418,332.864l-.048.252.109.036-.191.219-.034-.538.427-.193Zm9.85-7.508.193.162-.145.248-.143-.006-.58.529-.41.07.252.424-.155.286.2.853-.594.214-.019.2.124.046-.1.147-.573.111-.105.252-.536-.385-.233.115-.536-.219-.563.317.021.279.172.115-.389.013-1.706-.994-.828-.2-.313.191-.443-.023-.557.177-.632.6-.46-.036-.559-1.284-.7-.742-.687-.38-.643-.065-.155.12-.92-.617-.324.053-.027.135-.166-.071-.634-1.118-1.351-1.613-.7-.6-1.185-.54L254.981,321l-.6-1.1-.922-.54-.248-.37-.489-.187-.109-.231-.447-.282-.815.12-.319-.742-.58-.765-.034-.359-.4-.815-.429-.6-1.038-.846-.979-.468.355-.792,1.3-.015-.017-.655-.532-.365.261-.37-.086-.336.118-.063.218.2.128-.17.155.044.332-.168.04-.206.286-.212.246.048.174-.408.262.036.267-.176-.015-.206-.2-.092-.078-.5.235,0,.2-.45-.721-.565.221-.466.231.09.134.252.1-.384.311-.2.473.027.309.742.531.344-.193.378-.353.2.246.4.79.489.7-.25.193.2.023-.143.128.042.263-.227.311.13.319.393.105.853.319.149-.04.374.2.162-.143.128.29.153-.132.088.357-.04.235.24.382-.309.281.031-.048.355.141.13-.13.044,0,.393.437.153-.185.271.695-.1-.01.321.166.191.826-.641.042-.74.227-.015.17.355.231-.01.571-.376-.261-.389.584-.168.032-.254.391.019.353-.311.4-.128-.118-.487.111-.223.386.189.153-.185.62.008.135-.292.393.206.534-.328.01-.149.309.122.254-.244.143-.849.626.151.1-.223.208-.019.7.6-.1.323.22.26.38.12-.145.657-.258.223-.431-.061-.286.147-.111-.185-.258,0-.116.139-.525-.2-.145.527-.2.109.191.355.019.454-.607.462.761.714-.4.447.714.471.124.628.492.485.462.158.057.311.37.233-.349.063.1.134-.284.055-.2.426-.323-.118-.237.147-1.252-.674-.33.025-.01.458-.4.34-.147-.069-.029.939.267.429.456.122,0-.237.387.137,1.46.857.17-.071.378.435.195-.036.191.269-.244.437.191.693.267-.26.33.134.282.273.351.082.141.345.282.177.773-.26.2-.4.338.094.2.225.254-.139.334.632.254.076.195-.126.458.271.374-.036.477.624.38.328.267.685.019.261-.13.122.262.288-.042.181-.162.034.233.2Zm-14.82-5.323-.008-.015,0-.034-.021-.021-.017.006-.032.008-.031.05-.006.011.013.015.011,0,.05.011.038-.015Z" transform="translate(-200.38 -249.011)" fill="#6cddb4"/>
    <path id="IT-42" d="M68.008,186.181l-.076.189-.118-.189Zm-20.961-.223.151.052.3-.319-.25,0-.174-.275.09-.294.37-.2,1.718.55.313-.166.374.132.084-.139-.107-.166-.25-.116.351-.29.292.195.271-.093.225-.294-.01-.37-.279-.244.139-.324-.164-.21.239-.235-.242-.25v-.191l.082-.1.279.124.057-.414.246.031.187-.307-.046-.38.609-.336.143-.368-.261-.626.263-.086-.008-.363.3-.237.187.292.353.036.588.5.25-.136.107-.42.155-.073.281.2.218-.326.067.164.611-.023.191.143.523-.578-.151-.174.235-.368.679.038.309.046.342.561-.057.172.164-.008.073.42.242-.088-.069-.282.332-.279,0-.281.435-.055.168.225.275-.147-.057-.71-.275-.3.3-.24.122-.317.307-.046.137.195.435-.048.305.655.275-.055.279.162-.01.282.311.231.672-.279-.011-.279h0l.431-.084.115.12-.065.16.4.067.084-.2.6.487.466-.342.151.33.616.212.164.4-.092.653-.252.04-.294.861.315-.074.05.223.179-.216.531-.052.067-.183.271.166.2-.124.515.38.271.634h0l.252-.036.193.492.769.6.494.2.017.49.155.134-.082.521.4-.334.281.195-.143.011-.237.378.75-.025.038.45.179.265-.094.235.34-.286.452.281-.052.263-.424.487h0l-.3-.052-.227.166-.563-.42.01-.176-.258,0-.38-.382-.246.151.248.309-.046.113.143-.025-.2.267-.908-.594-.363-.469-.466-.244-.214.157-.258-.489-.389-.172-.174-.323-.4-.153-.177-.271-.45-.015-.267-.277-.126.09-.309-.532-1.342-.756-.208.2.023.46-.695-.323.1-.34-.132-.183-2.036-.515-.124-.2-.113.084.078.128-.866-.235.223-.04-.176-.071-.454-.021.052.1-.393-.092-.4.153-.292.281-.349.067-.281.294-1.134.576-.147.193.134-.027-.573.525.145.193-.366.487.073.389-1.527.763-.38.66-.052.637-.6.674-.042.269.141.26-.819.552-.174.319-.441.1-.8.525-.847.172-.275.231-.294-.088-.636.374-.345-.057-.292.3-.9-.2-.237.193-.195-.042-.41-.987.017-.294.143-.179.468-.143.073-.6.834-.437.151-.334-.048-.4.414-.177.055-.33Z" transform="translate(-36.422 -143.749)" fill="#6cddb4"/>
    <path id="IT-25" d="M113.439,34.712l.1.111-.174.275.05.214.4.073.092.3.428.113.126-.193.426.168.21-.092.365.282h0l.219.515.72.057.5.338.2.26-.044.418.16.265-.284.3-.376.021-.492.487.5.242.115.386-.17.242.155.09.1.408-.435.794.2.3-.179.845-.636.777.069.363-.227.179-.109.349.01.191.332.061-.031.387.248.38-.174.4.1.823.429.181-.135.261.08.166.252.025.408-.254.378-.013.09-.41.765-.155.242.187.074-.164.758.147h0l-2.117,3.149.216,2.243-.076.378.16.034.134-.155.469.216-.183.49.183.143-.248.187.191.284-.13.365.284.074.1.189.46-.382.374.368.214.449.5.113.021.13.349.092-.019.248.548.248.153.233-.073.326.307-.061.166.1-.183.359.443.372.229.042.046-.242.26.139.177-.321.573.214-.242.195.078.193-.113.309.6.221.273-.162,0,.469,1.523.817.044.2h0l-1.189-.176-.319.3-.282-.2-.069.126-.742.059-.1.124-.233-.294-.506-.122-.178.151-.6-.05-.443.227-.044.221L120,58.406l-.279.172.038-.111-.256.032-.015-.143-.168.031-.143-.151-.842-.136-.185-.6-.344.4-.086-.309-.544.786-.277.16-.752.032-.872-.426L115,57.588l-.468.256-.54-.433-.305-.008-.573-.452-.424.013-.1-.176-.636.3-.151-.33-.284.067-.013-.233-.29-.235.084-.284-.359-.468-.17-.017-.55.424.073-.418-.139-.116-.344.279.216.3-.036.221-.168.074-.193-.282-.191-.006-.177.613-.071-.355-.353-.181-.157-.294-.166.052.143.208-.1.193-.309.271-.8-.342.029-.477-.176-.239-.124.365-.244.1-.305-.408-.139.023.12.521-.216.2-.3-.355-.54.137-.061.155-.235-.034.021.128-.389.351.023.416-.311.334-.261.773-.317.08.115.195-.239.313.334.307.139-.076.185.157.2.62-.735.741.057.21.332.177.029.233-.17.2.135.267-.616.164-.25-.479.061.386-.334.021h0l-.071-.544.12-.382-.433-.321-.09-.559-.519.143-.086-.149-.279-.023.023-.179-.221-.223.179-.193-.139-.378-.195.023-.321-.284-.3-.487.046-.33-.139-.246-.09-.084-.252.118-.246-.334-.055-.611-.555.044-.309.307-.313.034-.048.2-.244-.032-.032-.191-.214.031-.074-.221-.088.336-.634-.366-.055-.672-.271-.248.067-.248-.214-.059-.113-.284-.273-.082-.1-.187.342-.49-.414.183-.1-.074.227-.082-.239-.223.179-.162-.109-.078.24-.031-.307-.1,0-.094.185.025-.059-.338-.384-.2.139-.284.258-.088-.114-.342.286-.263.225.191.531-.021v.174l.216.141.094.487.281-.021.21-.113.107-.4.359-.229-.414-.443.288.053.223-.153.3.084.407-.206-.177-.532-.17.011-.22-.744-.67-.345L98.21,49.4l.084-.326-.368-.313-.061-.24.29.059L98,48.226l.071-.191-.387-.076.1-.508-.582-.174-.386-.729.011-.284.4-.449-.244-.945L98.522,43.2l-.193-.868.12-.307h0l.231-.254.162.267.24.124.233-.1.45.368.006.212-.2.12-.473.847.449.006.37.389.271.063.008.321.471.931-.334.5.443-.166.4.149-.065.191.445.015.141-.7.389-.414-.141-.019-.157-.305-.393-.1-.05-.431-.233-.134.361-.33-.216-.624.1-.2.578-.208.115-.311-.151-.462.462-.227.408-.466.2-.013.387-.9.279-.029.032-.456.447-.834-.021-.391-.206-.231.052-.616-.317-.4.256-.218.034-.552.84-.189.118.342.359.25.24-.458.277-.135-.046.279-.132.05.187.113-.023,1.46.361.12.191.574.29.347.088-.073.739.3.408-.231.344.145.269-.817.4.21,1.263-.645.183.21.265-.191.431.391-.147.41.2.128-.023.418.557.284-.1.489.233.162.21-.147.311.055.527-.45-.208-.5-.489-.571.025-.286.206-.132.1-.338.227-.046.04-.29-.172-.038-.069-.237-.6.1-.4-.33.134-.288-.109-.2.116-.574-.1-.284.55-.594.019-.414.269.073.578-.3.25.122.235-.237.09.221Z" transform="translate(-77.98 -27.96)" fill="#6cddb4"/>
    <path id="IT-57" d="M299.456,233.861l-.529-.307-.225-.443-.4-.33-.16.29-.393-.048-1.443-.8-3.911-3.43-1.048-.553-.464-.046h0l-.223.59.044.788-.481.189-.1.4-.557-.069.036-.2-.153-.059-.132-.479-.519.216v-.408l-.433-.252h0l-.076.258-.729-.082h0l-.008-.019h0l.231.424-.309,0-.065-.157-.38.151-.193.662-.5.4-.038.414h0l.025.019h0l.41.164.437.588-.4,0,.057.416-.176-.012-.116-.71-.084.6-.235.126-.279-.053.038.155-.179.2-.441.158.277.426h0l.136.223.59-.008.067.107.4-.321.359-.023-.1.149.092.275-.557.515.26.271.273-.139.242.33.271-.4.189.025.158.271.176.01.055-.164.174.08,1.214,1.391.407-.246.426.157.252-.513.4.107-.071.384.172.16-.344.323.01.16.433.565.073.555-.118.134.359.256.128.653.265.132-.027.553-.309.3.128.294.4.08.109.326-.046.529.143.4-.166.126.179.372-.107.284.513.307.038.166.212.025.023.771.231-.259,0-.326.248.147.267-.265.575.439.477.752.51-.116.239-.347.269.691-.048.347-.176.363-.073-.147-.366.149-.048.382h0l.626.151.1-.223.208-.019.7.6h0l.319.094.359-.254.107.088.115-.454.452-.074.057-.475.254-.282.048-.277.4.218.45-.212.128.181.258-.032.384-.179.088-.422.13-.073.531-.036.4-.269.952-.2h0l-.42-1.279-.294-1.552-2.149-5.327.032-.62Zm-11.676-.618-.141-.05h0l-.036-.011h0l.061-.134.109.063h0l.019.1h0Z" transform="translate(-230.957 -184.692)" fill="#6cddb4"/>
    <path id="IT-67" d="M383.815,361.016l1.038.551.952.178.758.828.6.235h0l.04.624-.406.586.157.559-.183.3.191.233-.143.1.191.284.355.162-.391.195-.13.286-.147-.147-.006.156-.4.174-.252.462-.618-.286-.239.29.174.153-.135,1.065.3.128.38.439h0l-.569.4-.506.04-.3.305-.765-.326-.328.554-.359.111-.179-.141-.376.044.008.179-.2.013-.418.372-.233-.336-.637.1-.227-.174-.073-.3-1.529-.447-.387-.208-.05-.193-.34,0-.038-.16-.659-.013-.074.263-.437-.365-.42.769.263.319.052.462-.248-.164-.41.092-.393-.468.053-.29-.29-.147h0l.145-.246-.193-.162.546-.393-.233-.2.162-.034.04-.181-.261-.288.13-.12-.019-.262-.267-.685-.38-.328h0l.4-.1.357.187.053-.279.254-.009.166-.458.221-.017.151.4.12-.5.38-.01.128-.237.048.193.162.025.08-.2-.29-.17-.239-.678.08-.172L378,363.9l.273-.424.555-.454.179.24.237-.025.187.418.109.042.2-.252.466.309.21.2.2.819-.151.122.389.071.908-.979.328-.712.45-.317.156-.592.439-.542.542-.374-.174-.16.223-.353h0Z" transform="translate(-303.894 -292.106)" fill="#6cddb4"/>
    <path id="IT-21" d="M18.048,47.141l.3.3-.118.29.141.376-.069.9-.372.487.286.475-.126.225.271.242.582.191.42.761.282.12-.059.2.145.263.345-.011.386.3.313-.025h0l-.12.307.193.868-1.536,1.672.244.947-.4.448-.011.286.386.729.582.174-.1.506.387.076-.071.191.155.353-.292-.061.061.242.368.311-.084.326.246.939.67.345.219.744.17-.011.177.532-.407.206-.3-.082-.223.153-.288-.055.414.443-.359.229-.107.4-.21.113-.281.021-.094-.487-.216-.141,0-.174-.531.021-.227-.191-.284.263.115.342-.26.088-.137.284.384.2.059.338-.187-.025,0,.092.309.1-.24.031.109.08-.181.162.239.223-.227.082.1.074.414-.183-.342.49.1.187.273.084.113.284.214.059-.069.248.273.246.055.674.632.365.088-.334.076.219.214-.031.034.193.244.031.048-.195.313-.034.309-.307.555-.046.055.613.246.334.252-.118.088.084.139.246-.046.33.3.487.321.284.195-.023.137.38-.179.193.221.223-.023.179.277.025.086.149.519-.143.09.559.433.321-.118.382.071.544h0l-.1-.036.006.97h0l.011.277-.672.281-.309-.231.01-.282-.279-.162-.275.055-.305-.655-.435.048-.137-.195-.307.046-.12.317-.3.24.275.3.057.71-.275.149-.166-.227-.435.057.006.281-.332.279.069.282-.242.09-.074-.42-.164.006.057-.172-.342-.561-.309-.044-.678-.04-.235.368.151.174-.523.58-.191-.143-.613.023-.065-.164-.218.326-.281-.2-.153.073-.107.42-.25.135-.588-.5-.353-.036-.187-.29-.3.237.008.361-.263.088.261.624-.143.368-.607.336.044.382-.187.307-.246-.031-.057.416-.279-.124-.08.1v.191l.242.25-.239.235.164.21-.141.326.279.242.01.37-.225.3-.271.094-.292-.195-.351.288.25.118.107.166-.082.139-.376-.132-.311.168-1.718-.55-.37.206-.09.294.174.275.25,0-.3.319-.153-.052h0l.011-.284-.466-.628.172-.594-.473-.019-.168.365-.553-.092-.989.418-.3-.067-.061.248L7.8,79.574l-.349.132-.137-.416-.622.073-.347-.422-.254.042-.3-.443-.252-.084-.181.1-.58-.393-.511.074-.24-.164-.118-.6-.372-.216.034-.195-.321-.3-.044-.256-.347-.158.053-.807.546-.107L2.77,74.74l-.214-.693.216-.324.305-.032.225-.221.168-.607.177-.015-.187-.458.136-.33.246-.187.874.055-.092-.359-.353-.208-.1-.615-.2-.221.221-.471-.164-.218-.683-.315-.248.248-.458-.088-.588-.4-.031-.17-.483-.189.038-.4-.111-.067.206-.294L1.4,67.749l.132-.1-.065-.221-.693-.078-.118-.716-.176-.05L.31,66.161l.454-.282.076-.206.605.034.25-.3.779.326.017.122.431-.132,0-.439.513-.019.08-.288.46-.4.246.04.235-.141.185.216.408-.5.139.019.1-.5-.242-.626.187-.034.078-.294.252-.132,0-.281L5.807,62l-.714-.384-.118-.468h0l.338-.679.069.544.172-.13.586.2.456-.574.534-.013.359-.17.183.128.676-.542.177-.3.235-.074.353.09.4-.216.384.239.025.166.269-.126.376.248.443-.073.13.116.933-.662.5-.038.193.124.139-.58.229-.046-.347-.712.317-.54-.069-.229-.309-.115-.326-.592.134-.964-.134-.775h0l.137-.13.019-.693.281-.3.792.023.212-.223.023-.29.221-.158-.128-.4.1-.38.71-.166.107-.273.365-.191-.023-.284.151-.218-.261-.626-.281-.345-.326-.153.609-.605.277.084.418-.166.141-.368.366-.162.006-.258.454-.189.09-.286-.277-.134.149-.237.191-.015.38-.366Z" transform="translate(-0.31 -38.195)" fill="#6cddb4"/>
    <path id="IT-75" d="M436.921,369.181l.735.143.937.714-.128.294.24.456-.015.305-.074.376-.26.259-.9.6-.055.206-1.6,1,.029,1.086.477.9.66.479,1.788.828.569.447,1.546.582,1.609.971,1.9.6.317.273.344.01.086.143.179-.078.048.139.8.347,1.307.427,1.84,1.2.693.845.382.174.87.819,2.254.9,1.183.821,1.071.128.214.353-.094.162.685.023-.063.208.3.368-.1.389.429.531.454.414,1.122.626,1.79,1.92.382.851-.044.336.3.691.271.166-.1.092.113.315-.328.3-.094.454-.38.263-.275.6-.168.87.006,1.145-.212.3-.231.061-.731-.565-.973-.2-1.227-1-.519-.9.231-.1-.034-.372-.4-.214.288-.212.078-.477-.88-1.094.063-.365-.195-.418-.481-.4-1.731-.254-1.676.13-.6-.435-.515-.055-1.657-.958-.214.006.057-.174.366-.16.042-.283-.258-.313-.437.021-.111-.309-.544-.2-.729.109-.668.363-.681.6-.406.67h0l-.149-.355-.334-.281-.069-.309-.338-.2-.324.084-.164-.181.183-.4-.221-.168.084-.155-.183-.193.082-.552.12-.088-.176-.393.172-.689-.233-.269.195-.1-.557-.424-.1.143-.223-.134-.032-.189-.191.122-.323-.139-.021.332-.162-.254-.185.05.013.361-.389-.471-.666.771-.292-.08-.147-.332-1.254-1.153-.561-1.233-.382-.124-.406.374-.3-.288-1.067-.454-.115-.216.288.052.344-.391-.059-.3.122-.2-.351-.286-.116.08-.116-.449-.24-.057-.046-.195-.332-.057-.439-.315-.271.162-.155-.055.034.145-.319.082.029.181-.321.176-.279-.2-.479.172-.887-.149-.37.073-.258.235.063.235h0l-.687-.344-.3.027-.4-.343-.324.246-.54-.227-.21.172-.384-.275-.139-.361-.3-.147.157-.38.386-.229-.162-.454.307-.195-.24-.273-.309.061-.2-.283-.653.027-.04-.414-.567-.2-.118-.5.16-.223.2-.034-.1-.229.156-.149-.034-.153-.544-.153-.346-.542h0l-.38-.439-.3-.128.137-1.065-.176-.155.239-.29.618.286.252-.46.4-.174.006-.158.147.147.13-.286.393-.195-.355-.16-.191-.286.141-.1-.189-.233.183-.3-.156-.559.406-.584-.04-.624h0l1.991.122.239.195.609.023,1.9-.353.643.181.788-.04,2.424-.439Z" transform="translate(-345.039 -298.773)" fill="#6cddb4"/>
    <path id="IT-88" d="M80.02,443.224l.1.183.431-.124.4.681-.218,1.073-.3.17-.534-1.021-.107-.544.216-.418Zm-.609-.865-.025,1.042-.309.073-.258-.181.01-.323-.294-.174.466-.427.41-.01Zm13.932-22.106.1.1-.475.3-.1-.078.527-.433Zm-14.719-.742-.107.109-.011-.191Zm.918-1.842.052.216.237.158-.139.141-.032.374-.521-.242-.416.578.126-.036.157.309-.09.262-.439-.055.189-.471-.12-.017.031-.214.282-.118.166-.305.183-.021-.1-.372Zm11.268-1.59.164.292-.237.4.164.044-.439.067.208-.825Zm-1.284-.124.185.116-.2.179Zm-1.082-.088.481.4-.143.359.2.212.468-.032.052-.244.239-.027.1.347.109.029.378,0-.187.242.24.042.172.263-.032.557.284-.431-.053-.22.475.027.059-.22.176.237-.107.063.187.011-.052.235.254-.011.05.214-.191.29-.1-.128-.074.071.055.275-.158.1-.147.569.147-.008.032-.258.336-.1-.1.429.252.011-.008-.156.088.057.094-.151.678.349-.134.141-.414-.212-.263.227.111.2-.246.33.063.177-.519-.076-.174.078.172.09.4.009.164.067-.073.078.185.218.282-.391.24.046-.282.359.428.212-.1.26.319-.071.4.277-.139.107-.191-.069-.078.185.109.147-.168.088-.027.24.45.447-.031.519.382.479-.116.489.122.487.351.328.053.345.317.2-.6,1.75-.752.641-.618,1.057v.655l.261.773.386.517.393.229,0,.317-.452,1.111.031.4.235.059.04.143-.349.353.141.605-.261.891.086.889-.313.769.1,1.052-.239.847.137.511-.471,1.431.059.4.282.231-.3.1-.2.313-.191.884.162.244-.206.569h-.195l-.176.216.025.248-.191-.16v-.277l-.181-.069-.462.157L89.087,442l-.847-.177-.407.246-.092.326L87.253,442l-.407.179-.485.6-.01.792.281.391-.239.9-.1-.105-.139.071L84.8,446.2l-.24-.01-.191-.25-.124.162L84,445.712l-.531-.3-.032.2-.527.13.055.2-.208.1.1.254-.164.055.055-.384-.391.021.139-.63L82,444.917l-.082-.813-.317-.183-.557-.011.088-.353-.136-.3-.122-.114-.21.113-.008-.555L80,441.991l-.019-.187.571-.534.1-.263-.147-.517-.263-.093-.038-.326-.156-.13.378-.6-.01-.225-.284-.187.04-.191.651-.962.174-.7-.21-.41.084-.385-.118-.216.1-.305-.1-.636.13-.16.34.586.149-.012.065-.4.309-.527.076-.817-.29-.529-.46-.029-.365.374-.418-.4-.048-.857.2-.563-.347-.2.248-.206.1.134.408-.126.351-.374.015-.288-.338-.939.254-1.4-.225-.431-.378-.219-.372-.021-.034-.275.218-.641-.273-1.027-.345-.122-.37-1.153-.517.1-.027.176-.389.01,0-.336.143-.1-.208-.218-.345.544-.107-.034-.055-.571.391-.179.206-.607-.3-.128-.412-.469.334-.449-.053-.37.26-.225.351-.966-.458-.637.267-.458.328.237-.048.546.788.845.582.116.435-.073.37.271,1.038-.153,1.3-1.053.956-.141.79-.9-.021-.25.588-.353.784-1.065.315-.17.124.139.494-.1.116-.265.321-.013.156-.176-.145-.365.128-.416-.246-.042.029-.179.2.135.275-.147.011.176Zm1.847-.126.279.45-.082.22-.565.088-.086-.24.282-.214-.025-.21.132.141.065-.235Z" transform="translate(-62.946 -336.447)" fill="#6cddb4"/>
    <path id="IT-82" d="M277.939,619.824l.937.1.061.319-1.141-.307Zm-5.615-15.837.447.229.115-.071.384.325.023.451-.269.317-.359-.025-.634-.777.017-.3Zm4.809-12.306-.179-.626.252-.135Zm-1.355-1.367.151.284.216-.078.208.149,0,.219-.139.034-.179-.195-.469.053-.158-.267Zm-2.388-.466.254.546-.475-.143-.134-.412Zm34.182-3.817.462.309.523.126-.527.145-.288.239-.147.552.16-.032-.786,1.449-1.863,2.43-.006.315-.317.216.038.176-.63.813-.073.214.139.328-.195.683-.233.3.013.672-.6.563-.294.548.113,2.023.638.4.288.073.13-.128.5.616-.1.145-.181-.126-.036.319-.088-.357-.219.076-.063.613.191.447.262-.086.109.158-.151-.063-.073.107.128.311.273.155.332-.015.019.584-.206-.078-.017.3.134.084.185-.109.275.475-.342-.153-.246.1-.139.412-.511.122-.552.609-.565,1.393.441,1.391-.088.219-.155-.1-.34.322-.611-.647-.59.107-.429-.367-.355-.092-.945.326-.368-.2-.521,0-.513-.487-.481-.191-.929-.12-.338-.365-.157-.664-.613-1.1-1.149-1.164-.952-.449-.937-.208-1,.023-.611.162-.288-.082-.515-.525-.7-.063-.882-.546-.181-.4-.853-.7-.29.074-.145-.16-.592-.017-.46-.481-.779-.386-.252-.3-.244-.017-.2-.456-.845-.821-.87-.147-.555.132-.565-.849-.439-.151-1.347-.048-1.025.254-.653-.992-.414-.263-.443.029-.424-.491-.036-.552-.466-.7L277.3,592l.218-.689-.271-.41.4-.553-.038-.384.237-.105-.282-.305.288-.072.508-.577.323.059.342-.135.231-.231-.023-.214.492.019.258-.372-.212-.418.155-.2.065.162.3-.034.01.346.206.2-.008.305.216.383.87.674.859-.237.874-.544-.244-.63.187-.044.126-.239-.076-.13.309-.261.813.288.4-.164.084-.259.334.05.416-.305.126.321.357.214.1.41-.141.218.2.281.628.176.429-.1.17-.214.284.08.006.573.3.34,1.42.767.531.082.941-.256.824-.487.737-.145.427.282.414.044.361-.183,1.376.275.836-.109.527-.3.519.078,1.569-.5,1.069-1.141.412.174.977-.26.235-.24.553.487.721,0,.16.3.374.076.742-.408.429-.487.218-.607-.166-.349.16-.011.134.292-.1.4.429.12,1.1-.3,1.2-.811Zm-5.855-1.479.361.277.057.326-.2.034-.324-.208-.109-.349.2-.258.1.1Zm.021-1.283,0,.37.174.124-.244.08-.019.447-.552-.58.158-.416Zm-5.875-.408-.011.271-.166.01-.023-.219Zm4.495-.357.491.023-.006.548-.151.034-.586-.336.1-.271Zm-2.67-.027.271.054.168.317-.387-.038-.139-.225Zm5.164-.742-.017.2-.177.059.027-.229Zm-18.413-.853.082.055-.141.164-.326.029.067-.233.2-.1.122.088Zm19.877-1.212.17.126-.292.365-.25-.248Z" transform="translate(-220.171 -469.09)" fill="#6cddb4"/>
    <path id="IT-52" d="M163.232,220.639l.164.344-.145.139-.193-.032-.031-.41Zm5.6-.525.376.387-.042.576-.376-.466-.157-.025Zm-7.884-3.031.206.4-.124.282-.424-.187.273-.128Zm3.307-3.3.254.267-.147.407.061.51-.481.26.468.324-.1.359-.471-.153-.176-.521-.147-.071-.233.046.013.319-.172-.305-.158.317-.426-.189-.042.315-.519-.141-.315.05.036.1-.345-.212-.2-.334.019-.3.351-.269.544-.013.485.3.032-.151.2-.053-.069-.109.124-.09-.116-.16.693.166-.145.185.363.065.51-.956Zm-5.741-2.624.132.378-.349.462-.176-.254.1-.439.235-.248.061.1ZM182,201.233l.015.031h0l.057.21-.416.216-.261-.3.051-.214.529,0h0l.025.057Zm-24.954-7.567.687-.4.651-1.023,1.021-.113.466.166.1.237.2.042-.1.5.216.24.817.561.466-.1,1.074,1.138.454-.227.418.235.305.006.563.58.319-.055.233.128-.01.263.332.305.046.3.653.582.319-.08-.013-.256.191-.235,1.063.025.949.769.435.1.13.174-.061.181.126.057.928-1.042.076.174-.116.2.3.219.527.061.637-.277.59.17.485-.031-.048-.206-.559-.324.021-.179.762-.027.435-.4.038-.2.475-.05.47-.456.254.231.065.41.267.073.33.376.231.05.2-.191.5.1.038.2-.277.4.508.069,1.044-.21-.065.513-.387.418-.082.38-.321.122.038.208-.128-.017-.048.219.414.4-.063.311.347.233-.052.584.683.382.382.46.891.04.1.248.258.034h0l.04.185.313.2h0l.2-.08.279.172.176-.048h0l.212.242.328-.172h0l.271.031.275-.153.3.441.158-.376.389.072.313-.17h0l.032.025h0l.41.164.437.588-.4,0,.057.416-.176-.011-.116-.71-.084.6-.235.126-.279-.053.038.155-.179.2-.441.158.277.426h0l-.473.6-.147.494-.418-.034-.1.107-.032.336.5.282-.019.107-.406.172-.193.324-.208-.065-.326.332.063.191.408-.042.021.508.273-.1.124.115.193.437-.113.326.076.172.426.16.172-.426.294.24-1.273.8-.42-.235-.156.071.1.254-.189.521-.989.582-.094.252.168.466-.063.233.151.3.16-.2.242.26-.462,1.88.208.143.029.345-.244.015-.372.447h0l-.473-.027-.309.2-.1.384-.134-.252-.229-.09-.221.466.721.565-.2.45-.235,0,.078.5.2.092.015.206-.267.176-.262-.036-.174.408-.246-.048-.286.212-.038.206-.332.168-.155-.044-.128.17-.218-.2-.118.063.086.336-.261.37.532.365.017.655-1.3.015-.353.792h0l-1.6-.372-.223-.181-.521.137.025.283-.189.092-.044.233-.347.029-.26-.324-.309-.1-.084-.492.187-.235.162.166.427-.036.193-.393.059-.6-.33-.681-.336.069-.187-.55-.21-.2.04-.187-.79-.338-.177-.71-.422-.437-.845-.34-.647-.076-.588-.386.351-.216.027-.7.17-.246-.126-.281-.342-.256-.611-.284-.546-.059-.712.111-.074.338-.441-.149-.113-.752.323-.153.214-1.185-.126-2.122-.223-.554-.412-.431-.349-1.04-.206-.019-.22-.6-.5-.378-.309-.826.061-.45-.355-1.473.115-.168-.048-.765-.351-1.666-.962-1.468-.786-.7-.412-.2h0l.426-.485.051-.263-.452-.281-.34.286.094-.235-.179-.265-.036-.45-.75.027.237-.378.143-.011-.281-.195-.4.334.082-.521-.155-.134-.017-.49-.494-.2-.769-.6-.193-.492Z" transform="translate(-127.136 -155.514)" fill="#6cddb4"/>
    <path id="IT-32" d="M210.907.354l.33.26-.221.156-.1.414-.567.059-.252.242.162.725.305.29-.248.366.433.082.275.443.261-.2.336.078.3.615-.216.353-.011.443.691.124.261.813.962.555h0l-.47.176-.319.357-.168-.038.073.254-.1.088-.24.011-.141-.17-.571.179-.231-.145-.637.506-.021-.431-.3-.187-.158.055-.75-.586.057.445-.288.511.032.284-.469.748L208.8,8.08l-.221.011-.225.225-.3-.061-.929.469-.023.313.586.08.115.265-.439.519-.052.7-.155-.141-.45.273.555.466.111.267-.128.363.151.134.412-.1.084.37.122-.078.231.113-.151.376.464.424-.116.305-.21-.084-.326.754-.8.279-.426-.046-.143.149-.126-.147-.523.166,0,.386.177.292-.393.116.141.13-.139.155.218.386-.174.357-.8-.057-.1-.536-.361-.115-.41.055-.523.433L202.826,16l.073.544-.246.031-.13.294.067.189-.473-.256-.013-.149,0,.26-.462-.034-.164.937-.449.54.115.45-.3-.029.025.687-.477.643-.305-.04-.368-.351-.313.168-.084-.223-.351.506-.094-.2-.286.323-.284-.177.124-.218-.391-.193-.418,0,.418-.769-.149-.288.244-.21-.512-.317h0l-.756-.147-.074.166-.242-.189-.765.155-.092.41-.376.011-.41.256-.252-.025-.078-.166.132-.265-.429-.183-.1-.823.174-.4-.248-.38.031-.387-.332-.061-.01-.191.109-.349.229-.181-.069-.363.635-.777.178-.844-.2-.3.433-.794-.1-.407-.155-.09.168-.242-.115-.386-.5-.242.494-.485.376-.023.284-.3-.16-.263.044-.42-.2-.26-.5-.338-.72-.057-.218-.513h0L194,8.1l.17-.968-.435-.4-.437.059-.16-.7.294-.365-.143-.334.418-.332-.233-.49.275-.153.279-.79.214.172.534-.038-.071.168,1.162-.542.26.147,0,.193.6.246.086.155-.334.5.256.044.311-.156.267.29.225-.094.473.277.317-.166,1,.107.179-.546.437-.229-.118-.466.273-.5-.027-.344.172-.248.25.034.225-.168.027-.372.239-.071.176.116,1.1-.426.162.111.2-.09.456.372.357-.151.382-.519.559.4.8-.428.435.29.458.011.166.271.2.055.34-.315.532-.025.767-.592.307-.015.273-.219.426.036.191-.21.349.036.218-.275.2.074L210.7.271Z" transform="translate(-156.338 -0.271)" fill="#6cddb4"/>
    <path id="IT-55" d="M275.787,253.694l-.1-.111h0l-.036-.011h0l.046-.13.126.059h0l.019.1h0Zm-2.105-.282.135.223.59-.008.067.107.4-.321.359-.023-.1.149.092.275-.557.515.26.271.273-.139.242.33.271-.4.189.025.158.271.176.01.055-.164.174.08,1.214,1.391.407-.246.426.157.252-.513.4.107-.071.384.172.16-.344.323.009.16.433.565.072.555-.118.134.359.256.128.653.265.132-.027.553-.309.3.128.294.4.08.109.326-.046.529.143.4-.166.126.179.372-.107.284.513.307.038.166.212.025.023.771.231-.26,0-.326.248.147.267-.265.574.439.477.752.51-.116.239-.347.269.691-.048.347-.176.363-.072-.147-.366.149-.048.382h0l-.143.851-.254.244-.309-.122-.01.149-.534.328-.393-.206-.135.292-.62-.008-.151.185-.384-.189-.111.223.118.487-.4.128-.353.311-.391-.019-.032.254-.584.168.262.389-.571.376-.229.009-.17-.353-.227.015-.042.741-.826.641-.166-.191.01-.321-.695.1.185-.271-.437-.151,0-.393.13-.044-.141-.13.048-.355-.281-.031-.382.309-.235-.24-.357.042.132-.088-.29-.153.143-.128-.2-.162.04-.372-.319-.149-.1-.853-.319-.393-.309-.13-.263.227-.128-.04-.023.143-.193-.2-.7.25-.79-.489-.246-.4.353-.2.193-.378-.531-.342-.309-.74h0l.372-.447.244-.015-.029-.345-.208-.143.462-1.88-.242-.26-.16.2-.149-.3.063-.233-.168-.464.093-.252.989-.582.191-.521-.1-.252.158-.069.42.235,1.273-.8-.294-.24-.172.426-.426-.16-.074-.172.113-.326-.193-.437-.124-.115-.271.1-.021-.508-.408.042-.063-.191.326-.332.208.065.193-.324.407-.172.019-.107-.5-.282.033-.336.1-.107.418.034.147-.494.454-.62Z" transform="translate(-219.006 -205.082)" fill="#6cddb4"/>
    <path id="IT-23" d="M16.874,82.451l.111.223.729-.1.174.282.252.1.122.368.305-.219.471.307.223-.126.4.139h0l.134.775-.134.964.326.592.309.115.069.229-.317.54.347.712-.229.046-.139.58-.193-.124-.5.038-.933.662-.13-.116-.443.073-.376-.248-.269.126-.025-.166-.384-.239-.4.216-.353-.09-.235.074-.177.3-.676.542-.183-.128-.359.17-.534.013-.456.574-.586-.2-.172.13-.069-.544-.338.679h0l-.519-.074.052-.311-.532-.145-.044-.966-.181-.191.223-.723-.332-.2-.5.034-.1-.277-.468-.176-.481-.555.071-.229L9.28,85.34l.193-.79.227-.065.189.122.139-.227.342.118.284-.09.1-.2.441-.155.061-.393.393-.332.6.916.49-.3.355.286.237-.4.407-.011.349-.462.9.351.849-.534-.008-.189.258-.2.424.08.057-.407Z" transform="translate(-7.568 -66.766)" fill="#6cddb4"/>
    <path id="IT-34" d="M224.393,55.353l-.258.147.179-.2-.172-.071.305-.034Zm-.313-.4.227.172-.452.1.118-.334Zm-.071-23.681.542.372,1.057-.107.4.141.17.208h0l-.036.344.185.317-.134.433.168.221-.487.011-.66.416-.023.179.235.153.076.332-.347-.149-.2.151-.353-.151-.3.239-.078-.082-.282.389-.053.334-.382.336.061.265-.115-.052.034.115-.349.177-.063.386-.365-.052-.2.16.008.38-.344.361.4.544.4,0,.05.3.351-.019.057.407.462.372-.086.683-.553.374-.338.536.176.153.135.5,0,.662.273.008.2.288.282,0,.24.865.265.24-.04.229.382.2.13-.305.237.126.023.172.214.1.01.309.74-.685.128.13.378-.4.216.16-.082.191.12.139.1-.2.414-.206.122.013-.076.21.239.218.29-.179.094.208.3-.1-.086-.269.113-.046.111.3-.008.059.076.071-.032.157.156.067-.208.122.387.368-.093.05.124.248-.067.223.185-.136.109.51.151.038-.071.153.193.155-.032.252.187-.023-.023.116.2.115h0l-.107.147-.939.065.017-.143-.174-.067-.092.26-.573.074-.181.246-1.195.746-3.038,1.414-.292.376-.319-.16-.366.492-.275.536-.019.206.158.074-.206.076-.3,1.239.26.08-.206.2.109.481.244.277-.055,1.012.275.233.3.592-.1-.065-.153.181.174.107.164-.12-.046.212.1.027.1-.059L223,54.282l.094.006.821,1.025-.126.853-.2.187.008.544-.305-.1.065-.546-.195-.084-.176.073-.143.328.166.208-.072.4.149.126.124-.086.011.137-.252-.025-.021.275-.46-.366h0l-.115-.416-.38-.1-.122-.181-.063-.552.12-.237-.158-.206-.206,0-.279.246-.41-.032-.155-.2-.282.185-.437-.588-1.279-.2-.42.149-1.2-.015-.557.26-.141.424-.609.172-.384.363-.237.023-.135-.046-.082-.309-.4-.269-1.088.073-.031-.284h0l-.044-.2-1.523-.817V54l-.271.162-.6-.221.113-.309-.078-.193.242-.195-.573-.214-.177.321-.26-.139-.046.242-.229-.042-.443-.372.183-.359-.166-.1-.307.061.073-.326-.151-.233-.548-.248.019-.248-.347-.092-.021-.13-.5-.113-.214-.449-.374-.366-.46.384-.1-.189-.284-.073.13-.365-.189-.284.248-.185-.183-.143.183-.49-.469-.216-.134.155-.158-.034.078-.378-.216-2.243,2.117-3.149h0l.512.317-.244.21.147.29-.416.769.416,0,.391.195-.124.216.284.177.284-.323.094.2.353-.508.084.223.313-.168.368.351.305.04.477-.643-.025-.687.3.029-.114-.452.448-.54.166-.935.462.034,0-.26.013.149.473.256-.067-.187.13-.294.246-.031-.071-.542.691.044.523-.431.41-.055.361.115.1.536.8.057.174-.357-.218-.386.139-.153-.139-.13.393-.115-.177-.294,0-.386.523-.166.128.147.141-.147.428.046.8-.279.326-.754.21.084.115-.305-.462-.424.151-.376-.231-.111-.122.078-.084-.37-.412.1-.151-.134.13-.361-.111-.269-.557-.464.45-.275.155.141.051-.7.439-.517-.113-.265-.588-.08.023-.315.929-.469.3.063.223-.225.221-.013.111.147.471-.748-.033-.282.29-.513-.059-.445.752.588.158-.055.3.187.021.431.637-.506.231.145.569-.179.143.17.241-.011.1-.088-.073-.252.166.038.319-.359.471-.176h0l.269-.017Z" transform="translate(-166.452 -25.354)" fill="#6cddb4"/>
  </g>
</svg>
