<svg id="Component_105_2" data-name="Component 105 – 2" xmlns="http://www.w3.org/2000/svg" width="26" height="26" viewBox="0 0 26 26">
  <rect id="Rectangle_3816" data-name="Rectangle 3816" width="26" height="26" rx="4" fill="#005957"/>
  <path id="Icon_awesome-linkedin-in" data-name="Icon awesome-linkedin-in" d="M2.918,13.036H.215v-8.7h2.7ZM1.565,3.146A1.573,1.573,0,1,1,3.13,1.566,1.578,1.578,0,0,1,1.565,3.146Zm11.468,9.89h-2.7V8.8c0-1.01-.02-2.3-1.405-2.3-1.405,0-1.62,1.1-1.62,2.232v4.309h-2.7v-8.7H7.2V5.52h.038A2.84,2.84,0,0,1,9.8,4.115c2.735,0,3.238,1.8,3.238,4.141v4.781Z" transform="translate(6.482 6.481)" fill="#fff"/>
</svg>
