<svg xmlns="http://www.w3.org/2000/svg" width="58.133" height="61.404" viewBox="0 0 58.133 61.404">
  <g id="Group_15884" data-name="Group 15884" transform="translate(-1052.5 -1845.5)">
    <g id="Icon_feather-database" data-name="Icon feather-database" transform="translate(1054 1847)">
      <path id="Path_27200" data-name="Path 27200" d="M27.633,6.855c0,2.129-5.178,3.855-11.566,3.855S4.5,8.985,4.5,6.855,9.678,3,16.066,3,27.633,4.726,27.633,6.855Z" transform="translate(-4.5 -3)" fill="none" stroke="#6cddb4" stroke-linecap="round" stroke-linejoin="round" stroke-width="3"/>
      <path id="Path_27201" data-name="Path 27201" d="M27.633,18c0,2.133-5.141,3.855-11.566,3.855S4.5,20.133,4.5,18" transform="translate(-4.5 -5.148)" fill="none" stroke="#6cddb4" stroke-linecap="round" stroke-linejoin="round" stroke-width="3"/>
      <path id="Path_27202" data-name="Path 27202" d="M4.5,7.5V25.492c0,2.133,5.141,3.855,11.566,3.855s11.566-1.722,11.566-3.855V7.5" transform="translate(-4.5 -3.645)" fill="none" stroke="#6cddb4" stroke-linecap="round" stroke-linejoin="round" stroke-width="3"/>
    </g>
    <g id="Icon_feather-database-2" data-name="Icon feather-database" transform="translate(1086 1847)">
      <path id="Path_27200-2" data-name="Path 27200" d="M27.633,6.855c0,2.129-5.178,3.855-11.566,3.855S4.5,8.985,4.5,6.855,9.678,3,16.066,3,27.633,4.726,27.633,6.855Z" transform="translate(-4.5 -3)" fill="none" stroke="#6cddb4" stroke-linecap="round" stroke-linejoin="round" stroke-width="3"/>
      <path id="Path_27201-2" data-name="Path 27201" d="M27.633,18c0,2.133-5.141,3.855-11.566,3.855S4.5,20.133,4.5,18" transform="translate(-4.5 -5.148)" fill="none" stroke="#6cddb4" stroke-linecap="round" stroke-linejoin="round" stroke-width="3"/>
      <path id="Path_27202-2" data-name="Path 27202" d="M4.5,7.5V25.492c0,2.133,5.141,3.855,11.566,3.855s11.566-1.722,11.566-3.855V7.5" transform="translate(-4.5 -3.645)" fill="none" stroke="#6cddb4" stroke-linecap="round" stroke-linejoin="round" stroke-width="3"/>
    </g>
    <g id="Icon_feather-database-3" data-name="Icon feather-database" transform="translate(1054 1879.7)">
      <path id="Path_27200-3" data-name="Path 27200" d="M27.633,6.855c0,2.129-5.178,3.855-11.566,3.855S4.5,8.985,4.5,6.855,9.678,3,16.066,3,27.633,4.726,27.633,6.855Z" transform="translate(-4.5 -3)" fill="none" stroke="#6cddb4" stroke-linecap="round" stroke-linejoin="round" stroke-width="3"/>
      <path id="Path_27201-3" data-name="Path 27201" d="M27.633,18c0,2.133-5.141,3.855-11.566,3.855S4.5,20.133,4.5,18" transform="translate(-4.5 -5.148)" fill="none" stroke="#6cddb4" stroke-linecap="round" stroke-linejoin="round" stroke-width="3"/>
      <path id="Path_27202-3" data-name="Path 27202" d="M4.5,7.5V25.492c0,2.133,5.141,3.855,11.566,3.855s11.566-1.722,11.566-3.855V7.5" transform="translate(-4.5 -3.645)" fill="none" stroke="#6cddb4" stroke-linecap="round" stroke-linejoin="round" stroke-width="3"/>
    </g>
    <g id="Icon_feather-database-4" data-name="Icon feather-database" transform="translate(1086 1879.7)">
      <path id="Path_27200-4" data-name="Path 27200" d="M27.633,6.855c0,2.129-5.178,3.855-11.566,3.855S4.5,8.985,4.5,6.855,9.678,3,16.066,3,27.633,4.726,27.633,6.855Z" transform="translate(-4.5 -3)" fill="none" stroke="#6cddb4" stroke-linecap="round" stroke-linejoin="round" stroke-width="3"/>
      <path id="Path_27201-4" data-name="Path 27201" d="M27.633,18c0,2.133-5.141,3.855-11.566,3.855S4.5,20.133,4.5,18" transform="translate(-4.5 -5.148)" fill="none" stroke="#6cddb4" stroke-linecap="round" stroke-linejoin="round" stroke-width="3"/>
      <path id="Path_27202-4" data-name="Path 27202" d="M4.5,7.5V25.492c0,2.133,5.141,3.855,11.566,3.855s11.566-1.722,11.566-3.855V7.5" transform="translate(-4.5 -3.645)" fill="none" stroke="#6cddb4" stroke-linecap="round" stroke-linejoin="round" stroke-width="3"/>
    </g>
  </g>
</svg>
