<svg xmlns="http://www.w3.org/2000/svg" width="71.501" height="144.957" viewBox="0 0 71.501 144.957">
  <g id="portugal" transform="translate(-687.768 -0.45)">
    <path id="PT-01" d="M713.384,47.493l.841-.28.1.492.957-.2.622-.711.287.7.444.15.062-.342.54-.226-.561-.267.137-.376.636.294.171-.315.4.882.882.6.13-.615-.376-.26.041-.574,1.108.335,1.149-1.128.65.41h0l.581.233.137.862-.219.062.137.383.656.048-.192.458.4-.116,1.313.561.745-.992.171.13.041.609-.937,1.128.1,1.416.54.889-.574.513-.814-.492-.5.568-.875-.527-.52.253.39.868-.773,1.949-1.286.486.13.814.629.513.055,1.648,1.06.533-1.361.568.506,1.627.752.793-1.846.711.39,1.265-.807.916-.027,1.176h0l-.034.561-.376.171-.643-.3-.1.793-.848.178-.123,1.08-.732-.369-.766.048-.137-.711.971.007.082-1.983-.506-.4v-.629l-1.463.622-.048-1.826-.2-.4-.67-.185-.362.561-.075,1.115-.6-.062h0l-.841-.868h0l-1.778-1.73h0l.691-2.886.048-.506-.3-.1,1.764-5.874.814-4.732Z" transform="translate(-7.146 -14.294)" fill="#6cddb4"/>
    <path id="PT-02" d="M723.406,158.388l.267-.26.451.451,1.641-.424.985.793.609-.513,3.077,1.819,1.723.144,1.935,1.265.745-.253.985.157.479.41,1.5.007.041-.5.691-.28h0l.561-.711h0l.123-.479.5-.185.267-.629-.212-.226,1.1-.027.4-.588,1.074-.28.93,1.86,1.169.458-.192.615.848,1.757.205.082-.041-.458.472.055h0l.486-.451h0l.506.513.39-.472.15.239.663-.13.376-.6.663-.185.185.253.78-.492.041.5-.759.971.362.376-.4,1.149-.369.232-.308,2.175-.964.226-1.121-.807-.643.39.164.677-1.135.321-.622-.287-1.306.643.308.684-.144.875-.588.684-.027.78-.882,1.45-1.559,1.409-.534.137-.574,1.675.1.889-.267.068.027.424-.274-.082L738,177.918l-.328-.027-.062,1.306-.342.027.219.8h0l-1.334-.075-.951,1.005-1.238-.376-1.689.7-.246-.212.041.233-1.06.629-.226-.171-.219.376-.431-.02-.068.315-.766.075.014.527-.246-.062-.116.356-.362-.253-.328.274-.916-.089-.533.8.349.39-.793.219-.828.971-2.653-.615-1.3-1.169-.568-.055.219-.561-.274-.472-.916-.369-.2.417-.164-.26-1.758.369-.082.684-.629.472-1.381-.055-1.19-.882-.992.253-.506.711-.533-.684-1.5.15-.349-.992-1.005-.3h0l.226-2.434-.732-1.805.725-3.111-.574-.951.424-1.922h0l.362.4.882-.267,1.122,1.669.485-.41.944.52.226-.294.424.089.075-1.156.376-.527.369.075-.048-.855.3-.164,2.093-.185.13-.294,2.243.65-.1-.527.773-.889-.212-.342.335-2.229-.547-.9-.971.116-.985-1.388.451-1.156.547.308.164-.951.376-.068.1-.39.492.472.424-.027.144-1.3.964.2.417-.636,1.956-.588.007-1.156Z" transform="translate(-6.795 -49.839)" fill="#6cddb4"/>
    <path id="PT-03" d="M725.952,14.63l-.232,1.7-.568,1.381-.677.677,1.778-.335,1.039.458-.178,2.346,2.5.444.657-.78.868,1.2-.212.492-.4.082.048.486-.581.342.055.362-.691-.048-.2.7-.766.328-.068,1.354-.862,1.026.294.082-.144.486h0l-.315.8-.909.814-.745-.7-.458.4-.718-.4-.574-.492.144-.5-.41-.1-.15-.554-1.033-.328-.191.527-.513-.021-.684.711-.205.814-.629-.294-.205-.732-1.47.431.212-.547-.328-.1-.691.609-.527-.362-.985.205-.369.65-1.99.137h0l-.273-1.2.28-.246h0l.424-.253-.315-.356-.971-.205-.424-.732-.67.089-.971-.759-.636-.075h0l-.745-4.055h0l1.142-.062,1.3-.759.7-.048.28.321.171-.67.841.581.581-.246.315.554.479-.219-.144-.923.554-.465.068-1.34.362-.362.315-.034.027.362.527-.15.8-.718,1.067-.376.527.3.951-.041.267-.568.486.28,1.634-1.19.622.144.048-.308h0l1.539.294Z" transform="translate(-6.893 -4.483)" fill="#6cddb4"/>
    <path id="PT-04" d="M766.727,7.406l.677.15.39,1.169.52.191,2.27-.082.718-.8.834.663-.465,1.764,1.2.342-.6,2.694-.547,1.005.28.178.308,1.641.91.67.909-.274.28-.527,3.07.663,1.032.834.4.745.739.356.267.574L778.886,20.9l-.451.212.15.4-.321.055.089.335-.486.219-.458.841.116.6-.718.527.335.711-.752.212-.3-.438-.5.253-.082.424.356.3-.827.328L774.55,27.1l-1.06.4.185.444-.39.28-.568-.274-1.053,1.046-.438-.465-.178.335L770,28.748l-.93,1.087-.383,1.06-1.272,1.08.3.875-1.183,1.928-1.286.274-1.033-.328-.328.26h0l-.814-.2-.492.321-.13-.335-.985-.212-.321-.533-.937-.5-.014-.691.4-.609-1.005-.335.335-.376-.055-.814-1.005,1.518-1.853-.54-1.183.157h0l-1.149-.239-.711-1.354-.9-.444h0l.383-1.074.581.109-.089-1.183.636-.52-.287-.3.417-.479.9-.205L754.6,25.39l.192-.335-.308-1.108h0l.034-.725h0l1.443-.691-.068-.663.383-.807,1.183-.205-.636-1.163-.007-.807,1.081-3.481.793-.937.021-.725-.492-.356h0l-.356-.916h0l.212-1.894h0l.588-1.142-.349-.65.089-.889.951-.533,1.162.5.335.684,1.422-.021.581-.677.465.144.287.7,1.128.137,1.525-.178.219-1.347Z" transform="translate(-20.649 -2.169)" fill="#6cddb4"/>
    <path id="PT-05" d="M736.918,78.488l1.046-.2.52-.677,1.163-.362.8-.732.219-.677.595.349.951-.185.479-1.436.6-.739.547-.2.315.424.465-.144.677.315.752-.328.315.3.376-.821.451.212.294-.362.486.233-.068,1.71-.711,1.224-.561.287.294.369,1.7.629.595-.78,1.108.492.547-.4.116-.827.4-.349.609,1.3,1.142.007.362-.335,1.354.923h0l-.26.54-1.067.362-.369,1.1.287.28-.1.916.609.882h1.128L755.6,83.1l.533.164.615,1.354-.492.916.041,1.087-.472.472.068,1.491-.971,1.21-.834.486.226,1.053-.841,2.852-2.934.486-2.161-.383-1.771.725-2.633-.6-1.86-.034h0l-.882.171-1.19.971-.738-.732-.684.349-.41,1.21-.7.137-.321.67L736,97.9h0l.315-.923h0l-.26-.52h0l-.909-1.374-.595-.144-.486-.7-.93.2.089-1.545-.356-.8-.438.472-.349-.424-.663-.116-.376.335-.075,1.785-.41.369.472,1.156-1.716.171-2.2-.944.157-3.022-.3-.718-.486.28-.424-.732h0v-.021h0l-.171-.362.451-.3-.068-.643,1.033-.383.376.144.513-.855.383.171.417-.28.656-1.368h0l.082-.41.7.048-.075-.513.438.3.205-.424.506.253.034-.677.308.383.26-.041-.185-.472.349.315.438-.308.3.335.226-.711,1.1-.007-.3-.841,1.115-.711.848.205.362.424.041-.971h0l.212-.2-.451.021h0l.656-.26.294.609.656-.786-.185-.219.424-.171-.1-.52-1.3-1.039-.274-.574Z" transform="translate(-12.053 -23.011)" fill="#6cddb4"/>
    <path id="PT-06" d="M709.126,68.92l1.778,1.73h0l.841.868h0l.6.062.075-1.115.362-.561.663.185.2.4.055,1.826,1.457-.622v.629l.506.4-.075,1.983-.971-.007.137.711.766-.048.725.369.123-1.08.848-.185.1-.793.643.3.376-.171.034-.561h0l.287-.075.3.431.636-.1,1.053.985,1.251-.568.171.274.308-.321.793.335,1.976-1.477,1.484-.554,1.935-1.922,1.2-.718h0l.027.472.657.691-.3.506-.807.3.062.417.4.308.643-.055-.171,1.573,1.012.5-.157.431-.841.246-.465,1.183.944,1.012h0l-.581,1.354.273.574,1.3,1.039.1.52-.424.171.185.219-.656.786-.294-.609-.656.26h0l.451-.021-.212.2h0l-.041.971-.362-.424-.848-.205-1.115.711.3.841-1.1.007-.226.711-.3-.335-.438.308-.349-.315.185.472-.26.041-.308-.383-.034.677-.506-.253-.205.424-.438-.3.075.513-.7-.048-.082.41h0l-.294-.164.485-.889-.991-1.416.26-1.429-.759-.472-.663,1.053-.7-.424-.725.615-.479,1.012.595.568-.191.834-.745-.821-1.292,1.819-.759-.226.629-.663-1-2-.232.3.212.513-.656-.568-.718.889-.684.048-.356,1-.5-2.222-.643.014-.506.992-.6.055.041-.581-.745-.533-1.963-.308-.739.8-.841-.451-.629.144-.547-.588h0l.7-2.619-1.033-1.409,1.4-4.035Z" transform="translate(-5.897 -21.649)" fill="#6cddb4"/>
    <path id="PT-07" d="M723.7,131.144l.2.253.944-1.176.246.157.246-.328.417.41.041-.3.581.007.116.274-.472.246.376.964.342-.2.02-.827.342-.267,1.224.951-.185,1.121.766-.1,1.34-.841.643,1.2.39.144.02.492,1.86.349.1-.315.718-.027.417-.855.752.739.315-.472.992.5.718-1.169.855.034.486-.431-.233-.677.424-.438.444.622.595-.055-.062.342.759.308-.287,1.06.937.622-.1.732.5.78-.424.021.41.308.294.978.5-.274.287.376.581-.171.055-.588.41-.144h0l.26-.28h0l.321.356.752-.554.4.527.41-.068-.54,1.34.622.862h0l-1.21.766-.273,2.346.622.4L743.42,144.2l-.151.978.458-.123.034.362-.8.93.4-.123.807.568.178.684,2.2,3.166.417.1.923,2.4h0l-.485.451h0l-.472-.055.041.458-.205-.082-.848-1.757.191-.615-1.169-.458-.93-1.86-1.073.28-.4.588-1.1.027.212.226-.267.629-.5.185-.123.479h0l-.561.711h0l-.691.28-.041.5-1.5-.007-.479-.41-.985-.157-.745.253-1.935-1.265-1.723-.144-3.077-1.819-.609.513-.985-.793-1.641.424-.451-.451-.267.26h0l-.718-.622-1.545-.3-.171-.492-.978-.021.834-1.094-.39-.335.39-.041-.164-.362-.684.062.274-.595-1.265-2.4-1.169.684-.485-.178-.657.294-.615-.848-.335.13.3.65-.486.219-.082-.465-.868-.1-.055-.451-1.381-.041-.308-1.723,3.289-2.845-.212-.561.431-.7-1.2-.062h0l1-1.21.65.342.869-1.08.239-.1.219.4.677-.923.779.486.438-.561.239.4.2-.636.875.677-.144.226.349.458.616-.3.54.595-.164.239.677-.048-.089.349.78.424.349-.841-.54-.451-.205.362-.137-.595-.458-.253.622-.8-.5-.362-.561.137-.055-.28-1.333-.629.636-.848v-.978Z" transform="translate(-8.454 -40.976)" fill="#6cddb4"/>
    <path id="PT-08" d="M728.963,204.236l.376.068-1.333,1.053.308-.7Zm-2.53-.048,1.552,1.149-1.183-.157-1.149-.848.78-.144Zm2.681-.431.253.246-1.1.321Zm-8.924-1.641-1.436.294-1.457-.793-1.539.438-2.134-.875-1.744-.137-1.046.438-.061.752-1.279-.205-1.32.636-1.122.062-.513.5-.657-.014-1.156,1.32-.342-.855-.718.075,2.017-3.857-.321-.841.486-.274.766-1.689-.383-1.409.718-.841L708,192.378h0l1.005.3.349.992,1.5-.15.533.684.506-.711.992-.253,1.183.882,1.381.062.629-.472.082-.684,1.757-.369.164.26.2-.417.91.369.28.472-.219.561.568.055,1.306,1.169,2.646.609.827-.964.793-.226-.349-.39.533-.8.923.089.321-.274.362.26.116-.356.253.062-.014-.527.773-.075.061-.315.438.021.219-.376.226.178,1.06-.629-.041-.233.246.212,1.7-.7,1.231.383.957-1.012,1.333.075h0l.438.109.171.65.438.3-.109.506.506,1.333-.369.28.479.486-.034,2.154.445,1.012-.26.643.438.67.13,1.45-1.121-.15-2.188.691-5.04,3.686-.7-.328-.951.561.007.574-.315.1-1.217-.773-.909.171-2.763-1.792-1.552-.547Z" transform="translate(-5.027 -59.95)" fill="#6cddb4"/>
    <path id="PT-09" d="M749.244,48.864l.841.581-.424.6-.691-.4Zm2.448-6.209,1.19-.157,1.846.54,1.005-1.518.062.814-.335.376,1,.335-.4.609.014.7.937.492.321.533.985.219.13.335.5-.321.814.2h0l.212.766,1.347,1.5.219,1.34L762.4,50l.157.615v.431l-.54.15.219,1.231-.308,1.258.8,2.6-1.108,2.7.964.444.123,1.1-1.176,1.7.328,1.238,1.156,1.217-.28,1.019-1.45.814-.205,1.046-1.737.137h0l-1.354-.916-.356.335-1.149-.007-.609-1.3-.41.349-.116.827-.547.4-1.1-.492-.595.78-1.7-.629-.294-.376.561-.287.711-1.224.068-1.71-.486-.226-.3.356-.451-.205-.376.814-.315-.294-.752.328-.67-.321-.465.144-.308-.424-.547.2-.6.732-.479,1.436-.951.185-.595-.349-.212.67-.807.739-1.163.362-.52.677-1.053.2h0l-.937-1.012.465-1.176.841-.246.157-.431-1.012-.492.171-1.573-.643.055-.4-.308-.068-.417.807-.294.3-.513-.656-.691-.021-.472h0l3.515-1.73,1.826-.39-.178-.342.5-1.7.513-.4-.2-.5.349-.376-1.2-.67-.123-.424.561-.581-1.238-.916.909-2.024.54-.561,1.019.082L748.505,52l1.087-1.881.506.28.123-1.245h0l.821-.615h0l.239-1.08-1.156-.547-.007-.629.9-.027-.178-.916.855-2.681Z" transform="translate(-16.508 -12.985)" fill="#6cddb4"/>
    <path id="PT-10" d="M706.262,101.008h0l.328.431-.527.868-.41.321-.417-.431-.274.205.376,1.361-1.58-.082-2.181.472-.909,2.086-.492-.089-.479.492-.075,2.222h0l-.691.1-.28-.472-.581.014-.123.287h0l-.786.65h0l-.739,1.3-.759.492-.527-1.005.335-.588-.287-.93-.971-.068-.219-.356-.889.951-.957-.232h0l-.52-1.586-.951-.3.267-.3,1.087.2,2.277-1.73.636.52-.246.178.855-.027-.376-.048-.568-.909,1.21-1.805.739-.1-.178-.479,1.5-1.846.034-.4-.267-.055.78-3.234,3.385-9.088h0l.547.588.629-.144.848.451.732-.793,1.963.3.745.533-.034.581.6-.055.506-.992.643-.007.492,2.222.356-1,.684-.041.718-.889.656.568-.212-.513.232-.3,1,2-.622.663.759.226,1.292-1.819.745.821.191-.827-.588-.568.479-1.012.725-.615.7.431.663-1.06.766.479-.267,1.429.992,1.416-.485.889.3.164h0l-.656,1.368-.417.287-.383-.171-.513.855-.376-.144-1.033.383.068.643-.451.3.171.362h0l-1.019-.191.075,1.142-.342-.349-.752.629-.52-.232-1.053.821-.527-3-.622.643-.294-.362-.472.739-1.108.7-.909-.362-.9.451-.089.759.356.609-.321.451.978.41-.335.937-1.142.629.273,1.6Z" transform="translate(-0.92 -27.28)" fill="#6cddb4"/>
    <path id="PT-11" d="M695.44,135.215l-1.532.376-1.4-.2-.923.7-1.477-.793-.745.349-1.286-.52.308-1.149-.616-.848,1.778-4.472.171.123-.376-1.771.123-2,1.648-3.563.1-2.462h0l.957.233.9-.951.219.356.971.075.294.93-.328.588.527,1.005.759-.492.739-1.3h0l.786-.65h0l.13-.287.581-.014.28.472.691-.1h0l.417.267-.13,1.039.4-.157,1.1.568.786-.438.287.568.636.2.137,1.033-1.163-.014-.7.4.985,1.21,1.5.889.349,1.053-.9.841-.793-.021.41.328-.773,1.3.575.2-.875.506-.431,1.552-1.245,1.71h0l-.451-.7.246-.424-.356-.451-.014-1.593-.527,1.47-1.4,1.887-.39,2.414Z" transform="translate(0 -37.252)" fill="#6cddb4"/>
    <path id="PT-12" d="M741.708,104.212l.814,2,.828.472.67,1.067.855.137.185,1.074.424.274.315-.185,1.156.868-.615,2.1.328,1.258,1.641,1.607-.356.691.144,1.258.725.581,1.58.444-.2,1.737.834.26,1.566-.5,1.122.814.458.923-.178.417.362.438-2.181,3.228.41.78-.137.39-.629.287-.6,1.06-.951.274-1.368,1.5h0l-.622-.862.54-1.34-.41.068-.4-.527-.752.554-.321-.356h0l-.26.28h0l-.41.144-.055.588-.581.171-.287-.376-.5.274-.294-.978-.41-.308.424-.021-.5-.78.1-.732-.937-.622.287-1.06-.759-.308.062-.342-.595.055-.444-.622-.424.438.233.677-.486.431-.855-.034-.718,1.169-.992-.5-.315.472-.752-.739-.417.855-.718.027-.1.315-1.86-.349-.021-.492-.39-.144-.643-1.2-1.34.841-.766.1.185-1.121-1.224-.951-.342.267-.02.827-.342.2-.376-.964.472-.246-.116-.274-.581-.007-.041.3-.417-.41-.246.328-.246-.157-.944,1.176-.2-.253h0l.021-.479-.486.034-.4-1.313-.5-.219v-.6l-.944-.4-.192-.41.971-1.477,1.3-.506,1.128-1.026.752-.882-.1-.479.438-.533,1.224.239,1.128-1.771-.075-.622,1.327-.52.629-.759-1.169-1.053-.335-.711,1.156-2.544,2.25,1.5.568-.739h0l1.19-.752.321-.67.7-.137.41-1.21.684-.349.739.732,1.19-.971.882-.171h0Z" transform="translate(-11.55 -32.788)" fill="#6cddb4"/>
    <path id="PT-13" d="M712.377,37.94l-.574-1-.479-3.672L710.3,30.9l.253-1.607h0l.636.075.971.759.663-.089.431.739.971.2.315.362-.424.253h0l-.28.246.273,1.2h0l1.99-.13.369-.65.992-.205.52.362.691-.609.328.1-.212.547,1.47-.431.205.732.629.294.205-.814.684-.711.513.021.191-.527,1.026.328.15.547.417.1-.15.5.581.492.718.4.458-.4.745.7.916-.814.315-.8h0l.034.424.547.219-.356.663,1.217.773-.294.342.109.513.875.875-.787,3.494h0l-.861-.082-2.182.944-.93-.315-.855.486-1.491-.294-1.286.807h0l-.65-.4L719.8,41.633,718.7,41.3l-.041.574.376.267-.13.615-.882-.6-.4-.882-.171.315-.636-.294-.137.376.561.267-.54.226-.062.342-.445-.15-.281-.7-.622.711-.957.2-.1-.492-.841.28h0l-.5-3.529-.513-.875Z" transform="translate(-7.124 -9.119)" fill="#6cddb4"/>
    <path id="PT-14" d="M703.738,112.116l.075-2.222.479-.492.492.089.916-2.086,2.181-.472,1.58.082-.369-1.368.273-.2.417.431.93-1.169-.663-2.106,1.142-.629.335-.937-.978-.41.321-.451-.356-.609.089-.759.9-.444.916.362,1.108-.7L714,97.29l.294.362.622-.643.526,3,1.053-.821.52.233.752-.629.342.349L718.037,98l1.026.191h0l.007.027h0l.417.732.492-.287.3.725-.157,3.022,2.2.944,1.716-.164-.472-1.162.41-.362.068-1.785.376-.335.67.116.342.424.438-.472.362.8-.089,1.552.93-.2.485.7.595.144.91,1.374h0l.26.513h0l-.315.923h0l-.568.739-2.25-1.5-1.156,2.544.335.711,1.169,1.046-.629.759-1.327.52.075.629-1.128,1.764L722.3,112.4l-.431.533.1.479-.752.875-1.128,1.033-1.292.5-.978,1.477.2.417.937.4.007.6.5.219.4,1.313.485-.034-.02.479h0l-.315.383-.007.971-.636.855,1.34.629.055.287.568-.137.5.362-.622.8.458.253.137.6.205-.369.54.451-.349.841-.786-.424.1-.349-.677.048.164-.239-.547-.595-.615.308-.349-.458.144-.226-.875-.677-.2.636-.239-.4-.438.561-.78-.486-.684.923-.219-.4-.239.1-.868,1.087-.65-.342-1.005,1.217h0l-1.429-.54.362-1.593-.711.28-.212.588-1.484-.992-.985,2.831-.82.239-1.026-.759-1.156.568-.253-.15-.075.294-.4-.65h0l-.41-.506.308-.185-.1-.527-.725-.622h0l1.245-1.71.431-1.552.875-.5-.575-.2.78-1.3-.41-.328.793.02.9-.841-.349-1.053-1.5-.889-.985-1.21.7-.4,1.169.014-.137-1.033-.636-.2-.287-.568-.786.438-1.094-.568-.4.157.137-1.039-.458-.308Z" transform="translate(-5.049 -30.53)" fill="#6cddb4"/>
    <path id="PT-15" d="M705.69,149.056l2.325.075-.609-.65-.458.034v-2.031l-.39-.212-.062-1.012-.451.9-.554-.438.151.773-.629.15,1.162.109.041.513-.527.4-.4.1.082-.472-2.25-.944-.656.321-.109.554-1.012.253-1.033.909-.766.308-.951-.226-.561.376-.752-.014-.588.554-.581-.123.889-2.523.814-.506-.821.212L696.356,144l-1.108-1.586,2.523-.7-.007.622,1,.465-.581-.089.458.868-.027-.6.526-.055.7,1.115-.321-1.231-.561-.3,1.074-.533.075.486.376-.246.561.527-.315-.868.875-.472-1.354-.014-.369.3.1-.711,1.778-1.142.793-.075h0l.4.65.075-.294.253.157,1.156-.561,1.026.759.82-.239.985-2.831,1.484,1,.212-.588.711-.28-.362,1.593,1.429.54h0l1.2.062-.431.7.212.561-3.289,2.845.308,1.73,1.381.041.055.451.869.1.082.465.486-.219-.3-.65.335-.123.615.848.656-.294.486.178,1.169-.684,1.272,2.4-.273.595.684-.062.164.362-.39.041.39.335-.841,1.094.978.021.178.492,1.545.3.718.622h0l.752,1.47V154.5l-1.956.588-.417.629-.957-.2-.15,1.3-.445.007-.492-.465-.1.383-.376.075-.171.944-.547-.308-.451,1.156.992,1.388.971-.116.547.9-.335,2.229.212.342-.773.889.1.533-2.243-.65-.13.294-2.093.178-.3.164.048.855-.369-.075-.383.527-.068,1.156-.424-.089-.226.294-.944-.513-.486.41-1.122-1.675-.882.267-.362-.4h0l-.328-2.947-.964-.219-.308-.5-.451.055,1.08-1.887,1.067-3.412.3-2.544-.219-2.694-.9-2.3-1.744-1.956,1.771,1.313.561,1.525-.178-1.457.588.568Z" transform="translate(-2.365 -43.297)" fill="#6cddb4"/>
    <path id="PT-16" d="M722.218.792l.2,2.25,1.375-.5.472.287.3,1.279-.226.479-.745.178-.759.663-1.162,2,.362,1.142L722.7,8.5l.089,1.682h0l-.048.308-.622-.144-1.634,1.19-.486-.28-.267.568-.951.041-.527-.3-1.067.376-.8.718-.527.15-.027-.362-.315.034-.362.362-.068,1.34-.554.465.144.923-.479.219-.315-.554-.581.246-.841-.581-.171.67-.28-.321-.7.048-1.3.759-1.142.062h0l-.349-1.689-.3-.369-.1.294-.773-2.2.123-1.374.315-.369-.308-.308.027-1.422,1.183-1.183,1.34-.636.26-.944,1.771-1.06.1-.8.465-.513,1.942-.185.568-.739,1.655-.082.308.294,1.019-.116.4-.41.67.191L719.5,1.9l1.265-.5.1-.438.643.1.547-.609Z" transform="translate(-6.188 0)" fill="#6cddb4"/>
    <path id="PT-17" d="M735.984,10.08l.458.082-.164,1.874.417.417.677-.622-.082-.424,1.149-.055.615-.458.65.191.7-.444,1.012.766,1.47-.021-.554,1.525,1.949-.369.41-.793,1.074.123.191.745.39.26-.055.663,1.347-1.313.205.356.889-.062,2.475-1.067h0L751,13.349h0l.355.916h0l.492.356-.021.725-.793.937-1.081,3.481.007.807.636,1.162-1.183.205-.383.807.068.663-1.443.691h0l-.034.725h0l.308,1.108-.191.335,1.012.759-.9.205-.417.479.287.3-.636.52.089,1.183L746.6,29.6l-.383,1.074h0L744.682,31l-.445.561-.527-.246-.91.916-1.614-.185-.718.609-2.14-.581-.362.458-1.3-.321-.814,1.06h0l.78-3.494-.875-.875-.109-.513.294-.342-1.217-.773.362-.663-.547-.219-.034-.424h0l.144-.486-.294-.082.862-1.026.068-1.354.766-.328.2-.7.691.048-.055-.362.581-.342-.048-.486.4-.082.212-.492-.869-1.2-.656.78-2.5-.444.178-2.346-1.039-.458-1.778.335.677-.677.568-1.381.233-1.7h0l.821-.294.834-1.32,1.149-.075Z" transform="translate(-13.785 -3.045)" fill="#6cddb4"/>
    <path id="PT-18" d="M743.852,40.2l.9.444L745.459,42l1.142.239h0l-.889,2.66.178.916-.9.027.007.629,1.156.547-.233,1.08h0l-.821.615h0l-.123,1.245-.5-.28-1.087,1.881-1.306-1.621-1.019-.082-.54.561-.909,2.024,1.238.916-.561.581.123.424,1.21.67-.349.376.2.5-.513.4-.5,1.7.178.342-1.826.39-3.515,1.73h0l-1.21.718L732.159,63.1l-1.484.554L728.7,65.132l-.793-.335-.308.321-.171-.274-1.251.568-1.053-.985-.636.1-.3-.424-.287.075h0L723.925,63l.807-.916-.39-1.265,1.846-.711-.752-.793-.506-1.621,1.361-.568-1.06-.533-.055-1.648-.629-.513-.13-.814,1.286-.486.773-1.949-.39-.868.52-.253.875.527.5-.568.814.492.574-.513-.54-.889-.1-1.416.937-1.128-.041-.609-.171-.13-.738.992-1.313-.561-.4.116.191-.458-.656-.048-.137-.383.219-.062-.137-.862-.581-.233h0l1.286-.807,1.491.294.855-.486.93.321,2.181-.944.862.082h0l.821-1.06,1.3.321.362-.458,2.14.581.718-.609,1.607.185.909-.916.527.246.444-.568,1.525-.315Zm.034,9.026.691.4.424-.6-.841-.581Z" transform="translate(-11.423 -12.568)" fill="#6cddb4"/>
  </g>
</svg>
