<svg xmlns="http://www.w3.org/2000/svg" width="65" height="62.844" viewBox="0 0 65 62.844">
  <g id="Group_17399" data-name="Group 17399" transform="translate(-204.5 -525.763)">
    <rect id="Rectangle_3741" data-name="Rectangle 3741" width="62" height="59.844" rx="2" transform="translate(206 527.263)" fill="none" stroke="#6cddb4" stroke-linecap="round" stroke-width="3"/>
    <path id="Icon_material-location-on" data-name="Icon material-location-on" d="M18,3A10.492,10.492,0,0,0,7.5,13.5C7.5,21.375,18,33,18,33S28.5,21.375,28.5,13.5A10.492,10.492,0,0,0,18,3Zm0,14.25a3.75,3.75,0,1,1,3.75-3.75A3.751,3.751,0,0,1,18,17.25Z" transform="translate(209.5 541)" fill="none" stroke="#6cddb4" stroke-width="3"/>
    <path id="Icon_material-location-on-2" data-name="Icon material-location-on" d="M13.451,3A5.947,5.947,0,0,0,7.5,8.951C7.5,13.415,13.451,20,13.451,20S19.4,13.415,19.4,8.951A5.947,5.947,0,0,0,13.451,3Zm0,8.077a2.125,2.125,0,1,1,2.125-2.125A2.126,2.126,0,0,1,13.451,11.077Z" transform="translate(237.598 535.499)" fill="none" stroke="#6cddb4" stroke-width="3"/>
  </g>
</svg>
