<svg id="south-africa-2" xmlns="http://www.w3.org/2000/svg" width="144.55" height="126.951" viewBox="0 0 144.55 126.951">
  <path id="LS" d="M277.564,201.757l.085-.132-.146-.095.058-.132-.19-.115v-.505l.363-.705-.119-.092-.59.085-.2-.827-.647-.637-1.013-2.522-.83-1.1.034-.346.3.2.1-.353.125.115.234-.119.108-.261.275-.142.4.061.227-.22.163.085.207-.224.346-.007.01-.336.471-.163.007-.207.325-.43.2-.064-.142-.39.271-.017.041-.359.251-.19-.132-.207.336-.027.393-.339.02-.136-.146-.092-.024-.146.546-.522.251-.061-.024-.285.376-.22.027-.22-.132-.085.305-.037-.291-.3.275,0,.017-.159.136-.095-.051-.163.332-.017-.095-.108.112-.139-.02-.2.115-.142.176,0,.095-.19-.142-.244.447.186.159-.024.085-.142.478.146.132-.092-.047-.22.146-.034.224-.281.234.054.115.214.485-.014-.024-.193.207-.136.02-.305.2-.058.339-.644.6-.525.163.149.346-.115.41.136.207-.108.4.01.091-.064-.01-.258.366-.464.468-.156,1.061-.007.583-.305.4.278.176.773.766.244.193.559.353.01h0l.414.363.417.807.322.376.251-.047.393.261.071.369.515.169.234.22.478.193.071.271.288.315.268-.115.38.122.108.18-.041.366.437.529.156.5.312.407-.03.356.2.241-.325.847-.708.258-.119.224-.251.108-.007.746.237.163-.329.119,0,.393-.481.085-.261.214-.241.051-.047.322-.244.217.058.329-.231.9.231.23.159.505-.044.122-.363.095-.112.278-.21-.058-.539.407h0l-1.6.976-.542.176-.339-.01-.563.275-.515-.014-.617-.19-.305.268-.346.108-.566-.142-.159.058-.234.207-.092.366-.4.505-.641.108-.186.244.356.373.149.373-.346.505-.366.156-.39.336.275.349-.139.231-.068.43-.41.407.024.712-.241-.2-.373.105-1.071-.2-.258-.437-.271.136-1.024-.169-.563-.759-.583-.376-.068-.339-.227-.064-.241-.586-.454-.132-.224-.312-.058-.312-.624.214-.088-.014Z" transform="translate(-181.345 -121.778)" fill="#6cddb4"/>
  <path id="ZA-EC" d="M218.172,226.43l.451.58.346.217.007.373-.4.519-.339-.037-.481.288.122.312-.336.21-.119.325-.407-.108-.237.62-.759-.308-.312.759.281.539-.217.417.169.38.4.064.363.549.786.159.169-.024.1-.658.186-.071.675.332-.024.536,1.559.4.6.3.169-.031.122-.166h.532l.458-.2.661.464.315.085.214.22.519-.105.132.146.576.142.088.129.129-.2.3.024.125.339.42.193.129.159.23.122.3-.115,0,.254.2.081.081.281.244-.064.119.169.363.034.115.434.23.02.217.22.064.2-.085.264.176.169-.041.315.264.166.1.4.2.159h0l-1.4,1.908-1.535,1.546-.237.169-.7.169-.312.312-.346.566-.417.285-.064.186-.664.444-.068.2-.451.291-.61.214-.261.461-.329.247-.051.434-.241.064-.556.79-.136.034-.247.546-.278.129-.424.42-.064.251-.376.475.02.149-.658.5-.142.329-.458.454-.047.173-1.1,1.034,0,.085-.342.2-.288.5-.769.644-.1.254-.38.186,0,.139-.43.383,0,.217-.241.1-.142.237-.671.271-.047.156-.475.458,0,.159-.251.014-.688.559-1.027.417-.295.325-.071.447-.268.329.037.071-1.03.647-.176.288-.159.044-.19.369-1.081.651-.461.153-.261.359-.325.186-.464.468-.719.407-1.034.895-1.5.959-.241.312-.414.115-.471.542-.546.159-.393.342-.61.1-.637.5-1.091.254-1.708,1.034-.7.23-.756-.146-.729.051-.976-.4-1.01-.207-1.125.03-.932.166-.5.22-.725.5-.305.3-.281.495-.173.834.522.38.241.471-.332-.027-.258.217-.478.03-.973-.217-.539.051-.891-.43-.766-.237-.783-.078-.858.078-.549.186-.332.254-.092.725-.495.451-.278.475.325.285-.247,0-.078.23-.864-.329-.339.058-.471-.214-.241.044-.058.169-.925-.214-.258-.095-.817-.624-.617-.017-1.424-.515-3.095-.441-1.39-.312h0l-.105-.468.522-.691-1.247-.468-.031-.488-.417-.061-.251.224-.868-.166.393-.346.014-.366.932-.353.2-.336.247.159.712-.075.047-.4-.634-.559-.071-.793-.749-.376-.085-.193-1.376-.027-.275-.437-1.542-.051-.539.115-.146-.136-1.251.325-1.3-.136-.169-.3-.024-.532.319-.054.539-1,.169-.078.325-.807.491-.478.068-.525-.247-.281.308-.281-.115-.468.478-.447.092-.247.661.02.119-.19-.261-.929.546.736.481-.542.732.105.9.281.061-.6-.319-.169-.108-.573-.644-.441.244-.071.153-.173-.227-1.007-.38-.254.061-.505-.207-.376.915-.471.115-.258.573.254.373-.525,1.878.054.105-.2-.234-.261.2-.552.719-.414.142-.193.515.285.153.359.4.075,1.363-.739-.041-.254.424.058.4-.322,0-.329-.268-.024-.031-.38.342-.027-.007-.251-.183-.1.153-.234.373.088.39-.583-.2-.159.085-.112-.353-.268-.478.085.247-.6.217.027-.047-.292L175.4,245l-.169-.295h0l-.092-.383.136-.169.939.332.43-.42V243.9l1.691-.064.132-1.261-.085-.3.166-.586-.075-.1.363-.18.02-.685.675-.095.478.156.81-.125.312-.386.308.17.034-.461.685-.176.339-.363.712,0,1.417-.776,1.186.268.258-.173,0-.563.163-.159.237-.007.325-.525-.2-.247.251-.031.2-.383-.156-.285.461-.546-.064-.454-.38-.332.119-.21.281-.112.224-.424-.634-.081-.132-1.749h0l1.234-.139.136.075.132.5.634.237.407.024,1.064-.691.02-.573.2-.156.458.264.373-.329.614-.23.183,0,.312.241.176,0,.108-.156-.088-.247.186-.081.251.1.18.312.417.142.244.386.569.054.312-.18.505-.051.329.288.037.417.624.281.753.047-.047.2.319-.176.268.122.244-.18.183.027.5-.207.42.356.146-.068.031-.146.536,0,.081-.441.241-.18.546-.024-.014-.217-.264-.224.031-.149.671-.112.291.2.166-.125v-.346l.434.075.312-.251.071.068.173-.081.132.153.369-.058.115-.234-.227-.119,0-.159.373.068.224-.061,0-.108-.285-.136.031-.214.468.01.163-.186-.068-.186-.224.02-.136-.346.4-.081h0l-.017.136.088.014.624-.214.058.312.224.308.454.132.241.586.227.064.071.339.583.376.563.759,1.02.169.271-.139.254.441,1.071.2.373-.105.241.2-.02-.708.41-.407.068-.43.139-.23-.275-.349.39-.332.366-.156.346-.505-.149-.373-.356-.376.186-.244.641-.108.4-.505.092-.366.234-.2.159-.058.566.146.346-.108.305-.268.617.186.512.014.563-.275.339.01.542-.176,1.6-1Z" transform="translate(-107.579 -149.681)" fill="#6cddb4"/>
  <path id="ZA-FS" d="M232.693,129.857l.3-.108-.007-.227.461-.088.088.047.034.254.719-.044.363.23.19-.349.844-.139.407-.475.3-.108.285.19-.071.38.291.6.407.407.414.193.217.464.261-.4.258.427.227.024.308-.156.305.237h0l.332.2.614-.02.278.546.305-.241.2-.01.325.427.305.153-.186.366.62-.468.373-.02.02-.19-.329-.044.278-.268.525.193.99.624.315-.051.264.139.169-.292.583-.23.22.034.261.281.251-.031.061.464.481.824.359-.176.481.024.339.346.288.041.146.2.258,0,.108.1-.037.278.536-.122.414.258.149.2.058.363.173.105-.047.19.576.5-.1.207.369.312.339.627.22.044.186-.156.275-.014.007-.251.173-.173.512.014h0l-.522.234.109.1-.092.336.468.207.125.491-.864.641v.183l.217.41-.047.607.186.356-.508.976.01.586-.271.278-.105.363.051.281.369.39-.034.58-.4.288-.207.529-.888.139-.715.929-.62.285-.369.454-.647.166-.329.427.092.373-.071.132-.339-.007-.173.169-.549-.068-.895.291-.359.393.007.393-.305.254-.258.8h0l-.353-.01-.193-.559-.766-.244-.176-.773-.4-.278-.583.305-1.061.007-.468.156-.366.464.01.258-.092.064-.4-.01-.207.108-.41-.136-.346.115-.163-.149-.6.525-.339.644-.2.058-.02.305-.207.136.024.193-.485.014-.115-.214-.234-.054-.224.281-.146.034.047.22-.132.092-.478-.146-.085.142-.159.024-.447-.186.142.244-.095.19-.176,0-.115.142.02.2-.112.139.095.108-.332.017.051.163-.136.095-.017.159-.275,0,.291.3-.305.037.132.085-.027.22-.376.22.024.285-.251.061-.546.522.024.146.146.092-.02.136-.393.339-.336.027.132.207-.251.19-.041.359-.271.017.142.39-.2.064-.325.43-.007.207-.471.163-.01.336-.346.007-.207.224-.163-.085-.227.22-.4-.061-.275.142-.108.261-.234.119-.125-.115-.1.352-.3-.2-.034.346.83,1.1L230.053,162l.647.637.2.827.59-.085.119.092-.363.705v.505l.19.115-.058.132.146.095-.085.132h0l-.4.085.139.346.22-.02.068.186-.163.186-.468-.01-.03.214.285.136v.112l-.22.061-.373-.068,0,.163.227.119-.115.234-.369.058-.132-.153-.173.081-.071-.068-.308.251-.437-.071v.346l-.166.125-.292-.2-.671.115-.031.149.264.224.01.217-.546.024-.244.183-.078.441-.536,0-.034.146-.146.068-.42-.356-.5.207-.183-.024-.244.18-.268-.122-.319.176.044-.2L224,168.64l-.624-.285-.034-.417-.329-.288-.505.051-.312.18-.569-.054-.247-.386-.417-.139-.176-.312-.251-.1-.186.081.088.247-.108.156-.176,0-.312-.237h-.186l-.61.234-.376.325-.458-.264-.2.156-.02.573-1.064.691-.407-.02-.637-.237-.132-.5-.132-.075-1.234.136h0l-.675-.583-.786-.061-.325-.515-.736-.454-.332-.576-.447-.254-.349-.346-.132-.5-.386-.169-.41-.708-.42-.275-.59-1.091-.254-.722-1.017-.285-.247-.725-.559-.139-.414-.566-.461-.095-.146-.271-.207.044-.2-.085-.678-.986-.061-.373,4.769-10.165-.464-.169.214-1.159-.088-.166.41-.461.281-1.237-.156-.017-.186-.41.329-.024.068-.23.261-.051.461-1.23-.237-.41h0l.739-.2.081-.261.23-.247-.071-.271.292-.461.39-.064.573-.522.088-.19-.105-.169.251-.349.661-.163.149-.261.505-.386.736-.295.376.031.319-.295.681.132.176-.3,1.095-.624.217-.031.339.41.525-.027.637.173.193.776.125.078.315-.081.034-.163-.166-.312.271-.559,1.024-.99.261-.071-.01-.359.319-.441.305-.095.254.125.241-.322.576.092.244-.1.437.1.159-.051-.59-.363.1-.295.278-.105,0-.508-.59-.634-.112-.346.108-.1.308.031.207-.2.119.02.261-.414.491.061.017-.529.363-.39.38-.085.132.207.105-.024.088-.312.319-.291.5-.261.193.119.322-.3.492.458.081-.132-.041-.62.132-.139.122.01.22.393.59.22.529-.081.43.078.169-.105.125.146-.068.254.095.037.237-.095.671-.881.288-.183.746.678.115-.01.22-.254.281-.064.366-.576,0-.461Z" transform="translate(-135.224 -85.176)" fill="#6cddb4"/>
  <path id="ZA-GT" d="M290.593,85.139,291.854,85l.251.668-.576.478-.559.061-.071,1.485-.183.3.156.261-.21.332.475,1.695,1.366.122.963-1.166.874-.237.21.739-.834.336-.1.346.234.281-.417.776.122.095-.054.417-.559-.095-.312,1.651-.515-.024-.149.078-.149-.288-.061.088-.359-.01-.719-.186-.329.3-.129.552-.349-.112-.051.132-.139-.044-.39.146.139.475.319.244.061.739.827.268.027.617.237.034.047.153.336.2.62-.268.559-.058.383.793-.983.481-.02.583-1.091.081-.078.295-.569-.081-.373.288,0,.308-.339.024-.041.38-.393.034-.044.153-.366.068-.18.627.169.078.068.261-.475.159,0,.146-.288.088,0,.342.183.108-.217.434h0l-.305-.237-.308.156-.227-.024-.258-.427-.261.4-.217-.464-.414-.193-.407-.407-.292-.6.071-.38-.285-.19-.3.108-.407.475-.844.139-.19.349-.363-.23-.719.044-.034-.254-.088-.047-.461.088.007.227-.3.108h0l.254-1.407-.305-.383.2-.047.173-.82.088-.024.125-.4-.841.031-.105-.292-.159-.129-1.234.275.081.251-1.163.447,0-.458-.373-.688.525-.5.7-.464-.308-1.342.583.068.027-.369.508-.075.42-1.749-.02-.671,1.532-.83.1.4.3.414.451-.241.034.386.746-.247.7-.092v-.19l.4.044,0-.207.23-.146-.139-.512.254-.092-.393-.993.705-.108.258-.169.115-.353.393-.281-.3-1.3.39-.156.278.047,0,.136-.234.078.081.292.193,0,.183-.186.468.031.708-.22v-.936h0l.654-.163.058.288,1.051-.207.064-.458.83,0,.149.23.369-.224.19-.373-.312.017Z" transform="translate(-183.738 -56.189)" fill="#6cddb4"/>
  <path id="ZA-LP" d="M286.771.115l.8.02.99.475.42.007.3.23.468.132.085.207.322.047.59.485.868-.139.573.542,1.047-.108.671-.241.444.095.569-.051.254.119.325-.224.41.068,1.02-.23.915.092,1.274.41.715-.163.38.319h.519l.441.7,2.19,7.06-.112,2.142.1.634,1.166,1.427.051.966.586,1.529,1,.705h0l-.356.169-.508-.064-.4.4-.075.369-.193.075-.268.02-.207-.41-.183.037-.319.342-.193-.2-.22.18-.173-.007-.661-.3-.39.41-.271-.092-.356.305-.481-.1-.186.214,1.966-.054v.525l-.475.444.132.346-.044.671-.383.407-.024.322-.363.264.485.3-.186.346.79.014-.393.373.207.312.759.444.515.092v.515l-.353.027.014.142-.376-.085v.254l-.461.336h-1.186l.156.359V25.8h.363v.217l.746-.1.078.675-.3.037.142.705-1.234-.136-.525.132-.173.295-1.166.105-.169-.1-.18-.437-.291-.058v-.756l-.251-.593-.183-.139-.525-.119-.142-.159v-.675l-.146-.119.2-.315v-.278l-.091-.237-.488-.1-.2-.217.346-.475-.725-.634-.434.163-.088.264-.641.268-.129-.275-.247.095-.007.593-.512.512-.349-.461-.936-.214-.336-.21-.142.407-.58.007-.447-.278-.034.607-.475-.366-.79.027.193.763-.105.254.481.407-.129.641-.519.068-2.2,1.807,0,.325-.61.058.02.312.329.092.234.522-.4.136,0,.23-.268.39-1.559-.271.037-.254-.58-.583-.22.037-.244-.305.064-.288-.386-.23,0-.295-.542.254-.047-.075.288-.481-.3-.81.014-.281-.908-.227-.505.136-.007.681-.186.088.075.281-.932.4-.349-.769-.105.034-.088-.176-.814-.146.142.722-.407-.129-.424.125-.424-.136-.576.1-.332.271-.82.325.014.732-1.295.305-.01.315-.841.261.044.563.139.044.915-.207.156-.22.952-.295h0l.308.654.312-.017-.19.373-.369.224-.149-.23-.83,0-.064.458-1.051.207-.058-.288-.654.163h0L274,29.435l-.8.088-.047-.491-.481-.081.088-.454.336-.078.431.322.434-.024.152-.63-1.271-.644-.79-.058-.288-.18-.275.058-.119.21L271,27.431l-.014-.2.251,0-.078-.288-.637-.149-.051.546-.6-.075-.383.23-.359-.356h-.414l-.292.183.027.549-.444.6-.271-.095-.186-.41-1.119.129-.536-.668-1.186-.054.007-.241-.268-.512-.634-.241-.2-1.63-.363.01-.044.488-.295-.007-.142.2-1.376.5-.156.254-.508-.034-.6-.454-.5.088-1.335-.186-.325-.654.041-1.03h0l.163-.014.078-.2.393-.261.4-.983.339-.366.4-.386.569-.163.136-.481.488-.356.41.02.393-.322.305-.112-.007-.4.139-.18L262.1,19.5l.142-.173-.156-.244.037-.308.207-.19.207-.607-.024-.322.125-.142.041-.427.183-.447-.01-.173-.132-.024.163-.166-.054-.251.149-.766.085-.258.214-.156.075-.454.23.169-.024.224.251-.095.18-.23-.166-.322.336-.169.108-.241.369-.054-.149-.21.024-.19.169.132.132-.095.115.1.159-.037.061-.081-.169-.217.142-.129.241.088.095-.159.241-.044.285-.21.214-.491.169.027v.2l.21.014.027-.268.234-.071-.054.251.173.058.264-.366.742-.061.258-.281.112-.79.207-.146-.01-.258.081-.058.393.1.342-.251.251.322.217-.041.1-.3.271-.247-.173-.329.21.058.224-.115.068-.237.627-.217.349-.305.027-.434.105-.169-.081-.3.305-.047.613-.468.081-.169-.075-.5.353-.139.61-.519.054-.542.359-.39.512-.23.166-.271.38-.163.21-.227.9-.058.559.156.359-.217.661-.047.786-.437.98-.271.007-.2.315-.156.441.125.491-.82-.061-.614.088-.19.166-.068.169-.471.176-.132,1.03-.027.434-.308.627.112.38-.041.169.146L284.9.383l.495.092.156-.227.329-.1.322.119L286.554,0Z" transform="translate(-170.53)" fill="#6cddb4"/>
  <path id="ZA-MP" d="M338.6,51.409l.115.281.193,1.827.654,1.088.2,1.437-.085,2.173L340,61.71l-.027,2.22-.075.98-.315.695-.068.4-.007.325.173.058.105,1.088-.654,1.878.386,1.176-.99.454-3.915-2.712-.915.237-.519.708-1.122,1-.136.641-1.176,2.4-.773.881-.559.936-.332,1.437.017,1.512.129,1.037.1.146.159-.027.532-.468.129.668.566.569.044.332-.159.42.071.22.81.807.719.952,1.23.495h0l-.959,1.237-.247-.02-.4-.325-.241.064-.2-.071-.864.207-.278-.2-.078-.315-.42.075-.325.278-.4-.281-.21.031-.237-.241-.451-.159-.417.041-.519.369-.668-.125-.532.071-.146-.058-.058-.322-.332-.068-.22.258-.288-.027-.41.119-.488.4-.383.105-.281.336-.736-.241-.437.251-.454-.061-.281-.18-.722.237-.41.786-.268-.125h0l-.512-.014-.173.173-.007.251-.275.014-.186.156-.22-.044-.339-.627-.369-.312.1-.207-.576-.5.047-.19-.173-.105-.058-.363-.149-.2L316.765,83l-.536.122.037-.278-.108-.1-.258,0-.146-.2-.288-.041-.339-.346-.481-.024-.359.176-.481-.824-.061-.464-.251.031-.261-.281-.22-.034-.583.23-.169.291L312,81.119l-.315.051-.99-.624-.525-.193-.278.268.329.044-.02.19-.373.02-.62.468.186-.366-.305-.153-.325-.427-.2.01-.305.241-.278-.546-.614.02-.332-.2h0l.217-.434-.183-.108,0-.342.288-.088,0-.146.475-.159-.068-.261-.169-.078.18-.627.366-.068.044-.153.393-.034.041-.38.339-.024,0-.308.373-.288.569.081.078-.295,1.091-.081.02-.583.983-.481-.383-.793-.559.058-.62.268-.336-.2-.047-.153-.237-.034-.027-.617-.827-.268-.061-.739-.319-.244-.139-.475.39-.146.139.044.051-.132.349.112.129-.552.329-.3.719.186.359.01L311.04,71l.149.288.149-.078.515.024.312-1.651.559.095.054-.417-.122-.095.417-.776-.234-.281.1-.346.834-.336-.21-.739-.874.237-.963,1.166-1.366-.122-.475-1.695.21-.332-.156-.261.183-.3.071-1.485.559-.061.576-.478-.251-.668-1.261.139h0l-.952.295-.156.22-.915.207-.139-.044-.044-.563.841-.261.01-.315,1.295-.305-.014-.732.82-.325.332-.271.576-.1.424.136.424-.125.407.129-.142-.722.813.146.088.176.105-.034.349.769.932-.4-.075-.281.186-.088.007-.681.505-.136.908.227-.014.281.3.81-.288.481.047.075.542-.254,0,.295.386.23-.064.288.244.305.22-.037.58.583-.037.254,1.559.271.268-.39,0-.23.4-.136-.234-.522-.329-.092-.02-.312.61-.058,0-.325,2.2-1.807.519-.068.129-.641-.481-.407.105-.254-.193-.763.79-.027.475.366.034-.607.447.278.58-.007.142-.407.336.21.936.214.349.461.512-.512.007-.593.247-.095.129.275.641-.268.088-.264L329,56.2l.725.634-.346.475.2.217.488.1.091.237v.278l-.2.315.146.119v.675l.142.159.525.119.183.139.251.593v.756l.292.058.18.437.169.1,1.166-.105.173-.295.525-.132,1.234.136-.142-.705.3-.037-.078-.675-.746.1v-.217h-.363v-.732l-.156-.359h1.186l.461-.336V58l.376.085-.014-.142.353-.027V57.4l-.515-.092-.759-.444-.207-.312.393-.373-.79-.014.186-.346-.485-.3.363-.264.024-.322.383-.407.044-.671-.132-.346.475-.444v-.525l-1.966.054.186-.214.481.1.356-.305.271.092.39-.41.661.3.173.007.22-.18.193.2.319-.342.183-.037.207.41.268-.02.193-.075.075-.369.4-.4.508.064.356-.169h0Z" transform="translate(-202.961 -33.879)" fill="#6cddb4"/>
  <path id="ZA-NC" d="M32.034,74.944l.244.21.264.024.227.247.21-.122.139.169.346.071.247.485.776.529.342.6.173.6.247.007.024.169-.156.186.061.207.288.129,0,.292.441.322-.18.227.22.1-.027.146.19.43.373.149.037.3.19.02-.051.244.129.044.21-.142.1.071-.041.159-.244.068-.1.39.024.119.305.19.214.386-.342.43.271.02-.058.505.376.4.105.407.2.132-.1.41.356-.2.01.5.2.2-.071.359.319.427-.186.464.159.264-.068.305.108.163-.129.271.105.136.173.007.014.241-.336.332-.1.556-.2.383-.217.1-.512.752-.108.332-.186.085-.183.281-.207.031-.092.308-.081.6.251.868,0,.485-.163.322.166.342-.017.6.183.166-.02.2.332.2.044.512.193-.312.475-.132.264-.247.159.017.088-.166.647-.251.363.139.281-.02.414.4.491.027.58.214.644-.247.481-.068.281.095.373-.234.444-.02.258,0,.871.349.261-.136.3,0,.353.183.641-.051.736-.647.017-.678-.122-.207.071-.183.288-.2,1.224.058.841-.363.288-.512.712-.725-.007-.214.159-.129.176-.729.3-.18L51,89.41l.969-.288-.01-.3.319-.156-.031-.193.268-.268.278-.02L52.938,88l.624.22.142-.092.122-.23.044-.505.214.047.234-.369h0l.539.031.071,2.912-.108.037-.1.251.139,1.169.075.1.315.027.861-.058.146.308.5-.031.142.085.122.336.125-.21.1.014.451.414.251.088-.353.8.3.451-.312.186-.041.393.251.508.034.475.373.458-.268.159-.38.034-.119.9.047.4.308.573.576-.159.1.305.329.2.654.915.752.041.336.115.627.573.332-.129.3.329-.129.325,1.1.007.4.386.895.38.1-.007.376-.651.681.142.305-.224-.041-.163-.319-.061.291-.5.458.18.322-.007-.163-.681.2-.373.654.441-.258.732-.064,1.62.539.19-.224,1.02.295.285,2.725-.62.2.342-.017.973-.708.82.149.258.156.119.183-.085.475.5-.285.607.227.024.512.529.285-.136.2-.485.39-.3.125-.427-.092-.444.247-.3.044-.217.285-.095.136-.275-.044-.441.163-.244-.075-.319-.173-.092-.095-.325.163-.4.5-.024.051-.224.119-.058.054.339.153.122-.092.224.054.166,2.047-.02.139.085-1.654,2-.146.027.969,1.912.186-.037.241-.224h0l.234.41L74.787,108l-.261.051-.068.23-.329.024.19.41.153.02-.281,1.234-.41.461.092.166-.214,1.159.464.169-4.766,10.165.058.373.678.99.2.085.207-.044.146.271.461.095.414.566.559.139.247.725,1.017.285.254.722.59,1.091.42.275.41.705.386.173.132.5.353.342.444.254.332.58.736.454.329.515.786.061.671.583h0l.132,1.749.634.081-.224.424-.281.112-.119.21.38.332.064.454-.461.546.156.285-.2.383-.251.031.2.247-.325.525-.237.007-.163.159,0,.563-.258.173-1.186-.268-1.417.776-.712,0-.339.363-.685.176-.034.461-.308-.169-.312.386-.81.125-.478-.156-.675.095-.02.685-.363.18.075.1-.166.586.085.3-.132,1.261-1.691.064v.169l-.43.42-.939-.332-.136.169.092.383h0l-.739.041-.373-.678.153-.21-.729.01-.139.654-.319.146-.149.366-.261.01-.169-.434-.383-.125.3-.234-.014-.21-.79-.342-.092-.342-.885.01-.224-.112-.136.054-.183.349-.217-.017-.258.132-.959-.186-.075.288-.61.034-.5.305-.153.644-.312.366,0,.285-1.268,1.119-.342-.515.136-.427-.78-.353-.712.217-.264-.119-.1-.339-.671.22-.319-.485-.844.159-.549-.176.241-.776-.4-.214-.02-.342-.671-.139-1.556-.895-.224.146-.115.607-.719,1.363-.051,1.058-.78-.339.142.532-.258.237.241.488-.129.41.417.441-.346.752-.169-.512-.549.254-.031.932-.59.23-.112.424-.6.112-.776-.312-.024-.2-.315-.142-.458.461-.512-.434-.671.237.085.844-.525.214-.244-.058-.383.434-.2-.112-.617.234-.261-.068-.163.532-.329.3-.4.125-.43,1.156.156.441-1.352.441-.346-.193-1.149.315-.369.305-.017.264.169.193.071.729-.207.691-.559.23-.136.305-.593-.068-.478.153-.353-.546-.566.488-.624.058-.353-.4-.305.051-.034-.468-.268-.105-.356-.593-.841-.353.017-.932-.471-.451-.525-1.929,0-.508.39.193.363-.373-.064-.295.566-.569.224.122-.122-.729-.22-.075.007-.325-.258-.166-.546.39-.186.383-.376-.01-.159.491-.864.793-.644.105-.068-.156-.39-.071-.02.261-.417.285-.268-.169-.258.241.146.285-.424.173-.251-.441-.2.159,0,.549-.329.593.285.593-.041.193-.664.43-.414-.847.166-1.169-.471-.891-.217-.2-.125-.756.854-.485-.2-.895.075-.8-.38-.081-.329-.376-.281.115-.115-.149-.325-.027-.251-.559-.434-.146.21-.942-.671.654L24,145.239l-.2-.085-.234.119-.427-.281-.522-.041.017-.62.424-.414L23,143.6l.122-.095-.414-1.054.2,0-.027-.641.149-.125-.139-.258-.163-.017.19-.41-.6-.186.258-.495-.1-.746-.38-.386.332-.468-.5-.186L21.71,138l.085-1.115-.441-.79.105-.546.607-.485-.895-.515.786-.251-.139-1.322-.8-.095-.705-.62.129-.383-.349-.546-.871-.193-.82-1.166-.654.176.007.63.224.715L16.893,130.2l.163.62-.278.553-.169.912-.885,1.525-.4.02-.407.336-.708-.627-.234-.078-.6.122-.037,1.285-1.024.122.407.773-.905.827.169.932-.6-.244h0l-.644-1.508-.614-.827-.312-.6-.458-1.258-.78-1.166.044-.315-.251-.278-.908-1.732,0-.146-.319-.434-.1-.773-.319-.671-.024-.305-.261-.383-.4-1.573-.305-.546-.308-.99-.386-2.034-.305-.41-.058-.552-.4-1.1-.041-.373-.593-.82-.058-.43-.258-.359.044-.268-.264-.942L2.539,116l-.254-.393.024-.23-.285-.529-.759-.593-.342-1.013.058-.39-.315-.22-.424-.556L0,111.944l.132-.532.122-.183.691-.095.356-.227.061-.244.193-.186.319-.159.146.017.108.254.237-.02.2-.366.2-.136-.044-.495.366-.319-.519-.695.041-.278.156-.092.227.169.173-.034.027-.3-.18-.234.417-.054-.163-.437.359.112.129-.075-.01-.834.142-.176.481.092.142-.176.271.142.19-.224L5.5,106l.3.241.136.268.485.237-.068.912.2.339.2.146L6.972,108l.278.034.258-.176.295.183.292.515,0,.369.261.383-.044.4-.163.234-.3.02-.186.346.058.244.281.258.078.5.437.014-.153,1.491.678-.244.536.058.183-.129.261.092.105.586.325.142.163,0,.315-.237.2.146.19-.166.281.159,1.18.031.681.461.569.675.268-.041.353.217.339,0,.149.169.2-.037.119-.149.295.037.149-.169.481.068.264-.078.186.153.471.047.356-.142.353.051.478-.325.593-.142.427.081.5-.136,1.9.234.329.214.21.508.2-.047.285.244.407.149.542-.136.319-.173.3-.353.437-.017V114.4l-.288-.173-.166-.491.21-.647.271-.146.407.088.552-.051.475-.247.3-.376.115-.722.339-.271.159-.458.539-.156.607.034.369-.319.641.2.159-.085.136-.319.278-.244.3.061.532-.2.261.041.031-36.017.6.722.132.007.142.305Z" transform="translate(0 -48.858)" fill="#6cddb4"/>
  <path id="ZA-NL" d="M348.577,132.755l.058.156.59.3.386-.275.481.173.888.122,3.827.061.624-.1-.092.332-.207.092-.095.325.064.156.234-.515-.285,1.8-1.515,4.189.031.38-.681,2.668-.108.773.044.407-.353,2.129-1.152,2.308.034.414-.23.986-.353.542-3.084,3.027-2.169.851-1.125,1.224-.617.864-.983.932-.275.424-.766.78-1.322,1.857-1.142,2.085-.169.539.075.329.146.051-.007.105-1.546,1.8-2.281,4.613-2.01,3.3-.776,1-.705,1.247-.275.214h0l-.2-.159-.1-.4-.264-.166.041-.315-.176-.169.085-.264-.064-.2-.217-.22-.23-.02-.115-.434-.363-.034-.119-.169-.244.064-.081-.281-.2-.081,0-.254-.3.115-.23-.122-.129-.159-.42-.193-.125-.339-.3-.024-.129.2-.088-.129-.576-.142-.132-.146-.519.105-.214-.22-.315-.085-.661-.464-.458.2h-.532l-.122.166-.169.031-.6-.3-1.559-.4.024-.536-.674-.332-.186.071-.1.658-.17.024-.786-.159-.363-.549-.4-.064-.169-.38.217-.417-.281-.539.312-.759.759.308.237-.62.407.108.119-.325.336-.21-.122-.312.481-.288.339.037.4-.519-.007-.373-.346-.217-.451-.58h0l.539-.407.21.058.112-.281.359-.095.044-.119-.156-.505-.23-.23.23-.9-.058-.329.244-.22.051-.322.237-.047.264-.214.481-.085,0-.393.329-.119-.237-.163.007-.746.247-.108.119-.22.708-.261.329-.847-.207-.241.031-.356-.312-.407-.156-.5-.437-.529.041-.366-.108-.18-.376-.122-.268.115-.288-.319-.071-.271-.478-.193-.234-.22-.512-.169-.071-.369-.393-.264-.247.047-.325-.373-.417-.81-.414-.359h0l.258-.8.3-.254,0-.39.356-.4.9-.292.546.068.173-.173.339.007.071-.132-.092-.373.329-.427.647-.169.369-.454.624-.285.712-.929.888-.139.207-.529.4-.288.031-.58-.369-.39-.051-.285.108-.359.271-.278-.014-.586.508-.98-.186-.356.047-.607-.217-.41v-.183l.861-.641-.122-.491-.468-.207.092-.336-.108-.1.522-.234h0l.268.125.41-.79.722-.234.281.176.454.064.373-.251.8.241.278-.336.386-.105.485-.4.41-.119.288.027.22-.258.332.068.058.322.146.054.532-.071.668.129.522-.373.417-.041.451.163.237.241.21-.034.4.281.329-.278.42-.078.078.319.275.2.864-.207.2.071.241-.064.4.322.251.02.959-1.237h0l1.864.7,4.162.014.068-2.515.271-2.457.759-.044.105.105Z" transform="translate(-210.881 -87.688)" fill="#6cddb4"/>
  <path id="ZA-NW" d="M193.407,70.58l-.041,1.03.325.654,1.335.186.5-.088.6.454.508.034.156-.254,1.376-.5.142-.2.295.007.044-.488.363-.01.2,1.63.634.241.268.512-.007.241,1.186.054.536.668,1.119-.129.186.41.271.095.444-.6-.027-.549.291-.183h.414l.359.356.383-.23.6.075.051-.546.637.149.078.288-.251,0,.014.2.369.041.119-.21.275-.058.288.18.79.058,1.271.644-.153.63-.434.024-.43-.322-.336.078-.088.454.481.081.047.491.8-.088.641,1.054h0v.936l-.708.22-.468-.031-.183.186-.193,0-.081-.291.234-.078,0-.136-.278-.047-.39.156.3,1.3-.393.281-.115.353-.258.169-.705.108.393.993-.254.092.139.512-.23.146,0,.207-.4-.044v.19l-.7.092-.746.247-.034-.386-.451.241-.3-.414-.1-.4-1.532.83.02.671-.42,1.749-.508.075-.027.369-.583-.068.308,1.342-.7.464-.525.5.373.688,0,.458,1.163-.447-.081-.251,1.234-.275.159.129.105.292.841-.031-.125.4-.088.024-.173.82-.2.047.305.383-.254,1.407h0l-.207.034,0,.461-.366.576-.281.064-.22.254-.115.01-.746-.678-.288.183-.671.881-.237.095-.095-.037.068-.254-.125-.146-.169.105-.43-.078-.529.081-.59-.22-.22-.393-.122-.01-.132.139.041.62-.081.132-.491-.458-.322.3-.193-.119-.5.261-.319.291-.088.312-.105.024-.132-.207-.38.085-.363.39-.017.529-.491-.061-.261.414-.119-.02-.207.2-.308-.031-.108.1.112.346.59.634,0,.508-.278.105-.1.295.59.363-.159.051-.437-.1-.244.1-.576-.092-.241.322-.254-.125-.305.095-.319.441.01.359-.261.071-1.024.99-.271.559.166.312-.034.163-.315.081-.125-.078-.193-.776-.637-.173-.525.027-.339-.41-.217.031-1.095.624-.176.3-.681-.132-.319.295-.376-.031-.736.295L184.2,101l-.149.261-.661.163-.251.349.105.169-.088.19-.573.522-.39.064-.291.461.071.271-.23.247-.081.261-.739.2h0l-.241.224-.186.037-.969-1.912.146-.027,1.657-2-.139-.085-2.047.02-.054-.166.095-.22-.153-.125-.054-.336-.119.058-.051.22-.505.024-.163.4.1.325.173.092.075.319-.163.244.044.441-.139.275-.285.095-.044.217-.247.3.095.447-.125.427-.39.3-.2.485-.285.136-.512-.529-.227-.024.285-.607-.475-.5-.183.088-.156-.119-.149-.261.708-.817.017-.973-.2-.346-2.725.624-.295-.288.224-1.02-.539-.19.064-1.62.258-.732-.654-.441-.2.373.163.681-.322.007-.458-.18-.292.5.319.061.037.159-.305.227-.681-.142-.376.647-.1.007-.895-.38-.4-.386-1.095-.007.125-.325-.3-.329-.332.129-.624-.573-.336-.115-.752-.041-.654-.915-.329-.2-.1-.305-.576.159L163.4,95.1l-.047-.4.119-.9.38-.034.268-.159-.376-.458-.034-.475-.251-.512.041-.39.308-.186-.3-.451.356-.8-.251-.088-.451-.417-.1-.014-.125.21-.122-.336-.142-.081-.5.027-.146-.308-.858.058-.315-.027-.075-.1-.139-1.169.1-.254.112-.037-.071-2.908-.542-.031h0l.054-.173.278-.186.017-.522.461-.027.044-.739.173-.207-.275-.214.027-.119.173-.058.01-.23.329-.2.058-.146-.369-.241.166-.132.129-.491.227-.088.19-.278.058-.3-.18-.108.01-.18.369-.2-.312-.288.39-.763-.119-.156.2-.112.264.075-.112-.163.2-.491.512-.363.068-.407.264-.088.027-.349.186.146.264-.18-.075.264.193.108.156-.207.176-.061.183.1.559-.373.359.051.349-.081.146.183.159-.092.085.092.3-.058.108.156.41.108.234-.342.19,0-.064.169.369.291-.01.264.281-.095.532.519.19-.115.075.122-.071.085.159.095.068.19.176-.051.034-.119.112.295.292.112.136-.108.264.23.108.336.485.146-.119.136.041.119.2.01.085.251.3.068.264.458.254.1.295-.2.339.068.017.271.43.027.047-.237.613.02.193-.193.01.18.3-.081.614.769.207-.014-.061.214.386-.071.01.2.451.288.447-.132.176-.149,1.827.817.308.041.4-.153.563.173.525-.149.407.031.129-.224.308-.237.322-.1.207-.285.308-.047.664.353,1.932.095,2.173-1.407.525-1.142-.014-.332.4-1.034.112-.8.278-.329,1.085-3.027.186-.186.058-.573-.224-.481.027-.485.258-.01.315-.315.81-.027Z" transform="translate(-105.926 -46.657)" fill="#6cddb4"/>
  <path id="ZA-WC" d="M84.745,276.036l-.424.261-.614.02-.308.139-.369.292.03.559-.092.071-.824-.051-.407-.142-1.491-.017-.471-.146-.376.183-.39-.254-1.017-.325-.254-.068-.092.064-1.556-.393h-.169l-.695.6-.169-.03-.217.115-1.061-.1-.732.068-.688.281-.315.342-.108.495.444.261-.424.18-.895.047-.712.38-.173.366.034.125.278.105-.342.186-.031.146.105.078-.244.054-.166.2-.495.186-1.037.149-1.4-.414-.81.122-.176.1.054.169-.129-.014-.186.217-.793.3-1.546-.624-1.125-.183-.844.078-.454.271-.02.132.18.295-.051.237-.163.156-1.624-.275-1.132.22-.481.2-.451.39-.237.495-.495.207-.146.2-.766.417-.085.393-.583.088-.722.4-.291.38,0,.295.142.081-.061.088-.258.02-.146.193-.207.027-.3-.207-.186.007-.075-.18-.451-.346-1.624-.044-.153.146.041.068-.342.095-.092-.092.119-.081-.078-.217-.207.037-.1-.292-.43-.193-.2-.42-.681-.2-.129-.336-.2-.173-1.064.275.119-.2.22-.058.22-.542.217-.159-.214-.695-.4-.576.129-.1.244.153.092-.122.227-.034-.047-.047-.583-.01-.169.085-.214-.078-.451.319-.305-.166-.552-.058-.068-.122.1-.1-.237-.308.275-.159-.061-.051.132-.3-.18.058-.234.258.047.176-.519-.271-.373.054-.244.19-.495-.071-.125.19-.3-.044,0,.19-.207-.125-.1.119-.159-.427.186-.1-.163-.441.339-.336.041-.159-.332-.654.441-.336-.481-.6-.393-.214-.491-.088-.888.03-1.03.254-.495.359-.115.566.275.136.193.437-.153.814.108.247.224.186-.21.01-.183-.23-.322-.156-.329-.637-.085-.712-.169-.2-.136.01-.153-.312.3-.261-.027-.339.163-.3-.047-.119-.119-.058-.092.163-.285-.247.21-.156.142-.393.21-.142-.014-.359.254-.424.275-.007.092.227.285-.132.139-.319-.02-.376-.342-.7-.078-.864-.356-.705-.19-.061-.159-.41-.441-.156.068-.6-.258-.552-.42-.464-.813-.6.132-.136-.014-.163-.546-1.017-.78-.834L35.5,267.2l.031-.169-.2-.159.058-.122.108.037.085-.332.139.037.166.268-.01.264.156.071-.061.169.247.112.342.488.156.01.139-.139-.01-.081-.108.091-.244-.18.068-.295-.532-.434.108-.556-.112-.261-.339-.292-.159-.01-.234.119-.068.332-.217.112-.186-.075.081-.288-.275-.251.1-.163.007-.169-.092-.024.108-.071,0-.153-.064-.169-.163-.071.207-.508-.339-.4.529-.278-.064-.583.21-.176,0-.129.268.088.132-.237.156.034-.031.254.349.149-.044.095.363.353.647-.071,1.044-1.041.505-.956.18-.583.081-.732-.19-1.468.207-.024.075-.353-.386-1.691-.031-.237.139-.1,0-.132-.434-1.363.129-.437-.383-.763-.1-.749-.834-1.319-.129-.407L34.885,248.7l-.19-.308.014-.417-.125-.207-.627-.62L33.6,246.6h0l.6.244-.169-.932.905-.827-.407-.773,1.024-.122.037-1.285.6-.122.234.078.708.627.4-.332.4-.02.885-1.525.169-.912.278-.552-.163-.62,1.088,1.291-.224-.715-.007-.63.654-.176.82,1.166.871.193.349.546-.129.383.705.62.8.095.139,1.322-.786.251.895.515-.607.485-.105.546.444.79-.085,1.115.217.529.5.186-.332.468.38.386.1.746-.258.495.6.186-.19.41.163.017.139.258-.149.125.027.641-.2,0,.414,1.054-.122.095.054.322-.424.414-.017.62.522.041.427.281.234-.119.2.085.047.146.671-.654-.21.942.434.146.251.559.325.027.115.149.281-.115.329.376.363.078-.075.8.2.895-.854.485.125.756.217.2.471.891-.166,1.169.414.847.664-.43.041-.193-.285-.593.329-.593,0-.549.2-.159.251.441.424-.173-.146-.285.258-.241.268.169.417-.285.02-.261.39.071.068.156.644-.105.864-.793.159-.491.376.01.186-.383.546-.39.258.166-.007.325.22.075.122.729-.224-.122-.566.569.064.295-.363.373-.39-.193,0,.508.525,1.929.471.451-.017.932.841.353.356.593.268.105.034.468.305-.051.353.4.624-.058.566-.488.353.546.478-.153.593.068.136-.305.559-.23.207-.691-.075-.729-.169-.193.017-.264.369-.305,1.149-.315.346.193,1.352-.441-.156-.441.43-1.156.4-.125.329-.3.163-.532.261.068.617-.234.2.112.383-.434.244.058.525-.214-.085-.844.671-.237.512.434.458-.461.315.142.024.2.776.312.6-.112.112-.424.59-.23.031-.932.549-.254.169.512.346-.752-.417-.441.129-.41-.241-.488.258-.237-.142-.532.78.339.051-1.058.719-1.363.115-.607.224-.146,1.556.895.671.139.02.342.4.214-.241.776.549.176.844-.159.319.485.671-.22.1.339.264.119.712-.217.78.353-.136.427.342.515,1.268-1.119,0-.285.312-.366.153-.644.5-.305.61-.034.075-.288.959.186.258-.132.217.017.183-.349.136-.054.224.112.885-.01.092.342.79.342.014.21-.3.234.383.125.169.434.261-.01.149-.366.319-.146.139-.654.729-.01-.153.21.373.678.739-.041h0l.169.295-.186.007.047.292-.217-.027-.247.6.478-.085.353.268-.085.112.2.159-.39.583-.373-.088-.153.234.183.1.007.251-.342.027.031.38.268.024,0,.329-.4.322-.424-.058.041.254-1.363.739-.4-.075-.153-.359-.515-.285-.142.193-.719.414-.2.552.234.261-.105.2-1.878-.054-.373.525-.573-.254-.115.258-.915.471.207.376-.061.505.38.254.227,1.007-.153.173-.244.071.644.441.108.573.319.169-.061.6-.9-.281-.732-.105-.481.542-.546-.736.261.929-.119.19-.661-.02-.092.247-.478.447.115.468-.308.281.247.281-.068.525-.491.478-.325.807-.169.078-.539,1-.319.054.024.532.169.3,1.3.136,1.251-.325.146.136.539-.115,1.542.051.275.437,1.376.027.085.193.749.376.071.793.634.559-.047.4-.712.075-.247-.159-.2.336-.932.353-.014.366-.393.346.868.166.251-.224.417.061.031.488,1.247.468-.522.691.105.468Z" transform="translate(-22.211 -158.189)" fill="#6cddb4"/>
</svg>
