<svg xmlns="http://www.w3.org/2000/svg" width="67.5" height="55.515" viewBox="0 0 67.5 55.515">
  <g id="Group_17346" data-name="Group 17346" transform="translate(-205.5 -670.853)">
    <g id="Group_17316" data-name="Group 17316" transform="translate(-564.606 -859.485)">
      <g id="Ellipse_42" data-name="Ellipse 42" transform="translate(788 1530.338)" fill="none" stroke="#6cddb4" stroke-width="3">
        <circle cx="7.414" cy="7.414" r="7.414" stroke="none"/>
        <circle cx="7.414" cy="7.414" r="5.914" fill="none"/>
      </g>
      <line id="Line_55" data-name="Line 55" x1="7" y2="2" transform="translate(783.5 1535.5)" fill="none" stroke="#6cddb4" stroke-linecap="round" stroke-width="3"/>
      <line id="Line_56" data-name="Line 56" x1="6" y1="2" transform="translate(783.5 1537.5)" fill="none" stroke="#6cddb4" stroke-linecap="round" stroke-width="3"/>
      <g id="Path_27212" data-name="Path 27212" transform="translate(819.096 1563.445) rotate(-163)" fill="none">
        <path d="M14.408,0c7.957,0,14.408,4.569,14.408,10.206S22.366,20.412,14.408,20.412-6.91,10.131-6.783,10.257,6.451,0,14.408,0Z" stroke="none"/>
        <path d="M 14.40846252441406 2.999998092651367 C 12.81236171722412 2.999998092651367 9.798122406005859 3.614887237548828 4.502342224121094 6.544218063354492 C 2.245157241821289 7.792763710021973 0.1285629272460938 9.157533645629883 -1.532796859741211 10.28257942199707 C 0.3815517425537109 11.56294250488281 2.009819030761719 12.54282569885254 3.193271636962891 13.21947860717773 C 7.921272277832031 15.92277812957764 11.90424156188965 17.41155815124512 14.40846252441406 17.41155815124512 C 17.59441184997559 17.41155815124512 20.6757926940918 16.52320861816406 22.86251258850098 14.97427749633789 C 23.96577262878418 14.19279861450195 25.81661224365234 12.53412818908691 25.81661224365234 10.20577812194824 C 25.81661224365234 7.877418518066406 23.96577262878418 6.218748092651367 22.86251258850098 5.437277793884277 C 20.6757926940918 3.888347625732422 17.59441184997559 2.999998092651367 14.40846252441406 2.999998092651367 M 14.40846252441406 -1.9073486328125e-06 C 22.3658618927002 -1.9073486328125e-06 28.81661224365234 4.569277763366699 28.81661224365234 10.20577812194824 C 28.81661224365234 15.8422679901123 22.3658618927002 20.41155815124512 14.40846252441406 20.41155815124512 C 6.569072723388672 20.41155815124512 -6.514791488647461 10.43323707580566 -6.780160903930664 10.25826168060303 C -6.515487670898438 10.27315330505371 6.493820190429688 -1.9073486328125e-06 14.40846252441406 -1.9073486328125e-06 Z M -6.784160614013672 10.25596904754639 C -6.783823013305664 10.25597763061523 -6.782495498657227 10.25672245025635 -6.780160903930664 10.25826168060303 C -6.783224105834961 10.25809860229492 -6.784608840942383 10.25595951080322 -6.784160614013672 10.25596904754639 Z" stroke="none" fill="#6cddb4"/>
      </g>
      <g id="Path_27213" data-name="Path 27213" transform="translate(785.658 1546.629) rotate(60)" fill="none">
        <path d="M6,0c4.8,0,8.688,2.755,8.688,6.154S10.794,12.309,6,12.309-6.86,6.109-6.784,6.185,1.2,0,6,0Z" stroke="none"/>
        <path d="M 5.995350360870361 2.999996185302734 C 5.322230339050293 2.999996185302734 3.725980281829834 3.258325576782227 0.5982303619384766 4.988425731658936 C -0.1098423004150391 5.380090713500977 -0.7959785461425781 5.792389392852783 -1.431316375732422 6.19295072555542 C 1.694181442260742 8.121074676513672 4.466692924499512 9.308555603027344 5.995350360870361 9.308555603027344 C 7.67564058303833 9.308555603027344 9.282870292663574 8.852725982666016 10.40492057800293 8.05793571472168 C 10.78942012786865 7.785575866699219 11.68374061584473 7.05487585067749 11.68374061584473 6.154275894165039 C 11.68374061584473 5.253675937652588 10.78942012786865 4.522975921630859 10.40492057800293 4.250616073608398 C 9.282870292663574 3.455825805664062 7.67564058303833 2.999996185302734 5.995350360870361 2.999996185302734 M 5.995350360870361 -3.814697265625e-06 C 10.79382038116455 -3.814697265625e-06 14.68374061584473 2.755366325378418 14.68374061584473 6.154275894165039 C 14.68374061584473 9.553186416625977 10.79382038116455 12.30855560302734 5.995350360870361 12.30855560302734 C 1.268059253692627 12.30855560302734 -6.621756553649902 6.291431427001953 -6.781778335571289 6.185929298400879 C -6.620991706848145 6.194282531738281 1.222664833068848 -2.86102294921875e-06 5.995350360870361 -3.814697265625e-06 Z M -6.784189224243164 6.184546947479248 C -6.78398609161377 6.18455171585083 -6.783185958862305 6.185000896453857 -6.781778335571289 6.185929298400879 C -6.783625602722168 6.185829639434814 -6.78446102142334 6.184539794921875 -6.784189224243164 6.184546947479248 Z" stroke="none" fill="#6cddb4"/>
      </g>
      <line id="Line_57" data-name="Line 57" y2="7" transform="translate(808.5 1558.5)" fill="none" stroke="#6cddb4" stroke-linecap="round" stroke-width="3"/>
      <line id="Line_58" data-name="Line 58" y2="5" transform="translate(787 1560.5)" fill="none" stroke="#6cddb4" stroke-linecap="round" stroke-width="3"/>
    </g>
    <line id="Line_59" data-name="Line 59" x2="41" transform="translate(207 716.867)" fill="none" stroke="#6cddb4" stroke-linecap="round" stroke-width="3"/>
    <line id="Line_60" data-name="Line 60" x2="41" transform="translate(230.5 724.867)" fill="none" stroke="#6cddb4" stroke-linecap="round" stroke-width="3"/>
    <line id="Line_61" data-name="Line 61" x2="16" transform="translate(207 724.867)" fill="none" stroke="#6cddb4" stroke-linecap="round" stroke-width="3"/>
  </g>
</svg>
