<svg xmlns="http://www.w3.org/2000/svg" xmlns:xlink="http://www.w3.org/1999/xlink" width="77.261" height="76.71" viewBox="0 0 77.261 76.71">
  <defs>
    <clipPath id="clip-path">
      <rect id="Rectangle_3740" data-name="Rectangle 3740" width="36.261" height="31.867" transform="translate(-10 -5)" fill="none" stroke="#6cddb4" stroke-width="3"/>
    </clipPath>
  </defs>
  <g id="Group_17398" data-name="Group 17398" transform="translate(-834.5 -868.29)">
    <g id="Ellipse_50" data-name="Ellipse 50" transform="translate(846.5 898.133)" fill="none" stroke="#6cddb4" stroke-width="3">
      <circle cx="8.5" cy="8.5" r="8.5" stroke="none"/>
      <circle cx="8.5" cy="8.5" r="7" fill="none"/>
    </g>
    <g id="Ellipse_51" data-name="Ellipse 51" transform="translate(887.5 898.133)" fill="none" stroke="#6cddb4" stroke-width="3">
      <circle cx="8.5" cy="8.5" r="8.5" stroke="none"/>
      <circle cx="8.5" cy="8.5" r="7" fill="none"/>
    </g>
    <g id="Group_17357" data-name="Group 17357" transform="translate(846.5 920.639)">
      <g id="Group_15877" data-name="Group 15877" transform="translate(-2 -2.506)" clip-path="url(#clip-path)">
        <path id="Path_27199" data-name="Path 27199" d="M.5,11.778V9.947A9.447,9.447,0,0,1,9.947.5h0A9.447,9.447,0,0,1,19.4,9.947v1.831" transform="translate(0.896 0.469)" fill="none" stroke="#6cddb4" stroke-miterlimit="10" stroke-width="3"/>
      </g>
    </g>
    <g id="Group_17358" data-name="Group 17358" transform="translate(887.5 920.639)">
      <g id="Group_15877-2" data-name="Group 15877" transform="translate(-2 -2.506)" clip-path="url(#clip-path)">
        <path id="Path_27199-2" data-name="Path 27199" d="M.5,11.778V9.947A9.447,9.447,0,0,1,9.947.5h0A9.447,9.447,0,0,1,19.4,9.947v1.831" transform="translate(0.896 0.469)" fill="none" stroke="#6cddb4" stroke-miterlimit="10" stroke-width="3"/>
      </g>
    </g>
    <path id="Icon_awesome-comment" data-name="Icon awesome-comment" d="M16.2,2.25C7.25,2.25,0,8.14,0,15.409a11.68,11.68,0,0,0,3.606,8.269A16.1,16.1,0,0,1,.139,29.739a.5.5,0,0,0-.095.55.5.5,0,0,0,.462.3,14.468,14.468,0,0,0,8.9-3.252A19.3,19.3,0,0,0,16.2,28.569c8.946,0,16.2-5.89,16.2-13.159S25.142,2.25,16.2,2.25Z" transform="translate(864.608 867.54)" fill="none" stroke="#6cddb4" stroke-width="3"/>
  </g>
</svg>
