<svg xmlns="http://www.w3.org/2000/svg" xmlns:xlink="http://www.w3.org/1999/xlink" width="65" height="59.184" viewBox="0 0 65 59.184">
  <defs>
    <clipPath id="clip-path">
      <rect id="Rectangle_3740" data-name="Rectangle 3740" width="36.205" height="31.819" transform="translate(0)" fill="none" stroke="#6cddb4" stroke-width="3"/>
    </clipPath>
  </defs>
  <g id="Group_19992" data-name="Group 19992" transform="translate(-1043 -875.434)">
    <g id="Group_19979" data-name="Group 19979" transform="translate(587 -1.316)">
      <g id="Group_17356" data-name="Group 17356" transform="translate(-195 -1346.75)">
        <rect id="Rectangle_3741" data-name="Rectangle 3741" width="62" height="44" rx="2" transform="translate(652.5 2225)" fill="none" stroke="#6cddb4" stroke-linecap="round" stroke-width="3"/>
        <g id="Group_15885" data-name="Group 15885" transform="translate(0.5 6)">
          <line id="Line_44" data-name="Line 44" y2="9" transform="translate(682.5 2263.5)" fill="none" stroke="#6cddb4" stroke-linecap="round" stroke-width="3"/>
          <line id="Line_45" data-name="Line 45" x2="16" transform="translate(674.5 2272.5)" fill="none" stroke="#6cddb4" stroke-linecap="round" stroke-width="3"/>
        </g>
      </g>
      <g id="Ellipse_29" data-name="Ellipse 29" transform="translate(488.481 889.138)" fill="none" stroke="#6cddb4" stroke-width="3">
        <ellipse cx="8.487" cy="8.487" rx="8.487" ry="8.487" stroke="none"/>
        <ellipse cx="8.487" cy="8.487" rx="6.987" ry="6.987" fill="none"/>
      </g>
      <g id="Group_15881" data-name="Group 15881" transform="translate(476.5 904.115)">
        <g id="Group_15877" data-name="Group 15877" transform="translate(0 0)" clip-path="url(#clip-path)">
          <path id="Path_27199" data-name="Path 27199" d="M.5,11.761V9.933A9.433,9.433,0,0,1,9.932.5h0a9.433,9.433,0,0,1,9.432,9.433v1.828" transform="translate(10.879 5.46)" fill="none" stroke="#6cddb4" stroke-miterlimit="10" stroke-width="3"/>
        </g>
      </g>
    </g>
    <path id="Icon_awesome-comment" data-name="Icon awesome-comment" d="M10.8,2.25c5.966,0,10.8,4.053,10.8,9.056A8.16,8.16,0,0,1,19.2,17a11.147,11.147,0,0,0,2.312,4.171.354.354,0,0,1,.063.379.33.33,0,0,1-.308.209,9.481,9.481,0,0,1-5.932-2.238,12.516,12.516,0,0,1-4.532.845C4.835,20.361,0,16.308,0,11.306S4.835,2.25,10.8,2.25Z" transform="translate(1050.413 880.41)" fill="none" stroke="#6cddb4" stroke-width="3"/>
    <g id="Group_19991" data-name="Group 19991">
      <ellipse id="Ellipse_59" data-name="Ellipse 59" cx="1.987" cy="1.987" rx="1.987" ry="1.987" transform="translate(1054.228 889.822)" fill="#6cddb4"/>
      <ellipse id="Ellipse_60" data-name="Ellipse 60" cx="1.987" cy="1.987" rx="1.987" ry="1.987" transform="translate(1059.228 889.822)" fill="#6cddb4"/>
      <ellipse id="Ellipse_61" data-name="Ellipse 61" cx="1.987" cy="1.987" rx="1.987" ry="1.987" transform="translate(1064.228 889.822)" fill="#6cddb4"/>
    </g>
  </g>
</svg>
